<?xml version="1.0" encoding="utf-8"?>
<!-- Generator: Adobe Illustrator 23.0.3, SVG Export Plug-In . SVG Version: 6.00 Build 0)  -->
<svg version="1.1" id="Layer_1" xmlns="http://www.w3.org/2000/svg" xmlns:xlink="http://www.w3.org/1999/xlink" x="0px" y="0px"
	 width="500px" height="500px" viewBox="0 0 500 500" style="enable-background:new 0 0 500 500;" xml:space="preserve">
<style type="text/css">
	.st0{fill-rule:evenodd;clip-rule:evenodd;fill:#D1D1D1;}
	.st1{fill:#B5B5B5;}
	.st2{fill-rule:evenodd;clip-rule:evenodd;fill:#B5B5B5;}
	.st3{fill:#949494;}
	.st4{display:none;}
	.st5{display:inline;fill:none;stroke:#C2C2C1;stroke-width:2;stroke-miterlimit:10;}
	.st6{display:inline;fill:#D4D3CF;}
	.st7{fill:#D1D1D1;}
	.st8{fill:#E6E6E6;}
	.st9{fill:#F3F3F3;}
	.st10{fill-rule:evenodd;clip-rule:evenodd;fill:#E7E7E7;}
	.st11{fill-rule:evenodd;clip-rule:evenodd;fill:#F4F4F4;}
	.st12{fill-rule:evenodd;clip-rule:evenodd;fill:#DBDBDB;}
	.st13{fill-rule:evenodd;clip-rule:evenodd;fill:#F3F3F3;}
	.st14{fill-rule:evenodd;clip-rule:evenodd;fill:url(#Kassi_1_);}
	.st15{fill-rule:evenodd;clip-rule:evenodd;fill:#FF6900;}
</style>
<g id="Omena">
	<circle class="st0" cx="245.9" cy="150.6" r="23.9"/>
	<path class="st1" d="M249.3,130.3l-1.1,0.7c0.1,0.2,2.8,3.6,8.5,3.6l0.4-1.3C251.5,133.6,249.4,130.4,249.3,130.3z"/>
	<path class="st2" d="M252.1,132.6c2-1.8,4.1-4.3,3.6-5.8l0.2-0.3c1.5,2.4-1.4,4.3-3.3,6.3L252.1,132.6z"/>
</g>
<g id="Salaatti">
	<path class="st3" d="M211.1,126.6c-0.1,0-0.1,0-0.2,0c1-5.4-1.9-10.9-7.2-13c-6-2.4-12.8,0.6-15.2,6.6c-0.9,2.3-1,4.7-0.5,7
		c-2-1.6-4.5-2.7-7.3-2.7c-6.5,0-11.7,5.2-11.7,11.7s5.2,11.7,11.7,11.7s11.7-5.2,11.7-11.7c0-0.9-0.1-1.8-0.3-2.7
		c0.9,0.7,1.9,1.4,3,1.8c0.1,0,0.1,0,0.2,0c-1,5.4,1.9,10.9,7.2,13c6,2.4,12.8-0.6,15.2-6.6C220.1,135.8,217.2,129,211.1,126.6z"/>
	<path class="st3" d="M217.8,139.4c-0.1,0-0.1,0-0.2,0c1-5.4-1.9-10.9-7.2-13c-6-2.4-12.8,0.6-15.2,6.6c-0.9,2.3-1,4.7-0.5,7
		c-2-1.6-4.5-2.7-7.3-2.7c-6.5,0-11.7,5.2-11.7,11.7s5.2,11.7,11.7,11.7s11.7-5.2,11.7-11.7c0-0.9-0.1-1.8-0.3-2.7
		c0.9,0.7,1.9,1.4,3,1.8c0.1,0,0.1,0,0.2,0c-1,5.4,1.9,10.9,7.2,13c6,2.4,12.8-0.6,15.2-6.6S223.9,141.8,217.8,139.4z"/>
	<rect x="181.5" y="130" class="st3" width="25.5" height="44.3"/>
</g>
<g id="Maito" class="st4">
	<line class="st5" x1="369.7" y1="95.9" x2="371.4" y2="89"/>
	<path class="st6" d="M372.2,94.3c-0.9-1.4-2.8-1.8-4.3-1l-20.9,11l-20.4,10.4c-0.8,0.4-1.5,1.2-1.7,2.1l-39,155
		c-0.4,1.8,0.6,3.6,2.4,4l67.6,17c1.8,0.4,3.6-0.6,4-2.4l39-155.3c0.2-0.9,0.1-1.9-0.5-2.7L372.2,94.3z"/>
	<polygon class="st6" points="367,109 339.8,118.8 385.3,130.2 	"/>
</g>
<g id="Maito_2">
	
		<rect x="263.1" y="160.4" transform="matrix(0.1961 -0.9806 0.9806 0.1961 85.6124 496.6454)" class="st7" width="165.2" height="71.4"/>
	<polygon class="st8" points="400.4,98.9 333.6,85.6 326.9,108.1 396.9,122.1 	"/>
	<polygon class="st9" points="402.9,86 337,72.6 333.7,85.6 400.4,98.9 	"/>
</g>
<g id="Leipä">
	<path class="st10" d="M173.5,225.5L173.5,225.5c-18.4,8.6-22.2-3.8-30.8-22.2L94.6,100C86,81.6,75.8,64,94.3,55.4l0,0
		c18.4-8.6,40.4-0.6,48.9,17.8l48.1,103.3C199.9,195,191.9,217,173.5,225.5z"/>
	<path class="st0" d="M110.8,52.9c13.7,0.2,26.7,8.1,32.9,21.3l48.1,103.3c5.2,11.2,4.3,23.6-1.3,33.6"/>
</g>
<path class="st11" d="M183.3,207.5"/>
<g id="Kahvat">
	<path class="st12" d="M220.6,110.6"/>
	<polygon class="st13" points="285.8,57.8 284.5,56.3 215.8,55.7 215,56.6 196.7,75.7 196.7,77 303.9,78 303.9,77.4 	"/>
	<g>
		
			<rect x="166.1" y="107" transform="matrix(9.395760e-03 -1 1 9.395760e-03 87.2737 321.8065)" class="st13" width="79.9" height="19.7"/>
		
			<rect x="253.7" y="107.8" transform="matrix(9.395760e-03 -1 1 9.395760e-03 173.2535 410.2)" class="st13" width="79.9" height="19.7"/>
		
			<rect x="197.1" y="76.4" transform="matrix(9.395760e-03 -1 1 9.395760e-03 118.27 291.7939)" class="st0" width="18.6" height="19.6"/>
		
			<rect x="284.7" y="77.1" transform="matrix(9.395760e-03 -1 1 9.395760e-03 204.2999 380.1386)" class="st0" width="18.6" height="19.7"/>
	</g>
</g>
<linearGradient id="Kassi_1_" gradientUnits="userSpaceOnUse" x1="249.95" y1="796.8898" x2="249.95" y2="497.8898" gradientTransform="matrix(1 0 0 1 0 -341.8898)">
	<stop  offset="0" style="stop-color:#E7E7E7"/>
	<stop  offset="1" style="stop-color:#F9F9F9"/>
</linearGradient>
<path id="Kassi" class="st14" d="M383.6,455H116.4c-8.5,0-15.4-6.7-15.4-14.9V156h89.6h208.3v284.2C398.9,448.3,392.1,455,383.6,455
	z"/>
<g>
	<g>
		<path id="SVGID_1_" class="st15" d="M250,276.6c0.1-0.1,0.2-0.2,0.3-0.3c8.9-9,23.2-9,32.1,0c8.8,9,8.8,23.6,0,32.6L250,342
			l-32.4-33c-8.8-9-8.8-23.6,0-32.6c8.9-9,23.2-9,32.1,0C249.8,276.4,249.9,276.5,250,276.6z"/>
	</g>
</g>
</svg>
