<?xml version="1.0" encoding="utf-8"?>
<!-- Generator: Adobe Illustrator 23.1.1, SVG Export Plug-In . SVG Version: 6.00 Build 0)  -->
<svg version="1.1" id="Layer_1" xmlns="http://www.w3.org/2000/svg" xmlns:xlink="http://www.w3.org/1999/xlink" x="0px" y="0px"
	 width="500px" height="500px" viewBox="0 0 500 500" style="enable-background:new 0 0 500 500;" xml:space="preserve">
<style type="text/css">
	.st0{fill-rule:evenodd;clip-rule:evenodd;fill:#DEDEDE;}
	.st1{fill-rule:evenodd;clip-rule:evenodd;fill:#BEBEBE;}
	.st2{fill-rule:evenodd;clip-rule:evenodd;fill:#EAEAEA;}
	.st3{fill-rule:evenodd;clip-rule:evenodd;fill:#F1F1F1;}
	.st4{fill-rule:evenodd;clip-rule:evenodd;fill:#E0E0E0;}
	.st5{fill:none;stroke:#D1D1D1;stroke-width:2;stroke-linecap:round;stroke-miterlimit:10;}
	.st6{fill:none;stroke:#D1D1D1;stroke-width:2;stroke-linecap:round;stroke-miterlimit:10;stroke-dasharray:0,10.0835;}
	.st7{fill:none;stroke:#D1D1D1;stroke-linecap:round;stroke-miterlimit:10;}
	.st8{enable-background:new    ;}
	.st9{fill:#FF6900;}
</style>
<g id="Koneen_pohja">
	<g id="Koneen_pohja_1_">
		<g>
			<path id="Reikä" class="st0" d="M372.6,162.9H44.4c-7.1,0-12.9-5.8-12.9-12.9l0,0c0-7.1,5.8-12.9,12.9-12.9h328.2
				c7.1,0,12.9,5.8,12.9,12.9l0,0C385.5,157.1,379.7,162.9,372.6,162.9z"/>
			<path id="Beissi_1_" class="st1" d="M350.4,148.4c1.3,0,2.3,0.7,2.3,1.7l0,0c0,0.9-1,1.7-2.3,1.7H66.7c-1.3,0-2.3-0.7-2.3-1.7
				l0,0c0-0.9,1-1.7,2.3-1.7"/>
		</g>
	</g>
</g>
<g id="Kuitti1">
	<g id="Pohja_2_">
		<path class="st2" d="M106.1,29.6c-11.8,0-21.4,10.2-21.4,22.7c0,18.4,0,73.5,0,73.5c0,6.3-2.6,12.2-7,16l-9.5,8.2h250
			c10.1,0,18.1-9,18.1-20V51.3c0-7.6,3.8-14.6,9.8-18l6.7-3.7C352.8,29.6,167.7,29.6,106.1,29.6z"/>
	</g>
</g>
<g id="Kuitti_2">
	<g id="Kuitti">
		<path class="st3" d="M348.8,29.6H110.2c11,0,20,9.7,20,21.7v382.2l6-5.4l6.5-5.9l6.5,5.9l6.5,5.9l6.5-5.9l6.5-5.9l6.5,5.9l6.5,5.9
			l6.5-5.9l6.5-5.9l6.5,5.9l6.5,5.9l6.5-5.9l6.5-5.9l6.5,5.9l6.5,5.9l6.5-5.9l6.5-5.9l6.5,5.9l6.5,5.9l6.5-5.9l6.5-5.9l6.5,5.9
			l6.5,5.9l6.5-5.9l6.5-5.9l6.5,5.9l6.5,5.9l6.5-5.9l6.5-5.9l6.5,5.9l6.5,5.9l6.5-5.9l6.5-5.9l6.5,5.9l6.5,5.9l6.5-5.9l6.5-5.9
			l6.5,5.9l6.5,5.9h-14.2h-12.9h-12.9h-12.9H324h-12.9h-12.9h-12.9h-12.9h-12.9h-12.9h-12.9h-12.9h-12.9H195h-12.9h-13.5h-13h-12.9
			h-12.4l0,0h4.2H389V73C388.8,49,370.9,29.6,348.8,29.6z"/>
	</g>
</g>
<g id="Tekstit_1_">
	<g id="Tekstit">
		<g>
			<rect x="145.4" y="147.8" class="st4" width="97.1" height="8.6"/>
			<rect x="335.3" y="147.8" class="st4" width="37.4" height="8.6"/>
			<g>
				<g>
					<line class="st5" x1="252.4" y1="152.1" x2="252.4" y2="152.1"/>
					<line class="st6" x1="262.5" y1="152.1" x2="317.9" y2="152.1"/>
					<line class="st5" x1="323" y1="152.1" x2="323" y2="152.1"/>
				</g>
			</g>
		</g>
		<g>
			<rect x="145.4" y="173.4" class="st4" width="97.1" height="8.6"/>
			<rect x="335.3" y="173.4" class="st4" width="37.4" height="8.6"/>
			<g>
				<g>
					<line class="st5" x1="252.4" y1="177.7" x2="252.4" y2="177.7"/>
					<line class="st6" x1="262.5" y1="177.7" x2="317.9" y2="177.7"/>
					<line class="st5" x1="323" y1="177.7" x2="323" y2="177.7"/>
				</g>
			</g>
		</g>
		<g>
			<rect x="145.4" y="199.1" class="st4" width="97.1" height="8.6"/>
			<rect x="335.3" y="199.1" class="st4" width="37.4" height="8.6"/>
			<g>
				<g>
					<line class="st5" x1="252.4" y1="203.4" x2="252.4" y2="203.4"/>
					<line class="st6" x1="262.5" y1="203.4" x2="317.9" y2="203.4"/>
					<line class="st5" x1="323" y1="203.4" x2="323" y2="203.4"/>
				</g>
			</g>
		</g>
		<g>
			<rect x="145.4" y="224.7" class="st4" width="97.1" height="8.6"/>
			<rect x="335.3" y="224.7" class="st4" width="37.4" height="8.6"/>
			<g>
				<g>
					<line class="st5" x1="252.4" y1="229" x2="252.4" y2="229"/>
					<line class="st6" x1="262.5" y1="229" x2="317.9" y2="229"/>
					<line class="st5" x1="323" y1="229" x2="323" y2="229"/>
				</g>
			</g>
		</g>
		<g>
			<rect x="145.4" y="250.4" class="st4" width="97.1" height="8.6"/>
			<rect x="335.3" y="250.4" class="st4" width="37.4" height="8.6"/>
			<g>
				<g>
					<line class="st5" x1="252.4" y1="254.7" x2="252.4" y2="254.7"/>
					<line class="st6" x1="262.5" y1="254.7" x2="317.9" y2="254.7"/>
					<line class="st5" x1="323" y1="254.7" x2="323" y2="254.7"/>
				</g>
			</g>
		</g>
		<rect x="145.4" y="276" class="st4" width="97.1" height="8.6"/>
		<rect x="145.4" y="322.5" class="st4" width="52.9" height="8.6"/>
		<rect x="212.2" y="380" class="st4" width="97.1" height="8.6"/>
		<rect x="290" y="320.4" class="st4" width="82.7" height="12.8"/>
		<rect x="335.3" y="276" class="st4" width="37.4" height="8.6"/>
		<g>
			<g>
				<line class="st5" x1="252.4" y1="280.3" x2="252.4" y2="280.3"/>
				<line class="st6" x1="262.5" y1="280.3" x2="317.9" y2="280.3"/>
				<line class="st5" x1="323" y1="280.3" x2="323" y2="280.3"/>
			</g>
		</g>
		<line class="st7" x1="145.4" y1="302.7" x2="372.8" y2="302.7"/>
		<line class="st7" x1="145.4" y1="346.7" x2="372.8" y2="346.7"/>
		<g class="st8">
			<path class="st9" d="M244,101.5c-1.4,1.7-2.8,2.9-4.3,3.8s-3,1.3-4.5,1.3c-1.7,0-3-0.5-3.9-1.4c-0.9-0.9-1.8-2.4-2.4-4.3
				l-1.1-3.2c-0.5,1.4-1.1,2.6-1.6,3.7c-0.6,1.1-1.3,2-2.1,2.8c-0.8,0.8-1.7,1.4-2.7,1.8c-1,0.4-2.2,0.6-3.6,0.6
				c-1.2,0-2.2-0.2-3.1-0.5c-0.9-0.3-1.7-0.8-2.3-1.3c-0.6-0.5-1.1-1.2-1.5-1.9c-0.4-0.7-0.6-1.4-0.7-2.2c-0.1-0.5,0.1-0.8,0.5-1
				l2.9-1c0.2-0.1,0.5,0,0.6,0.1c0.2,0.1,0.3,0.3,0.3,0.5c0,0.3,0.2,0.7,0.3,1s0.4,0.6,0.7,0.9c0.3,0.3,0.6,0.5,1,0.6
				c0.4,0.2,0.8,0.3,1.3,0.3c1.2,0,2.2-0.5,3.1-1.5c0.8-1,1.6-2.5,2.3-4.6c0.2-0.7,0.5-1.6,0.8-2.5s0.6-1.9,0.9-2.9
				c0.3-1,0.6-2,0.9-2.9c0.3-1,0.5-1.9,0.7-2.8c-0.5-0.2-1-0.3-1.4-0.4c-0.5-0.1-1-0.1-1.7-0.1c-0.6,0-1,0.1-1.4,0.2
				c-0.4,0.1-0.7,0.3-0.9,0.6c-0.2,0.2-0.4,0.5-0.5,0.8c-0.1,0.3-0.1,0.6-0.1,0.8c0,0.6,0.2,1.2,0.5,1.6c0.3,0.4,0.7,0.8,1,1
				c0.1,0.1,0.2,0.3,0.2,0.4s-0.1,0.3-0.2,0.5l-1.9,2.2c-0.1,0.1-0.3,0.2-0.4,0.3c-0.2,0-0.3,0-0.4-0.1c-0.5-0.3-0.9-0.6-1.3-1
				c-0.4-0.4-0.8-0.8-1.1-1.3c-0.3-0.5-0.6-1-0.8-1.5c-0.2-0.6-0.3-1.1-0.3-1.8c0-1,0.2-2,0.5-2.9c0.4-0.9,0.9-1.6,1.5-2.3
				c0.7-0.6,1.5-1.1,2.4-1.5c0.9-0.4,2-0.5,3.1-0.5c0.7,0,1.5,0,2.1,0.1c0.7,0.1,1.4,0.2,2.1,0.3c0.7,0.1,1.4,0.3,2.1,0.5
				c0.7,0.2,1.5,0.4,2.4,0.7c0.3,0.1,0.4,0.2,0.5,0.4c0.1,0.2,0.1,0.4,0,0.7c-0.2,0.8-0.5,1.6-0.8,2.5s-0.6,1.9-0.9,2.9
				c-0.3,1-0.6,2-1,3c-0.3,1-0.6,1.9-0.9,2.8c0.8-0.2,1.5-0.6,2-1s1-0.9,1.5-1.5c0.4-0.5,0.8-1.1,1-1.6c0.3-0.5,0.5-1,0.7-1.4
				l2.1-4.5c0.3-0.6,0.6-1.1,0.9-1.5c0.3-0.5,0.8-0.9,1.2-1.2c0.5-0.3,1-0.6,1.6-0.8c0.6-0.2,1.3-0.3,2.1-0.3c0.5,0,0.9,0,1.3,0.1
				c0.4,0,0.8,0.1,1.2,0.3c0.5,0.1,0.6,0.5,0.4,1l-0.8,2.6c-0.1,0.3-0.2,0.4-0.4,0.5c-0.2,0.1-0.4,0.1-0.7,0c-0.1,0-0.3-0.1-0.5-0.1
				c-0.2,0-0.3,0-0.5,0c-0.4,0-0.8,0.1-1.2,0.3c-0.4,0.2-0.7,0.5-0.9,1.1l-2.1,4.3c-0.4,0.8-0.7,1.5-1.1,2.2
				c-0.4,0.7-0.8,1.4-1.3,1.9c-0.5,0.6-1,1.1-1.5,1.5c-0.5,0.4-1.2,0.7-1.9,1l0.7,1.9c0.4,1.2,0.9,2.1,1.5,2.7
				c0.6,0.5,1.2,0.8,1.9,0.8c0.6,0,1.4-0.2,2.2-0.7c0.8-0.4,1.8-1.3,2.8-2.5l0.2-0.2c0.1-0.2,0.3-0.3,0.6-0.3c0.2,0,0.4,0.1,0.6,0.3
				l1.2,1.1c0.2,0.2,0.3,0.4,0.3,0.6c0,0.2-0.1,0.4-0.3,0.6L244,101.5z"/>
			<path class="st9" d="M260.6,98.9c0.1-0.2,0.3-0.3,0.6-0.3c0.2,0,0.4,0.1,0.6,0.3l1.2,1.1c0.2,0.2,0.3,0.4,0.3,0.6
				c0,0.2-0.1,0.4-0.3,0.6l-0.2,0.2c-1.5,1.8-3,3.1-4.4,3.9c-1.5,0.8-3,1.2-4.5,1.2c-0.9,0-1.6-0.3-2.1-0.8c-0.5-0.6-0.8-1.2-0.9-2
				c-1.2,0.9-2.3,1.6-3.3,2.1c-1,0.5-2.1,0.7-3.2,0.7c-1.2,0-2.1-0.3-2.6-1c-0.5-0.7-0.8-1.5-0.8-2.3c0-0.9,0.2-1.9,0.5-3.1
				s0.8-2.5,1.3-3.8s1-2.5,1.6-3.7s1.1-2.2,1.5-3.1c0.1-0.2,0.2-0.3,0.5-0.4c0.2-0.1,0.4,0,0.7,0.1l2.6,1.2c0.3,0.1,0.4,0.3,0.5,0.5
				c0,0.2,0,0.5-0.1,0.7c-0.3,0.6-0.7,1.3-1.2,2.2c-0.5,0.9-0.9,1.9-1.3,2.8c-0.4,1-0.8,1.9-1.1,2.8c-0.3,0.9-0.4,1.6-0.4,2
				c0,0.2,0.1,0.4,0.2,0.5c0.1,0.1,0.3,0.2,0.6,0.2c0.4,0,0.9-0.2,1.6-0.5s1.6-1,2.6-1.9c0.1-1,0.3-2,0.5-2.9s0.5-1.9,0.9-2.9
				c0.2-0.6,0.5-1.2,0.8-1.8s0.6-1.1,1-1.6c0.3-0.5,0.7-0.8,1.1-1.1c0.4-0.3,0.8-0.4,1.2-0.4c0.7,0,1.2,0.3,1.6,0.8s0.5,1.2,0.5,2
				c0,0.6-0.1,1.3-0.3,2c-0.2,0.7-0.4,1.5-0.7,2.2c-0.3,0.7-0.6,1.5-1,2.2s-0.8,1.3-1.2,1.9c-0.1,0.4-0.2,0.8-0.2,1.2
				c0,0.6,0.2,0.9,0.7,0.9c0.3,0,0.6-0.1,1-0.3c0.4-0.2,0.8-0.4,1.2-0.8c0.4-0.3,0.8-0.7,1.2-1s0.7-0.8,1.1-1.1L260.6,98.9z"/>
			<path class="st9" d="M270.4,98.9c0.1-0.2,0.3-0.3,0.6-0.3c0.2,0,0.4,0.1,0.6,0.3l1.2,1.1c0.2,0.2,0.3,0.4,0.3,0.6
				c0,0.2-0.1,0.4-0.3,0.6l-0.2,0.2c-0.8,1-1.6,1.8-2.4,2.4c-0.8,0.6-1.6,1.2-2.3,1.6c-0.8,0.4-1.5,0.7-2.3,0.9
				c-0.7,0.2-1.5,0.3-2.2,0.3c-1.2,0-2.1-0.3-2.8-1c-0.6-0.7-0.9-1.5-0.9-2.4c0-0.5,0.1-1.1,0.3-1.8c0.2-0.7,0.4-1.5,0.6-2.3
				c0.3-0.8,0.6-1.7,0.9-2.6s0.7-1.7,1-2.6s0.7-1.6,1-2.3c0.3-0.7,0.6-1.3,0.8-1.8c0.2-0.4,0.4-0.6,0.8-0.6c0.1,0,0.2,0,0.3,0.1
				c0.1,0,0.2,0.1,0.3,0.1l2.4,0.7c0.5,0.1,0.7,0.4,0.7,0.7c0,0.1,0,0.2-0.1,0.4c-0.9,2-1.6,3.6-2.1,4.9s-0.9,2.3-1.2,3
				c-0.3,0.8-0.4,1.3-0.5,1.6c-0.1,0.3-0.1,0.6-0.1,0.8c0,0.2,0.1,0.5,0.2,0.6c0.1,0.2,0.3,0.3,0.6,0.3c0.5,0,1.1-0.3,1.9-0.8
				c0.8-0.5,1.7-1.3,2.6-2.4L270.4,98.9z M267.9,87.2c-0.8,0-1.4-0.2-1.9-0.6s-0.7-1-0.7-1.7c0-0.9,0.3-1.6,0.9-2.2
				c0.6-0.6,1.3-0.9,2.1-0.9c0.8,0,1.4,0.2,1.9,0.6s0.7,1,0.7,1.7c0,0.9-0.3,1.6-0.9,2.2C269.4,86.9,268.7,87.2,267.9,87.2z"/>
			<path class="st9" d="M273.4,93.5H272c-0.2,0-0.4-0.1-0.5-0.2c-0.1-0.1-0.1-0.3-0.1-0.5l0.4-2.6c0.1-0.4,0.3-0.6,0.7-0.6h2.5
				l2.2-5.3c0.2-0.6,0.7-0.8,1.3-0.6l2.4,1.1c0.6,0.2,0.8,0.6,0.5,1.2l-1.5,3.6h6.8l1.6-4.1c0.2-0.6,0.7-0.8,1.3-0.6l2.4,1
				c0.6,0.2,0.8,0.6,0.5,1.2l-1,2.5h3.6c0.6,0,0.8,0.3,0.7,0.9l-0.3,2.3c-0.1,0.5-0.4,0.8-0.9,0.8h-4.7l-0.9,2.3
				c-0.4,1.1-0.8,2-1,2.8c-0.2,0.8-0.3,1.4-0.3,1.9c0,0.5,0.1,0.9,0.4,1.3c0.3,0.4,0.7,0.6,1.3,0.6c0.4,0,0.9-0.1,1.4-0.3
				c0.5-0.2,0.9-0.4,1.4-0.7c0.5-0.3,0.9-0.6,1.3-1c0.4-0.4,0.8-0.8,1.2-1.2l0.2-0.2c0.1-0.2,0.3-0.3,0.6-0.3c0.2,0,0.4,0.1,0.6,0.3
				l1.2,1.1c0.2,0.2,0.3,0.4,0.3,0.6c0,0.2-0.1,0.4-0.3,0.6l-0.2,0.2c-0.6,0.7-1.3,1.4-2.1,2c-0.8,0.6-1.6,1.2-2.5,1.6
				c-0.9,0.5-1.7,0.8-2.6,1.1s-1.7,0.4-2.5,0.4c-1.2,0-2.1-0.3-3-0.9s-1.4-1.4-1.6-2.5c-1.1,1-2.3,1.8-3.5,2.4
				c-1.2,0.6-2.4,0.9-3.6,0.9c-0.7,0-1.4-0.1-2-0.4c-0.6-0.2-1.1-0.6-1.5-1c-0.4-0.4-0.8-0.9-1-1.5c-0.2-0.6-0.4-1.2-0.4-1.8
				c0-0.1,0-0.3,0-0.4c0-0.2,0-0.3,0.1-0.5l-0.9-0.9c-0.2-0.2-0.3-0.4-0.3-0.6c0-0.2,0.1-0.4,0.3-0.6l0.2-0.2
				c0.7-0.9,1.3-1.8,1.7-2.6s0.8-1.7,1.2-2.5L273.4,93.5z M282.3,99.1c0.3-0.4,0.6-0.8,0.8-1.2c0.3-0.4,0.5-0.8,0.7-1.2
				c0.2-0.4,0.4-0.8,0.6-1.1c0.2-0.3,0.3-0.6,0.4-0.8v0c0,0,0.1-0.2,0.1-0.3c0.1-0.2,0.2-0.5,0.4-1h-6.9l-1,2.3
				c-0.9,2.1-1.3,3.7-1.3,4.6c0,0.5,0.1,0.9,0.4,1.3c0.3,0.4,0.7,0.6,1.3,0.6c0.4,0,0.9-0.1,1.3-0.3c0.4-0.2,0.8-0.4,1.2-0.7
				c0.4-0.3,0.7-0.6,1.1-1S281.9,99.5,282.3,99.1z"/>
			<path class="st9" d="M304.8,98.9c0.1-0.2,0.3-0.3,0.6-0.3c0.2,0,0.4,0.1,0.6,0.3l1.2,1.1c0.2,0.2,0.3,0.4,0.3,0.6
				c0,0.2-0.1,0.4-0.3,0.6l-0.2,0.2c-0.8,1-1.6,1.8-2.4,2.4c-0.8,0.6-1.6,1.2-2.3,1.6c-0.8,0.4-1.5,0.7-2.3,0.9s-1.5,0.3-2.2,0.3
				c-1.2,0-2.1-0.3-2.8-1s-0.9-1.5-0.9-2.4c0-0.5,0.1-1.1,0.3-1.8c0.2-0.7,0.4-1.5,0.6-2.3c0.3-0.8,0.6-1.7,0.9-2.6s0.7-1.7,1-2.6
				s0.7-1.6,1-2.3c0.3-0.7,0.6-1.3,0.8-1.8c0.2-0.4,0.4-0.6,0.8-0.6c0.1,0,0.2,0,0.3,0.1s0.2,0.1,0.3,0.1l2.4,0.7
				c0.5,0.1,0.7,0.4,0.7,0.7c0,0.1,0,0.2-0.1,0.4c-0.9,2-1.6,3.6-2.1,4.9s-0.9,2.3-1.2,3c-0.3,0.8-0.4,1.3-0.5,1.6
				c-0.1,0.3-0.1,0.6-0.1,0.8c0,0.2,0.1,0.5,0.2,0.6c0.1,0.2,0.3,0.3,0.6,0.3c0.5,0,1.1-0.3,1.9-0.8c0.8-0.5,1.7-1.3,2.6-2.4
				L304.8,98.9z M302.2,87.2c-0.8,0-1.4-0.2-1.9-0.6c-0.5-0.4-0.7-1-0.7-1.7c0-0.9,0.3-1.6,0.9-2.2c0.6-0.6,1.3-0.9,2.1-0.9
				c0.8,0,1.4,0.2,1.9,0.6c0.5,0.4,0.7,1,0.7,1.7c0,0.9-0.3,1.6-0.9,2.2C303.8,86.9,303.1,87.2,302.2,87.2z"/>
		</g>
	</g>
</g>
</svg>
