<?xml version="1.0" encoding="utf-8"?>
<!-- Generator: Adobe Illustrator 25.0.0, SVG Export Plug-In . SVG Version: 6.00 Build 0)  -->
<svg version="1.1" id="Layer_1" xmlns="http://www.w3.org/2000/svg" xmlns:xlink="http://www.w3.org/1999/xlink" x="0px" y="0px"
	 width="255.1px" height="255.1px" viewBox="0 0 255.1 255.1" style="enable-background:new 0 0 255.1 255.1;" xml:space="preserve"
	>
<style type="text/css">
	.st0{fill-rule:evenodd;clip-rule:evenodd;fill:url(#path-2_2_);}
	.st1{fill-rule:evenodd;clip-rule:evenodd;fill:#F86800;}
	.st2{fill:#E9E9E9;}
	.st3{fill:#F86800;}
</style>
<g>
	<g transform="translate(-72.000000, -50.000000)">
		<g transform="translate(76.000000, 52.000000)">
			<g>
				<g>
					<g>
						
							<linearGradient id="path-2_2_" gradientUnits="userSpaceOnUse" x1="-557.923" y1="-22.0151" x2="-557.923" y2="-21.1387" gradientTransform="matrix(224 0 0 141 125098.2969 3167.9006)">
							<stop  offset="0" style="stop-color:#F8F8F8"/>
							<stop  offset="1" style="stop-color:#EEEEEE"/>
						</linearGradient>
						<path id="path-2_1_" class="st0" d="M34.2,63.8H213c4.8,0,8.8,3.9,8.8,8.8v106.1c0,4.8-3.9,8.8-8.8,8.8H34.2
							c-4.8,0-8.8-3.9-8.8-8.8V72.5C25.4,67.7,29.3,63.8,34.2,63.8z"/>
					</g>
				</g>
				<g transform="translate(22.000000, 43.000000)">
					<path id="Rectangle" class="st1" d="M29.3,58.8h12.3c3.9,0,7,3.2,7,7v8.8c0,3.9-3.2,7-7,7H29.3c-3.9,0-7-3.2-7-7v-8.8
						C22.2,62,25.4,58.8,29.3,58.8z"/>
					<path id="Combined-Shape" class="st2" d="M30.3,58.6l1.8,9.1v5.7l-1.8,8.3L30,81.7l1.8-8.3l-9.5,0.1v-0.4h9.5v-5.3l-0.1-0.4
						h-9.4V67h9.3L30,58.6H30.3z M39.6,58.6l0.4,0.1L38.4,67h10.2v0.4H38.4l-0.1,0.4v5.3h10.3v0.4H38.3l1.7,8.3l-0.4,0.1l-1.8-8.4
						v-5.7L39.6,58.6z"/>
				</g>
				<g>
					<g>
						<path id="path-4_1_" class="st3" d="M48.3,145.6c0.2,0,0.3-0.1,0.3-0.3v-9.5c0-0.2-0.1-0.3-0.3-0.3h-0.8c-0.2,0-0.2,0-0.4,0.1
							l-2.4,1.7c-0.1,0.1-0.2,0.2-0.1,0.4l0.4,0.6c0.1,0.1,0.3,0.1,0.4,0l1.6-1.1v8.1c0,0.2,0.1,0.3,0.3,0.3H48.3z M57.6,145.6
							c0.2,0,0.3-0.1,0.3-0.3v-0.8c0-0.2-0.1-0.3-0.3-0.3h-3.4l1.7-2.2c1.1-1.5,1.8-2.8,1.8-3.9c0-1.8-1.1-2.6-2.9-2.6
							c-1.1,0-2,0.4-2.5,0.8c-0.2,0.2-0.3,0.3-0.2,0.4l0.4,0.7c0.1,0.2,0.3,0.2,0.4,0.1c0.6-0.4,1.2-0.7,2-0.7
							c0.8,0,1.5,0.5,1.5,1.4s-0.4,1.8-1.6,3.2l-2.6,3.7c-0.1,0.2-0.2,0.2-0.2,0.3s0.1,0.2,0.2,0.2L57.6,145.6L57.6,145.6z
							 M63.2,145.8c2,0,3.3-1.3,3.3-3.2c0-1.9-1.3-2.9-2.7-3.1l2.2-3.5c0.1-0.2,0-0.4-0.2-0.4h-4.9c-0.2,0-0.3,0.1-0.2,0.3l0.2,0.8
							c0,0.2,0.2,0.3,0.3,0.3H64l-2,3.3c-0.1,0.2,0,0.4,0.2,0.4h0.8c1.4,0,2.2,0.7,2.2,1.8c0,1.2-0.9,1.9-1.9,1.9
							c-0.8,0-1.4-0.3-2-0.7c-0.2-0.1-0.4-0.1-0.4,0.1l-0.4,0.7c-0.1,0.2-0.1,0.3,0.2,0.4C61.2,145.5,62.1,145.8,63.2,145.8z
							 M74.7,145.6c0.2,0,0.3-0.1,0.3-0.3v-2h1c0.2,0,0.3-0.1,0.3-0.3v-0.7c0-0.2-0.1-0.3-0.3-0.3h-1v-3.9c0-0.1-0.1-0.2-0.2-0.2
							s-0.2,0-0.3,0l-0.7,0.2c-0.2,0-0.2,0.1-0.2,0.3v3.7h-2.8l2-6.1c0.1-0.2,0-0.4-0.2-0.4h-0.9c-0.2,0-0.3,0.1-0.4,0.3l-2.3,7.1
							c-0.1,0.2,0,0.4,0.2,0.4h4.3v2c0,0.2,0.1,0.3,0.3,0.3C73.9,145.6,74.7,145.6,74.7,145.6z M90.3,145.8c2,0,3.3-1.3,3.3-3.2
							c0-2-1.3-3.2-3-3.2c-0.4,0-0.9,0.1-1.2,0.2l0.2-2.7h2.9c0.2,0,0.3-0.1,0.3-0.3l0.2-0.8c0-0.2,0-0.3-0.2-0.3h-4.1
							c-0.2,0-0.3,0.1-0.3,0.3l-0.4,4.7c0,0.2,0.1,0.4,0.4,0.3c0.4-0.2,1-0.4,1.7-0.4c1.3,0,2.1,0.8,2.1,1.9c0,1.2-0.9,1.9-1.9,1.9
							c-0.8,0-1.4-0.3-2-0.7c-0.2-0.1-0.4-0.1-0.4,0.1l-0.4,0.7c-0.1,0.2-0.1,0.3,0.1,0.4C88.3,145.5,89.3,145.8,90.3,145.8z
							 M100,145.8c1.8,0,3.1-1.4,3.1-3.2c0-2.2-1.4-3.2-2.9-3.2c-0.9,0-1.7,0.4-2.2,0.7c0.1-2.5,1.3-3.2,2.5-3.2
							c0.5,0,1,0.1,1.4,0.4c0.2,0.1,0.4,0.1,0.4-0.1l0.4-0.6c0.1-0.2,0.1-0.3-0.1-0.4c-0.5-0.3-1.2-0.5-2.1-0.5
							c-2,0-3.8,1.6-3.8,5.3C96.5,144.1,97.9,145.8,100,145.8z M100,144.6c-1.2,0-2-1.2-2-3.4c0.4-0.3,1.1-0.6,1.9-0.6
							c1,0,1.8,0.7,1.8,2C101.6,143.7,100.9,144.6,100,144.6z M107.5,145.6c0.2,0,0.4-0.1,0.4-0.3l3.5-9.4c0.1-0.2,0-0.4-0.2-0.4
							h-5.4c-0.2,0-0.3,0.1-0.2,0.3l0.2,0.8c0,0.2,0.2,0.3,0.3,0.3h3.6l-3.1,8.3c-0.1,0.2,0,0.4,0.2,0.4
							C106.7,145.6,107.5,145.6,107.5,145.6z M117.1,145.8c1.8,0,3.2-1.1,3.2-2.6c0-1.2-0.9-2.3-2-2.7c1-0.5,1.7-1.3,1.7-2.4
							c0-1.4-1.2-2.5-2.9-2.5c-1.8,0-3,1.1-3,2.5c0,1,0.7,1.8,1.7,2.4c-1.1,0.5-2,1.5-2,2.7C113.8,144.7,115.2,145.8,117.1,145.8z
							 M117.1,139.8c-1-0.4-1.6-1-1.6-1.8c0-0.9,0.7-1.4,1.6-1.4c0.8,0,1.6,0.5,1.6,1.4C118.7,138.9,118,139.4,117.1,139.8z
							 M117.1,144.6c-1.1,0-1.8-0.6-1.8-1.6c0-1.1,0.9-1.7,1.8-2.1c1,0.4,1.8,1.1,1.8,2.1C119,144,118.2,144.6,117.1,144.6z
							 M134.9,145.8c2,0,3.9-1.6,3.9-5.3c0-3.3-1.4-5-3.5-5c-1.8,0-3.1,1.4-3.1,3.2c0,2.2,1.4,3.2,2.9,3.2c0.9,0,1.7-0.4,2.2-0.7
							c-0.1,2.5-1.3,3.2-2.5,3.2c-0.5,0-1-0.1-1.4-0.4c-0.2-0.1-0.4-0.1-0.4,0.1l-0.4,0.6c-0.1,0.2-0.1,0.3,0.1,0.4
							C133.3,145.5,134,145.8,134.9,145.8z M135.3,140.8c-1,0-1.8-0.7-1.8-2c0-1.1,0.7-2,1.7-2c1.2,0,2,1.2,2,3.4
							C136.8,140.5,136.1,140.8,135.3,140.8z M144.9,145.6c0.2,0,0.3-0.1,0.3-0.3v-9.5c0-0.2-0.1-0.3-0.3-0.3h-0.8
							c-0.2,0-0.2,0-0.4,0.1l-2.4,1.7c-0.1,0.1-0.2,0.2-0.1,0.4l0.4,0.6c0.1,0.1,0.3,0.1,0.4,0l1.6-1.1v8.1c0,0.2,0.1,0.3,0.3,0.3
							H144.9z M152.1,145.8c2.5,0,3.5-2.3,3.5-5.2s-1.1-5.2-3.5-5.2c-2.5,0-3.5,2.3-3.5,5.2S149.7,145.8,152.1,145.8z M152.1,144.5
							c-1.4,0-2-1.6-2-3.9c0-2.3,0.6-3.9,2-3.9c1.5,0,2,1.6,2,3.9C154.1,142.9,153.6,144.5,152.1,144.5z M161.9,145.6
							c0.2,0,0.3-0.1,0.3-0.3v-9.5c0-0.2-0.1-0.3-0.3-0.3h-0.8c-0.2,0-0.2,0-0.4,0.1l-2.4,1.7c-0.1,0.1-0.2,0.2-0.1,0.4l0.4,0.6
							c0.1,0.1,0.3,0.1,0.4,0l1.6-1.1v8.1c0,0.2,0.1,0.3,0.3,0.3H161.9z M177.9,145.6c0.2,0,0.3-0.1,0.3-0.3v-9.5
							c0-0.2-0.1-0.3-0.3-0.3h-0.8c-0.2,0-0.2,0-0.4,0.1l-2.4,1.7c-0.1,0.1-0.2,0.2-0.1,0.4l0.4,0.6c0.1,0.1,0.3,0.1,0.4,0l1.6-1.1
							v8.1c0,0.2,0.1,0.3,0.3,0.3H177.9z M187.2,145.6c0.2,0,0.3-0.1,0.3-0.3v-0.8c0-0.2-0.1-0.3-0.3-0.3h-3.4l1.6-2.2
							c1.1-1.5,1.8-2.8,1.8-3.9c0-1.8-1.1-2.6-2.9-2.6c-1.1,0-2,0.4-2.5,0.8c-0.2,0.2-0.3,0.3-0.2,0.4l0.4,0.7
							c0.1,0.2,0.3,0.2,0.4,0.1c0.6-0.4,1.2-0.7,2-0.7c0.8,0,1.5,0.5,1.5,1.4s-0.4,1.8-1.6,3.2l-2.6,3.7c-0.1,0.2-0.2,0.2-0.2,0.3
							c0,0.1,0.1,0.2,0.2,0.2C181.7,145.6,187.2,145.6,187.2,145.6z M193.6,145.6c0.2,0,0.3-0.1,0.3-0.3v-9.5c0-0.2-0.1-0.3-0.3-0.3
							h-0.8c-0.2,0-0.2,0-0.4,0.1l-2.4,1.7c-0.1,0.1-0.2,0.2-0.1,0.4l0.4,0.6c0.1,0.1,0.3,0.1,0.4,0l1.6-1.1v8.1
							c0,0.2,0.1,0.3,0.3,0.3H193.6z M199.8,145.8c2,0,3.3-1.3,3.3-3.2c0-1.9-1.3-2.9-2.7-3.1l2.2-3.5c0.1-0.2,0-0.4-0.2-0.4h-4.8
							c-0.2,0-0.3,0.1-0.2,0.3l0.2,0.8c0,0.2,0.2,0.3,0.3,0.3h2.8l-2.1,3.4c-0.1,0.2,0,0.4,0.2,0.4h0.8c1.4,0,2.2,0.7,2.2,1.8
							c0,1.2-0.9,1.9-1.9,1.9c-0.8,0-1.4-0.3-2-0.7c-0.2-0.1-0.4-0.1-0.4,0.1l-0.4,0.7c-0.1,0.2-0.1,0.3,0.2,0.4
							C197.8,145.5,198.8,145.8,199.8,145.8z"/>
					</g>
				</g>
				<g>
					<g>
						<path id="path-6_1_" class="st3" d="M45.4,170.2c0.2,0,0.3,0,0.3-0.2l0.7-1.8h3.2l0.7,1.8c0,0.1,0.1,0.2,0.3,0.2h0.7
							c0.1,0,0.2-0.1,0.2-0.3l-2.8-7c0-0.1-0.1-0.2-0.3-0.2h-0.6c-0.1,0-0.2,0.1-0.3,0.2l-2.8,7c-0.1,0.2,0,0.3,0.2,0.3H45.4z
							 M49.1,167.4h-2.5l1.2-3.2L49.1,167.4z M55.5,170.3c1.4,0,2.5-0.9,2.5-2.1c0-1-0.5-1.6-1.3-2l-1.2-0.6
							c-0.5-0.3-0.9-0.6-0.9-1.1c0-0.5,0.4-1,1.1-1c0.5,0,1,0.2,1.3,0.4c0.1,0.1,0.3,0.1,0.3-0.1l0.3-0.5c0.1-0.1,0-0.3-0.1-0.3
							c-0.4-0.2-1.1-0.4-1.8-0.4c-1.2,0-2.2,0.8-2.2,2c0,1,0.6,1.6,1.3,1.9l1.2,0.6c0.5,0.3,0.9,0.6,0.9,1.1c0,0.7-0.5,1.1-1.4,1.1
							c-0.6,0-1.2-0.3-1.7-0.6c-0.1-0.1-0.3,0-0.3,0.1l-0.3,0.5c-0.1,0.1,0,0.2,0.1,0.3C53.7,169.9,54.6,170.3,55.5,170.3z
							 M61.2,170.2c0.1,0,0.2-0.1,0.2-0.2v-7.1c0-0.1-0.1-0.2-0.2-0.2h-0.7c-0.1,0-0.2,0.1-0.2,0.2v7.1c0,0.1,0.1,0.2,0.2,0.2H61.2z
							 M64.5,170.2c0.2,0,0.3,0,0.3-0.2l0.7-1.8h3.2l0.7,1.8c0,0.1,0.1,0.2,0.3,0.2h0.7c0.1,0,0.2-0.1,0.2-0.3l-2.8-7
							c0-0.1-0.1-0.2-0.3-0.2h-0.6c-0.1,0-0.2,0.1-0.3,0.2l-2.8,7c-0.1,0.2,0,0.3,0.2,0.3H64.5z M68.3,167.4h-2.5l1.2-3.2
							L68.3,167.4z M73.6,170.2c0.1,0,0.2-0.1,0.2-0.2v-2.1l1.2-1.3l2.2,3.4c0.1,0.1,0.2,0.2,0.3,0.2h0.9c0.1,0,0.2-0.1,0.1-0.3
							l-2.6-4.1l2.5-2.9c0.1-0.1,0.1-0.3-0.1-0.3h-0.8c-0.2,0-0.3,0.1-0.4,0.2l-3.2,3.7v-3.7c0-0.1-0.1-0.2-0.2-0.2H73
							c-0.1,0-0.2,0.1-0.2,0.2v7.1c0,0.1,0.1,0.2,0.2,0.2L73.6,170.2L73.6,170.2z M80.8,170.2c0.2,0,0.3,0,0.3-0.2l0.7-1.8H85
							l0.7,1.8c0,0.1,0.1,0.2,0.3,0.2h0.7c0.1,0,0.2-0.1,0.2-0.3l-2.8-7c0-0.1-0.1-0.2-0.3-0.2h-0.6c-0.1,0-0.2,0.1-0.3,0.2l-2.8,7
							c-0.1,0.2,0,0.3,0.2,0.3H80.8z M84.6,167.4h-2.5l1.2-3.2L84.6,167.4z M90.9,170.3c1.4,0,2.5-0.9,2.5-2.1c0-1-0.5-1.6-1.3-2
							l-1.2-0.6c-0.5-0.3-0.9-0.6-0.9-1.1c0-0.5,0.4-1,1.1-1c0.5,0,1,0.2,1.3,0.4c0.1,0.1,0.3,0.1,0.3-0.1l0.3-0.5
							c0.1-0.1,0-0.3-0.1-0.3c-0.4-0.2-1.1-0.4-1.8-0.4c-1.2,0-2.2,0.8-2.2,2c0,1,0.6,1.6,1.3,1.9l1.2,0.6c0.5,0.3,0.9,0.6,0.9,1.1
							c0,0.7-0.5,1.1-1.4,1.1c-0.6,0-1.2-0.3-1.7-0.6c-0.1-0.1-0.3,0-0.3,0.1l-0.3,0.5c-0.1,0.1,0,0.2,0.1,0.3
							C89.2,169.9,90,170.3,90.9,170.3z M106,170.2c0.2,0,0.3,0,0.3-0.2l0.7-1.8h3.2l0.7,1.8c0,0.1,0.1,0.2,0.3,0.2h0.7
							c0.1,0,0.2-0.1,0.2-0.3l-2.8-7c0-0.1-0.1-0.2-0.3-0.2h-0.6c-0.1,0-0.2,0.1-0.3,0.2l-2.8,7c-0.1,0.2,0,0.3,0.2,0.3H106z
							 M109.9,167.4h-2.5l1.2-3.2L109.9,167.4z M116.2,170.3c1.4,0,2.5-0.9,2.5-2.1c0-1-0.5-1.6-1.3-2l-1.2-0.6
							c-0.5-0.3-0.9-0.6-0.9-1.1c0-0.5,0.4-1,1.1-1c0.5,0,1,0.2,1.3,0.4c0.1,0.1,0.3,0.1,0.3-0.1l0.3-0.5c0.1-0.1,0-0.3-0.1-0.3
							c-0.4-0.2-1.1-0.4-1.8-0.4c-1.2,0-2.2,0.8-2.2,2c0,1,0.6,1.6,1.3,1.9l1.2,0.6c0.5,0.3,0.9,0.6,0.9,1.1c0,0.7-0.5,1.1-1.4,1.1
							c-0.6,0-1.2-0.3-1.7-0.6c-0.1-0.1-0.3,0-0.3,0.1l-0.3,0.5c-0.1,0.1,0,0.2,0.1,0.3C114.4,169.9,115.3,170.3,116.2,170.3z
							 M122.9,170.3c1.4,0,2.5-0.9,2.5-2.1c0-1-0.5-1.6-1.3-2l-1.2-0.6c-0.5-0.3-0.9-0.6-0.9-1.1c0-0.5,0.4-1,1.1-1
							c0.5,0,1,0.2,1.3,0.4c0.1,0.1,0.3,0.1,0.3-0.1l0.3-0.5c0.1-0.1,0-0.3-0.1-0.3c-0.4-0.2-1.1-0.4-1.8-0.4c-1.2,0-2.2,0.8-2.2,2
							c0,1,0.6,1.6,1.3,1.9l1.2,0.6c0.5,0.3,0.9,0.6,0.9,1.1c0,0.7-0.5,1.1-1.4,1.1c-0.6,0-1.2-0.3-1.7-0.6c-0.1-0.1-0.3,0-0.3,0.1
							l-0.3,0.5c-0.1,0.1,0,0.2,0.1,0.3C121.2,169.9,122.1,170.3,122.9,170.3z M128.7,170.2c0.1,0,0.2-0.1,0.2-0.2v-7.1
							c0-0.1-0.1-0.2-0.2-0.2H128c-0.1,0-0.2,0.1-0.2,0.2v7.1c0,0.1,0.1,0.2,0.2,0.2H128.7z"/>
					</g>
				</g>
				<g id="_x30_1_x2F_21">
					<g>
						<path id="path-8_1_" class="st3" d="M177.2,170.3c1.8,0,2.6-1.7,2.6-3.9c0-2.2-0.8-3.9-2.6-3.9c-1.8,0-2.6,1.7-2.6,3.9
							C174.6,168.6,175.4,170.3,177.2,170.3z M177.2,169.4c-1.1,0-1.5-1.2-1.5-2.9c0-1.8,0.4-2.9,1.5-2.9c1.1,0,1.5,1.1,1.5,2.9
							C178.8,168.2,178.3,169.4,177.2,169.4z M184.5,170.2c0.1,0,0.2-0.1,0.2-0.2v-7.1c0-0.1-0.1-0.2-0.2-0.2h-0.5
							c-0.1,0-0.2,0-0.3,0.1l-1.8,1.2c-0.1,0.1-0.1,0.2-0.1,0.3l0.4,0.4c0.1,0.1,0.2,0.1,0.3,0l1.1-0.8v6c0,0.1,0.1,0.2,0.2,0.2
							C183.8,170.2,184.5,170.2,184.5,170.2z M187.5,171.8c0.1,0,0.2,0,0.3-0.2l3.6-9.3c0.1-0.2,0-0.2-0.1-0.2h-0.6
							c-0.1,0-0.2,0-0.3,0.2l-3.6,9.3c-0.1,0.2,0,0.2,0.1,0.2H187.5z M197.2,170.2c0.1,0,0.2-0.1,0.2-0.2v-0.6
							c0-0.1-0.1-0.2-0.2-0.2h-2.5l1.2-1.7c0.8-1.1,1.4-2.1,1.4-3c0-1.3-0.9-2-2.1-2c-0.8,0-1.5,0.3-1.9,0.6
							c-0.2,0.1-0.2,0.2-0.1,0.4l0.3,0.5c0.1,0.1,0.2,0.2,0.3,0.1c0.4-0.3,0.9-0.5,1.5-0.5c0.6,0,1.1,0.4,1.1,1.1
							c0,0.6-0.4,1.3-1.1,2.5l-2,2.8c-0.1,0.1-0.1,0.2-0.1,0.3s0.1,0.1,0.2,0.1L197.2,170.2L197.2,170.2z M202,170.2
							c0.1,0,0.2-0.1,0.2-0.2v-7.1c0-0.1-0.1-0.2-0.2-0.2h-0.5c-0.1,0-0.2,0-0.3,0.1l-1.8,1.2c-0.1,0.1-0.1,0.2-0.1,0.3l0.4,0.4
							c0.1,0.1,0.2,0.1,0.3,0l1.1-0.8v6c0,0.1,0.1,0.2,0.2,0.2C201.3,170.2,202,170.2,202,170.2z"/>
					</g>
				</g>
				<path id="contactless" class="st1" d="M90,120.6c-0.2-0.1-0.4-0.4-0.4-0.5c0-0.2,0-0.3,0.3-0.7c0.9-1.8,1.3-3.3,1.3-5.3
					c0-1.9-0.4-3.3-1.2-5.1c-0.2-0.4-0.4-0.7-0.4-0.8c0-0.2,0.2-0.4,0.4-0.5c0.3-0.2,0.6-0.1,0.8,0.1c0.1,0.1,0.3,0.4,0.4,0.7
					c0.6,1.2,1.1,2.5,1.2,3.9c0.1,0.9,0.2,2.5,0.1,3.2c-0.2,1.5-0.6,2.7-1.2,4c-0.4,0.8-0.6,1.1-0.8,1.1c0,0-0.1,0-0.2,0
					C90.2,120.6,90.1,120.6,90,120.6z M87.4,119.2c-0.4-0.1-0.5-0.5-0.4-0.8c0-0.1,0.2-0.4,0.4-0.7c0.7-1.4,1-2.9,0.9-4.4
					c-0.1-1.2-0.4-2-0.9-3.2c-0.4-0.8-0.4-0.9-0.2-1.1c0.2-0.3,0.7-0.4,1-0.1c0.2,0.2,0.8,1.4,1,2.1c0.7,2.3,0.6,4.7-0.4,6.9
					C88.2,119,87.9,119.3,87.4,119.2z M84.8,117.9c-0.2-0.1-0.4-0.3-0.4-0.5c0-0.1,0-0.3,0.3-0.8c0.9-1.8,0.9-3.5,0-5.2
					c-0.4-0.8-0.4-0.9-0.1-1.2c0.2-0.2,0.3-0.2,0.4-0.2c0.4,0,0.5,0.2,0.9,0.9c0.5,1.1,0.7,1.9,0.7,3.1c0,1.2-0.2,2-0.7,3.1
					c-0.4,0.6-0.4,0.8-0.8,0.9C85.1,117.9,84.9,117.9,84.8,117.9z M82.5,116.6c-0.2-0.1-0.4-0.3-0.4-0.4c-0.1-0.2,0-0.4,0.3-0.8
					c0.3-0.5,0.4-0.8,0.4-1.4c0-0.6-0.1-1-0.4-1.4c-0.1-0.2-0.2-0.4-0.3-0.4c-0.1-0.4,0.2-0.7,0.5-0.8c0.4-0.1,0.5,0.1,0.8,0.5
					c0.9,1.3,0.9,3.1,0,4.4C83.1,116.6,82.8,116.8,82.5,116.6L82.5,116.6z"/>
			</g>
		</g>
	</g>
</g>
</svg>
