<?xml version="1.0" encoding="utf-8"?>
<!-- Generator: Adobe Illustrator 25.0.0, SVG Export Plug-In . SVG Version: 6.00 Build 0)  -->
<svg version="1.1" id="Layer_1" xmlns="http://www.w3.org/2000/svg" xmlns:xlink="http://www.w3.org/1999/xlink" x="0px" y="0px"
	 width="255.1px" height="192.8px" viewBox="0 0 255.1 192.8" style="enable-background:new 0 0 255.1 192.8;" xml:space="preserve"
	>
<style type="text/css">
	.st0{fill-rule:evenodd;clip-rule:evenodd;fill:url(#path-2_2_);}
	.st1{fill-rule:evenodd;clip-rule:evenodd;fill:#F86800;}
	.st2{fill:#E9E9E9;}
	.st3{fill:#F86800;}
</style>
<g>
	<g transform="translate(-72.000000, -50.000000)">
		<g transform="translate(76.000000, 52.000000)">
			<g>
				<g>
					<g>
						
							<linearGradient id="path-2_2_" gradientUnits="userSpaceOnUse" x1="-730.1685" y1="539.845" x2="-730.1685" y2="538.9686" gradientTransform="matrix(224 0 0 -141 163681.2969 76150.6797)">
							<stop  offset="0" style="stop-color:#F8F8F8"/>
							<stop  offset="1" style="stop-color:#EEEEEE"/>
						</linearGradient>
						<path id="path-2_1_" class="st0" d="M34.2,32.5h178.8c4.8,0,8.8,3.9,8.8,8.8v106.1c0,4.8-3.9,8.8-8.8,8.8H34.2
							c-4.8,0-8.8-3.9-8.8-8.8V41.2C25.4,36.4,29.2,32.5,34.2,32.5z"/>
					</g>
				</g>
				<g transform="translate(22.000000, 43.000000)">
					<path id="Rectangle" class="st1" d="M29.2,27.5h12.3c3.9,0,7,3.2,7,7v8.8c0,3.9-3.2,7-7,7H29.2c-3.9,0-7-3.2-7-7v-8.8
						C22.2,30.7,25.4,27.5,29.2,27.5z"/>
					<path id="Combined-Shape" class="st2" d="M30.2,27.3l1.8,9.1v5.7l-1.8,8.3H30l1.8-8.3l-9.5,0.1v-0.4h9.5v-5.3l-0.1-0.4h-9.4
						v-0.4h9.3L30,27.3H30.2z M39.5,27.3l0.4,0.1l-1.6,8.3h10.2v0.4H38.4l-0.1,0.4v5.3h10.3v0.4H38.2l1.7,8.3l-0.4,0.1l-1.8-8.4
						v-5.7L39.5,27.3z"/>
				</g>
				<g>
					<g>
						<path id="path-4_1_" class="st3" d="M48.2,114.3c0.2,0,0.3-0.1,0.3-0.3v-9.5c0-0.2-0.1-0.3-0.3-0.3h-0.8c-0.2,0-0.2,0-0.4,0.1
							l-2.4,1.7c-0.1,0.1-0.2,0.2-0.1,0.4L45,107c0.1,0.1,0.3,0.1,0.4,0l1.6-1.1v8.1c0,0.2,0.1,0.3,0.3,0.3H48.2z M57.5,114.3
							c0.2,0,0.3-0.1,0.3-0.3v-0.8c0-0.2-0.1-0.3-0.3-0.3h-3.4l1.7-2.2c1.1-1.5,1.8-2.8,1.8-3.9c0-1.8-1.1-2.6-2.9-2.6
							c-1.1,0-2,0.4-2.5,0.8c-0.2,0.2-0.3,0.3-0.2,0.4l0.4,0.7c0.1,0.2,0.3,0.2,0.4,0.1c0.6-0.4,1.2-0.7,2-0.7s1.5,0.5,1.5,1.4
							s-0.4,1.8-1.6,3.2l-2.6,3.7c-0.1,0.2-0.2,0.2-0.2,0.3s0.1,0.2,0.2,0.2L57.5,114.3L57.5,114.3z M63.2,114.5
							c2,0,3.3-1.3,3.3-3.2s-1.3-2.9-2.7-3.1l2.2-3.5c0.1-0.2,0-0.4-0.2-0.4h-4.9c-0.2,0-0.3,0.1-0.2,0.3l0.2,0.8
							c0,0.2,0.2,0.3,0.3,0.3H64l-2,3.3c-0.1,0.2,0,0.4,0.2,0.4H63c1.4,0,2.2,0.7,2.2,1.8c0,1.2-0.9,1.9-1.9,1.9
							c-0.8,0-1.4-0.3-2-0.7c-0.2-0.1-0.4-0.1-0.4,0.1l-0.4,0.7c-0.1,0.2-0.1,0.3,0.2,0.4C61.2,114.2,62,114.5,63.2,114.5z
							 M74.6,114.3c0.2,0,0.3-0.1,0.3-0.3v-2h1c0.2,0,0.3-0.1,0.3-0.3V111c0-0.2-0.1-0.3-0.3-0.3h-1v-3.9c0-0.1-0.1-0.2-0.2-0.2
							c-0.1,0-0.2,0-0.3,0l-0.7,0.2c-0.2,0-0.2,0.1-0.2,0.3v3.7h-2.8l2-6.1c0.1-0.2,0-0.4-0.2-0.4h-0.9c-0.2,0-0.3,0.1-0.4,0.3
							l-2.3,7.1c-0.1,0.2,0,0.4,0.2,0.4h4.3v2c0,0.2,0.1,0.3,0.3,0.3C73.9,114.3,74.6,114.3,74.6,114.3z M90.2,114.5
							c2,0,3.3-1.3,3.3-3.2c0-2-1.3-3.2-3-3.2c-0.4,0-0.9,0.1-1.2,0.2l0.2-2.7h2.9c0.2,0,0.3-0.1,0.3-0.3l0.2-0.8
							c0-0.2,0-0.3-0.2-0.3h-4.1c-0.2,0-0.3,0.1-0.3,0.3l-0.4,4.7c0,0.2,0.1,0.4,0.4,0.3c0.4-0.2,1-0.4,1.7-0.4
							c1.3,0,2.1,0.8,2.1,1.9c0,1.2-0.9,1.9-1.9,1.9c-0.8,0-1.4-0.3-2-0.7c-0.2-0.1-0.4-0.1-0.4,0.1l-0.4,0.7
							c-0.1,0.2-0.1,0.3,0.1,0.4C88.2,114.2,89.2,114.5,90.2,114.5z M99.9,114.5c1.8,0,3.1-1.4,3.1-3.2c0-2.2-1.4-3.2-2.9-3.2
							c-0.9,0-1.7,0.4-2.2,0.7c0.1-2.5,1.3-3.2,2.5-3.2c0.5,0,1,0.1,1.4,0.4c0.2,0.1,0.4,0.1,0.4-0.1l0.4-0.6
							c0.1-0.2,0.1-0.3-0.1-0.4c-0.5-0.3-1.2-0.5-2.1-0.5c-2,0-3.8,1.6-3.8,5.3C96.4,112.8,97.9,114.5,99.9,114.5z M99.9,113.3
							c-1.2,0-2-1.2-2-3.4c0.4-0.3,1.1-0.6,1.9-0.6c1,0,1.8,0.7,1.8,2C101.6,112.4,100.9,113.3,99.9,113.3z M107.4,114.3
							c0.2,0,0.4-0.1,0.4-0.3l3.5-9.4c0.1-0.2,0-0.4-0.2-0.4h-5.4c-0.2,0-0.3,0.1-0.2,0.3l0.2,0.8c0,0.2,0.2,0.3,0.3,0.3h3.6
							l-3.1,8.3c-0.1,0.2,0,0.4,0.2,0.4C106.6,114.3,107.4,114.3,107.4,114.3z M117.1,114.5c1.8,0,3.2-1.1,3.2-2.6
							c0-1.2-0.9-2.3-2-2.7c1-0.5,1.7-1.3,1.7-2.4c0-1.4-1.2-2.5-2.9-2.5c-1.8,0-3,1.1-3,2.5c0,1,0.7,1.8,1.7,2.4
							c-1.1,0.5-2,1.5-2,2.7C113.8,113.4,115.1,114.5,117.1,114.5z M117.1,108.5c-1-0.4-1.6-1-1.6-1.8c0-0.9,0.7-1.4,1.6-1.4
							c0.8,0,1.6,0.5,1.6,1.4S117.9,108.1,117.1,108.5z M117.1,113.3c-1.1,0-1.8-0.6-1.8-1.6c0-1.1,0.9-1.7,1.8-2.1
							c1,0.4,1.8,1.1,1.8,2.1C118.9,112.7,118.1,113.3,117.1,113.3z M134.8,114.5c2,0,3.9-1.6,3.9-5.3c0-3.3-1.4-5-3.5-5
							c-1.8,0-3.1,1.4-3.1,3.2c0,2.2,1.4,3.2,2.9,3.2c0.9,0,1.7-0.4,2.2-0.7c-0.1,2.5-1.3,3.2-2.5,3.2c-0.5,0-1-0.1-1.4-0.4
							c-0.2-0.1-0.4-0.1-0.4,0.1l-0.4,0.6c-0.1,0.2-0.1,0.3,0.1,0.4C133.2,114.2,133.9,114.5,134.8,114.5z M135.2,109.5
							c-1,0-1.8-0.7-1.8-2c0-1.1,0.7-2,1.7-2c1.2,0,2,1.2,2,3.4C136.8,109.2,136.1,109.5,135.2,109.5z M144.8,114.3
							c0.2,0,0.3-0.1,0.3-0.3v-9.5c0-0.2-0.1-0.3-0.3-0.3H144c-0.2,0-0.2,0-0.4,0.1l-2.4,1.7c-0.1,0.1-0.2,0.2-0.1,0.4l0.4,0.6
							c0.1,0.1,0.3,0.1,0.4,0l1.6-1.1v8.1c0,0.2,0.1,0.3,0.3,0.3H144.8z M152.1,114.5c2.5,0,3.5-2.3,3.5-5.2s-1.1-5.2-3.5-5.2
							c-2.5,0-3.5,2.3-3.5,5.2S149.6,114.5,152.1,114.5z M152.1,113.2c-1.4,0-2-1.6-2-3.9c0-2.3,0.6-3.9,2-3.9c1.5,0,2,1.6,2,3.9
							S153.6,113.2,152.1,113.2z M161.8,114.3c0.2,0,0.3-0.1,0.3-0.3v-9.5c0-0.2-0.1-0.3-0.3-0.3H161c-0.2,0-0.2,0-0.4,0.1l-2.4,1.7
							c-0.1,0.1-0.2,0.2-0.1,0.4l0.4,0.6c0.1,0.1,0.3,0.1,0.4,0l1.6-1.1v8.1c0,0.2,0.1,0.3,0.3,0.3H161.8z M177.8,114.3
							c0.2,0,0.3-0.1,0.3-0.3v-9.5c0-0.2-0.1-0.3-0.3-0.3H177c-0.2,0-0.2,0-0.4,0.1l-2.4,1.7c-0.1,0.1-0.2,0.2-0.1,0.4l0.4,0.6
							c0.1,0.1,0.3,0.1,0.4,0l1.6-1.1v8.1c0,0.2,0.1,0.3,0.3,0.3H177.8z M187.1,114.3c0.2,0,0.3-0.1,0.3-0.3v-0.8
							c0-0.2-0.1-0.3-0.3-0.3h-3.4l1.6-2.2c1.1-1.5,1.8-2.8,1.8-3.9c0-1.8-1.1-2.6-2.9-2.6c-1.1,0-2,0.4-2.5,0.8
							c-0.2,0.2-0.3,0.3-0.2,0.4l0.4,0.7c0.1,0.2,0.3,0.2,0.4,0.1c0.6-0.4,1.2-0.7,2-0.7s1.5,0.5,1.5,1.4s-0.4,1.8-1.6,3.2l-2.6,3.7
							c-0.1,0.2-0.2,0.2-0.2,0.3s0.1,0.2,0.2,0.2C181.6,114.3,187.1,114.3,187.1,114.3z M193.6,114.3c0.2,0,0.3-0.1,0.3-0.3v-9.5
							c0-0.2-0.1-0.3-0.3-0.3h-0.8c-0.2,0-0.2,0-0.4,0.1L190,106c-0.1,0.1-0.2,0.2-0.1,0.4l0.4,0.6c0.1,0.1,0.3,0.1,0.4,0l1.6-1.1
							v8.1c0,0.2,0.1,0.3,0.3,0.3H193.6z M199.8,114.5c2,0,3.3-1.3,3.3-3.2s-1.3-2.9-2.7-3.1l2.2-3.5c0.1-0.2,0-0.4-0.2-0.4h-4.8
							c-0.2,0-0.3,0.1-0.2,0.3l0.2,0.8c0,0.2,0.2,0.3,0.3,0.3h2.8l-2.1,3.4c-0.1,0.2,0,0.4,0.2,0.4h0.8c1.4,0,2.2,0.7,2.2,1.8
							c0,1.2-0.9,1.9-1.9,1.9c-0.8,0-1.4-0.3-2-0.7c-0.2-0.1-0.4-0.1-0.4,0.1l-0.4,0.7c-0.1,0.2-0.1,0.3,0.2,0.4
							C197.8,114.2,198.8,114.5,199.8,114.5z"/>
					</g>
				</g>
				<g>
					<g>
						<path id="path-6_1_" class="st3" d="M45.4,138.9c0.2,0,0.3,0,0.3-0.2l0.7-1.8h3.2l0.7,1.8c0,0.1,0.1,0.2,0.3,0.2h0.7
							c0.1,0,0.2-0.1,0.2-0.3l-2.8-7c0-0.1-0.1-0.2-0.3-0.2h-0.6c-0.1,0-0.2,0.1-0.3,0.2l-2.8,7c-0.1,0.2,0,0.3,0.2,0.3H45.4z
							 M49,136.1h-2.5l1.2-3.2L49,136.1z M55.5,139c1.4,0,2.5-0.9,2.5-2.1c0-1-0.5-1.6-1.3-2l-1.2-0.6c-0.5-0.3-0.9-0.6-0.9-1.1
							s0.4-1,1.1-1c0.5,0,1,0.2,1.3,0.4c0.1,0.1,0.3,0.1,0.3-0.1l0.3-0.5c0.1-0.1,0-0.3-0.1-0.3c-0.4-0.2-1.1-0.4-1.8-0.4
							c-1.2,0-2.2,0.8-2.2,2c0,1,0.6,1.6,1.3,1.9l1.2,0.6c0.5,0.3,0.9,0.6,0.9,1.1c0,0.7-0.5,1.1-1.4,1.1c-0.6,0-1.2-0.3-1.7-0.6
							c-0.1-0.1-0.3,0-0.3,0.1l-0.3,0.5c-0.1,0.1,0,0.2,0.1,0.3C53.7,138.6,54.5,139,55.5,139z M61.2,138.9c0.1,0,0.2-0.1,0.2-0.2
							v-7.1c0-0.1-0.1-0.2-0.2-0.2h-0.7c-0.1,0-0.2,0.1-0.2,0.2v7.1c0,0.1,0.1,0.2,0.2,0.2H61.2z M64.4,138.9c0.2,0,0.3,0,0.3-0.2
							l0.7-1.8h3.2l0.7,1.8c0,0.1,0.1,0.2,0.3,0.2h0.7c0.1,0,0.2-0.1,0.2-0.3l-2.8-7c0-0.1-0.1-0.2-0.3-0.2h-0.6
							c-0.1,0-0.2,0.1-0.3,0.2l-2.8,7c-0.1,0.2,0,0.3,0.2,0.3H64.4z M68.2,136.1h-2.5l1.2-3.2L68.2,136.1z M73.6,138.9
							c0.1,0,0.2-0.1,0.2-0.2v-2.1l1.2-1.3l2.2,3.4c0.1,0.1,0.2,0.2,0.3,0.2h0.9c0.1,0,0.2-0.1,0.1-0.3l-2.6-4.1l2.5-2.9
							c0.1-0.1,0.1-0.3-0.1-0.3h-0.8c-0.2,0-0.3,0.1-0.4,0.2l-3.2,3.7v-3.7c0-0.1-0.1-0.2-0.2-0.2h-0.7c-0.1,0-0.2,0.1-0.2,0.2v7.1
							c0,0.1,0.1,0.2,0.2,0.2L73.6,138.9L73.6,138.9z M80.8,138.9c0.2,0,0.3,0,0.3-0.2l0.7-1.8h3.2l0.7,1.8c0,0.1,0.1,0.2,0.3,0.2
							h0.7c0.1,0,0.2-0.1,0.2-0.3l-2.8-7c0-0.1-0.1-0.2-0.3-0.2h-0.6c-0.1,0-0.2,0.1-0.3,0.2l-2.8,7c-0.1,0.2,0,0.3,0.2,0.3H80.8z
							 M84.6,136.1h-2.5l1.2-3.2L84.6,136.1z M90.9,139c1.4,0,2.5-0.9,2.5-2.1c0-1-0.5-1.6-1.3-2l-1.2-0.6c-0.5-0.3-0.9-0.6-0.9-1.1
							s0.4-1,1.1-1c0.5,0,1,0.2,1.3,0.4c0.1,0.1,0.3,0.1,0.3-0.1L93,132c0.1-0.1,0-0.3-0.1-0.3c-0.4-0.2-1.1-0.4-1.8-0.4
							c-1.2,0-2.2,0.8-2.2,2c0,1,0.6,1.6,1.3,1.9l1.2,0.6c0.5,0.3,0.9,0.6,0.9,1.1c0,0.7-0.5,1.1-1.4,1.1c-0.6,0-1.2-0.3-1.7-0.6
							c-0.1-0.1-0.3,0-0.3,0.1l-0.3,0.5c-0.1,0.1,0,0.2,0.1,0.3C89.1,138.6,89.9,139,90.9,139z M105.9,138.9c0.2,0,0.3,0,0.3-0.2
							l0.7-1.8h3.2l0.7,1.8c0,0.1,0.1,0.2,0.3,0.2h0.7c0.1,0,0.2-0.1,0.2-0.3l-2.8-7c0-0.1-0.1-0.2-0.3-0.2h-0.6
							c-0.1,0-0.2,0.1-0.3,0.2l-2.8,7c-0.1,0.2,0,0.3,0.2,0.3H105.9z M109.9,136.1h-2.5l1.2-3.2L109.9,136.1z M116.1,139
							c1.4,0,2.5-0.9,2.5-2.1c0-1-0.5-1.6-1.3-2l-1.2-0.6c-0.5-0.3-0.9-0.6-0.9-1.1s0.4-1,1.1-1c0.5,0,1,0.2,1.3,0.4
							c0.1,0.1,0.3,0.1,0.3-0.1l0.3-0.5c0.1-0.1,0-0.3-0.1-0.3c-0.4-0.2-1.1-0.4-1.8-0.4c-1.2,0-2.2,0.8-2.2,2c0,1,0.6,1.6,1.3,1.9
							l1.2,0.6c0.5,0.3,0.9,0.6,0.9,1.1c0,0.7-0.5,1.1-1.4,1.1c-0.6,0-1.2-0.3-1.7-0.6c-0.1-0.1-0.3,0-0.3,0.1l-0.3,0.5
							c-0.1,0.1,0,0.2,0.1,0.3C114.4,138.6,115.2,139,116.1,139z M122.9,139c1.4,0,2.5-0.9,2.5-2.1c0-1-0.5-1.6-1.3-2l-1.2-0.6
							c-0.5-0.3-0.9-0.6-0.9-1.1s0.4-1,1.1-1c0.5,0,1,0.2,1.3,0.4c0.1,0.1,0.3,0.1,0.3-0.1l0.3-0.5c0.1-0.1,0-0.3-0.1-0.3
							c-0.4-0.2-1.1-0.4-1.8-0.4c-1.2,0-2.2,0.8-2.2,2c0,1,0.6,1.6,1.3,1.9l1.2,0.6c0.5,0.3,0.9,0.6,0.9,1.1c0,0.7-0.5,1.1-1.4,1.1
							c-0.6,0-1.2-0.3-1.7-0.6c-0.1-0.1-0.3,0-0.3,0.1l-0.3,0.5c-0.1,0.1,0,0.2,0.1,0.3C121.1,138.6,122.1,139,122.9,139z
							 M128.6,138.9c0.1,0,0.2-0.1,0.2-0.2v-7.1c0-0.1-0.1-0.2-0.2-0.2h-0.7c-0.1,0-0.2,0.1-0.2,0.2v7.1c0,0.1,0.1,0.2,0.2,0.2
							H128.6z"/>
					</g>
				</g>
				<g id="_x30_1_x2F_21">
					<g>
						<path id="path-8_1_" class="st3" d="M177.1,139c1.8,0,2.6-1.7,2.6-3.9s-0.8-3.9-2.6-3.9s-2.6,1.7-2.6,3.9
							C174.6,137.3,175.3,139,177.1,139z M177.1,138.1c-1.1,0-1.5-1.2-1.5-2.9c0-1.8,0.4-2.9,1.5-2.9s1.5,1.1,1.5,2.9
							C178.8,136.9,178.2,138.1,177.1,138.1z M184.4,138.9c0.1,0,0.2-0.1,0.2-0.2v-7.1c0-0.1-0.1-0.2-0.2-0.2h-0.5
							c-0.1,0-0.2,0-0.3,0.1l-1.8,1.2c-0.1,0.1-0.1,0.2-0.1,0.3l0.4,0.4c0.1,0.1,0.2,0.1,0.3,0l1.1-0.8v6c0,0.1,0.1,0.2,0.2,0.2
							C183.8,138.9,184.4,138.9,184.4,138.9z M187.4,140.5c0.1,0,0.2,0,0.3-0.2l3.6-9.3c0.1-0.2,0-0.2-0.1-0.2h-0.6
							c-0.1,0-0.2,0-0.3,0.2l-3.6,9.3c-0.1,0.2,0,0.2,0.1,0.2H187.4z M197.1,138.9c0.1,0,0.2-0.1,0.2-0.2v-0.6
							c0-0.1-0.1-0.2-0.2-0.2h-2.5l1.2-1.7c0.8-1.1,1.4-2.1,1.4-3c0-1.3-0.9-2-2.1-2c-0.8,0-1.5,0.3-1.9,0.6
							c-0.2,0.1-0.2,0.2-0.1,0.4l0.3,0.5c0.1,0.1,0.2,0.2,0.3,0.1c0.4-0.3,0.9-0.5,1.5-0.5s1.1,0.4,1.1,1.1c0,0.6-0.4,1.3-1.1,2.5
							l-2,2.8c-0.1,0.1-0.1,0.2-0.1,0.3s0.1,0.1,0.2,0.1L197.1,138.9L197.1,138.9z M201.9,138.9c0.1,0,0.2-0.1,0.2-0.2v-7.1
							c0-0.1-0.1-0.2-0.2-0.2h-0.5c-0.1,0-0.2,0-0.3,0.1l-1.8,1.2c-0.1,0.1-0.1,0.2-0.1,0.3l0.4,0.4c0.1,0.1,0.2,0.1,0.3,0l1.1-0.8
							v6c0,0.1,0.1,0.2,0.2,0.2C201.2,138.9,201.9,138.9,201.9,138.9z"/>
					</g>
				</g>
				<path id="contactless" class="st1" d="M89.9,89.3c-0.2-0.1-0.4-0.4-0.4-0.5c0-0.2,0-0.3,0.3-0.7c0.9-1.8,1.3-3.3,1.3-5.3
					c0-1.9-0.4-3.3-1.2-5.1c-0.2-0.4-0.4-0.7-0.4-0.8c0-0.2,0.2-0.4,0.4-0.5c0.3-0.2,0.6-0.1,0.8,0.1c0.1,0.1,0.3,0.4,0.4,0.7
					c0.6,1.2,1.1,2.5,1.2,3.9c0.1,0.9,0.2,2.5,0.1,3.2c-0.2,1.5-0.6,2.7-1.2,4c-0.4,0.8-0.6,1.1-0.8,1.1c0,0-0.1,0-0.2,0
					C90.1,89.3,90.1,89.3,89.9,89.3z M87.4,87.9c-0.4-0.1-0.5-0.5-0.4-0.8c0-0.1,0.2-0.4,0.4-0.7c0.7-1.4,1-2.9,0.9-4.4
					c-0.1-1.2-0.4-2-0.9-3.2c-0.4-0.8-0.4-0.9-0.2-1.1c0.2-0.3,0.7-0.4,1-0.1c0.2,0.2,0.8,1.4,1,2.1c0.7,2.3,0.6,4.7-0.4,6.9
					C88.1,87.7,87.9,88,87.4,87.9z M84.8,86.6c-0.2-0.1-0.4-0.3-0.4-0.5c0-0.1,0-0.3,0.3-0.8c0.9-1.8,0.9-3.5,0-5.2
					c-0.4-0.8-0.4-0.9-0.1-1.2c0.2-0.2,0.3-0.2,0.4-0.2c0.4,0,0.5,0.2,0.9,0.9c0.5,1.1,0.7,1.9,0.7,3.1s-0.2,2-0.7,3.1
					c-0.4,0.6-0.4,0.8-0.8,0.9C85.1,86.6,84.9,86.6,84.8,86.6z M82.4,85.3c-0.2-0.1-0.4-0.3-0.4-0.4c-0.1-0.2,0-0.4,0.3-0.8
					c0.3-0.5,0.4-0.8,0.4-1.4s-0.1-1-0.4-1.4c-0.1-0.2-0.2-0.4-0.3-0.4c-0.1-0.4,0.2-0.7,0.5-0.8c0.4-0.1,0.5,0.1,0.8,0.5
					c0.9,1.3,0.9,3.1,0,4.4C83.1,85.3,82.8,85.5,82.4,85.3L82.4,85.3z"/>
			</g>
		</g>
	</g>
</g>
</svg>
