<?xml version="1.0" encoding="utf-8"?>
<!-- Generator: Adobe Illustrator 25.0.0, SVG Export Plug-In . SVG Version: 6.00 Build 0)  -->
<svg version="1.1" id="Layer_1" xmlns="http://www.w3.org/2000/svg" xmlns:xlink="http://www.w3.org/1999/xlink" x="0px" y="0px"
	 viewBox="0 0 233 150" style="enable-background:new 0 0 233 150;" xml:space="preserve">
<style type="text/css">
	.st0{fill-rule:evenodd;clip-rule:evenodd;fill:#EEEEEE;}
	.st1{fill-rule:evenodd;clip-rule:evenodd;fill:#FFFFFF;}
	.st2{fill-rule:evenodd;clip-rule:evenodd;fill:#DDDDDD;}
	.st3{fill-rule:evenodd;clip-rule:evenodd;fill:#FAFAFA;}
	.st4{fill-rule:evenodd;clip-rule:evenodd;fill:url(#SVGID_1_);}
	.st5{fill:#F86800;}
	.st6{fill-rule:evenodd;clip-rule:evenodd;fill:#F9F8F8;}
</style>
<g>
	<g id="Vanha" transform="translate(-71.000000, -417.000000)">
		<g transform="translate(75.000000, 419.000000)">
			<g>
				<g id="Path-2">
					<g>
						<path id="path-1_1_" class="st0" d="M10.5,0.6h204c5.5,0,10,4.5,10,10v121c0,5.5-4.5,10-10,10h-204c-5.5,0-10-4.5-10-10v-121
							C0.5,5.1,4.9,0.6,10.5,0.6z"/>
					</g>
				</g>
				<polygon id="Path-3" class="st1" points="206.2,52.4 206.2,73 216.5,62.7 				"/>
				<rect x="0.5" y="12.6" class="st2" width="224" height="32"/>
				<rect x="8" y="51" class="st3" width="130" height="23"/>
				<rect x="138" y="55" class="st1" width="21" height="16"/>
				
					<linearGradient id="SVGID_1_" gradientUnits="userSpaceOnUse" x1="-377.593" y1="560.75" x2="-377.593" y2="559.4374" gradientTransform="matrix(43 0 0 -32 16266 18026.6289)">
					<stop  offset="0" style="stop-color:#FFFFFF"/>
					<stop  offset="1" style="stop-color:#F7F7F7"/>
				</linearGradient>
				<path class="st4" d="M11,82.6h37c1.7,0,3,1.3,3,3v26c0,1.7-1.3,3-3,3H11c-1.7,0-3-1.3-3-3v-26C8,84,9.3,82.6,11,82.6z"/>
				<path id="_x31_234567891011213" class="st5" d="M10.6,134c0.1,0,0.2-0.1,0.2-0.2v-6.1c0-0.1-0.1-0.2-0.2-0.2h-0.5
					c-0.1,0-0.1,0-0.2,0.1l-1.5,1.1c-0.1,0.1-0.1,0.1,0,0.2l0.3,0.4c0.1,0.1,0.1,0.1,0.2,0l1-0.7v5.2c0,0.1,0.1,0.2,0.2,0.2H10.6z
					 M15.7,134c0.1,0,0.2-0.1,0.2-0.2v-0.5c0-0.1-0.1-0.2-0.2-0.2h-2.2l1-1.4c0.7-1,1.2-1.8,1.2-2.5c0-1.1-0.7-1.7-1.8-1.7
					c-0.7,0-1.3,0.3-1.7,0.5c-0.1,0.1-0.1,0.2-0.1,0.3l0.2,0.4c0.1,0.1,0.2,0.1,0.3,0.1c0.4-0.2,0.8-0.4,1.3-0.4
					c0.5,0,0.9,0.3,0.9,0.9c0,0.6-0.3,1.1-1,2.1l-1.7,2.4c-0.1,0.1-0.1,0.1-0.1,0.2c0,0.1,0.1,0.1,0.1,0.1H15.7z M18.4,134.1
					c1.3,0,2.2-0.9,2.2-2.1c0-1.3-0.8-1.9-1.7-1.9l1.4-2.3c0.1-0.1,0-0.2-0.1-0.2h-3.1c-0.1,0-0.2,0.1-0.1,0.2l0.1,0.5
					c0,0.1,0.1,0.2,0.2,0.2H19l-1.4,2.2c-0.1,0.1,0,0.2,0.1,0.2h0.5c0.9,0,1.4,0.5,1.4,1.2c0,0.8-0.6,1.2-1.3,1.2
					c-0.5,0-0.9-0.2-1.3-0.4c-0.1-0.1-0.2,0-0.3,0.1l-0.2,0.4c0,0.1,0,0.2,0.1,0.3C17.1,133.9,17.8,134.1,18.4,134.1z M25,134
					c0.1,0,0.2-0.1,0.2-0.2v-1.3h0.6c0.1,0,0.2-0.1,0.2-0.2v-0.5c0-0.1-0.1-0.2-0.2-0.2h-0.6v-2.5c0-0.1-0.1-0.1-0.1-0.1
					c0,0-0.1,0-0.2,0l-0.4,0.1c-0.1,0-0.1,0.1-0.1,0.2v2.4h-1.8l1.3-3.9c0-0.1,0-0.2-0.1-0.2h-0.5c-0.1,0-0.2,0.1-0.2,0.2l-1.5,4.6
					c0,0.1,0,0.2,0.1,0.2h2.7v1.3c0,0.1,0.1,0.2,0.2,0.2H25z M30.5,134.1c1.3,0,2.2-0.9,2.2-2.1c0-1.3-0.9-2-1.9-2
					c-0.3,0-0.6,0-0.8,0.1l0.1-1.7h1.9c0.1,0,0.2,0,0.2-0.2l0.1-0.5c0-0.1,0-0.2-0.1-0.2h-2.6c-0.1,0-0.2,0.1-0.2,0.2l-0.2,3.1
					c0,0.1,0.1,0.2,0.2,0.2c0.3-0.1,0.6-0.2,1.1-0.2c0.8,0,1.3,0.5,1.3,1.2c0,0.8-0.6,1.2-1.3,1.2c-0.5,0-0.9-0.2-1.3-0.4
					c-0.1-0.1-0.2,0-0.3,0.1l-0.2,0.4c-0.1,0.1,0,0.2,0.1,0.3C29.2,133.9,29.8,134.1,30.5,134.1z M35.8,134.1c1.2,0,2-0.9,2-2.1
					c0-1.4-0.9-2-1.9-2c-0.5,0-1.1,0.2-1.4,0.4c0.1-1.6,0.8-2.1,1.6-2.1c0.3,0,0.6,0.1,0.9,0.3c0.1,0.1,0.2,0,0.3-0.1l0.2-0.4
					c0.1-0.1,0-0.2-0.1-0.3c-0.3-0.2-0.8-0.3-1.3-0.3c-1.3,0-2.4,1-2.4,3.4C33.6,133,34.5,134.1,35.8,134.1z M35.8,133.3
					c-0.8,0-1.3-0.8-1.3-2.2c0.3-0.2,0.7-0.4,1.3-0.4c0.6,0,1.1,0.4,1.1,1.3C36.9,132.7,36.5,133.3,35.8,133.3z M39.9,134
					c0.1,0,0.2-0.1,0.2-0.2l2.2-6c0-0.1,0-0.2-0.1-0.2h-3.5c-0.1,0-0.2,0.1-0.1,0.2l0.1,0.5c0,0.1,0.1,0.2,0.2,0.2h2.3l-2,5.3
					c0,0.1,0,0.2,0.1,0.2H39.9z M45.2,134.1c1.2,0,2.1-0.7,2.1-1.7c0-0.8-0.6-1.4-1.3-1.8c0.6-0.3,1.1-0.9,1.1-1.5
					c0-0.9-0.8-1.6-1.9-1.6c-1.1,0-1.9,0.7-1.9,1.6c0,0.6,0.4,1.2,1.1,1.5c-0.7,0.3-1.3,1-1.3,1.8C43,133.4,43.9,134.1,45.2,134.1z
					 M45.2,130.3c-0.6-0.3-1-0.6-1-1.1c0-0.6,0.5-0.9,1-0.9c0.5,0,1,0.3,1,0.9C46.2,129.7,45.8,130,45.2,130.3z M45.2,133.3
					c-0.7,0-1.2-0.4-1.2-1c0-0.7,0.6-1.1,1.2-1.4c0.6,0.3,1.2,0.7,1.2,1.4C46.3,132.9,45.9,133.3,45.2,133.3z M52,134.1
					c1.3,0,2.4-1,2.4-3.4c0-2.1-0.9-3.2-2.2-3.2c-1.2,0-2,0.9-2,2.1c0,1.4,0.9,2,1.9,2c0.5,0,1.1-0.2,1.4-0.4
					c-0.1,1.6-0.8,2.1-1.6,2.1c-0.3,0-0.6-0.1-0.9-0.3c-0.1-0.1-0.2,0-0.3,0.1l-0.2,0.4c-0.1,0.1,0,0.2,0.1,0.3
					C50.9,134,51.4,134.1,52,134.1z M52.2,130.9c-0.6,0-1.1-0.4-1.1-1.3c0-0.7,0.4-1.3,1.1-1.3c0.8,0,1.3,0.8,1.3,2.2
					C53.2,130.7,52.8,130.9,52.2,130.9z M57.5,134c0.1,0,0.2-0.1,0.2-0.2v-6.1c0-0.1-0.1-0.2-0.2-0.2h-0.5c-0.1,0-0.1,0-0.2,0.1
					l-1.5,1.1c-0.1,0.1-0.1,0.1,0,0.2l0.3,0.4c0.1,0.1,0.1,0.1,0.2,0l1-0.7v5.2c0,0.1,0.1,0.2,0.2,0.2H57.5z M61.4,134.1
					c1.6,0,2.2-1.5,2.2-3.3s-0.7-3.3-2.2-3.3c-1.6,0-2.2,1.5-2.2,3.3S59.8,134.1,61.4,134.1z M61.4,133.3c-0.9,0-1.3-1-1.3-2.5
					c0-1.5,0.4-2.5,1.3-2.5c0.9,0,1.3,1,1.3,2.5C62.7,132.3,62.3,133.3,61.4,133.3z M66.8,134c0.1,0,0.2-0.1,0.2-0.2v-6.1
					c0-0.1-0.1-0.2-0.2-0.2h-0.5c-0.1,0-0.1,0-0.2,0.1l-1.5,1.1c-0.1,0.1-0.1,0.1,0,0.2l0.3,0.4c0.1,0.1,0.1,0.1,0.2,0l1-0.7v5.2
					c0,0.1,0.1,0.2,0.2,0.2H66.8z M72.5,134c0.1,0,0.2-0.1,0.2-0.2v-6.1c0-0.1-0.1-0.2-0.2-0.2H72c-0.1,0-0.1,0-0.2,0.1l-1.5,1.1
					c-0.1,0.1-0.1,0.1,0,0.2l0.3,0.4c0.1,0.1,0.1,0.1,0.2,0l1-0.7v5.2c0,0.1,0.1,0.2,0.2,0.2H72.5z M77.6,134c0.1,0,0.2-0.1,0.2-0.2
					v-0.5c0-0.1-0.1-0.2-0.2-0.2h-2.2l1-1.4c0.7-1,1.2-1.8,1.2-2.5c0-1.1-0.7-1.7-1.8-1.7c-0.7,0-1.3,0.3-1.7,0.5
					c-0.1,0.1-0.1,0.2-0.1,0.3l0.2,0.4c0.1,0.1,0.2,0.1,0.3,0.1c0.4-0.2,0.8-0.4,1.3-0.4c0.5,0,0.9,0.3,0.9,0.9c0,0.6-0.3,1.1-1,2.1
					l-1.7,2.4c-0.1,0.1-0.1,0.1-0.1,0.2c0,0.1,0.1,0.1,0.1,0.1H77.6z M80.9,134c0.1,0,0.2-0.1,0.2-0.2v-6.1c0-0.1-0.1-0.2-0.2-0.2
					h-0.5c-0.1,0-0.1,0-0.2,0.1l-1.5,1.1c-0.1,0.1-0.1,0.1,0,0.2l0.3,0.4c0.1,0.1,0.1,0.1,0.2,0l1-0.7v5.2c0,0.1,0.1,0.2,0.2,0.2
					H80.9z M84,134.1c1.3,0,2.2-0.9,2.2-2.1c0-1.3-0.8-1.9-1.7-1.9l1.4-2.3c0.1-0.1,0-0.2-0.1-0.2h-3.1c-0.1,0-0.2,0.1-0.1,0.2
					l0.1,0.5c0,0.1,0.1,0.2,0.2,0.2h1.8l-1.4,2.2c-0.1,0.1,0,0.2,0.1,0.2h0.5c0.9,0,1.4,0.5,1.4,1.2c0,0.8-0.6,1.2-1.3,1.2
					c-0.5,0-0.9-0.2-1.3-0.4c-0.1-0.1-0.2,0-0.3,0.1l-0.2,0.4c0,0.1,0,0.2,0.1,0.3C82.7,133.9,83.4,134.1,84,134.1z"/>
				<path id="_x31_23" class="st5" d="M120.6,134c0.1,0,0.2-0.1,0.2-0.2v-6.1c0-0.1-0.1-0.2-0.2-0.2h-0.5c-0.1,0-0.1,0-0.2,0.1
					l-1.5,1.1c-0.1,0.1-0.1,0.1,0,0.2l0.3,0.4c0.1,0.1,0.1,0.1,0.2,0l1-0.7v5.2c0,0.1,0.1,0.2,0.2,0.2H120.6z M125.7,134
					c0.1,0,0.2-0.1,0.2-0.2v-0.5c0-0.1-0.1-0.2-0.2-0.2h-2.2l1-1.4c0.7-1,1.2-1.8,1.2-2.5c0-1.1-0.7-1.7-1.8-1.7
					c-0.7,0-1.3,0.3-1.7,0.5c-0.1,0.1-0.1,0.2-0.1,0.3l0.2,0.4c0.1,0.1,0.2,0.1,0.3,0.1c0.4-0.2,0.8-0.4,1.3-0.4
					c0.5,0,0.9,0.3,0.9,0.9c0,0.6-0.3,1.1-1,2.1l-1.7,2.4c-0.1,0.1-0.1,0.1-0.1,0.2c0,0.1,0.1,0.1,0.1,0.1H125.7z M128.4,134.1
					c1.3,0,2.2-0.9,2.2-2.1c0-1.3-0.8-1.9-1.7-1.9l1.4-2.3c0.1-0.1,0-0.2-0.1-0.2h-3.1c-0.1,0-0.2,0.1-0.1,0.2l0.1,0.5
					c0,0.1,0.1,0.2,0.2,0.2h1.8l-1.4,2.2c-0.1,0.1,0,0.2,0.1,0.2h0.5c0.9,0,1.4,0.5,1.4,1.2c0,0.8-0.6,1.2-1.3,1.2
					c-0.5,0-0.9-0.2-1.3-0.4c-0.1-0.1-0.2,0-0.3,0.1l-0.2,0.4c0,0.1,0,0.2,0.1,0.3C127.1,133.9,127.8,134.1,128.4,134.1z"/>
				<rect x="55.5" y="89" class="st6" width="83" height="3"/>
				<rect x="22" y="5" class="st6" width="180" height="3"/>
				<rect x="55.5" y="95" class="st6" width="79" height="3"/>
				<rect x="55.5" y="101" class="st6" width="75" height="3"/>
				<rect x="55.5" y="107" class="st6" width="83" height="3"/>
			</g>
		</g>
	</g>
</g>
</svg>
