<?xml version="1.0" encoding="utf-8"?>
<!-- Generator: Adobe Illustrator 25.0.0, SVG Export Plug-In . SVG Version: 6.00 Build 0)  -->
<svg version="1.1" id="Layer_1" xmlns="http://www.w3.org/2000/svg" xmlns:xlink="http://www.w3.org/1999/xlink" x="0px" y="0px"
	 viewBox="0 0 233 150" style="enable-background:new 0 0 233 150;" xml:space="preserve">
<style type="text/css">
	.st0{fill-rule:evenodd;clip-rule:evenodd;fill:url(#path-2_2_);}
	.st1{fill-rule:evenodd;clip-rule:evenodd;fill:#F86800;}
	.st2{fill:#E9E9E9;}
	.st3{fill:#F86800;}
</style>
<g>
	<g transform="translate(-72.000000, -50.000000)">
		<g transform="translate(76.000000, 52.000000)">
			<g>
				<g>
					<g>
						
							<linearGradient id="path-2_2_" gradientUnits="userSpaceOnUse" x1="-384.7902" y1="570.9929" x2="-384.7902" y2="569.9929" gradientTransform="matrix(224 0 0 -141 86305.4688 80510.625)">
							<stop  offset="0" style="stop-color:#F8F8F8"/>
							<stop  offset="1" style="stop-color:#EEEEEE"/>
						</linearGradient>
						<path id="path-2_1_" class="st0" d="M10.5,0.6h204c5.5,0,10,4.5,10,10v121c0,5.5-4.5,10-10,10h-204c-5.5,0-10-4.5-10-10v-121
							C0.5,5.1,4.9,0.6,10.5,0.6z"/>
					</g>
				</g>
				<g transform="translate(22.000000, 43.000000)">
					<path id="Rectangle" class="st1" d="M8,1h14c4.4,0,8,3.6,8,8v10c0,4.4-3.6,8-8,8H8c-4.4,0-8-3.6-8-8V9C0,4.6,3.6,1,8,1z"/>
					<path id="Combined-Shape" class="st2" d="M9.2,0.8l2,10.4l0,6.5l-2,9.5l-0.4-0.1l2-9.5L0,17.7v-0.4l10.8,0l0-6.1l-0.1-0.5
						L0,10.7v-0.4l10.6,0L8.8,0.8L9.2,0.8z M19.8,0.8l0.4,0.1l-1.8,9.5l11.6,0v0.4l-11.6,0l-0.1,0.5l0,6.1l11.7,0v0.4l-11.7,0
						l1.9,9.5l-0.4,0.1l-2-9.6l0-6.5L19.8,0.8z"/>
				</g>
				<g>
					<g>
						<path id="path-4_1_" class="st3" d="M26.6,94c0.2,0,0.3-0.1,0.3-0.3V82.9c0-0.2-0.1-0.3-0.3-0.3h-0.9c-0.2,0-0.2,0-0.4,0.1
							l-2.7,1.9c-0.1,0.1-0.2,0.2-0.1,0.4l0.5,0.7c0.1,0.1,0.3,0.1,0.4,0l1.8-1.2v9.2c0,0.2,0.1,0.3,0.3,0.3H26.6z M37.2,94
							c0.2,0,0.3-0.1,0.3-0.3v-0.9c0-0.2-0.1-0.3-0.3-0.3h-3.9l1.9-2.5c1.3-1.7,2.1-3.2,2.1-4.5c0-2-1.3-3-3.3-3
							c-1.2,0-2.3,0.4-2.9,0.9c-0.2,0.2-0.3,0.3-0.2,0.5l0.4,0.8c0.1,0.2,0.3,0.2,0.5,0.1c0.7-0.4,1.4-0.8,2.3-0.8
							c0.9,0,1.7,0.6,1.7,1.6c0,1-0.5,2-1.8,3.7l-3,4.2c-0.1,0.2-0.2,0.2-0.2,0.3c0,0.1,0.1,0.2,0.2,0.2H37.2z M43.6,94.2
							c2.3,0,3.8-1.5,3.8-3.6c0-2.2-1.5-3.3-3.1-3.5l2.5-4c0.1-0.2,0-0.4-0.2-0.4h-5.6c-0.2,0-0.3,0.1-0.2,0.3l0.2,0.9
							c0,0.2,0.2,0.3,0.3,0.3h3.2L42.2,88c-0.1,0.2,0,0.4,0.2,0.4h0.9c1.6,0,2.5,0.8,2.5,2.1c0,1.4-1,2.2-2.2,2.2
							c-0.9,0-1.6-0.3-2.3-0.8c-0.2-0.1-0.4-0.1-0.5,0.1l-0.4,0.8c-0.1,0.2-0.1,0.3,0.2,0.5C41.3,93.8,42.4,94.2,43.6,94.2z
							 M56.7,94c0.2,0,0.3-0.1,0.3-0.3v-2.3h1.1c0.2,0,0.3-0.1,0.3-0.3v-0.8c0-0.2-0.1-0.3-0.3-0.3h-1.1v-4.5c0-0.1-0.1-0.2-0.2-0.2
							c-0.1,0-0.2,0-0.3,0l-0.8,0.2c-0.2,0-0.2,0.1-0.2,0.3v4.2h-3.2l2.3-7c0.1-0.2,0-0.4-0.2-0.4h-1c-0.2,0-0.3,0.1-0.4,0.3
							l-2.6,8.1c-0.1,0.2,0,0.4,0.2,0.4h4.9v2.3c0,0.2,0.1,0.3,0.3,0.3H56.7z M74.6,94.2c2.3,0,3.8-1.5,3.8-3.6
							c0-2.3-1.5-3.6-3.4-3.6c-0.5,0-1,0.1-1.4,0.2l0.2-3.1h3.3c0.2,0,0.3-0.1,0.3-0.3l0.2-0.9c0-0.2,0-0.3-0.2-0.3h-4.7
							c-0.2,0-0.3,0.1-0.3,0.3l-0.4,5.4c0,0.2,0.1,0.4,0.4,0.3c0.5-0.2,1.1-0.4,1.9-0.4c1.5,0,2.4,0.9,2.4,2.2c0,1.4-1,2.2-2.2,2.2
							c-0.9,0-1.6-0.3-2.3-0.8c-0.2-0.1-0.4-0.1-0.4,0.1l-0.4,0.8c-0.1,0.2-0.1,0.3,0.1,0.5C72.3,93.8,73.4,94.2,74.6,94.2z
							 M85.6,94.2c2,0,3.5-1.6,3.5-3.7c0-2.5-1.6-3.6-3.3-3.6c-1,0-1.9,0.4-2.5,0.8c0.1-2.8,1.5-3.7,2.8-3.7c0.6,0,1.1,0.1,1.6,0.4
							c0.2,0.1,0.4,0.1,0.5-0.1l0.4-0.7c0.1-0.2,0.1-0.3-0.1-0.4c-0.6-0.3-1.4-0.6-2.4-0.6c-2.3,0-4.3,1.8-4.3,6
							C81.6,92.2,83.2,94.2,85.6,94.2z M85.6,92.8c-1.4,0-2.3-1.4-2.3-3.9c0.5-0.3,1.3-0.7,2.2-0.7c1.1,0,2,0.8,2,2.3
							C87.5,91.8,86.7,92.8,85.6,92.8z M94.2,94c0.2,0,0.4-0.1,0.4-0.3L98.6,83c0.1-0.2,0-0.4-0.2-0.4h-6.2c-0.2,0-0.3,0.1-0.2,0.3
							l0.2,0.9c0,0.2,0.2,0.3,0.3,0.3h4.1l-3.5,9.5c-0.1,0.2,0,0.4,0.2,0.4H94.2z M105.1,94.2c2.1,0,3.7-1.3,3.7-3
							c0-1.4-1-2.6-2.3-3.1c1.1-0.6,1.9-1.5,1.9-2.7c0-1.6-1.4-2.9-3.3-2.9c-2,0-3.4,1.3-3.4,2.9c0,1.1,0.8,2.1,1.9,2.7
							c-1.2,0.6-2.3,1.7-2.3,3.1C101.4,92.9,103,94.2,105.1,94.2z M105.1,87.4c-1.1-0.5-1.8-1.1-1.8-2c0-1,0.8-1.6,1.8-1.6
							c0.9,0,1.8,0.6,1.8,1.6C106.9,86.3,106.2,86.9,105.1,87.4z M105.1,92.8c-1.3,0-2.1-0.7-2.1-1.8c0-1.2,1-1.9,2.1-2.4
							c1.1,0.5,2.1,1.3,2.1,2.4C107.3,92.1,106.4,92.8,105.1,92.8z M125.4,94.2c2.3,0,4.4-1.8,4.4-6c0-3.8-1.6-5.7-4-5.7
							c-2,0-3.5,1.6-3.5,3.7c0,2.5,1.6,3.6,3.3,3.6c1,0,1.9-0.4,2.5-0.8c-0.1,2.8-1.5,3.7-2.8,3.7c-0.6,0-1.1-0.1-1.6-0.4
							c-0.2-0.1-0.4-0.1-0.5,0.1l-0.4,0.7c-0.1,0.2-0.1,0.3,0.1,0.4C123.6,93.9,124.4,94.2,125.4,94.2z M125.9,88.5
							c-1.1,0-2-0.8-2-2.3c0-1.3,0.8-2.3,1.9-2.3c1.4,0,2.3,1.4,2.3,3.9C127.6,88.1,126.8,88.5,125.9,88.5z M136.8,94
							c0.2,0,0.3-0.1,0.3-0.3V82.9c0-0.2-0.1-0.3-0.3-0.3h-0.9c-0.2,0-0.2,0-0.4,0.1l-2.7,1.9c-0.1,0.1-0.2,0.2-0.1,0.4l0.5,0.7
							c0.1,0.1,0.3,0.1,0.4,0l1.8-1.2v9.2c0,0.2,0.1,0.3,0.3,0.3H136.8z M145.1,94.2c2.8,0,4-2.6,4-5.9s-1.2-5.9-4-5.9
							c-2.8,0-4,2.6-4,5.9S142.3,94.2,145.1,94.2z M145.1,92.7c-1.6,0-2.3-1.8-2.3-4.4c0-2.6,0.7-4.4,2.3-4.4c1.7,0,2.3,1.8,2.3,4.4
							C147.4,90.9,146.8,92.7,145.1,92.7z M156.2,94c0.2,0,0.3-0.1,0.3-0.3V82.9c0-0.2-0.1-0.3-0.3-0.3h-0.9c-0.2,0-0.2,0-0.4,0.1
							l-2.7,1.9c-0.1,0.1-0.2,0.2-0.1,0.4l0.5,0.7c0.1,0.1,0.3,0.1,0.4,0l1.8-1.2v9.2c0,0.2,0.1,0.3,0.3,0.3H156.2z M174.5,94
							c0.2,0,0.3-0.1,0.3-0.3V82.9c0-0.2-0.1-0.3-0.3-0.3h-0.9c-0.2,0-0.2,0-0.4,0.1l-2.7,1.9c-0.1,0.1-0.2,0.2-0.1,0.4l0.5,0.7
							c0.1,0.1,0.3,0.1,0.4,0l1.8-1.2v9.2c0,0.2,0.1,0.3,0.3,0.3H174.5z M185.1,94c0.2,0,0.3-0.1,0.3-0.3v-0.9
							c0-0.2-0.1-0.3-0.3-0.3h-3.9L183,90c1.3-1.7,2.1-3.2,2.1-4.5c0-2-1.3-3-3.3-3c-1.2,0-2.3,0.4-2.9,0.9
							c-0.2,0.2-0.3,0.3-0.2,0.5l0.4,0.8c0.1,0.2,0.3,0.2,0.5,0.1c0.7-0.4,1.4-0.8,2.3-0.8c0.9,0,1.7,0.6,1.7,1.6c0,1-0.5,2-1.8,3.7
							l-3,4.2c-0.1,0.2-0.2,0.2-0.2,0.3c0,0.1,0.1,0.2,0.2,0.2H185.1z M192.4,94c0.2,0,0.3-0.1,0.3-0.3V82.9c0-0.2-0.1-0.3-0.3-0.3
							h-0.9c-0.2,0-0.2,0-0.4,0.1l-2.7,1.9c-0.1,0.1-0.2,0.2-0.1,0.4l0.5,0.7c0.1,0.1,0.3,0.1,0.4,0l1.8-1.2v9.2
							c0,0.2,0.1,0.3,0.3,0.3H192.4z M199.5,94.2c2.3,0,3.8-1.5,3.8-3.6c0-2.2-1.5-3.3-3.1-3.5l2.5-4c0.1-0.2,0-0.4-0.2-0.4H197
							c-0.2,0-0.3,0.1-0.2,0.3l0.2,0.9c0,0.2,0.2,0.3,0.3,0.3h3.2l-2.4,3.9c-0.1,0.2,0,0.4,0.2,0.4h0.9c1.6,0,2.5,0.8,2.5,2.1
							c0,1.4-1,2.2-2.2,2.2c-0.9,0-1.6-0.3-2.3-0.8c-0.2-0.1-0.4-0.1-0.5,0.1l-0.4,0.8c-0.1,0.2-0.1,0.3,0.2,0.5
							C197.2,93.8,198.3,94.2,199.5,94.2z"/>
					</g>
				</g>
				<g>
					<g>
						<path id="path-6_1_" class="st3" d="M23.3,122c0.2,0,0.3,0,0.3-0.2l0.8-2H28l0.8,2c0,0.1,0.1,0.2,0.3,0.2h0.8
							c0.1,0,0.2-0.1,0.2-0.3l-3.2-8c0-0.1-0.1-0.2-0.3-0.2h-0.7c-0.1,0-0.2,0.1-0.3,0.2l-3.2,8c-0.1,0.2,0,0.3,0.2,0.3H23.3z
							 M27.6,118.8h-2.9l1.4-3.7L27.6,118.8z M34.8,122.1c1.6,0,2.8-1,2.8-2.4c0-1.1-0.6-1.8-1.5-2.3l-1.4-0.7c-0.6-0.3-1-0.7-1-1.2
							c0-0.6,0.5-1.1,1.3-1.1c0.6,0,1.1,0.2,1.5,0.4c0.1,0.1,0.3,0.1,0.3-0.1l0.3-0.6c0.1-0.1,0-0.3-0.1-0.3c-0.4-0.2-1.2-0.5-2-0.5
							c-1.4,0-2.5,0.9-2.5,2.3c0,1.1,0.7,1.8,1.5,2.2l1.4,0.7c0.6,0.3,1,0.7,1,1.2c0,0.8-0.6,1.3-1.6,1.3c-0.7,0-1.4-0.3-1.9-0.7
							c-0.1-0.1-0.3,0-0.3,0.1l-0.3,0.6c-0.1,0.1,0,0.2,0.1,0.3C32.8,121.7,33.8,122.1,34.8,122.1z M41.4,122c0.1,0,0.2-0.1,0.2-0.2
							v-8.1c0-0.1-0.1-0.2-0.2-0.2h-0.8c-0.1,0-0.2,0.1-0.2,0.2v8.1c0,0.1,0.1,0.2,0.2,0.2H41.4z M45.1,122c0.2,0,0.3,0,0.3-0.2
							l0.8-2h3.7l0.8,2c0,0.1,0.1,0.2,0.3,0.2h0.8c0.1,0,0.2-0.1,0.2-0.3l-3.2-8c0-0.1-0.1-0.2-0.3-0.2h-0.7c-0.1,0-0.2,0.1-0.3,0.2
							l-3.2,8c-0.1,0.2,0,0.3,0.2,0.3H45.1z M49.4,118.8h-2.9l1.4-3.7L49.4,118.8z M55.5,122c0.1,0,0.2-0.1,0.2-0.2v-2.4l1.4-1.5
							l2.5,3.9c0.1,0.1,0.2,0.2,0.3,0.2h1c0.1,0,0.2-0.1,0.1-0.3l-3-4.7l2.9-3.3c0.1-0.1,0.1-0.3-0.1-0.3h-0.9
							c-0.2,0-0.3,0.1-0.4,0.2l-3.7,4.2v-4.2c0-0.1-0.1-0.2-0.2-0.2h-0.8c-0.1,0-0.2,0.1-0.2,0.2v8.1c0,0.1,0.1,0.2,0.2,0.2H55.5z
							 M63.7,122c0.2,0,0.3,0,0.3-0.2l0.8-2h3.7l0.8,2c0,0.1,0.1,0.2,0.3,0.2h0.8c0.1,0,0.2-0.1,0.2-0.3l-3.2-8
							c0-0.1-0.1-0.2-0.3-0.2h-0.7c-0.1,0-0.2,0.1-0.3,0.2l-3.2,8c-0.1,0.2,0,0.3,0.2,0.3H63.7z M68.1,118.8h-2.9l1.4-3.7
							L68.1,118.8z M75.2,122.1c1.6,0,2.8-1,2.8-2.4c0-1.1-0.6-1.8-1.5-2.3l-1.4-0.7c-0.6-0.3-1-0.7-1-1.2c0-0.6,0.5-1.1,1.3-1.1
							c0.6,0,1.1,0.2,1.5,0.4c0.1,0.1,0.3,0.1,0.3-0.1l0.3-0.6c0.1-0.1,0-0.3-0.1-0.3c-0.4-0.2-1.2-0.5-2-0.5
							c-1.4,0-2.5,0.9-2.5,2.3c0,1.1,0.7,1.8,1.5,2.2l1.4,0.7c0.6,0.3,1,0.7,1,1.2c0,0.8-0.6,1.3-1.6,1.3c-0.7,0-1.4-0.3-1.9-0.7
							c-0.1-0.1-0.3,0-0.3,0.1l-0.3,0.6c-0.1,0.1,0,0.2,0.1,0.3C73.3,121.7,74.2,122.1,75.2,122.1z M92.5,122c0.2,0,0.3,0,0.3-0.2
							l0.8-2h3.7l0.8,2c0,0.1,0.1,0.2,0.3,0.2h0.8c0.1,0,0.2-0.1,0.2-0.3l-3.2-8c0-0.1-0.1-0.2-0.3-0.2h-0.7c-0.1,0-0.2,0.1-0.3,0.2
							l-3.2,8c-0.1,0.2,0,0.3,0.2,0.3H92.5z M96.9,118.8H94l1.4-3.7L96.9,118.8z M104.1,122.1c1.6,0,2.8-1,2.8-2.4
							c0-1.1-0.6-1.8-1.5-2.3l-1.4-0.7c-0.6-0.3-1-0.7-1-1.2c0-0.6,0.5-1.1,1.3-1.1c0.6,0,1.1,0.2,1.5,0.4c0.1,0.1,0.3,0.1,0.3-0.1
							l0.3-0.6c0.1-0.1,0-0.3-0.1-0.3c-0.4-0.2-1.2-0.5-2-0.5c-1.4,0-2.5,0.9-2.5,2.3c0,1.1,0.7,1.8,1.5,2.2l1.4,0.7
							c0.6,0.3,1,0.7,1,1.2c0,0.8-0.6,1.3-1.6,1.3c-0.7,0-1.4-0.3-1.9-0.7c-0.1-0.1-0.3,0-0.3,0.1l-0.3,0.6c-0.1,0.1,0,0.2,0.1,0.3
							C102.1,121.7,103.1,122.1,104.1,122.1z M111.8,122.1c1.6,0,2.8-1,2.8-2.4c0-1.1-0.6-1.8-1.5-2.3l-1.4-0.7
							c-0.6-0.3-1-0.7-1-1.2c0-0.6,0.5-1.1,1.3-1.1c0.6,0,1.1,0.2,1.5,0.4c0.1,0.1,0.3,0.1,0.3-0.1l0.3-0.6c0.1-0.1,0-0.3-0.1-0.3
							c-0.4-0.2-1.2-0.5-2-0.5c-1.4,0-2.5,0.9-2.5,2.3c0,1.1,0.7,1.8,1.5,2.2l1.4,0.7c0.6,0.3,1,0.7,1,1.2c0,0.8-0.6,1.3-1.6,1.3
							c-0.7,0-1.4-0.3-1.9-0.7c-0.1-0.1-0.3,0-0.3,0.1l-0.3,0.6c-0.1,0.1,0,0.2,0.1,0.3C109.8,121.7,110.8,122.1,111.8,122.1z
							 M118.4,122c0.1,0,0.2-0.1,0.2-0.2v-8.1c0-0.1-0.1-0.2-0.2-0.2h-0.8c-0.1,0-0.2,0.1-0.2,0.2v8.1c0,0.1,0.1,0.2,0.2,0.2H118.4z
							"/>
					</g>
				</g>
				<g id="_x30_1_x2F_21">
					<g>
						<path id="path-8_1_" class="st3" d="M173.7,122.1c2.1,0,3-1.9,3-4.4s-0.9-4.4-3-4.4c-2.1,0-3,1.9-3,4.4
							S171.6,122.1,173.7,122.1z M173.7,121.1c-1.2,0-1.7-1.4-1.7-3.3c0-2,0.5-3.3,1.7-3.3c1.2,0,1.7,1.3,1.7,3.3
							C175.5,119.7,175,121.1,173.7,121.1z M182,122c0.1,0,0.2-0.1,0.2-0.2v-8.1c0-0.1-0.1-0.2-0.2-0.2h-0.6c-0.1,0-0.2,0-0.3,0.1
							l-2,1.4c-0.1,0.1-0.1,0.2-0.1,0.3l0.4,0.5c0.1,0.1,0.2,0.1,0.3,0l1.3-0.9v6.9c0,0.1,0.1,0.2,0.2,0.2H182z M185.4,123.9
							c0.1,0,0.2,0,0.3-0.2l4.1-10.6c0.1-0.2,0-0.2-0.1-0.2H189c-0.1,0-0.2,0-0.3,0.2l-4.1,10.6c-0.1,0.2,0,0.2,0.1,0.2H185.4z
							 M196.5,122c0.1,0,0.2-0.1,0.2-0.2v-0.7c0-0.1-0.1-0.2-0.2-0.2h-2.9l1.4-1.9c0.9-1.3,1.6-2.4,1.6-3.4c0-1.5-1-2.3-2.4-2.3
							c-0.9,0-1.7,0.3-2.2,0.7c-0.2,0.1-0.2,0.2-0.1,0.4l0.3,0.6c0.1,0.1,0.2,0.2,0.3,0.1c0.5-0.3,1-0.6,1.7-0.6
							c0.7,0,1.3,0.4,1.3,1.2c0,0.7-0.4,1.5-1.3,2.8l-2.3,3.2c-0.1,0.1-0.1,0.2-0.1,0.3c0,0.1,0.1,0.1,0.2,0.1H196.5z M202,122
							c0.1,0,0.2-0.1,0.2-0.2v-8.1c0-0.1-0.1-0.2-0.2-0.2h-0.6c-0.1,0-0.2,0-0.3,0.1l-2,1.4c-0.1,0.1-0.1,0.2-0.1,0.3l0.4,0.5
							c0.1,0.1,0.2,0.1,0.3,0l1.3-0.9v6.9c0,0.1,0.1,0.2,0.2,0.2H202z"/>
					</g>
				</g>
				<path id="contactless" class="st1" d="M74.2,65.4c-0.2-0.1-0.5-0.4-0.5-0.6c0-0.2,0-0.3,0.3-0.8c1-2,1.5-3.8,1.5-6.1
					c0-2.2-0.4-3.8-1.4-5.8c-0.2-0.4-0.4-0.8-0.4-0.9c0-0.2,0.2-0.5,0.4-0.6c0.3-0.2,0.7-0.1,0.9,0.1c0.1,0.1,0.3,0.4,0.5,0.8
					c0.7,1.4,1.2,2.9,1.4,4.5c0.1,1,0.2,2.8,0.1,3.7c-0.2,1.7-0.7,3.1-1.4,4.6c-0.4,0.9-0.7,1.2-0.9,1.2c0,0-0.1,0-0.2,0
					C74.4,65.4,74.3,65.4,74.2,65.4z M71.3,63.9c-0.4-0.1-0.6-0.6-0.5-0.9c0-0.1,0.2-0.5,0.4-0.8c0.8-1.6,1.1-3.3,1-5
					c-0.1-1.4-0.4-2.3-1-3.6c-0.4-0.9-0.4-1-0.2-1.3c0.2-0.3,0.8-0.4,1.1-0.1c0.2,0.2,0.9,1.6,1.1,2.4c0.8,2.6,0.7,5.4-0.4,7.9
					C72.2,63.6,71.8,64,71.3,63.9z M68.3,62.4c-0.2-0.1-0.4-0.3-0.5-0.6c0-0.1,0-0.3,0.3-0.9c1-2,1-4,0-5.9c-0.4-0.9-0.4-1-0.1-1.4
					c0.2-0.2,0.3-0.2,0.5-0.2c0.4,0,0.6,0.2,1,1c0.6,1.2,0.8,2.2,0.8,3.5c0,1.4-0.2,2.3-0.8,3.5c-0.4,0.7-0.5,0.9-0.9,1
					C68.6,62.4,68.4,62.4,68.3,62.4z M65.6,60.9c-0.2-0.1-0.4-0.3-0.4-0.5c-0.1-0.2,0-0.4,0.3-0.9c0.3-0.6,0.4-0.9,0.4-1.6
					c0-0.7-0.1-1.1-0.4-1.6c-0.1-0.2-0.2-0.4-0.3-0.5c-0.1-0.4,0.2-0.8,0.6-0.9c0.4-0.1,0.6,0.1,0.9,0.6c1,1.5,1,3.5,0,5
					C66.3,60.9,66,61.1,65.6,60.9L65.6,60.9z"/>
			</g>
		</g>
	</g>
</g>
</svg>
