<?xml version="1.0" encoding="utf-8"?>
<!-- Generator: Adobe Illustrator 25.0.0, SVG Export Plug-In . SVG Version: 6.00 Build 0)  -->
<svg version="1.1" id="Layer_1" xmlns="http://www.w3.org/2000/svg" xmlns:xlink="http://www.w3.org/1999/xlink" x="0px" y="0px"
	 width="255.1px" height="255.1px" viewBox="0 0 255.1 255.1" style="enable-background:new 0 0 255.1 255.1;" xml:space="preserve"
	>
<style type="text/css">
	.st0{fill-rule:evenodd;clip-rule:evenodd;fill:#EEEEEE;}
	.st1{fill-rule:evenodd;clip-rule:evenodd;fill:#FFFFFF;}
	.st2{fill-rule:evenodd;clip-rule:evenodd;fill:#DDDDDD;}
	.st3{fill-rule:evenodd;clip-rule:evenodd;fill:#FAFAFA;}
	.st4{fill-rule:evenodd;clip-rule:evenodd;fill:url(#SVGID_1_);}
	.st5{fill:#F86800;}
	.st6{fill-rule:evenodd;clip-rule:evenodd;fill:#F9F8F8;}
</style>
<g>
	<g id="Vanha" transform="translate(-71.000000, -417.000000)">
		<g transform="translate(75.000000, 419.000000)">
			<g>
				<g id="Path-2">
					<g>
						<path id="path-1_1_" class="st0" d="M33.5,63.3h180c4.9,0,8.8,4,8.8,8.8V179c0,4.9-4,8.8-8.8,8.8h-180c-4.9,0-8.8-4-8.8-8.8
							V72.2C24.7,67.3,28.6,63.3,33.5,63.3z"/>
					</g>
				</g>
				<polygon id="Path-3" class="st1" points="206.3,109.1 206.3,127.2 215.3,118.1 				"/>
				<rect x="24.7" y="73.9" class="st2" width="197.7" height="28.2"/>
				<rect x="31.3" y="107.8" class="st3" width="114.7" height="20.3"/>
				<rect x="146.1" y="111.3" class="st1" width="18.5" height="14.1"/>
				
					<linearGradient id="SVGID_1_" gradientUnits="userSpaceOnUse" x1="-547.098" y1="-3.4724" x2="-547.098" y2="-2.3139" gradientTransform="matrix(43 0 0 32 23575.5195 246.8257)">
					<stop  offset="0" style="stop-color:#FFFFFF"/>
					<stop  offset="1" style="stop-color:#F7F7F7"/>
				</linearGradient>
				<path class="st4" d="M34,135.7h32.7c1.5,0,2.6,1.1,2.6,2.6v22.9c0,1.5-1.1,2.6-2.6,2.6H34c-1.5,0-2.6-1.1-2.6-2.6v-22.9
					C31.3,136.9,32.5,135.7,34,135.7z"/>
				<path id="_x31_234567891011213" class="st5" d="M33.6,181.1c0.1,0,0.2-0.1,0.2-0.2v-5.4c0-0.1-0.1-0.2-0.2-0.2h-0.4
					c-0.1,0-0.1,0-0.2,0.1l-1.3,1c-0.1,0.1-0.1,0.1,0,0.2l0.3,0.4c0.1,0.1,0.1,0.1,0.2,0l0.9-0.6v4.6c0,0.1,0.1,0.2,0.2,0.2H33.6z
					 M38.1,181.1c0.1,0,0.2-0.1,0.2-0.2v-0.4c0-0.1-0.1-0.2-0.2-0.2h-1.9l0.9-1.2c0.6-0.9,1.1-1.6,1.1-2.2c0-1-0.6-1.5-1.6-1.5
					c-0.6,0-1.1,0.3-1.5,0.4c-0.1,0.1-0.1,0.2-0.1,0.3l0.2,0.4c0.1,0.1,0.2,0.1,0.3,0.1c0.4-0.2,0.7-0.4,1.1-0.4
					c0.4,0,0.8,0.3,0.8,0.8c0,0.5-0.3,1-0.9,1.9l-1.5,2.1c-0.1,0.1-0.1,0.1-0.1,0.2c0,0.1,0.1,0.1,0.1,0.1L38.1,181.1L38.1,181.1z
					 M40.5,181.2c1.1,0,1.9-0.8,1.9-1.9c0-1.1-0.7-1.7-1.5-1.7l1.2-2c0.1-0.1,0-0.2-0.1-0.2h-2.7c-0.1,0-0.2,0.1-0.1,0.2l0.1,0.4
					c0,0.1,0.1,0.2,0.2,0.2H41l-1.2,1.9c-0.1,0.1,0,0.2,0.1,0.2h0.4c0.8,0,1.2,0.4,1.2,1.1c0,0.7-0.5,1.1-1.1,1.1
					c-0.4,0-0.8-0.2-1.1-0.4c-0.1-0.1-0.2,0-0.3,0.1l-0.2,0.4c0,0.1,0,0.2,0.1,0.3C39.4,181,40,181.2,40.5,181.2z M46.3,181.1
					c0.1,0,0.2-0.1,0.2-0.2v-1.1H47c0.1,0,0.2-0.1,0.2-0.2v-0.4c0-0.1-0.1-0.2-0.2-0.2h-0.5v-2.2c0-0.1-0.1-0.1-0.1-0.1
					s-0.1,0-0.2,0l-0.4,0.1c-0.1,0-0.1,0.1-0.1,0.2v2.1h-1.6l1.1-3.4c0-0.1,0-0.2-0.1-0.2h-0.4c-0.1,0-0.2,0.1-0.2,0.2l-1.3,4.1
					c0,0.1,0,0.2,0.1,0.2h2.4v1.1c0,0.1,0.1,0.2,0.2,0.2L46.3,181.1L46.3,181.1z M51.2,181.2c1.1,0,1.9-0.8,1.9-1.9
					c0-1.1-0.8-1.8-1.7-1.8c-0.3,0-0.5,0-0.7,0.1l0.1-1.5h1.7c0.1,0,0.2,0,0.2-0.2l0.1-0.4c0-0.1,0-0.2-0.1-0.2h-2.3
					c-0.1,0-0.2,0.1-0.2,0.2l-0.2,2.7c0,0.1,0.1,0.2,0.2,0.2c0.3-0.1,0.5-0.2,1-0.2c0.7,0,1.1,0.4,1.1,1.1c0,0.7-0.5,1.1-1.1,1.1
					c-0.4,0-0.8-0.2-1.1-0.4c-0.1-0.1-0.2,0-0.3,0.1l-0.2,0.4c-0.1,0.1,0,0.2,0.1,0.3C50,181,50.6,181.2,51.2,181.2z M55.9,181.2
					c1.1,0,1.8-0.8,1.8-1.9c0-1.2-0.8-1.8-1.7-1.8c-0.4,0-1,0.2-1.2,0.4c0.1-1.4,0.7-1.9,1.4-1.9c0.3,0,0.5,0.1,0.8,0.3
					c0.1,0.1,0.2,0,0.3-0.1l0.2-0.4c0.1-0.1,0-0.2-0.1-0.3c-0.3-0.2-0.7-0.3-1.1-0.3c-1.1,0-2.1,0.9-2.1,3
					C53.9,180.2,54.7,181.2,55.9,181.2z M55.9,180.5c-0.7,0-1.1-0.7-1.1-1.9c0.3-0.2,0.6-0.4,1.1-0.4s1,0.4,1,1.1
					C56.8,179.9,56.5,180.5,55.9,180.5z M59.5,181.1c0.1,0,0.2-0.1,0.2-0.2l1.9-5.3c0-0.1,0-0.2-0.1-0.2h-3.1
					c-0.1,0-0.2,0.1-0.1,0.2l0.1,0.4c0,0.1,0.1,0.2,0.2,0.2h2l-1.8,4.7c0,0.1,0,0.2,0.1,0.2H59.5z M64.2,181.2
					c1.1,0,1.9-0.6,1.9-1.5c0-0.7-0.5-1.2-1.1-1.6c0.5-0.3,1-0.8,1-1.3c0-0.8-0.7-1.4-1.7-1.4s-1.7,0.6-1.7,1.4c0,0.5,0.4,1.1,1,1.3
					c-0.6,0.3-1.1,0.9-1.1,1.6C62.2,180.5,63,181.2,64.2,181.2z M64.2,177.8c-0.5-0.3-0.9-0.5-0.9-1c0-0.5,0.4-0.8,0.9-0.8
					c0.4,0,0.9,0.3,0.9,0.8C65,177.3,64.7,177.5,64.2,177.8z M64.2,180.5c-0.6,0-1.1-0.4-1.1-0.9c0-0.6,0.5-1,1.1-1.2
					c0.5,0.3,1.1,0.6,1.1,1.2C65.1,180.1,64.8,180.5,64.2,180.5z M70.2,181.2c1.1,0,2.1-0.9,2.1-3c0-1.9-0.8-2.8-1.9-2.8
					c-1.1,0-1.8,0.8-1.8,1.9c0,1.2,0.8,1.8,1.7,1.8c0.4,0,1-0.2,1.2-0.4c-0.1,1.4-0.7,1.9-1.4,1.9c-0.3,0-0.5-0.1-0.8-0.3
					c-0.1-0.1-0.2,0-0.3,0.1l-0.2,0.4c-0.1,0.1,0,0.2,0.1,0.3C69.2,181.1,69.6,181.2,70.2,181.2z M70.3,178.3c-0.5,0-1-0.4-1-1.1
					c0-0.6,0.4-1.1,1-1.1c0.7,0,1.1,0.7,1.1,1.9C71.2,178.2,70.9,178.3,70.3,178.3z M75,181.1c0.1,0,0.2-0.1,0.2-0.2v-5.4
					c0-0.1-0.1-0.2-0.2-0.2h-0.4c-0.1,0-0.1,0-0.2,0.1l-1.3,1c-0.1,0.1-0.1,0.1,0,0.2l0.3,0.4c0.1,0.1,0.1,0.1,0.2,0l0.9-0.6v4.6
					c0,0.1,0.1,0.2,0.2,0.2H75z M78.5,181.2c1.4,0,1.9-1.3,1.9-2.9s-0.6-2.9-1.9-2.9c-1.4,0-1.9,1.3-1.9,2.9S77,181.2,78.5,181.2z
					 M78.5,180.5c-0.8,0-1.1-0.9-1.1-2.2s0.4-2.2,1.1-2.2c0.8,0,1.1,0.9,1.1,2.2S79.3,180.5,78.5,180.5z M83.2,181.1
					c0.1,0,0.2-0.1,0.2-0.2v-5.4c0-0.1-0.1-0.2-0.2-0.2h-0.4c-0.1,0-0.1,0-0.2,0.1l-1.3,1c-0.1,0.1-0.1,0.1,0,0.2l0.3,0.4
					c0.1,0.1,0.1,0.1,0.2,0l0.9-0.6v4.6c0,0.1,0.1,0.2,0.2,0.2H83.2z M88.3,181.1c0.1,0,0.2-0.1,0.2-0.2v-5.4c0-0.1-0.1-0.2-0.2-0.2
					h-0.4c-0.1,0-0.1,0-0.2,0.1l-1.3,1c-0.1,0.1-0.1,0.1,0,0.2l0.3,0.4c0.1,0.1,0.1,0.1,0.2,0l0.9-0.6v4.6c0,0.1,0.1,0.2,0.2,0.2
					H88.3z M92.8,181.1c0.1,0,0.2-0.1,0.2-0.2v-0.4c0-0.1-0.1-0.2-0.2-0.2h-1.9l0.9-1.2c0.6-0.9,1.1-1.6,1.1-2.2
					c0-1-0.6-1.5-1.6-1.5c-0.6,0-1.1,0.3-1.5,0.4c-0.1,0.1-0.1,0.2-0.1,0.3l0.2,0.4c0.1,0.1,0.2,0.1,0.3,0.1
					c0.4-0.2,0.7-0.4,1.1-0.4c0.4,0,0.8,0.3,0.8,0.8c0,0.5-0.3,1-0.9,1.9l-1.5,2.1c-0.1,0.1-0.1,0.1-0.1,0.2c0,0.1,0.1,0.1,0.1,0.1
					L92.8,181.1L92.8,181.1z M95.7,181.1c0.1,0,0.2-0.1,0.2-0.2v-5.4c0-0.1-0.1-0.2-0.2-0.2h-0.4c-0.1,0-0.1,0-0.2,0.1l-1.3,1
					c-0.1,0.1-0.1,0.1,0,0.2l0.3,0.4c0.1,0.1,0.1,0.1,0.2,0l0.9-0.6v4.6c0,0.1,0.1,0.2,0.2,0.2H95.7z M98.4,181.2
					c1.1,0,1.9-0.8,1.9-1.9c0-1.1-0.7-1.7-1.5-1.7l1.2-2c0.1-0.1,0-0.2-0.1-0.2h-2.7c-0.1,0-0.2,0.1-0.1,0.2l0.1,0.4
					c0,0.1,0.1,0.2,0.2,0.2H99l-1.2,1.9c-0.1,0.1,0,0.2,0.1,0.2h0.4c0.8,0,1.2,0.4,1.2,1.1c0,0.7-0.5,1.1-1.1,1.1
					c-0.4,0-0.8-0.2-1.1-0.4c-0.1-0.1-0.2,0-0.3,0.1l-0.2,0.4c0,0.1,0,0.2,0.1,0.3C97.3,181,97.9,181.2,98.4,181.2z"/>
				<path id="_x31_23" class="st5" d="M130.7,181.1c0.1,0,0.2-0.1,0.2-0.2v-5.4c0-0.1-0.1-0.2-0.2-0.2h-0.4c-0.1,0-0.1,0-0.2,0.1
					l-1.3,1c-0.1,0.1-0.1,0.1,0,0.2l0.3,0.4c0.1,0.1,0.1,0.1,0.2,0l0.9-0.6v4.6c0,0.1,0.1,0.2,0.2,0.2H130.7z M135.2,181.1
					c0.1,0,0.2-0.1,0.2-0.2v-0.4c0-0.1-0.1-0.2-0.2-0.2h-1.9l0.9-1.2c0.6-0.9,1.1-1.6,1.1-2.2c0-1-0.6-1.5-1.6-1.5
					c-0.6,0-1.1,0.3-1.5,0.4c-0.1,0.1-0.1,0.2-0.1,0.3l0.2,0.4c0.1,0.1,0.2,0.1,0.3,0.1c0.4-0.2,0.7-0.4,1.1-0.4s0.8,0.3,0.8,0.8
					c0,0.5-0.3,1-0.9,1.9l-1.5,2.1c-0.1,0.1-0.1,0.1-0.1,0.2c0,0.1,0.1,0.1,0.1,0.1L135.2,181.1L135.2,181.1z M137.6,181.2
					c1.1,0,1.9-0.8,1.9-1.9c0-1.1-0.7-1.7-1.5-1.7l1.2-2c0.1-0.1,0-0.2-0.1-0.2h-2.7c-0.1,0-0.2,0.1-0.1,0.2l0.1,0.4
					c0,0.1,0.1,0.2,0.2,0.2h1.6l-1.2,1.9c-0.1,0.1,0,0.2,0.1,0.2h0.4c0.8,0,1.2,0.4,1.2,1.1c0,0.7-0.5,1.1-1.1,1.1
					c-0.4,0-0.8-0.2-1.1-0.4c-0.1-0.1-0.2,0-0.3,0.1l-0.2,0.4c0,0.1,0,0.2,0.1,0.3C136.4,181,137.1,181.2,137.6,181.2z"/>
				<rect x="73.3" y="141.4" class="st6" width="73.3" height="2.6"/>
				<rect x="43.7" y="67.2" class="st6" width="158.9" height="2.6"/>
				<rect x="73.3" y="146.7" class="st6" width="69.7" height="2.6"/>
				<rect x="73.3" y="151.9" class="st6" width="66.2" height="2.6"/>
				<rect x="73.3" y="157.2" class="st6" width="73.3" height="2.6"/>
			</g>
		</g>
	</g>
</g>
</svg>
