<?xml version="1.0" encoding="UTF-8"?>
<svg width="233px" height="150px" viewBox="0 0 233 150" version="1.1" xmlns="http://www.w3.org/2000/svg" xmlns:xlink="http://www.w3.org/1999/xlink">
    <title>Maksukortti</title>
    <defs>
        <linearGradient x1="50%" y1="0%" x2="50%" y2="100%" id="linearGradient-1">
            <stop stop-color="#F8F8F8" offset="0%"></stop>
            <stop stop-color="#EEEEEE" offset="100%"></stop>
        </linearGradient>
        <path d="M10.470747,0.628551223 L214.470747,0.628551223 C219.993595,0.628551223 224.470747,5.10570373 224.470747,10.6285512 L224.470747,131.628551 C224.470747,137.151399 219.993595,141.628551 214.470747,141.628551 L10.470747,141.628551 C4.94789954,141.628551 0.470747039,137.151399 0.470747039,131.628551 L0.470747039,10.6285512 C0.470747039,5.10570373 4.94789954,0.628551223 10.470747,0.628551223 Z" id="path-2"></path>
        <filter x="-3.1%" y="-3.5%" width="106.2%" height="109.9%" filterUnits="objectBoundingBox" id="filter-3">
            <feOffset dx="0" dy="2" in="SourceAlpha" result="shadowOffsetOuter1"></feOffset>
            <feGaussianBlur stdDeviation="2" in="shadowOffsetOuter1" result="shadowBlurOuter1"></feGaussianBlur>
            <feColorMatrix values="0 0 0 0 0   0 0 0 0 0   0 0 0 0 0  0 0 0 0.130381337 0" type="matrix" in="shadowBlurOuter1"></feColorMatrix>
        </filter>
        <path d="M26.64,94 C26.8,94 26.912,93.888 26.912,93.728 L26.912,82.944 C26.912,82.784 26.8,82.672 26.64,82.672 L25.776,82.672 C25.616,82.672 25.536,82.704 25.408,82.784 L22.72,84.672 C22.592,84.768 22.56,84.896 22.64,85.024 L23.12,85.744 C23.216,85.872 23.376,85.888 23.504,85.792 L25.296,84.544 L25.296,93.728 C25.296,93.888 25.408,94 25.568,94 L26.64,94 Z M37.196,94 C37.356,94 37.468,93.888 37.468,93.728 L37.468,92.816 C37.468,92.656 37.356,92.544 37.196,92.544 L33.276,92.544 L35.132,90 C36.396,88.272 37.228,86.848 37.228,85.488 C37.228,83.536 35.932,82.48 33.964,82.48 C32.78,82.48 31.676,82.928 31.02,83.376 C30.796,83.536 30.764,83.664 30.86,83.856 L31.212,84.608 C31.308,84.8 31.484,84.832 31.676,84.72 C32.364,84.288 33.068,83.936 33.932,83.936 C34.812,83.936 35.612,84.496 35.612,85.584 C35.612,86.576 35.068,87.568 33.836,89.264 L30.796,93.472 C30.684,93.632 30.636,93.712 30.636,93.808 C30.636,93.92 30.732,94 30.876,94 L37.196,94 Z M43.56,94.192 C45.816,94.192 47.384,92.656 47.384,90.544 C47.384,88.32 45.88,87.248 44.328,87.088 L46.872,83.04 C47,82.848 46.92,82.672 46.68,82.672 L41.112,82.672 C40.92,82.672 40.824,82.768 40.872,82.976 L41.064,83.856 C41.112,84.048 41.224,84.128 41.4,84.128 L44.584,84.128 L42.168,88.016 C42.056,88.208 42.136,88.4 42.36,88.4 L43.288,88.4 C44.84,88.4 45.752,89.232 45.752,90.544 C45.752,91.904 44.76,92.736 43.528,92.736 C42.664,92.736 41.944,92.4 41.256,91.968 C41.064,91.856 40.888,91.888 40.792,92.08 L40.44,92.832 C40.36,93.008 40.376,93.152 40.6,93.312 C41.256,93.76 42.376,94.192 43.56,94.192 Z M56.66,94 C56.82,94 56.932,93.888 56.932,93.728 L56.932,91.44 L58.052,91.44 C58.212,91.44 58.324,91.328 58.324,91.168 L58.324,90.336 C58.324,90.176 58.212,90.064 58.052,90.064 L56.932,90.064 L56.932,85.536 C56.932,85.392 56.836,85.312 56.724,85.312 C56.66,85.312 56.516,85.344 56.42,85.36 L55.668,85.52 C55.492,85.568 55.428,85.664 55.428,85.856 L55.428,90.064 L52.244,90.064 L54.532,83.056 C54.612,82.816 54.5,82.672 54.292,82.672 L53.316,82.672 C53.156,82.672 53.012,82.768 52.964,82.944 L50.324,91.072 C50.244,91.296 50.356,91.44 50.564,91.44 L55.428,91.44 L55.428,93.728 C55.428,93.888 55.54,94 55.7,94 L56.66,94 Z M74.616,94.192 C76.888,94.192 78.44,92.656 78.44,90.544 C78.44,88.256 76.904,86.992 75,86.992 C74.504,86.992 74.008,87.072 73.624,87.2 L73.848,84.128 L77.192,84.128 C77.352,84.128 77.48,84.048 77.528,83.84 L77.72,82.976 C77.768,82.768 77.672,82.672 77.48,82.672 L72.824,82.672 C72.616,82.672 72.504,82.8 72.488,83.008 L72.136,88.448 C72.12,88.688 72.264,88.8 72.536,88.72 C73.016,88.56 73.656,88.336 74.424,88.336 C75.88,88.336 76.808,89.248 76.808,90.544 C76.808,91.904 75.816,92.736 74.584,92.736 C73.72,92.736 73.016,92.416 72.312,91.968 C72.136,91.856 71.96,91.888 71.864,92.08 L71.512,92.832 C71.416,93.008 71.448,93.152 71.656,93.312 C72.312,93.776 73.432,94.192 74.616,94.192 Z M85.588,94.192 C87.636,94.192 89.092,92.608 89.092,90.496 C89.092,88.032 87.524,86.864 85.78,86.864 C84.804,86.864 83.876,87.216 83.236,87.632 C83.364,84.864 84.692,83.92 86.02,83.92 C86.612,83.92 87.076,84.064 87.652,84.368 C87.844,84.464 88.02,84.432 88.116,84.24 L88.468,83.52 C88.564,83.328 88.532,83.184 88.34,83.072 C87.764,82.752 86.932,82.48 85.972,82.48 C83.7,82.48 81.636,84.272 81.636,88.448 C81.636,92.208 83.236,94.192 85.588,94.192 Z M85.572,92.768 C84.18,92.768 83.3,91.408 83.252,88.896 C83.748,88.56 84.548,88.192 85.476,88.192 C86.612,88.192 87.476,88.992 87.476,90.496 C87.476,91.776 86.724,92.768 85.572,92.768 Z M94.224,94 C94.448,94 94.576,93.888 94.656,93.696 L98.576,83.04 C98.656,82.816 98.56,82.672 98.336,82.672 L92.112,82.672 C91.92,82.672 91.824,82.784 91.872,82.992 L92.08,83.856 C92.128,84.064 92.24,84.128 92.416,84.128 L96.544,84.128 L93.056,93.632 C92.976,93.856 93.072,94 93.28,94 L94.224,94 Z M105.148,94.192 C107.292,94.192 108.892,92.88 108.892,91.152 C108.892,89.728 107.852,88.592 106.62,88.016 C107.74,87.44 108.492,86.48 108.492,85.36 C108.492,83.792 107.1,82.48 105.148,82.48 C103.18,82.48 101.788,83.792 101.788,85.36 C101.788,86.48 102.54,87.44 103.66,88.016 C102.428,88.592 101.388,89.728 101.388,91.152 C101.388,92.88 102.988,94.192 105.148,94.192 Z M105.148,87.408 C104.06,86.896 103.372,86.272 103.372,85.392 C103.372,84.4 104.204,83.824 105.148,83.824 C106.076,83.824 106.908,84.4 106.908,85.392 C106.908,86.272 106.236,86.896 105.148,87.408 Z M105.148,92.832 C103.868,92.832 103.02,92.096 103.02,91.072 C103.02,89.904 104.012,89.152 105.148,88.624 C106.252,89.152 107.26,89.904 107.26,91.072 C107.26,92.096 106.412,92.832 105.148,92.832 Z M125.36,94.192 C127.648,94.192 129.712,92.4 129.712,88.224 C129.712,84.464 128.096,82.48 125.744,82.48 C123.696,82.48 122.24,84.064 122.24,86.176 C122.24,88.64 123.808,89.808 125.552,89.808 C126.528,89.808 127.456,89.456 128.096,89.04 C127.968,91.808 126.64,92.752 125.312,92.752 C124.736,92.752 124.256,92.608 123.68,92.304 C123.488,92.208 123.328,92.24 123.216,92.432 L122.864,93.152 C122.768,93.344 122.8,93.488 122.992,93.6 C123.568,93.92 124.4,94.192 125.36,94.192 Z M125.856,88.48 C124.72,88.48 123.856,87.68 123.856,86.176 C123.856,84.88 124.608,83.904 125.776,83.904 C127.168,83.904 128.032,85.264 128.08,87.776 C127.6,88.112 126.784,88.48 125.856,88.48 Z M136.78,94 C136.94,94 137.052,93.888 137.052,93.728 L137.052,82.944 C137.052,82.784 136.94,82.672 136.78,82.672 L135.916,82.672 C135.756,82.672 135.676,82.704 135.548,82.784 L132.86,84.672 C132.732,84.768 132.7,84.896 132.78,85.024 L133.26,85.744 C133.356,85.872 133.516,85.888 133.644,85.792 L135.436,84.544 L135.436,93.728 C135.436,93.888 135.548,94 135.708,94 L136.78,94 Z M145.128,94.192 C147.944,94.192 149.128,91.6 149.128,88.336 C149.128,85.072 147.944,82.48 145.128,82.48 C142.328,82.48 141.144,85.072 141.144,88.336 C141.144,91.6 142.328,94.192 145.128,94.192 Z M145.128,92.736 C143.48,92.736 142.824,90.928 142.824,88.336 C142.824,85.728 143.48,83.936 145.128,83.936 C146.792,83.936 147.448,85.728 147.448,88.336 C147.448,90.928 146.792,92.736 145.128,92.736 Z M156.228,94 C156.388,94 156.5,93.888 156.5,93.728 L156.5,82.944 C156.5,82.784 156.388,82.672 156.228,82.672 L155.364,82.672 C155.204,82.672 155.124,82.704 154.996,82.784 L152.308,84.672 C152.18,84.768 152.148,84.896 152.228,85.024 L152.708,85.744 C152.804,85.872 152.964,85.888 153.092,85.792 L154.884,84.544 L154.884,93.728 C154.884,93.888 154.996,94 155.156,94 L156.228,94 Z M174.52,94 C174.68,94 174.792,93.888 174.792,93.728 L174.792,82.944 C174.792,82.784 174.68,82.672 174.52,82.672 L173.656,82.672 C173.496,82.672 173.416,82.704 173.288,82.784 L170.6,84.672 C170.472,84.768 170.44,84.896 170.52,85.024 L171,85.744 C171.096,85.872 171.256,85.888 171.384,85.792 L173.176,84.544 L173.176,93.728 C173.176,93.888 173.288,94 173.448,94 L174.52,94 Z M185.076,94 C185.236,94 185.348,93.888 185.348,93.728 L185.348,92.816 C185.348,92.656 185.236,92.544 185.076,92.544 L181.156,92.544 L183.012,90 C184.276,88.272 185.108,86.848 185.108,85.488 C185.108,83.536 183.812,82.48 181.844,82.48 C180.66,82.48 179.556,82.928 178.9,83.376 C178.676,83.536 178.644,83.664 178.74,83.856 L179.092,84.608 C179.188,84.8 179.364,84.832 179.556,84.72 C180.244,84.288 180.948,83.936 181.812,83.936 C182.692,83.936 183.492,84.496 183.492,85.584 C183.492,86.576 182.948,87.568 181.716,89.264 L178.676,93.472 C178.564,93.632 178.516,93.712 178.516,93.808 C178.516,93.92 178.612,94 178.756,94 L185.076,94 Z M192.352,94 C192.512,94 192.624,93.888 192.624,93.728 L192.624,82.944 C192.624,82.784 192.512,82.672 192.352,82.672 L191.488,82.672 C191.328,82.672 191.248,82.704 191.12,82.784 L188.432,84.672 C188.304,84.768 188.272,84.896 188.352,85.024 L188.832,85.744 C188.928,85.872 189.088,85.888 189.216,85.792 L191.008,84.544 L191.008,93.728 C191.008,93.888 191.12,94 191.28,94 L192.352,94 Z M199.468,94.192 C201.724,94.192 203.292,92.656 203.292,90.544 C203.292,88.32 201.788,87.248 200.236,87.088 L202.78,83.04 C202.908,82.848 202.828,82.672 202.588,82.672 L197.02,82.672 C196.828,82.672 196.732,82.768 196.78,82.976 L196.972,83.856 C197.02,84.048 197.132,84.128 197.308,84.128 L200.492,84.128 L198.076,88.016 C197.964,88.208 198.044,88.4 198.268,88.4 L199.196,88.4 C200.748,88.4 201.66,89.232 201.66,90.544 C201.66,91.904 200.668,92.736 199.436,92.736 C198.572,92.736 197.852,92.4 197.164,91.968 C196.972,91.856 196.796,91.888 196.7,92.08 L196.348,92.832 C196.268,93.008 196.284,93.152 196.508,93.312 C197.164,93.76 198.284,94.192 199.468,94.192 Z" id="path-4"></path>
        <filter x="-0.8%" y="-12.8%" width="101.7%" height="125.6%" filterUnits="objectBoundingBox" id="filter-5">
            <feOffset dx="0" dy="0" in="SourceAlpha" result="shadowOffsetOuter1"></feOffset>
            <feGaussianBlur stdDeviation="0.5" in="shadowOffsetOuter1" result="shadowBlurOuter1"></feGaussianBlur>
            <feColorMatrix values="0 0 0 0 0   0 0 0 0 0   0 0 0 0 0  0 0 0 0.145268794 0" type="matrix" in="shadowBlurOuter1"></feColorMatrix>
        </filter>
        <path d="M23.272,122 C23.44,122 23.536,121.964 23.584,121.844 L24.352,119.852 L28.036,119.852 L28.828,121.844 C28.876,121.964 28.96,122 29.128,122 L29.908,122 C30.052,122 30.124,121.892 30.064,121.736 L26.872,113.696 C26.824,113.576 26.728,113.504 26.596,113.504 L25.852,113.504 C25.72,113.504 25.624,113.576 25.576,113.696 L22.372,121.736 C22.312,121.892 22.396,122 22.54,122 L23.272,122 Z M27.64,118.808 L24.76,118.808 L26.2,115.136 L27.64,118.808 Z M34.789,122.144 C36.373,122.144 37.549,121.172 37.549,119.756 C37.549,118.616 36.937,117.98 36.037,117.5 L34.681,116.792 C34.105,116.492 33.673,116.108 33.673,115.544 C33.673,114.908 34.153,114.452 34.969,114.452 C35.545,114.452 36.073,114.68 36.457,114.884 C36.601,114.956 36.733,114.944 36.805,114.788 L37.069,114.224 C37.141,114.08 37.093,113.96 36.973,113.888 C36.601,113.66 35.785,113.36 34.945,113.36 C33.541,113.36 32.449,114.308 32.449,115.616 C32.449,116.672 33.145,117.38 33.961,117.812 L35.365,118.544 C35.965,118.868 36.325,119.24 36.325,119.792 C36.325,120.548 35.725,121.052 34.765,121.052 C34.033,121.052 33.397,120.704 32.833,120.332 C32.689,120.236 32.569,120.284 32.497,120.428 L32.185,120.992 C32.113,121.124 32.149,121.232 32.281,121.328 C32.833,121.724 33.781,122.144 34.789,122.144 Z M41.386,122 C41.506,122 41.59,121.916 41.59,121.796 L41.59,113.708 C41.59,113.588 41.506,113.504 41.386,113.504 L40.558,113.504 C40.438,113.504 40.354,113.588 40.354,113.708 L40.354,121.796 C40.354,121.916 40.438,122 40.558,122 L41.386,122 Z M45.055,122 C45.223,122 45.319,121.964 45.367,121.844 L46.135,119.852 L49.819,119.852 L50.611,121.844 C50.659,121.964 50.743,122 50.911,122 L51.691,122 C51.835,122 51.907,121.892 51.847,121.736 L48.655,113.696 C48.607,113.576 48.511,113.504 48.379,113.504 L47.635,113.504 C47.503,113.504 47.407,113.576 47.359,113.696 L44.155,121.736 C44.095,121.892 44.179,122 44.323,122 L45.055,122 Z M49.423,118.808 L46.543,118.808 L47.983,115.136 L49.423,118.808 Z M55.468,122 C55.588,122 55.672,121.916 55.672,121.796 L55.672,119.432 L57.04,117.92 L59.548,121.844 C59.632,121.952 59.704,122 59.848,122 L60.82,122 C60.964,122 61.024,121.868 60.928,121.712 L57.928,117.056 L60.82,113.804 C60.928,113.684 60.88,113.504 60.7,113.504 L59.776,113.504 C59.584,113.504 59.5,113.564 59.416,113.66 L55.672,117.896 L55.672,113.708 C55.672,113.588 55.588,113.504 55.468,113.504 L54.64,113.504 C54.52,113.504 54.436,113.588 54.436,113.708 L54.436,121.796 C54.436,121.916 54.52,122 54.64,122 L55.468,122 Z M63.721,122 C63.889,122 63.985,121.964 64.033,121.844 L64.801,119.852 L68.485,119.852 L69.277,121.844 C69.325,121.964 69.409,122 69.577,122 L70.357,122 C70.501,122 70.573,121.892 70.513,121.736 L67.321,113.696 C67.273,113.576 67.177,113.504 67.045,113.504 L66.301,113.504 C66.169,113.504 66.073,113.576 66.025,113.696 L62.821,121.736 C62.761,121.892 62.845,122 62.989,122 L63.721,122 Z M68.089,118.808 L65.209,118.808 L66.649,115.136 L68.089,118.808 Z M75.238,122.144 C76.822,122.144 77.998,121.172 77.998,119.756 C77.998,118.616 77.386,117.98 76.486,117.5 L75.13,116.792 C74.554,116.492 74.122,116.108 74.122,115.544 C74.122,114.908 74.602,114.452 75.418,114.452 C75.994,114.452 76.522,114.68 76.906,114.884 C77.05,114.956 77.182,114.944 77.254,114.788 L77.518,114.224 C77.59,114.08 77.542,113.96 77.422,113.888 C77.05,113.66 76.234,113.36 75.394,113.36 C73.99,113.36 72.898,114.308 72.898,115.616 C72.898,116.672 73.594,117.38 74.41,117.812 L75.814,118.544 C76.414,118.868 76.774,119.24 76.774,119.792 C76.774,120.548 76.174,121.052 75.214,121.052 C74.482,121.052 73.846,120.704 73.282,120.332 C73.138,120.236 73.018,120.284 72.946,120.428 L72.634,120.992 C72.562,121.124 72.598,121.232 72.73,121.328 C73.282,121.724 74.23,122.144 75.238,122.144 Z M92.542,122 C92.71,122 92.806,121.964 92.854,121.844 L93.622,119.852 L97.306,119.852 L98.098,121.844 C98.146,121.964 98.23,122 98.398,122 L99.178,122 C99.322,122 99.394,121.892 99.334,121.736 L96.142,113.696 C96.094,113.576 95.998,113.504 95.866,113.504 L95.122,113.504 C94.99,113.504 94.894,113.576 94.846,113.696 L91.642,121.736 C91.582,121.892 91.666,122 91.81,122 L92.542,122 Z M96.91,118.808 L94.03,118.808 L95.47,115.136 L96.91,118.808 Z M104.059,122.144 C105.643,122.144 106.819,121.172 106.819,119.756 C106.819,118.616 106.207,117.98 105.307,117.5 L103.951,116.792 C103.375,116.492 102.943,116.108 102.943,115.544 C102.943,114.908 103.423,114.452 104.239,114.452 C104.815,114.452 105.343,114.68 105.727,114.884 C105.871,114.956 106.003,114.944 106.075,114.788 L106.339,114.224 C106.411,114.08 106.363,113.96 106.243,113.888 C105.871,113.66 105.055,113.36 104.215,113.36 C102.811,113.36 101.719,114.308 101.719,115.616 C101.719,116.672 102.415,117.38 103.231,117.812 L104.635,118.544 C105.235,118.868 105.595,119.24 105.595,119.792 C105.595,120.548 104.995,121.052 104.035,121.052 C103.303,121.052 102.667,120.704 102.103,120.332 C101.959,120.236 101.839,120.284 101.767,120.428 L101.455,120.992 C101.383,121.124 101.419,121.232 101.551,121.328 C102.103,121.724 103.051,122.144 104.059,122.144 Z M111.76,122.144 C113.344,122.144 114.52,121.172 114.52,119.756 C114.52,118.616 113.908,117.98 113.008,117.5 L111.652,116.792 C111.076,116.492 110.644,116.108 110.644,115.544 C110.644,114.908 111.124,114.452 111.94,114.452 C112.516,114.452 113.044,114.68 113.428,114.884 C113.572,114.956 113.704,114.944 113.776,114.788 L114.04,114.224 C114.112,114.08 114.064,113.96 113.944,113.888 C113.572,113.66 112.756,113.36 111.916,113.36 C110.512,113.36 109.42,114.308 109.42,115.616 C109.42,116.672 110.116,117.38 110.932,117.812 L112.336,118.544 C112.936,118.868 113.296,119.24 113.296,119.792 C113.296,120.548 112.696,121.052 111.736,121.052 C111.004,121.052 110.368,120.704 109.804,120.332 C109.66,120.236 109.54,120.284 109.468,120.428 L109.156,120.992 C109.084,121.124 109.12,121.232 109.252,121.328 C109.804,121.724 110.752,122.144 111.76,122.144 Z M118.357,122 C118.477,122 118.561,121.916 118.561,121.796 L118.561,113.708 C118.561,113.588 118.477,113.504 118.357,113.504 L117.529,113.504 C117.409,113.504 117.325,113.588 117.325,113.708 L117.325,121.796 C117.325,121.916 117.409,122 117.529,122 L118.357,122 Z" id="path-6"></path>
        <filter x="-1.6%" y="-17.1%" width="103.1%" height="134.2%" filterUnits="objectBoundingBox" id="filter-7">
            <feOffset dx="0" dy="0" in="SourceAlpha" result="shadowOffsetOuter1"></feOffset>
            <feGaussianBlur stdDeviation="0.5" in="shadowOffsetOuter1" result="shadowBlurOuter1"></feGaussianBlur>
            <feColorMatrix values="0 0 0 0 0   0 0 0 0 0   0 0 0 0 0  0 0 0 0.145268794 0" type="matrix" in="shadowBlurOuter1"></feColorMatrix>
        </filter>
        <path d="M173.72,122.144 C175.832,122.144 176.72,120.2 176.72,117.752 C176.72,115.304 175.832,113.36 173.72,113.36 C171.62,113.36 170.732,115.304 170.732,117.752 C170.732,120.2 171.62,122.144 173.72,122.144 Z M173.72,121.052 C172.484,121.052 171.992,119.696 171.992,117.752 C171.992,115.796 172.484,114.452 173.72,114.452 C174.968,114.452 175.46,115.796 175.46,117.752 C175.46,119.696 174.968,121.052 173.72,121.052 Z M182.045,122 C182.165,122 182.249,121.916 182.249,121.796 L182.249,113.708 C182.249,113.588 182.165,113.504 182.045,113.504 L181.397,113.504 C181.277,113.504 181.217,113.528 181.121,113.588 L179.105,115.004 C179.009,115.076 178.985,115.172 179.045,115.268 L179.405,115.808 C179.477,115.904 179.597,115.916 179.693,115.844 L181.037,114.908 L181.037,121.796 C181.037,121.916 181.121,122 181.241,122 L182.045,122 Z M185.378,123.884 C185.51,123.884 185.594,123.836 185.63,123.716 L189.698,113.156 C189.758,112.988 189.674,112.916 189.554,112.916 L188.978,112.916 C188.846,112.916 188.762,112.952 188.726,113.072 L184.658,123.644 C184.598,123.812 184.682,123.884 184.802,123.884 L185.378,123.884 Z M196.511,122 C196.631,122 196.715,121.916 196.715,121.796 L196.715,121.112 C196.715,120.992 196.631,120.908 196.511,120.908 L193.571,120.908 L194.963,119 C195.911,117.704 196.535,116.636 196.535,115.616 C196.535,114.152 195.563,113.36 194.087,113.36 C193.199,113.36 192.371,113.696 191.879,114.032 C191.711,114.152 191.687,114.248 191.759,114.392 L192.023,114.956 C192.095,115.1 192.227,115.124 192.371,115.04 C192.887,114.716 193.415,114.452 194.063,114.452 C194.723,114.452 195.323,114.872 195.323,115.688 C195.323,116.432 194.915,117.176 193.991,118.448 L191.711,121.604 C191.627,121.724 191.591,121.784 191.591,121.856 C191.591,121.94 191.663,122 191.771,122 L196.511,122 Z M201.968,122 C202.088,122 202.172,121.916 202.172,121.796 L202.172,113.708 C202.172,113.588 202.088,113.504 201.968,113.504 L201.32,113.504 C201.2,113.504 201.14,113.528 201.044,113.588 L199.028,115.004 C198.932,115.076 198.908,115.172 198.968,115.268 L199.328,115.808 C199.4,115.904 199.52,115.916 199.616,115.844 L200.96,114.908 L200.96,121.796 C200.96,121.916 201.044,122 201.164,122 L201.968,122 Z" id="path-8"></path>
        <filter x="-4.8%" y="-13.7%" width="109.5%" height="127.4%" filterUnits="objectBoundingBox" id="filter-9">
            <feOffset dx="0" dy="0" in="SourceAlpha" result="shadowOffsetOuter1"></feOffset>
            <feGaussianBlur stdDeviation="0.5" in="shadowOffsetOuter1" result="shadowBlurOuter1"></feGaussianBlur>
            <feColorMatrix values="0 0 0 0 0   0 0 0 0 0   0 0 0 0 0  0 0 0 0.145268794 0" type="matrix" in="shadowBlurOuter1"></feColorMatrix>
        </filter>
    </defs>
    <g stroke="none" stroke-width="1" fill="none" fill-rule="evenodd">
        <g transform="translate(-72.000000, -50.000000)">
            <g transform="translate(76.000000, 52.000000)">
                <g>
                    <g>
                        <use fill="black" fill-opacity="1" filter="url(#filter-3)" xlink:href="#path-2"></use>
                        <use fill="url(#linearGradient-1)" fill-rule="evenodd" xlink:href="#path-2"></use>
                    </g>
                    <g transform="translate(22.000000, 43.000000)">
                        <rect id="Rectangle" fill="#FF6B00" x="0" y="1" width="30" height="26" rx="8"></rect>
                        <path d="M9.15812071,0.765483818 L11.1761043,11.15625 L11.1717762,17.6976325 L9.15428935,27.2370544 L8.76294558,27.1542893 L10.7662408,17.6994838 L-0.00475919594,17.7 L-0.00475919594,17.3 L10.7752408,17.2994838 L10.7797859,11.1944477 L10.6832408,10.6994838 L-0.00475919594,10.7 L-0.00475919594,10.3 L10.6052408,10.2994838 L8.76548382,0.841879285 L9.15812071,0.765483818 Z M19.8406991,0.766283881 L20.2337161,0.840699103 L18.4382408,10.2994838 L29.9944048,10.3 L29.9944048,10.7 L18.3632408,10.6994838 L18.27698,11.15625 L18.2722408,17.2994838 L29.9944048,17.3 L29.9944048,17.7 L18.2892408,17.6994838 L20.2362109,27.1555776 L19.8444224,27.2362109 L17.87698,17.65625 L17.8804714,11.1190424 L19.8406991,0.766283881 Z" id="Combined-Shape" fill="#E9E9E9" fill-rule="nonzero"></path>
                    </g>
                    <g fill-rule="nonzero">
                        <use fill="black" fill-opacity="1" filter="url(#filter-5)" xlink:href="#path-4"></use>
                        <use fill="#F86800" xlink:href="#path-4"></use>
                    </g>
                    <g fill-rule="nonzero">
                        <use fill="black" fill-opacity="1" filter="url(#filter-7)" xlink:href="#path-6"></use>
                        <use fill="#F86800" xlink:href="#path-6"></use>
                    </g>
                    <g id="01/21" fill-rule="nonzero">
                        <use fill="black" fill-opacity="1" filter="url(#filter-9)" xlink:href="#path-8"></use>
                        <use fill="#EF7600" xlink:href="#path-8"></use>
                    </g>
                    <path d="M74.1517387,65.3821904 C73.9109232,65.3125608 73.6668989,65.0260209 73.6155592,64.7526367 C73.5821883,64.5745519 73.6229393,64.4508552 73.8781941,63.9571914 C74.9094813,61.9621609 75.3577415,60.1262835 75.3577415,57.8978175 C75.3577415,55.744115 74.9608211,54.068514 73.9750979,52.0600067 C73.7633214,51.6289132 73.5902102,51.2286236 73.5902102,51.170706 C73.5902102,50.9570043 73.7690971,50.647201 73.9627442,50.5255899 C74.228267,50.3590566 74.673158,50.3901813 74.886218,50.5900855 C74.9680407,50.6670951 75.1807798,51.0162054 75.3588645,51.3659575 C76.0641444,52.7510076 76.5475402,54.2706642 76.7861096,55.8522494 C76.9338718,56.8312342 76.9632317,58.686364 76.8453107,59.582403 C76.6275981,61.235543 76.1912102,62.7104377 75.4926688,64.1554912 C75.0703993,65.0289087 74.8053579,65.388287 74.5834739,65.388287 C74.5390329,65.388287 74.466676,65.3993571 74.4225559,65.4129942 C74.3782753,65.4263105 74.2565039,65.4126733 74.1517387,65.3821904 Z M71.2810445,63.8805027 C70.9117192,63.7730101 70.6453942,63.3199368 70.7522451,62.9804527 C70.7780754,62.8983091 70.9519888,62.5198389 71.1384163,62.139283 C71.9284067,60.5283379 72.2569811,58.8013971 72.096063,57.1059019 C71.9637027,55.7126694 71.7139028,54.834118 71.0849908,53.5485386 C70.6630423,52.6860308 70.643469,52.552387 70.8887767,52.2050415 C71.1220517,51.8748627 71.704437,51.8212769 72.0102294,52.1020411 C72.2223267,52.2964904 72.8817216,53.6735188 73.1361743,54.4532412 C73.978467,57.0340262 73.8499572,59.8044475 72.770539,62.3398289 C72.2175136,63.6384037 71.8292568,64.0399768 71.2810445,63.8805027 Z M68.3206662,62.3574769 C68.0925252,62.254637 67.8961507,62.0133402 67.8427252,61.7701181 C67.8101566,61.622035 67.8663094,61.4580687 68.1369662,60.9100169 C69.1311925,58.8962152 69.1419418,56.9566957 68.1696953,54.989902 C67.7427732,54.1259503 67.7334678,53.9541226 68.0944504,53.613355 C68.2726956,53.4453777 68.3484218,53.4155365 68.598703,53.4155365 C69.0184055,53.4155365 69.2361181,53.6265108 69.6113796,54.3970884 C70.18831,55.5822344 70.4244729,56.6104733 70.4225593,57.9278192 C70.420462,59.2819051 70.199701,60.2114754 69.5833032,61.4612774 C69.230182,62.1768252 69.0557872,62.3658196 68.7023452,62.4142715 C68.5945317,62.4290317 68.4228644,62.4033618 68.3206662,62.3574769 Z M65.5584273,60.9387351 C65.3776151,60.8639715 65.1712935,60.6180221 65.1098462,60.4041599 C65.0415002,60.1652696 65.0974926,59.9756334 65.3687911,59.5294589 C65.7177409,58.9555768 65.7990823,58.6476987 65.7990823,57.8976571 C65.7990823,57.1477759 65.7177409,56.8397374 65.3687911,56.2658552 C65.2505492,56.0714059 65.131826,55.8382914 65.1048727,55.7479655 C64.9924065,55.3696557 65.3076647,54.9061541 65.7308967,54.8267379 C66.0897937,54.7593545 66.3362245,54.9196307 66.6660823,55.4346326 C67.6213226,56.925571 67.6211621,58.9175533 66.665601,60.3959776 C66.3285235,60.9175574 65.9526203,61.1018992 65.5584273,60.9387351 L65.5584273,60.9387351 Z" id="contactless" fill="#FF6900" transform="translate(71.000000, 57.918092) rotate(-360.000000) translate(-71.000000, -57.918092) "></path>
                </g>
            </g>
        </g>
    </g>
</svg>