<?xml version="1.0" encoding="utf-8"?>
<!-- Generator: Adobe Illustrator 25.0.0, SVG Export Plug-In . SVG Version: 6.00 Build 0)  -->
<svg version="1.1" id="Layer_1" xmlns="http://www.w3.org/2000/svg" xmlns:xlink="http://www.w3.org/1999/xlink" x="0px" y="0px"
	 width="255.1px" height="192.8px" viewBox="0 0 255.1 192.8" style="enable-background:new 0 0 255.1 192.8;" xml:space="preserve"
	>
<style type="text/css">
	.st0{fill-rule:evenodd;clip-rule:evenodd;fill:#EEEEEE;}
	.st1{fill-rule:evenodd;clip-rule:evenodd;fill:#FFFFFF;}
	.st2{fill-rule:evenodd;clip-rule:evenodd;fill:#DDDDDD;}
	.st3{fill-rule:evenodd;clip-rule:evenodd;fill:#FAFAFA;}
	.st4{fill-rule:evenodd;clip-rule:evenodd;fill:url(#SVGID_1_);}
	.st5{fill:#F86800;}
	.st6{fill-rule:evenodd;clip-rule:evenodd;fill:#F9F8F8;}
</style>
<g>
	<g id="Vanha" transform="translate(-71.000000, -417.000000)">
		<g transform="translate(75.000000, 419.000000)">
			<g>
				<g id="Path-2">
					<g>
						<path id="path-1_1_" class="st0" d="M33.5,32.1h180c4.9,0,8.8,4,8.8,8.8v106.9c0,4.9-4,8.8-8.8,8.8h-180c-4.9,0-8.8-4-8.8-8.8
							V41C24.7,36.1,28.6,32.1,33.5,32.1z"/>
					</g>
				</g>
				<polygon id="Path-3" class="st1" points="206.3,77.9 206.3,96 215.3,86.9 				"/>
				<rect x="24.7" y="42.7" class="st2" width="197.7" height="28.2"/>
				<rect x="31.3" y="76.6" class="st3" width="114.7" height="20.3"/>
				<rect x="146.1" y="80.1" class="st1" width="18.5" height="14.1"/>
				
					<linearGradient id="SVGID_1_" gradientUnits="userSpaceOnUse" x1="-716.1668" y1="510.0341" x2="-716.1668" y2="508.8756" gradientTransform="matrix(43 0 0 -32 30845.5195 16425.6211)">
					<stop  offset="0" style="stop-color:#FFFFFF"/>
					<stop  offset="1" style="stop-color:#F7F7F7"/>
				</linearGradient>
				<path class="st4" d="M34,104.5h32.7c1.5,0,2.6,1.1,2.6,2.6V130c0,1.5-1.1,2.6-2.6,2.6H34c-1.5,0-2.6-1.1-2.6-2.6v-22.9
					C31.3,105.7,32.5,104.5,34,104.5z"/>
				<path id="_x31_234567891011213" class="st5" d="M33.6,149.9c0.1,0,0.2-0.1,0.2-0.2v-5.4c0-0.1-0.1-0.2-0.2-0.2h-0.4
					c-0.1,0-0.1,0-0.2,0.1l-1.3,1c-0.1,0.1-0.1,0.1,0,0.2l0.3,0.4c0.1,0.1,0.1,0.1,0.2,0l0.9-0.6v4.6c0,0.1,0.1,0.2,0.2,0.2h0.3
					V149.9z M38.1,149.9c0.1,0,0.2-0.1,0.2-0.2v-0.4c0-0.1-0.1-0.2-0.2-0.2h-1.9l0.9-1.2c0.6-0.9,1.1-1.6,1.1-2.2
					c0-1-0.6-1.5-1.6-1.5c-0.6,0-1.1,0.3-1.5,0.4c-0.1,0.1-0.1,0.2-0.1,0.3l0.2,0.4c0.1,0.1,0.2,0.1,0.3,0.1
					c0.4-0.2,0.7-0.4,1.1-0.4s0.8,0.3,0.8,0.8s-0.3,1-0.9,1.9l-1.5,2.1c-0.1,0.1-0.1,0.1-0.1,0.2c0,0.1,0.1,0.1,0.1,0.1L38.1,149.9
					L38.1,149.9z M40.5,150c1.1,0,1.9-0.8,1.9-1.9c0-1.1-0.7-1.7-1.5-1.7l1.2-2c0.1-0.1,0-0.2-0.1-0.2h-2.7c-0.1,0-0.2,0.1-0.1,0.2
					l0.1,0.4c0,0.1,0.1,0.2,0.2,0.2H41l-1.2,1.9c-0.1,0.1,0,0.2,0.1,0.2h0.4c0.8,0,1.2,0.4,1.2,1.1c0,0.7-0.5,1.1-1.1,1.1
					c-0.4,0-0.8-0.2-1.1-0.4c-0.1-0.1-0.2,0-0.3,0.1l-0.2,0.4c0,0.1,0,0.2,0.1,0.3C39.4,149.8,40,150,40.5,150z M46.3,149.9
					c0.1,0,0.2-0.1,0.2-0.2v-1.1H47c0.1,0,0.2-0.1,0.2-0.2V148c0-0.1-0.1-0.2-0.2-0.2h-0.5v-2.2c0-0.1-0.1-0.1-0.1-0.1s-0.1,0-0.2,0
					l-0.4,0.1c-0.1,0-0.1,0.1-0.1,0.2v2.1h-1.6l1.1-3.4c0-0.1,0-0.2-0.1-0.2h-0.4c-0.1,0-0.2,0.1-0.2,0.2l-1.3,4.1
					c0,0.1,0,0.2,0.1,0.2h2.4v1.1c0,0.1,0.1,0.2,0.2,0.2L46.3,149.9L46.3,149.9z M51.2,150c1.1,0,1.9-0.8,1.9-1.9
					c0-1.1-0.8-1.8-1.7-1.8c-0.3,0-0.5,0-0.7,0.1l0.1-1.5h1.7c0.1,0,0.2,0,0.2-0.2l0.1-0.4c0-0.1,0-0.2-0.1-0.2h-2.3
					c-0.1,0-0.2,0.1-0.2,0.2L50,147c0,0.1,0.1,0.2,0.2,0.2c0.3-0.1,0.5-0.2,1-0.2c0.7,0,1.1,0.4,1.1,1.1c0,0.7-0.5,1.1-1.1,1.1
					c-0.4,0-0.8-0.2-1.1-0.4c-0.1-0.1-0.2,0-0.3,0.1l-0.2,0.4c-0.1,0.1,0,0.2,0.1,0.3C50,149.8,50.6,150,51.2,150z M55.9,150
					c1.1,0,1.8-0.8,1.8-1.9c0-1.2-0.8-1.8-1.7-1.8c-0.4,0-1,0.2-1.2,0.4c0.1-1.4,0.7-1.9,1.4-1.9c0.3,0,0.5,0.1,0.8,0.3
					c0.1,0.1,0.2,0,0.3-0.1l0.2-0.4c0.1-0.1,0-0.2-0.1-0.3c-0.3-0.2-0.7-0.3-1.1-0.3c-1.1,0-2.1,0.9-2.1,3
					C53.9,149,54.7,150,55.9,150z M55.9,149.3c-0.7,0-1.1-0.7-1.1-1.9c0.3-0.2,0.6-0.4,1.1-0.4s1,0.4,1,1.1
					C56.8,148.7,56.5,149.3,55.9,149.3z M59.5,149.9c0.1,0,0.2-0.1,0.2-0.2l1.9-5.3c0-0.1,0-0.2-0.1-0.2h-3.1
					c-0.1,0-0.2,0.1-0.1,0.2l0.1,0.4c0,0.1,0.1,0.2,0.2,0.2h2l-1.8,4.7c0,0.1,0,0.2,0.1,0.2L59.5,149.9L59.5,149.9z M64.2,150
					c1.1,0,1.9-0.6,1.9-1.5c0-0.7-0.5-1.2-1.1-1.6c0.5-0.3,1-0.8,1-1.3c0-0.8-0.7-1.4-1.7-1.4s-1.7,0.6-1.7,1.4c0,0.5,0.4,1.1,1,1.3
					c-0.6,0.3-1.1,0.9-1.1,1.6C62.2,149.3,63,150,64.2,150z M64.2,146.6c-0.5-0.3-0.9-0.5-0.9-1s0.4-0.8,0.9-0.8
					c0.4,0,0.9,0.3,0.9,0.8C65,146.1,64.7,146.3,64.2,146.6z M64.2,149.3c-0.6,0-1.1-0.4-1.1-0.9c0-0.6,0.5-1,1.1-1.2
					c0.5,0.3,1.1,0.6,1.1,1.2C65.1,148.9,64.8,149.3,64.2,149.3z M70.2,150c1.1,0,2.1-0.9,2.1-3c0-1.9-0.8-2.8-1.9-2.8
					s-1.8,0.8-1.8,1.9c0,1.2,0.8,1.8,1.7,1.8c0.4,0,1-0.2,1.2-0.4c-0.1,1.4-0.7,1.9-1.4,1.9c-0.3,0-0.5-0.1-0.8-0.3
					c-0.1-0.1-0.2,0-0.3,0.1l-0.2,0.4c-0.1,0.1,0,0.2,0.1,0.3C69.2,149.9,69.6,150,70.2,150z M70.3,147.1c-0.5,0-1-0.4-1-1.1
					c0-0.6,0.4-1.1,1-1.1c0.7,0,1.1,0.7,1.1,1.9C71.2,147,70.9,147.1,70.3,147.1z M75,149.9c0.1,0,0.2-0.1,0.2-0.2v-5.4
					c0-0.1-0.1-0.2-0.2-0.2h-0.4c-0.1,0-0.1,0-0.2,0.1l-1.3,1c-0.1,0.1-0.1,0.1,0,0.2l0.3,0.4c0.1,0.1,0.1,0.1,0.2,0l0.9-0.6v4.6
					c0,0.1,0.1,0.2,0.2,0.2H75V149.9z M78.5,150c1.4,0,1.9-1.3,1.9-2.9s-0.6-2.9-1.9-2.9c-1.4,0-1.9,1.3-1.9,2.9S77,150,78.5,150z
					 M78.5,149.3c-0.8,0-1.1-0.9-1.1-2.2s0.4-2.2,1.1-2.2c0.8,0,1.1,0.9,1.1,2.2S79.3,149.3,78.5,149.3z M83.2,149.9
					c0.1,0,0.2-0.1,0.2-0.2v-5.4c0-0.1-0.1-0.2-0.2-0.2h-0.4c-0.1,0-0.1,0-0.2,0.1l-1.3,1c-0.1,0.1-0.1,0.1,0,0.2l0.3,0.4
					c0.1,0.1,0.1,0.1,0.2,0l0.9-0.6v4.6c0,0.1,0.1,0.2,0.2,0.2h0.3V149.9z M88.3,149.9c0.1,0,0.2-0.1,0.2-0.2v-5.4
					c0-0.1-0.1-0.2-0.2-0.2h-0.4c-0.1,0-0.1,0-0.2,0.1l-1.3,1c-0.1,0.1-0.1,0.1,0,0.2l0.3,0.4c0.1,0.1,0.1,0.1,0.2,0l0.9-0.6v4.6
					c0,0.1,0.1,0.2,0.2,0.2h0.3V149.9z M92.8,149.9c0.1,0,0.2-0.1,0.2-0.2v-0.4c0-0.1-0.1-0.2-0.2-0.2h-1.9l0.9-1.2
					c0.6-0.9,1.1-1.6,1.1-2.2c0-1-0.6-1.5-1.6-1.5c-0.6,0-1.1,0.3-1.5,0.4c-0.1,0.1-0.1,0.2-0.1,0.3l0.2,0.4
					c0.1,0.1,0.2,0.1,0.3,0.1c0.4-0.2,0.7-0.4,1.1-0.4s0.8,0.3,0.8,0.8s-0.3,1-0.9,1.9l-1.5,2.1c-0.1,0.1-0.1,0.1-0.1,0.2
					c0,0.1,0.1,0.1,0.1,0.1L92.8,149.9L92.8,149.9z M95.7,149.9c0.1,0,0.2-0.1,0.2-0.2v-5.4c0-0.1-0.1-0.2-0.2-0.2h-0.4
					c-0.1,0-0.1,0-0.2,0.1l-1.3,1c-0.1,0.1-0.1,0.1,0,0.2l0.3,0.4c0.1,0.1,0.1,0.1,0.2,0l0.9-0.6v4.6c0,0.1,0.1,0.2,0.2,0.2h0.3
					V149.9z M98.4,150c1.1,0,1.9-0.8,1.9-1.9c0-1.1-0.7-1.7-1.5-1.7l1.2-2c0.1-0.1,0-0.2-0.1-0.2h-2.7c-0.1,0-0.2,0.1-0.1,0.2
					l0.1,0.4c0,0.1,0.1,0.2,0.2,0.2H99l-1.2,1.9c-0.1,0.1,0,0.2,0.1,0.2h0.4c0.8,0,1.2,0.4,1.2,1.1c0,0.7-0.5,1.1-1.1,1.1
					c-0.4,0-0.8-0.2-1.1-0.4c-0.1-0.1-0.2,0-0.3,0.1l-0.2,0.4c0,0.1,0,0.2,0.1,0.3C97.3,149.8,97.9,150,98.4,150z"/>
				<path id="_x31_23" class="st5" d="M130.7,149.9c0.1,0,0.2-0.1,0.2-0.2v-5.4c0-0.1-0.1-0.2-0.2-0.2h-0.4c-0.1,0-0.1,0-0.2,0.1
					l-1.3,1c-0.1,0.1-0.1,0.1,0,0.2l0.3,0.4c0.1,0.1,0.1,0.1,0.2,0l0.9-0.6v4.6c0,0.1,0.1,0.2,0.2,0.2h0.3V149.9z M135.2,149.9
					c0.1,0,0.2-0.1,0.2-0.2v-0.4c0-0.1-0.1-0.2-0.2-0.2h-1.9l0.9-1.2c0.6-0.9,1.1-1.6,1.1-2.2c0-1-0.6-1.5-1.6-1.5
					c-0.6,0-1.1,0.3-1.5,0.4c-0.1,0.1-0.1,0.2-0.1,0.3l0.2,0.4c0.1,0.1,0.2,0.1,0.3,0.1c0.4-0.2,0.7-0.4,1.1-0.4s0.8,0.3,0.8,0.8
					s-0.3,1-0.9,1.9l-1.5,2.1c-0.1,0.1-0.1,0.1-0.1,0.2c0,0.1,0.1,0.1,0.1,0.1L135.2,149.9L135.2,149.9z M137.6,150
					c1.1,0,1.9-0.8,1.9-1.9c0-1.1-0.7-1.7-1.5-1.7l1.2-2c0.1-0.1,0-0.2-0.1-0.2h-2.7c-0.1,0-0.2,0.1-0.1,0.2l0.1,0.4
					c0,0.1,0.1,0.2,0.2,0.2h1.6l-1.2,1.9c-0.1,0.1,0,0.2,0.1,0.2h0.4c0.8,0,1.2,0.4,1.2,1.1c0,0.7-0.5,1.1-1.1,1.1
					c-0.4,0-0.8-0.2-1.1-0.4c-0.1-0.1-0.2,0-0.3,0.1l-0.2,0.4c0,0.1,0,0.2,0.1,0.3C136.4,149.8,137.1,150,137.6,150z"/>
				<rect x="73.3" y="110.2" class="st6" width="73.3" height="2.6"/>
				<rect x="43.7" y="36" class="st6" width="158.9" height="2.6"/>
				<rect x="73.3" y="115.5" class="st6" width="69.7" height="2.6"/>
				<rect x="73.3" y="120.7" class="st6" width="66.2" height="2.6"/>
				<rect x="73.3" y="126" class="st6" width="73.3" height="2.6"/>
			</g>
		</g>
	</g>
</g>
</svg>
