<?xml version="1.0" encoding="utf-8"?>
<!-- Generator: Adobe Illustrator 23.0.3, SVG Export Plug-In . SVG Version: 6.00 Build 0)  -->
<svg version="1.1" id="Ostoslista" xmlns="http://www.w3.org/2000/svg" xmlns:xlink="http://www.w3.org/1999/xlink" x="0px" y="0px"
	 width="500px" height="500px" viewBox="0 0 500 500" style="enable-background:new 0 0 500 500;" xml:space="preserve">
<style type="text/css">
	.st0{fill-rule:evenodd;clip-rule:evenodd;fill:url(#Muoto_1_);}
	.st1{display:none;fill:none;stroke:#E4E4E4;stroke-width:0.5;stroke-miterlimit:10;}
	.st2{fill:none;stroke:#D1D1D1;stroke-width:0.5;stroke-miterlimit:10;}
	.st3{display:none;fill:#FF6900;enable-background:new    ;}
	.st4{font-family:'SkattaScript-Bold';}
	.st5{font-size:32px;}
	.st6{display:none;}
	.st7{display:inline;fill:#FF6900;}
	.st8{enable-background:new    ;}
	.st9{fill:#FF6900;}
</style>
<linearGradient id="Muoto_1_" gradientUnits="userSpaceOnUse" x1="250.05" y1="46.6731" x2="250.05" y2="449.4977" gradientTransform="matrix(1 0 0 -1 0 499.8898)">
	<stop  offset="0" style="stop-color:#E7E7E7"/>
	<stop  offset="0.9991" style="stop-color:#F9F9F9"/>
</linearGradient>
<path id="Muoto" class="st0" d="M397.7,451.7c1.2,0,2.2-1,2.2-2.2L400,61.2c0-9.7-3.5-13.9-7.8-13.6L251,47c-4.9,0.2-10,0.2-14.9,0
	l-131.6,0.5c-2.4-0.1-4.4,2.2-4.4,5.1v393.6c0,3.8,2.5,5.4,5.5,5.5c1.6,0,3.4,0,4.8,0c1.6,0,3.4,0,4.4-2.1c2.1-4.5,4.8-5.6,7-10.1
	c1.6-3.3,5.5-3.3,7,0c2.4,5.2,5.7,6,7.9,10.5c1.1,2.3,3.8,2.3,4.9,0l8-10.7c1.5-3.2,5.3-3.2,6.8,0l7,10.1c1.5,3.2,5.3,3.2,6.8,0
	l7-10.1c1.5-3.2,5.3-3.2,6.8,0l7,10.1c1.5,3.2,5.3,3.2,6.8,0l7-10.1c1.5-3.2,5.3-3.2,6.8,0l7,10.1c1.5,3.2,5.3,3.2,6.8,0l7-10.1
	c1.5-3.2,5.3-3.2,6.8,0l7,10.1c1.5,3.2,5.3,3.2,6.8,0l7-10.1c1.5-3.2,5.3-3.2,6.8,0l7,10.1c1.5,3.2,5.3,3.2,6.8,0l7-10.1
	c1.5-3.2,5.3-3.2,6.8,0l7,10.1c1.5,3.2,5.3,3.2,6.8,0l7-10.1c1.5-3.2,5.3-3.2,6.8,0l7,10.1c1.5,3.2,5.3,3.2,6.8,0l7-10.1
	c1.5-3.2,5.3-3.2,6.8,0l7,10.1c1.5,3.2,5.3,3.2,6.8,0l8-10.7c1.1-2.3,3.8-2.3,4.9,0l5.1,7c2.1,4.5,6.5,6.1,10.7,6.1L397.7,451.7z"/>
<g id="Viivat">
	<line class="st1" x1="129.8" y1="93" x2="368.7" y2="93"/>
	<line class="st1" x1="129.8" y1="115.3" x2="368.7" y2="115.3"/>
	<line class="st1" x1="129.8" y1="137.6" x2="368.7" y2="137.6"/>
	<line class="st2" x1="129.8" y1="159.9" x2="368.7" y2="159.9"/>
	<line class="st2" x1="129.8" y1="184.8" x2="368.7" y2="184.8"/>
	<line class="st2" x1="129.8" y1="209.6" x2="368.7" y2="209.6"/>
	<line class="st2" x1="129.8" y1="234.3" x2="368.7" y2="234.3"/>
	<line class="st2" x1="129.8" y1="259.1" x2="368.7" y2="259.1"/>
	<line class="st2" x1="129.8" y1="284" x2="368.7" y2="284"/>
	<line class="st2" x1="129.8" y1="308.8" x2="368.7" y2="308.8"/>
	<line class="st2" x1="129.8" y1="333.5" x2="368.7" y2="333.5"/>
	<line class="st2" x1="129.8" y1="358.3" x2="368.7" y2="358.3"/>
	<line class="st2" x1="129.8" y1="383.2" x2="368.7" y2="383.2"/>
</g>
<text transform="matrix(1 0 0 1 175.2647 128.8057)" class="st3 st4 st5">Kaupasta:</text>
<g class="st6">
	<path class="st7" d="M203.1,116.5c-1.2,1.5-2.5,2.6-3.8,3.4s-2.7,1.2-4,1.2c-1.5,0-2.6-0.4-3.5-1.2c-0.8-0.8-1.6-2.1-2.2-3.8
		l-1-2.8c-0.4,1.2-0.9,2.3-1.5,3.3c-0.5,1-1.1,1.8-1.8,2.5s-1.5,1.2-2.4,1.6s-2,0.5-3.2,0.5c-1,0-1.9-0.1-2.7-0.4s-1.5-0.7-2-1.2
		s-1-1-1.3-1.6s-0.5-1.3-0.6-1.9c-0.1-0.4,0.1-0.7,0.4-0.9l2.6-0.9c0.2-0.1,0.4,0,0.6,0.1c0.2,0.1,0.3,0.3,0.3,0.4
		c0,0.3,0.1,0.6,0.3,0.9c0.1,0.3,0.3,0.5,0.6,0.8c0.2,0.2,0.5,0.4,0.9,0.6c0.3,0.1,0.7,0.2,1.2,0.2c1.1,0,2-0.4,2.7-1.3s1.4-2.2,2-4
		c0.2-0.7,0.5-1.4,0.7-2.2c0.3-0.8,0.6-1.7,0.8-2.5c0.3-0.9,0.5-1.7,0.8-2.6s0.5-1.7,0.6-2.4c-0.4-0.2-0.8-0.3-1.3-0.4
		c-0.4-0.1-0.9-0.1-1.5-0.1c-0.5,0-0.9,0.1-1.2,0.2s-0.6,0.3-0.8,0.5s-0.4,0.4-0.4,0.7c-0.1,0.2-0.1,0.5-0.1,0.8
		c0,0.6,0.1,1.1,0.4,1.4c0.3,0.4,0.6,0.7,0.9,0.9c0.1,0.1,0.2,0.2,0.2,0.4c0,0.1-0.1,0.3-0.2,0.4l-1.7,2c-0.1,0.1-0.2,0.2-0.4,0.2
		c-0.1,0-0.3,0-0.4-0.1c-0.4-0.3-0.8-0.6-1.2-0.9c-0.4-0.4-0.7-0.7-1-1.2s-0.5-0.9-0.7-1.4s-0.3-1-0.3-1.6c0-0.9,0.2-1.8,0.5-2.6
		c0.3-0.8,0.8-1.5,1.4-2c0.6-0.6,1.3-1,2.1-1.3s1.7-0.5,2.8-0.5c0.7,0,1.3,0,1.9,0.1c0.6,0.1,1.2,0.2,1.8,0.3
		c0.6,0.1,1.3,0.3,1.9,0.5c0.7,0.2,1.4,0.4,2.1,0.6c0.2,0.1,0.4,0.2,0.5,0.4c0.1,0.2,0.1,0.4,0,0.6c-0.2,0.7-0.4,1.4-0.7,2.3
		c-0.3,0.8-0.5,1.7-0.8,2.5c-0.3,0.9-0.6,1.8-0.8,2.6c-0.3,0.9-0.6,1.7-0.8,2.5c0.7-0.2,1.3-0.5,1.8-0.9s0.9-0.8,1.3-1.3
		c0.4-0.5,0.7-0.9,0.9-1.4s0.5-0.9,0.6-1.3l1.9-4c0.2-0.5,0.5-0.9,0.8-1.4c0.3-0.4,0.7-0.8,1.1-1.1c0.4-0.3,0.9-0.5,1.5-0.7
		s1.2-0.3,1.9-0.3c0.4,0,0.8,0,1.2,0.1c0.4,0,0.7,0.1,1.1,0.2c0.4,0.1,0.5,0.4,0.4,0.9l-0.7,2.3c-0.1,0.2-0.2,0.4-0.4,0.4
		c-0.2,0.1-0.4,0.1-0.6,0c-0.1,0-0.3-0.1-0.4-0.1c-0.1,0-0.3,0-0.4,0c-0.4,0-0.7,0.1-1.1,0.2c-0.3,0.2-0.6,0.5-0.8,1l-1.8,3.8
		c-0.3,0.7-0.7,1.3-1,2c-0.3,0.6-0.7,1.2-1.1,1.7c-0.4,0.5-0.8,1-1.3,1.3c-0.5,0.4-1,0.7-1.6,0.8l0.6,1.7c0.4,1.1,0.8,1.9,1.3,2.4
		s1.1,0.7,1.7,0.7c0.6,0,1.2-0.2,2-0.6c0.7-0.4,1.6-1.1,2.5-2.3l0.2-0.2c0.1-0.2,0.3-0.3,0.5-0.3s0.4,0.1,0.6,0.3l1,1
		c0.2,0.2,0.3,0.4,0.3,0.5c0,0.2-0.1,0.4-0.3,0.6L203.1,116.5z"/>
	<path class="st7" d="M212.4,121c-0.6,0-1.2-0.2-1.7-0.5c-0.5-0.4-0.9-0.9-1.2-1.6c-0.7,0.6-1.5,1.1-2.2,1.5s-1.5,0.6-2.3,0.6
		c-1.1,0-2-0.4-2.7-1.2s-1.1-2-1.1-3.6c0-1.3,0.2-2.6,0.6-3.8c0.4-1.3,1-2.4,1.9-3.5c0.8-1,1.8-1.9,3-2.5s2.5-1,4-1
		c0.8,0,1.4,0.1,2,0.2c0.5,0.1,1.1,0.4,1.7,0.7c0.3,0.1,0.4,0.3,0.4,0.6c0,0.1,0,0.1,0,0.2l-0.1,0.2l-0.5,1c0.6,0,1.1,0.2,1.4,0.6
		c0.4,0.4,0.5,0.8,0.5,1.4c0,0.4-0.1,0.8-0.3,1.3s-0.4,1-0.7,1.5s-0.6,1-1,1.5s-0.7,1-1.1,1.4c0,0.4,0.1,0.7,0.3,0.9
		c0.1,0.1,0.4,0.2,0.7,0.2s0.5-0.1,0.9-0.3c0.3-0.2,0.7-0.4,1.1-0.7c0.4-0.3,0.7-0.6,1.1-0.9c0.4-0.3,0.7-0.7,0.9-1l0.2-0.2
		c0.1-0.2,0.3-0.3,0.5-0.3s0.4,0.1,0.6,0.3l1,1c0.2,0.2,0.3,0.4,0.3,0.5c0,0.2-0.1,0.4-0.3,0.6l-0.2,0.2c-1.4,1.7-2.7,2.9-4,3.5
		S213.6,121,212.4,121z M206.4,117.2c0.4,0,0.9-0.2,1.4-0.5s1.1-0.8,1.7-1.4c0.2-1,0.5-2,0.9-3.1s0.9-1.9,1.5-2.6
		c-0.4-0.3-0.9-0.4-1.4-0.4c-0.7,0-1.3,0.2-1.9,0.6c-0.6,0.4-1.2,0.9-1.7,1.5s-0.9,1.3-1.2,2.1c-0.3,0.8-0.4,1.6-0.4,2.4
		C205.3,116.7,205.7,117.2,206.4,117.2z"/>
	<path class="st7" d="M235.5,114.1c0.1-0.2,0.3-0.3,0.5-0.3s0.4,0.1,0.6,0.3l1,1c0.2,0.2,0.3,0.4,0.3,0.5c0,0.2-0.1,0.4-0.3,0.6
		l-0.2,0.2c-1.3,1.6-2.6,2.7-3.9,3.5c-1.3,0.7-2.6,1.1-4,1.1c-0.8,0-1.4-0.2-1.8-0.7s-0.7-1.1-0.8-1.8c-1.1,0.8-2.1,1.4-3,1.9
		c-0.9,0.4-1.9,0.6-2.9,0.6c-1.1,0-1.9-0.3-2.3-0.9c-0.5-0.6-0.7-1.3-0.7-2.1c0-0.8,0.2-1.7,0.5-2.8s0.7-2.2,1.1-3.3
		c0.4-1.1,0.9-2.3,1.4-3.3c0.5-1.1,1-2,1.4-2.7c0.1-0.2,0.2-0.3,0.4-0.3c0.2-0.1,0.4,0,0.7,0.1l2.3,1.1c0.3,0.1,0.4,0.3,0.4,0.5
		s0,0.4-0.1,0.6c-0.3,0.5-0.7,1.2-1.1,2c-0.4,0.8-0.8,1.6-1.2,2.5s-0.7,1.7-1,2.5s-0.4,1.4-0.4,1.8c0,0.2,0,0.4,0.1,0.5
		s0.3,0.2,0.5,0.2c0.3,0,0.8-0.1,1.4-0.4s1.4-0.9,2.4-1.7c0.1-0.9,0.3-1.8,0.5-2.6c0.2-0.8,0.5-1.7,0.8-2.6c0.2-0.5,0.4-1.1,0.7-1.6
		s0.5-1,0.8-1.4s0.6-0.7,1-1s0.7-0.4,1.1-0.4c0.6,0,1.1,0.2,1.4,0.7c0.3,0.4,0.5,1,0.5,1.8c0,0.5-0.1,1.1-0.2,1.8
		c-0.1,0.7-0.4,1.3-0.6,2c-0.3,0.7-0.5,1.3-0.9,1.9c-0.3,0.6-0.7,1.2-1,1.7c-0.1,0.4-0.2,0.7-0.2,1.1c0,0.6,0.2,0.8,0.6,0.8
		c0.3,0,0.6-0.1,0.9-0.3c0.3-0.2,0.7-0.4,1.1-0.7c0.4-0.3,0.7-0.6,1.1-0.9c0.4-0.3,0.7-0.7,0.9-1L235.5,114.1z"/>
	<path class="st7" d="M238.6,106.1c0-0.2,0.1-0.3,0.2-0.4c0.1-0.1,0.3-0.2,0.4-0.2c0.1,0,0.1,0,0.2,0s0.2,0,0.3,0l2.4,0.4
		c0.4,0.1,0.6,0.3,0.6,0.6c0,0.1,0,0.3-0.1,0.6c-0.1,0.3-0.2,0.5-0.2,0.7c0.8-0.7,1.6-1.3,2.3-1.7c0.8-0.4,1.5-0.6,2.2-0.6
		c1.2,0,2.1,0.4,2.8,1.2c0.7,0.8,1,1.9,1,3.5c0,1.3-0.2,2.7-0.7,4s-1.1,2.5-1.9,3.5c-0.8,1-1.8,1.9-2.9,2.5c-1.1,0.6-2.3,1-3.6,1
		c-0.3,0-0.5,0-0.8,0s-0.6-0.1-0.8-0.1s-0.4-0.1-0.5-0.2s-0.1-0.3-0.2-0.5l-0.2-1.6c-0.4,1.5-0.6,2.9-0.8,4.3s-0.3,2.8-0.4,4.3
		c0,0.4-0.2,0.7-0.6,0.7l-3.1,0.1c-0.4,0-0.6-0.2-0.6-0.6v-0.4v-0.3c0.2-1.7,0.4-3.5,0.8-5.2c0.3-1.8,0.7-3.6,1.1-5.3
		c0.4-1.8,0.9-3.5,1.4-5.2C237.5,109.2,238,107.6,238.6,106.1z M240.1,115.1c-0.3,0.8-0.5,1.6-0.7,2.2h0.1c0.2,0,0.4,0,0.7,0.1
		c0.2,0,0.5,0.1,0.8,0.1c0.8,0,1.5-0.2,2.1-0.6c0.7-0.4,1.2-1,1.7-1.6c0.5-0.7,0.9-1.4,1.1-2.2c0.3-0.8,0.4-1.5,0.4-2.3
		c0-0.4-0.1-0.8-0.3-1s-0.5-0.4-0.9-0.4s-0.8,0.1-1.3,0.4c-0.5,0.2-1,0.6-1.4,1.1s-0.9,1.1-1.4,1.8
		C240.8,113.3,240.4,114.1,240.1,115.1z"/>
	<path class="st7" d="M262.5,121c-0.6,0-1.2-0.2-1.7-0.5c-0.5-0.4-0.9-0.9-1.2-1.6c-0.7,0.6-1.5,1.1-2.2,1.5
		c-0.8,0.4-1.5,0.6-2.3,0.6c-1.1,0-2-0.4-2.7-1.2c-0.7-0.8-1.1-2-1.1-3.6c0-1.3,0.2-2.6,0.6-3.8c0.4-1.3,1-2.4,1.9-3.5
		c0.8-1,1.8-1.9,3-2.5c1.2-0.6,2.5-1,4-1c0.8,0,1.4,0.1,2,0.2s1.1,0.4,1.7,0.7c0.3,0.1,0.4,0.3,0.4,0.6c0,0.1,0,0.1,0,0.2l-0.1,0.2
		l-0.5,1c0.6,0,1.1,0.2,1.4,0.6c0.4,0.4,0.5,0.8,0.5,1.4c0,0.4-0.1,0.8-0.3,1.3c-0.2,0.5-0.4,1-0.7,1.5c-0.3,0.5-0.6,1-1,1.5
		s-0.7,1-1.1,1.4c0,0.4,0.1,0.7,0.3,0.9c0.1,0.1,0.4,0.2,0.7,0.2c0.3,0,0.5-0.1,0.9-0.3c0.3-0.2,0.7-0.4,1.1-0.7
		c0.4-0.3,0.7-0.6,1.1-0.9s0.7-0.7,0.9-1l0.2-0.2c0.1-0.2,0.3-0.3,0.5-0.3s0.4,0.1,0.6,0.3l1,1c0.2,0.2,0.3,0.4,0.3,0.5
		c0,0.2-0.1,0.4-0.3,0.6l-0.2,0.2c-1.4,1.7-2.7,2.9-4,3.5S263.7,121,262.5,121z M256.4,117.2c0.4,0,0.9-0.2,1.4-0.5s1.1-0.8,1.7-1.4
		c0.2-1,0.5-2,0.9-3.1s0.9-1.9,1.5-2.6c-0.4-0.3-0.9-0.4-1.4-0.4c-0.7,0-1.3,0.2-1.9,0.6s-1.2,0.9-1.7,1.5s-0.9,1.3-1.2,2.1
		c-0.3,0.8-0.4,1.6-0.4,2.4C255.4,116.7,255.7,117.2,256.4,117.2z"/>
	<path class="st7" d="M270.7,116.5c-0.1,0.2-0.3,0.3-0.5,0.3s-0.4-0.1-0.6-0.3l-1-1c-0.2-0.2-0.3-0.4-0.3-0.5c0-0.2,0.1-0.4,0.3-0.6
		l0.2-0.2c0.5-0.6,1.2-1.4,1.9-2.4c0.7-1,1.5-2.1,2.2-3.2c0-0.1-0.1-0.3-0.1-0.5s-0.1-0.3-0.1-0.4c0-0.6,0.1-1.2,0.3-1.7
		s0.5-0.9,0.8-1.2c0.4-0.3,0.8-0.6,1.2-0.7c0.4-0.2,0.9-0.2,1.4-0.2c0.7,0,1.3,0.2,1.7,0.6c0.4,0.4,0.7,0.9,0.7,1.6
		c0,0.4-0.1,0.9-0.4,1.4c-0.2,0.5-0.5,0.9-0.8,1.3c1,1.1,1.7,2.3,2.4,3.4c0.6,1.1,0.9,2.3,0.9,3.6c0,0.7-0.1,1.3-0.4,2
		s-0.6,1.3-1.2,1.8s-1.2,1-1.9,1.3c-0.8,0.3-1.7,0.5-2.7,0.5c-0.9,0-1.7-0.1-2.3-0.2c-0.7-0.2-1.2-0.4-1.7-0.7
		c-0.4-0.3-0.5-0.6-0.3-1.1l1.1-2c0.1-0.1,0.2-0.2,0.4-0.3c0.2,0,0.3,0,0.5,0.1c0.7,0.3,1.4,0.5,2.1,0.5s1.2-0.2,1.6-0.6
		s0.5-0.9,0.5-1.5c0-0.8-0.2-1.5-0.6-2.1s-0.8-1.2-1.4-1.9c-0.5,0.7-1.1,1.5-1.8,2.3C272.2,114.7,271.5,115.6,270.7,116.5
		L270.7,116.5z"/>
	<path class="st7" d="M294.3,114.1c0.1-0.2,0.3-0.3,0.5-0.3s0.4,0.1,0.6,0.3l1,1c0.2,0.2,0.3,0.4,0.3,0.5c0,0.2-0.1,0.4-0.3,0.6
		l-0.2,0.2c-0.6,0.7-1.2,1.3-1.9,1.9c-0.7,0.6-1.4,1-2.1,1.4s-1.5,0.7-2.2,0.9c-0.7,0.2-1.4,0.3-2.1,0.3c-1.4,0-2.5-0.4-3.3-1.2
		s-1.2-1.9-1.2-3.3c0-0.9,0.2-1.9,0.5-3s0.7-2.1,1.1-3.2l0.4-1.1h-1.1c-0.2,0-0.4-0.1-0.5-0.2s-0.1-0.3-0.1-0.5l0.4-2.3
		c0.1-0.4,0.3-0.5,0.6-0.5h2.1l1.6-4c0.2-0.5,0.6-0.7,1.2-0.5l2.2,1c0.5,0.2,0.7,0.5,0.5,1.1l-1,2.5h3.2c0.2,0,0.4,0.1,0.5,0.2
		c0.1,0.2,0.2,0.4,0.1,0.6l-0.3,2c-0.1,0.5-0.3,0.7-0.8,0.7h-4.2l-0.7,1.8c-0.4,1-0.7,1.8-0.9,2.6c-0.2,0.7-0.3,1.4-0.3,1.9
		c0,0.4,0.1,0.8,0.3,1.1c0.2,0.3,0.6,0.5,1.2,0.5c0.4,0,0.8-0.1,1.2-0.2c0.4-0.2,0.8-0.4,1.2-0.6c0.4-0.3,0.8-0.6,1.2-0.9
		c0.4-0.3,0.7-0.7,1-1.1L294.3,114.1z"/>
	<path class="st7" d="M305.6,121c-0.6,0-1.2-0.2-1.7-0.5c-0.5-0.4-0.9-0.9-1.2-1.6c-0.7,0.6-1.5,1.1-2.2,1.5
		c-0.8,0.4-1.5,0.6-2.3,0.6c-1.1,0-2-0.4-2.7-1.2c-0.7-0.8-1.1-2-1.1-3.6c0-1.3,0.2-2.6,0.6-3.8c0.4-1.3,1-2.4,1.9-3.5
		c0.8-1,1.8-1.9,3-2.5s2.5-1,4-1c0.8,0,1.4,0.1,2,0.2s1.1,0.4,1.7,0.7c0.3,0.1,0.4,0.3,0.4,0.6c0,0.1,0,0.1,0,0.2l-0.1,0.2l-0.5,1
		c0.6,0,1.1,0.2,1.4,0.6c0.4,0.4,0.5,0.8,0.5,1.4c0,0.4-0.1,0.8-0.3,1.3c-0.2,0.5-0.4,1-0.7,1.5c-0.3,0.5-0.6,1-1,1.5
		s-0.7,1-1.1,1.4c0,0.4,0.1,0.7,0.3,0.9c0.1,0.1,0.4,0.2,0.7,0.2c0.3,0,0.5-0.1,0.9-0.3c0.3-0.2,0.7-0.4,1.1-0.7
		c0.4-0.3,0.7-0.6,1.1-0.9s0.7-0.7,0.9-1l0.2-0.2c0.1-0.2,0.3-0.3,0.5-0.3s0.4,0.1,0.6,0.3l1,1c0.2,0.2,0.3,0.4,0.3,0.5
		c0,0.2-0.1,0.4-0.3,0.6l-0.2,0.2c-1.4,1.7-2.7,2.9-4,3.5S306.8,121,305.6,121z M299.5,117.2c0.4,0,0.9-0.2,1.4-0.5s1.1-0.8,1.7-1.4
		c0.2-1,0.5-2,0.9-3.1s0.9-1.9,1.5-2.6c-0.4-0.3-0.9-0.4-1.4-0.4c-0.7,0-1.3,0.2-1.9,0.6s-1.2,0.9-1.7,1.5s-0.9,1.3-1.2,2.1
		c-0.3,0.8-0.4,1.6-0.4,2.4C298.4,116.7,298.8,117.2,299.5,117.2z"/>
	<path class="st7" d="M317.3,121c-0.8,0-1.4-0.2-1.9-0.7c-0.5-0.4-0.7-1-0.7-1.8c0-0.4,0.1-0.9,0.2-1.2c0.2-0.4,0.4-0.7,0.7-1
		s0.6-0.5,1-0.7s0.8-0.3,1.3-0.3c0.8,0,1.4,0.2,1.9,0.6s0.7,1,0.7,1.8c0,0.9-0.3,1.7-0.9,2.3C319,120.7,318.2,121,317.3,121z
		 M319.5,111.3c-0.8,0-1.4-0.2-1.9-0.7c-0.5-0.4-0.7-1-0.7-1.8c0-0.4,0.1-0.9,0.2-1.2c0.2-0.4,0.4-0.7,0.7-1c0.3-0.3,0.6-0.5,1-0.7
		s0.8-0.3,1.3-0.3c0.8,0,1.4,0.2,1.9,0.6s0.7,1,0.7,1.8c0,0.9-0.3,1.7-0.9,2.3C321.1,111,320.4,111.3,319.5,111.3z"/>
</g>
<text transform="matrix(1 0 0 1 177.8091 123.5035)" class="st3 st4 st5">Ostoslista</text>
<g id="Ostoslista_teksti" class="st8">
	<path class="st9" d="M182.9,107c0.1-0.2,0.3-0.4,0.4-0.4c0.1-0.1,0.3,0,0.6,0.1l0.5,0.2c0-0.8,0.2-1.7,0.6-2.5
		c0.4-0.9,0.9-1.7,1.6-2.4s1.6-1.3,2.6-1.8c1-0.5,2.2-0.7,3.6-0.7c1,0,2,0.2,2.8,0.6c0.8,0.4,1.5,0.9,2.1,1.6c0.6,0.7,1,1.5,1.3,2.4
		c0.3,0.9,0.5,1.9,0.5,3c0,2.2-0.3,4.3-1,6.3c-0.7,2-1.5,3.6-2.6,5.1c-1.1,1.4-2.4,2.6-3.9,3.4c-1.5,0.8-3,1.2-4.7,1.2
		c-1,0-2-0.2-2.8-0.6s-1.5-0.9-2.1-1.6c-0.6-0.7-1-1.5-1.3-2.4c-0.3-0.9-0.5-1.8-0.5-2.8c0-0.7,0.1-1.5,0.2-2.2s0.3-1.6,0.5-2.3
		c0.2-0.8,0.5-1.5,0.7-2.2C182.3,108.1,182.6,107.5,182.9,107z M188.8,108.4c0.1,0.2,0.1,0.4,0,0.6c-0.1,0.2-0.2,0.3-0.5,0.3
		l-1.9,0.4c-0.4,0.8-0.7,1.7-0.9,2.6c-0.3,0.9-0.4,1.8-0.4,2.5c0,1.3,0.2,2.3,0.7,3c0.5,0.7,1.2,1.1,2.1,1.1c1,0,1.9-0.4,2.8-1.1
		c0.9-0.7,1.7-1.6,2.3-2.7c0.7-1.1,1.2-2.4,1.6-3.7c0.4-1.4,0.6-2.7,0.6-4.1c0-1.4-0.3-2.4-0.8-3.1c-0.5-0.7-1.2-1-2.1-1
		c-0.6,0-1.1,0.1-1.5,0.3c-0.4,0.2-0.8,0.4-1.2,0.7s-0.6,0.7-0.7,1.1c-0.2,0.4-0.3,0.8-0.3,1.2c0,0.4,0,0.7,0,1
		C188.7,107.8,188.7,108.1,188.8,108.4z"/>
	<path class="st9" d="M202,118.3c-0.1,0.2-0.3,0.3-0.5,0.3c-0.2,0-0.4-0.1-0.6-0.3l-1-1c-0.2-0.2-0.3-0.4-0.3-0.5
		c0-0.2,0.1-0.4,0.3-0.6l0.2-0.2c0.5-0.6,1.2-1.4,1.9-2.4c0.7-1,1.5-2.1,2.2-3.2c0-0.1-0.1-0.3-0.1-0.5c0-0.2-0.1-0.3-0.1-0.4
		c0-0.6,0.1-1.2,0.3-1.7c0.2-0.5,0.5-0.9,0.8-1.2s0.8-0.6,1.2-0.7c0.4-0.2,0.9-0.2,1.4-0.2c0.7,0,1.3,0.2,1.7,0.6
		c0.4,0.4,0.7,0.9,0.7,1.6c0,0.4-0.1,0.9-0.4,1.4c-0.2,0.5-0.5,0.9-0.8,1.3c1,1.1,1.7,2.3,2.4,3.4s0.9,2.3,0.9,3.6
		c0,0.7-0.1,1.3-0.4,2c-0.3,0.7-0.6,1.3-1.2,1.8c-0.5,0.5-1.2,1-1.9,1.3s-1.7,0.5-2.7,0.5c-0.9,0-1.7-0.1-2.3-0.2
		c-0.7-0.2-1.2-0.4-1.7-0.7c-0.4-0.3-0.5-0.6-0.3-1.1l1.1-2c0.1-0.1,0.2-0.2,0.4-0.3c0.2,0,0.3,0,0.5,0.1c0.7,0.3,1.4,0.5,2.1,0.5
		c0.7,0,1.2-0.2,1.6-0.6s0.5-0.9,0.5-1.5c0-0.8-0.2-1.5-0.6-2.1c-0.4-0.6-0.8-1.2-1.4-1.9c-0.5,0.7-1.1,1.5-1.8,2.3
		c-0.6,0.8-1.3,1.7-2.1,2.6L202,118.3z"/>
	<path class="st9" d="M225.1,115.9c0.1-0.2,0.3-0.3,0.5-0.3c0.2,0,0.4,0.1,0.6,0.3l1,1c0.2,0.2,0.3,0.4,0.3,0.5
		c0,0.2-0.1,0.4-0.3,0.6l-0.2,0.2c-0.6,0.7-1.2,1.3-1.9,1.9c-0.7,0.6-1.4,1-2.1,1.4c-0.7,0.4-1.5,0.7-2.2,0.9
		c-0.7,0.2-1.4,0.3-2.1,0.3c-1.4,0-2.5-0.4-3.3-1.2c-0.8-0.8-1.2-1.9-1.2-3.3c0-0.9,0.2-1.9,0.5-3c0.3-1.1,0.7-2.1,1.1-3.2l0.4-1.1
		h-1.1c-0.2,0-0.4-0.1-0.5-0.2c-0.1-0.1-0.1-0.3-0.1-0.5l0.4-2.3c0.1-0.4,0.3-0.5,0.6-0.5h2.1l1.6-4c0.2-0.5,0.6-0.7,1.2-0.5l2.2,1
		c0.5,0.2,0.7,0.5,0.5,1.1l-1,2.5h3.2c0.2,0,0.4,0.1,0.5,0.2s0.2,0.4,0.1,0.6l-0.3,2c-0.1,0.5-0.3,0.7-0.8,0.7h-4.2l-0.7,1.8
		c-0.4,1-0.7,1.8-0.9,2.6c-0.2,0.7-0.3,1.4-0.3,1.9c0,0.4,0.1,0.8,0.3,1.1c0.2,0.3,0.6,0.5,1.2,0.5c0.4,0,0.8-0.1,1.2-0.2
		s0.8-0.4,1.2-0.6c0.4-0.3,0.8-0.6,1.2-0.9c0.4-0.3,0.7-0.7,1-1.1L225.1,115.9z"/>
	<path class="st9" d="M241.3,115.9c0.1-0.2,0.3-0.3,0.5-0.3c0.2,0,0.4,0.1,0.6,0.3l1,1c0.2,0.2,0.3,0.4,0.3,0.5
		c0,0.2-0.1,0.4-0.3,0.6l-0.2,0.2c-0.6,0.7-1.3,1.3-2,1.6c-0.7,0.4-1.5,0.6-2.4,0.6c-0.9,0-1.7-0.2-2.4-0.7c-0.8,1-1.8,1.7-2.8,2.2
		s-2.2,0.8-3.4,0.8c-0.8,0-1.6-0.1-2.3-0.4c-0.7-0.3-1.3-0.6-1.8-1.1c-0.5-0.5-0.9-1-1.1-1.7s-0.4-1.5-0.4-2.3
		c0-1.3,0.2-2.6,0.7-3.8c0.4-1.2,1.1-2.3,1.8-3.2s1.7-1.7,2.8-2.2c1.1-0.5,2.2-0.8,3.5-0.8c0.7,0,1.3,0.1,1.9,0.3
		c0.6,0.2,1.1,0.4,1.5,0.8c0.4,0.3,0.8,0.7,1,1.2c0.2,0.4,0.4,0.9,0.4,1.5c0,0.1,0,0.2,0,0.3c0,0.1,0,0.2,0,0.3
		c0.2,0.2,0.4,0.5,0.6,0.9c0.2,0.3,0.2,0.7,0.2,1.2c0,0.7-0.1,1.3-0.2,1.9s-0.3,1.1-0.5,1.4c0.3,0.2,0.7,0.3,1,0.3
		c0.4,0,0.7-0.1,1.1-0.3c0.3-0.2,0.6-0.5,0.8-0.8L241.3,115.9z M233.5,115c0-0.8,0.1-1.5,0.4-2.1c0.2-0.6,0.6-1.1,1-1.5
		c-0.3-0.4-0.8-0.6-1.4-0.6c-0.6,0-1.2,0.2-1.7,0.5c-0.5,0.4-1,0.8-1.4,1.4s-0.7,1.2-1,1.9s-0.4,1.4-0.4,2.1c0,1.6,0.7,2.4,2,2.4
		c0.5,0,1-0.2,1.6-0.5c0.6-0.3,1-0.8,1.5-1.3c-0.1-0.3-0.3-0.6-0.4-1C233.5,115.9,233.5,115.5,233.5,115z"/>
	<path class="st9" d="M243.3,118.3c-0.1,0.2-0.3,0.3-0.5,0.3c-0.2,0-0.4-0.1-0.6-0.3l-1-1c-0.2-0.2-0.3-0.4-0.3-0.5
		c0-0.2,0.1-0.4,0.3-0.6l0.2-0.2c0.5-0.6,1.2-1.4,1.9-2.4c0.7-1,1.5-2.1,2.2-3.2c0-0.1-0.1-0.3-0.1-0.5c0-0.2-0.1-0.3-0.1-0.4
		c0-0.6,0.1-1.2,0.3-1.7c0.2-0.5,0.5-0.9,0.8-1.2s0.8-0.6,1.2-0.7c0.4-0.2,0.9-0.2,1.4-0.2c0.7,0,1.3,0.2,1.7,0.6
		c0.4,0.4,0.7,0.9,0.7,1.6c0,0.4-0.1,0.9-0.4,1.4c-0.2,0.5-0.5,0.9-0.8,1.3c1,1.1,1.7,2.3,2.4,3.4s0.9,2.3,0.9,3.6
		c0,0.7-0.1,1.3-0.4,2c-0.3,0.7-0.6,1.3-1.2,1.8c-0.5,0.5-1.2,1-1.9,1.3s-1.7,0.5-2.7,0.5c-0.9,0-1.7-0.1-2.3-0.2
		c-0.7-0.2-1.2-0.4-1.7-0.7c-0.4-0.3-0.5-0.6-0.3-1.1l1.1-2c0.1-0.1,0.2-0.2,0.4-0.3c0.2,0,0.3,0,0.5,0.1c0.7,0.3,1.4,0.5,2.1,0.5
		c0.7,0,1.2-0.2,1.6-0.6s0.5-0.9,0.5-1.5c0-0.8-0.2-1.5-0.6-2.1c-0.4-0.6-0.8-1.2-1.4-1.9c-0.5,0.7-1.1,1.5-1.8,2.3
		c-0.6,0.8-1.3,1.7-2.1,2.6L243.3,118.3z"/>
	<path class="st9" d="M266.8,115.9c0.1-0.2,0.3-0.3,0.5-0.3c0.2,0,0.4,0.1,0.6,0.3l1,1c0.2,0.2,0.3,0.4,0.3,0.5
		c0,0.2-0.1,0.4-0.3,0.6l-0.2,0.2c-0.6,0.7-1.3,1.4-2,1.9c-0.7,0.6-1.5,1-2.2,1.4c-0.8,0.4-1.5,0.7-2.3,0.9
		c-0.8,0.2-1.5,0.3-2.2,0.3c-0.9,0-1.6-0.2-2.3-0.5c-0.6-0.3-1.1-0.8-1.5-1.3c-0.4-0.5-0.6-1.2-0.8-1.9c-0.2-0.7-0.2-1.5-0.2-2.2
		c0-0.9,0.1-2,0.3-3.3c0.2-1.3,0.5-2.6,0.9-4s0.9-2.8,1.5-4.2c0.6-1.4,1.3-2.6,2-3.7s1.6-2,2.5-2.7s1.9-1,3-1c1.1,0,2,0.3,2.6,1
		c0.6,0.7,0.9,1.7,0.9,3c0,1.9-0.8,4-2.5,6.4c-1.7,2.4-4.1,5-7.2,7.7c0,1,0.2,1.7,0.5,2.2c0.3,0.4,0.9,0.6,1.5,0.6
		c0.7,0,1.5-0.2,2.4-0.6c0.9-0.4,1.8-1.1,2.8-2.3L266.8,115.9z M264.9,101.7c-0.4,0-0.8,0.3-1.3,1c-0.5,0.7-1,1.5-1.5,2.5
		s-1,2.1-1.4,3.4c-0.4,1.2-0.8,2.4-1.1,3.4c0.9-1,1.7-1.9,2.5-2.9c0.7-1,1.3-1.9,1.8-2.7c0.5-0.8,0.9-1.6,1.1-2.3
		c0.3-0.7,0.4-1.2,0.4-1.6C265.4,102,265.2,101.7,264.9,101.7z"/>
	<path class="st9" d="M275.5,115.9c0.1-0.2,0.3-0.3,0.5-0.3c0.2,0,0.4,0.1,0.6,0.3l1,1c0.2,0.2,0.3,0.4,0.3,0.5
		c0,0.2-0.1,0.4-0.3,0.6l-0.2,0.2c-0.7,0.9-1.4,1.6-2.1,2.1c-0.7,0.6-1.4,1-2.1,1.4c-0.7,0.4-1.4,0.6-2,0.8c-0.7,0.2-1.3,0.2-2,0.2
		c-1.1,0-1.9-0.3-2.4-0.9c-0.5-0.6-0.8-1.3-0.8-2.1c0-0.4,0.1-1,0.2-1.6c0.1-0.6,0.3-1.3,0.6-2.1c0.2-0.7,0.5-1.5,0.8-2.3
		c0.3-0.8,0.6-1.6,0.9-2.3c0.3-0.7,0.6-1.4,0.9-2.1c0.3-0.6,0.5-1.2,0.7-1.6c0.2-0.4,0.4-0.6,0.7-0.6c0.1,0,0.2,0,0.3,0
		c0.1,0,0.2,0.1,0.3,0.1l2.1,0.6c0.4,0.1,0.6,0.3,0.6,0.6c0,0.1,0,0.2-0.1,0.3c-0.8,1.8-1.4,3.2-1.9,4.4c-0.4,1.2-0.8,2-1,2.7
		c-0.2,0.7-0.4,1.2-0.4,1.4c-0.1,0.3-0.1,0.5-0.1,0.7c0,0.2,0.1,0.4,0.2,0.6s0.3,0.2,0.5,0.2c0.4,0,1-0.2,1.7-0.7
		c0.7-0.4,1.5-1.2,2.3-2.2L275.5,115.9z M273.2,105.5c-0.7,0-1.2-0.2-1.7-0.6s-0.6-0.9-0.6-1.6c0-0.8,0.3-1.4,0.8-2
		c0.5-0.5,1.2-0.8,1.9-0.8c0.7,0,1.2,0.2,1.6,0.6s0.6,0.9,0.6,1.6c0,0.8-0.3,1.4-0.8,2S273.9,105.5,273.2,105.5z"/>
	<path class="st9" d="M277.4,118.3c-0.1,0.2-0.3,0.3-0.5,0.3c-0.2,0-0.4-0.1-0.6-0.3l-1-1c-0.2-0.2-0.3-0.4-0.3-0.5
		c0-0.2,0.1-0.4,0.3-0.6l0.2-0.2c0.5-0.6,1.2-1.4,1.9-2.4c0.7-1,1.5-2.1,2.2-3.2c0-0.1-0.1-0.3-0.1-0.5s-0.1-0.3-0.1-0.4
		c0-0.6,0.1-1.2,0.3-1.7c0.2-0.5,0.5-0.9,0.8-1.2s0.8-0.6,1.2-0.7c0.4-0.2,0.9-0.2,1.4-0.2c0.7,0,1.3,0.2,1.7,0.6s0.7,0.9,0.7,1.6
		c0,0.4-0.1,0.9-0.4,1.4c-0.2,0.5-0.5,0.9-0.8,1.3c1,1.1,1.7,2.3,2.4,3.4c0.6,1.1,0.9,2.3,0.9,3.6c0,0.7-0.1,1.3-0.4,2
		c-0.3,0.7-0.6,1.3-1.2,1.8c-0.5,0.5-1.2,1-1.9,1.3c-0.8,0.3-1.7,0.5-2.7,0.5c-0.9,0-1.7-0.1-2.3-0.2c-0.7-0.2-1.2-0.4-1.7-0.7
		c-0.4-0.3-0.5-0.6-0.3-1.1l1.1-2c0.1-0.1,0.2-0.2,0.4-0.3c0.2,0,0.3,0,0.5,0.1c0.7,0.3,1.4,0.5,2.1,0.5c0.7,0,1.2-0.2,1.6-0.6
		c0.4-0.4,0.5-0.9,0.5-1.5c0-0.8-0.2-1.5-0.6-2.1c-0.4-0.6-0.8-1.2-1.4-1.9c-0.5,0.7-1.1,1.5-1.8,2.3c-0.6,0.8-1.3,1.7-2.1,2.6
		L277.4,118.3z"/>
	<path class="st9" d="M300.5,115.9c0.1-0.2,0.3-0.3,0.5-0.3c0.2,0,0.4,0.1,0.6,0.3l1,1c0.2,0.2,0.3,0.4,0.3,0.5
		c0,0.2-0.1,0.4-0.3,0.6l-0.2,0.2c-0.6,0.7-1.2,1.3-1.9,1.9c-0.7,0.6-1.4,1-2.1,1.4c-0.7,0.4-1.5,0.7-2.2,0.9
		c-0.7,0.2-1.4,0.3-2.1,0.3c-1.4,0-2.5-0.4-3.3-1.2c-0.8-0.8-1.2-1.9-1.2-3.3c0-0.9,0.2-1.9,0.5-3c0.3-1.1,0.7-2.1,1.1-3.2l0.4-1.1
		h-1.1c-0.2,0-0.4-0.1-0.5-0.2c-0.1-0.1-0.1-0.3-0.1-0.5l0.4-2.3c0.1-0.4,0.3-0.5,0.6-0.5h2.1l1.6-4c0.2-0.5,0.6-0.7,1.2-0.5l2.2,1
		c0.5,0.2,0.7,0.5,0.5,1.1l-1,2.5h3.2c0.2,0,0.4,0.1,0.5,0.2c0.1,0.2,0.2,0.4,0.1,0.6l-0.3,2c-0.1,0.5-0.3,0.7-0.8,0.7h-4.2
		l-0.7,1.8c-0.4,1-0.7,1.8-0.9,2.6c-0.2,0.7-0.3,1.4-0.3,1.9c0,0.4,0.1,0.8,0.3,1.1c0.2,0.3,0.6,0.5,1.2,0.5c0.4,0,0.8-0.1,1.2-0.2
		c0.4-0.2,0.8-0.4,1.2-0.6c0.4-0.3,0.8-0.6,1.2-0.9c0.4-0.3,0.7-0.7,1-1.1L300.5,115.9z"/>
	<path class="st9" d="M311.3,122.8c-0.6,0-1.2-0.2-1.7-0.5c-0.5-0.4-0.9-0.9-1.2-1.6c-0.7,0.6-1.5,1.1-2.2,1.5
		c-0.8,0.4-1.5,0.6-2.3,0.6c-1.1,0-2-0.4-2.7-1.2s-1.1-2-1.1-3.6c0-1.3,0.2-2.6,0.6-3.8c0.4-1.3,1-2.4,1.9-3.5c0.8-1,1.8-1.9,3-2.5
		c1.2-0.7,2.5-1,4-1c0.8,0,1.4,0.1,2,0.2c0.5,0.1,1.1,0.4,1.7,0.7c0.3,0.1,0.4,0.3,0.4,0.6c0,0.1,0,0.1,0,0.2l-0.1,0.2l-0.5,1
		c0.6,0,1.1,0.2,1.4,0.6c0.4,0.4,0.5,0.8,0.5,1.4c0,0.4-0.1,0.8-0.3,1.3s-0.4,1-0.7,1.5c-0.3,0.5-0.6,1-1,1.5
		c-0.4,0.5-0.7,1-1.1,1.4c0,0.4,0.1,0.7,0.3,0.9c0.1,0.1,0.4,0.2,0.7,0.2c0.3,0,0.5-0.1,0.9-0.3c0.3-0.2,0.7-0.4,1.1-0.7
		s0.7-0.6,1.1-0.9c0.4-0.3,0.7-0.7,0.9-1l0.2-0.2c0.1-0.2,0.3-0.3,0.5-0.3c0.2,0,0.4,0.1,0.6,0.3l1,1c0.2,0.2,0.3,0.4,0.3,0.5
		c0,0.2-0.1,0.4-0.3,0.6l-0.2,0.2c-1.4,1.7-2.7,2.9-4,3.5C313.7,122.5,312.5,122.8,311.3,122.8z M305.2,119c0.4,0,0.9-0.2,1.4-0.5
		c0.5-0.3,1.1-0.8,1.7-1.4c0.2-1,0.5-2,0.9-3.1c0.4-1.1,0.9-1.9,1.5-2.6c-0.4-0.3-0.9-0.4-1.4-0.4c-0.7,0-1.3,0.2-1.9,0.6
		c-0.6,0.4-1.2,0.9-1.7,1.5c-0.5,0.6-0.9,1.3-1.2,2.1c-0.3,0.8-0.4,1.6-0.4,2.4C304.2,118.5,304.5,119,305.2,119z"/>
</g>
</svg>
