<?xml version="1.0" encoding="utf-8"?>
<!-- Generator: Adobe Illustrator 24.1.2, SVG Export Plug-In . SVG Version: 6.00 Build 0)  -->
<svg version="1.1" id="Layer_1" xmlns="http://www.w3.org/2000/svg" xmlns:xlink="http://www.w3.org/1999/xlink" x="0px" y="0px"
	 width="640px" height="640px" viewBox="0 0 640 640" style="enable-background:new 0 0 640 640;" xml:space="preserve">
<style type="text/css">
	.st0{fill:#B3B3B3;}
	.st1{fill:#949494;}
	.st2{fill:#E7E7E7;}
	.st3{fill:#D1D1D1;}
	.st4{fill-rule:evenodd;clip-rule:evenodd;fill:#E7E7E7;}
	.st5{fill-rule:evenodd;clip-rule:evenodd;fill:#D1D1D1;}
	.st6{fill-rule:evenodd;clip-rule:evenodd;fill:#EFEFEF;}
	.st7{fill:#B5B5B5;}
	.st8{fill-rule:evenodd;clip-rule:evenodd;fill:#B5B5B5;}
	.st9{fill:#E6E6E6;}
	.st10{fill:#D8D8D8;}
	.st11{fill:#F3F3F3;}
	.st12{fill:none;stroke:#D1D1D1;stroke-width:0.5;stroke-miterlimit:10;}
	.st13{fill:none;stroke:#FF6900;stroke-width:0.5;stroke-miterlimit:10;}
	.st14{fill:#EAEAEA;}
	.st15{clip-path:url(#SVGID_2_);}
	.st16{clip-path:url(#SVGID_4_);fill:#FF6900;}
	.st17{clip-path:url(#SVGID_6_);}
	.st18{clip-path:url(#SVGID_8_);fill:#FF6900;}
	.st19{fill:url(#SVGID_9_);}
	.st20{fill:url(#SVGID_10_);}
	.st21{fill:url(#SVGID_11_);}
	.st22{fill:none;stroke:#C4C4C4;stroke-width:0.5;stroke-miterlimit:10;}
	.st23{fill:#FF6900;}
	.st24{fill-rule:evenodd;clip-rule:evenodd;fill:#EAEAEA;}
	.st25{clip-path:url(#SVGID_14_);}
	.st26{clip-path:url(#SVGID_18_);fill:#EAEAEA;}
	.st27{clip-path:url(#SVGID_21_);}
	.st28{clip-path:url(#SVGID_23_);fill:#EAEAEA;}
	.st29{fill:#EFEFEF;}
	.st30{fill:none;stroke:#EAEAEA;stroke-width:2;stroke-linecap:round;stroke-miterlimit:10;}
	.st31{fill:none;stroke:#EAEAEA;stroke-width:2;stroke-miterlimit:10;}
</style>
<g id="Layer_1_1_">
	<polygon class="st0" points="48,267 56,233 582,233 591,267 	"/>
	<g id="Salaatti">
		<path class="st1" d="M182.1,220.6c-0.1,0-0.1,0-0.2,0c1-5.4-1.9-10.9-7.2-13c-6-2.4-12.8,0.6-15.2,6.6c-0.9,2.3-1,4.7-0.5,7
			c-2-1.6-4.5-2.7-7.3-2.7c-6.5,0-11.7,5.2-11.7,11.7s5.2,11.7,11.7,11.7s11.7-5.2,11.7-11.7c0-0.9-0.1-1.8-0.3-2.7
			c0.9,0.7,1.9,1.4,3,1.8c0.1,0,0.1,0,0.2,0c-1,5.4,1.9,10.9,7.2,13c6,2.4,12.8-0.6,15.2-6.6C191.1,229.8,188.2,223,182.1,220.6z"/>
		<path class="st1" d="M188.8,233.4c-0.1,0-0.1,0-0.2,0c1-5.4-1.9-10.9-7.2-13c-6-2.4-12.8,0.6-15.2,6.6c-0.9,2.3-1,4.7-0.5,7
			c-2-1.6-4.5-2.7-7.3-2.7c-6.5,0-11.7,5.2-11.7,11.7s5.2,11.7,11.7,11.7s11.7-5.2,11.7-11.7c0-0.9-0.1-1.8-0.3-2.7
			c0.9,0.7,1.9,1.4,3,1.8c0.1,0,0.1,0,0.2,0c-1,5.4,1.9,10.9,7.2,13c6,2.4,12.8-0.6,15.2-6.6C197.8,242.5,194.9,235.8,188.8,233.4z"
			/>
		<rect x="152.5" y="224" class="st1" width="25.5" height="44.3"/>
	</g>
	<g id="Juusto">
		<path class="st2" d="M382,240.4c-0.2,1.5-1.4,2.6-3,2.6c-1.7,0-3-1.3-3-3c0-0.6,0.2-1.2,0.5-1.6L365,234l-13.5,12.2
			c0.3,0.6,0.5,1.2,0.5,1.8c0,2.2-1.8,4-4,4c-0.8,0-1.6-0.2-2.2-0.7L339,262l63-14L382,240.4z"/>
		<circle class="st3" cx="366" cy="243" r="3"/>
		<circle class="st3" cx="358.5" cy="251.5" r="2.5"/>
		<path class="st3" d="M372.5,254.1c-0.3-0.4-0.5-1-0.5-1.6c0-1.4,1.1-2.5,2.5-2.5s2.5,1.1,2.5,2.5c0,0.2,0,0.5-0.1,0.7"/>
		<path class="st3" d="M400.5,265c-1.4,0-2.5-1.1-2.5-2.5s1.1-2.5,2.5-2.5c0.2,0,0.3,0,0.5,0.1V248l-62,14v7c1.7,0,3,1.3,3,3
			c0,1.7-1.3,3-3,3v9l62-13.9V265C400.8,265,400.7,265,400.5,265z"/>
	</g>
	<g id="Salaatti_1_">
		<path class="st1" d="M270.5,259.7c2.4,6,9.2,9,15.2,6.6c5.3-2.1,8.2-7.6,7.2-13c0.1,0,0.1,0,0.2,0c1.1-0.4,2.1-1.1,3-1.8
			c-0.2,0.9-0.3,1.8-0.3,2.7c0,6.5,5.2,11.7,11.7,11.7s11.7-5.2,11.7-11.7s-5.2-11.7-11.7-11.7c-2.8,0-5.3,1.1-7.3,2.7
			c0.5-2.3,0.4-4.7-0.5-7c-2.4-6-9.2-9-15.2-6.6c-5.3,2.1-8.2,7.6-7.2,13c-0.1,0-0.1,0-0.2,0C271,247,268.1,253.8,270.5,259.7z"/>
		<path class="st1" d="M263.8,272.5c2.4,6,9.2,9,15.2,6.6c5.3-2.1,8.2-7.6,7.2-13c0.1,0,0.1,0,0.2,0c1.1-0.4,2.1-1.1,3-1.8
			c-0.2,0.9-0.3,1.8-0.3,2.7c0,6.5,5.2,11.7,11.7,11.7s11.7-5.2,11.7-11.7s-5.2-11.7-11.7-11.7c-2.8,0-5.3,1.1-7.3,2.7
			c0.5-2.3,0.4-4.7-0.5-7c-2.4-6-9.2-9-15.2-6.6c-5.3,2.1-8.2,7.6-7.2,13c-0.1,0-0.1,0-0.2,0C264.3,259.8,261.4,266.5,263.8,272.5z"
			/>
		<rect x="281.2" y="248" class="st1" width="25.5" height="44.3"/>
	</g>
	<g id="Leipä">
		<path class="st4" d="M144.5,310.5L144.5,310.5c-18.4,8.6-22.2-3.8-30.8-22.2L65.6,185c-8.6-18.4-18.8-36-0.3-44.6l0,0
			c18.4-8.6,40.4-0.6,48.9,17.8l48.1,103.3C170.9,280,162.9,302,144.5,310.5z"/>
		<path class="st5" d="M81.8,137.9c13.7,0.2,26.7,8.1,32.9,21.3l48.1,103.3c5.2,11.2,4.3,23.6-1.3,33.6"/>
	</g>
	<g id="Omena">
		<circle class="st6" cx="195.9" cy="258.6" r="23.9"/>
		<path class="st7" d="M199.3,238.3l-1.1,0.7c0.1,0.2,2.8,3.6,8.5,3.6l0.4-1.3C201.5,241.6,199.4,238.4,199.3,238.3z"/>
		<path class="st8" d="M202.1,240.6c2-1.8,4.1-4.3,3.6-5.8l0.2-0.3c1.5,2.4-1.4,4.3-3.3,6.3L202.1,240.6z"/>
	</g>
	<path class="st9" d="M397.3,401c0,0-5-18-4.9-25.4c0.1-7.5,2.7-31.3,2.7-31.3s1.2-31.3-0.2-39.5c0,0-1.2-20.9-1.2-25
		c0.1-4.1,0.5-38.4,1.3-42.9s10.9-30.4,10.9-30.4s6.8-8.9,7.1-26.8s0.2-15.7,0.2-15.7l3-2.9l26.9,0.4l3,2.3l-0.2,15.7
		c0,0-1.4,12.9,5,25.2s9.9,28,9.9,28s1.4,6,1.4,7.5s-0.6,41.8-0.6,41.8s0.6,13.4-1.9,28.3c-2.4,14.9,1,56.9,0.4,62.4
		s-3.1,27.1-6.9,30C449.4,405.4,397.3,401,397.3,401z"/>
	<g id="Maito_2">
		<g>
			
				<rect x="410.1" y="234.4" transform="matrix(0.1961 -0.9806 0.9806 0.1961 131.201 700.293)" class="st10" width="165.2" height="71.4"/>
			<polygon class="st9" points="547.4,172.9 480.6,159.6 473.9,182.1 543.9,196.1 			"/>
			<polygon class="st11" points="549.9,160 484,146.6 480.7,159.6 547.4,172.9 			"/>
		</g>
	</g>
	<g>
		<g>
			<path class="st2" d="M267.3,191.9c-2.5,1.5-2.3,3.6-3.5,6.4c-1.1,2.5-2.4,4.9-4,7.1c-1,1.4-2.7,5-3.9,6.3
				c-2.8,2.9-3.7,4.2-6.4,7.3c-3.1,3.4-6.2,6.9-9.3,10.3c-1.5,1.6-3,3.3-4.2,5.1c-1.2,1.7-3.9,5.7-4.9,7.6
				c-4.4,8.5-6.3,15.4-9.4,24.4c-2.8,8.1-5.2,11.9-6,20.4c-0.2,1.7-0.1,6.6,0,8.3c0.1,2.4,1.2,6.3,1.7,8.6c0.5,2.7,0.9,4.9,1.4,7
				c4.4,1.5,15.4,4.9,20.1,2.5c5.9-3,21.9-17.1,25.5-28.1s12.7-48,12.7-48l2.2-31.6c0-0.1-0.1-0.3-0.1-0.4
				c-1.5-4.4-3.6-8.6-5.6-12.7c-0.3-0.7-1.1-0.4-1.7-0.9C270.3,190.5,268.3,191.3,267.3,191.9z"/>
			<path class="st3" d="M260,284c-3.6,11-15.2,26.1-21.1,29.1c-4.7,2.4-15.6-1-20.1-2.5c0.1,0.6,0.3,1.3,0.5,1.9
				c0.7,2.6,1.8,5.1,3.7,8.2c1.3,2.1,4.9,6.9,6,7.5c0.4,0.2,0.7,0.4,1.1,0.7c1.3,1,5.3,2.6,7.6,2.4c7.1-0.5,12.8-5.1,18.4-9.5
				c1.8-1.4,3.4-3.4,4.9-5.1c2-2.3,3.6-4.9,4.9-7.7c2.1-4.6,4.3-8,5.7-12.8c0.1-0.2,0.2-0.4,0.3-0.7c3.9-10.6,6.7-17.6,8.8-27.8
				c1.6-7.8,2.7-15.8,2.8-23.8c0.1-4,0.8-8.7,0.6-12.7c-0.5-9-2.1-17.4-4.9-25.8L276,234c-0.3,1.7-1.6,6.3-2,8
				C271.8,250.2,263,274.8,260,284z"/>
		</g>
		<path class="st12" d="M255.6,227.1c0,0,4.9,0.2,7,1.9"/>
		<path class="st13" d="M267.6,212.9c0,0-3.4,0.4-4.7-1.5"/>
		<path class="st12" d="M240.3,245.1c0,0,4.9,0.2,7,1.9"/>
		<path class="st12" d="M254.4,263.9c0,0,4.9,0.2,7,1.9"/>
		<path class="st12" d="M234.2,269.2c0,0,4.9,0.2,7,1.9"/>
		<path class="st12" d="M247.6,281.5c0,0,4.9,0.2,7,1.9"/>
		<g>
			<path class="st13" d="M262.5,206.9c-0.4-0.4,4.3-2.3,4.3,0.5"/>
		</g>
		<g>
			<path class="st13" d="M269.8,207.9c-0.5-0.3,4.1-2.4,4.3,0.4"/>
		</g>
	</g>
	<path class="st14" d="M582.4,503H57.6c-5.3,0-9.6-4.3-9.6-9.6V267h544v226.4C592,498.7,587.7,503,582.4,503z"/>
	<g>
		<g>
			<g>
				<defs>
					<path id="SVGID_1_" d="M392.2,444.4c0.9,0,1.7-0.2,2.5-0.5s1.5-0.7,2.1-1.3v-4.3c-0.6-0.2-1.2-0.4-1.9-0.6
						c-0.7-0.1-1.4-0.2-2.1-0.2c-1.4,0-2.6,0.3-3.5,0.9s-1.3,1.5-1.3,2.7c0,1,0.4,1.8,1.1,2.4C390,444.1,391,444.4,392.2,444.4z
						 M397.8,448.5c-0.6,0-0.9-0.3-0.9-0.9v-1.1c-0.8,0.7-1.8,1.3-2.9,1.7c-1.1,0.5-2.4,0.7-3.7,0.7c-1.1,0-2.1-0.2-3.1-0.5
						s-1.9-0.8-2.7-1.5c-0.8-0.6-1.4-1.4-1.9-2.4c-0.5-0.9-0.7-2-0.7-3.2c0-1.3,0.3-2.4,0.8-3.4s1.2-1.8,2.1-2.5
						c0.9-0.7,1.9-1.2,3.1-1.6c1.2-0.4,2.5-0.5,3.8-0.5c1,0,2,0.1,2.8,0.3c0.8,0.2,1.6,0.4,2.4,0.7v-0.7c0-1.6-0.4-2.7-1.1-3.3
						c-0.7-0.6-2-0.9-3.7-0.9c-2,0-3.9,0.4-5.8,1.3c-0.6,0.3-1,0.1-1.2-0.4l-1.1-3.1c-0.1-0.3-0.1-0.5-0.1-0.7s0.2-0.4,0.6-0.5
						c0.4-0.2,0.9-0.4,1.5-0.6s1.3-0.4,2-0.5s1.5-0.3,2.3-0.4s1.6-0.1,2.4-0.1c3.5,0,6,0.7,7.7,2.2s2.5,4,2.5,7.5v13.6
						c0,0.6-0.3,0.9-0.9,0.9L397.8,448.5z M379.7,424.9c0.4,0,0.6,0.1,0.7,0.4c0.1,0.3,0,0.5-0.3,0.8l-8.1,8l8.8,13.2
						c0.2,0.3,0.2,0.6,0.1,0.8c-0.1,0.3-0.4,0.4-0.7,0.4h-5.1c-0.6,0-1.1-0.2-1.4-0.7l-6.3-9.5l-3.6,3.4v6c0,0.6-0.3,0.9-0.9,0.9
						h-4.5c-0.6,0-0.9-0.3-0.9-0.9v-36c0-0.5,0.2-0.9,0.7-1l3.8-1c0.2-0.1,0.4-0.1,0.6-0.2c0.2,0,0.3-0.1,0.5-0.1
						c0.4,0,0.6,0.2,0.6,0.7v24.7l9.3-9.3c0.4-0.4,0.9-0.6,1.5-0.6L379.7,424.9z M341.8,429.9c-0.9,0-1.7,0.2-2.4,0.5
						s-1.3,0.8-1.9,1.4c-0.5,0.6-0.9,1.3-1.2,2.1c-0.3,0.8-0.4,1.8-0.4,2.8c0,2,0.6,3.7,1.7,5c1.1,1.3,2.5,1.9,4.2,1.9
						s3.1-0.6,4.2-1.9c1.1-1.3,1.6-2.9,1.6-5c0-2-0.5-3.7-1.6-4.9C344.9,430.5,343.5,429.9,341.8,429.9z M341.8,449
						c-1.7,0-3.3-0.3-4.8-0.9s-2.8-1.4-3.9-2.5s-2-2.4-2.6-3.9s-1-3.2-1-5.1c0-1.8,0.3-3.5,1-5c0.6-1.5,1.5-2.8,2.6-3.9
						s2.4-1.9,3.9-2.5s3.1-0.9,4.8-0.9s3.2,0.3,4.7,0.9s2.8,1.4,3.9,2.5c1.1,1.1,2,2.4,2.6,3.9s1,3.2,1,5c0,1.9-0.3,3.6-1,5.1
						s-1.5,2.8-2.6,3.9s-2.4,1.9-3.9,2.5S343.4,449,341.8,449z M325.9,447.7c0,0.6-0.3,0.9-0.9,0.9h-4.5c-0.6,0-0.9-0.3-0.9-0.9
						v-1.3c-0.8,0.8-1.7,1.4-2.9,1.9s-2.4,0.8-3.8,0.8c-1.1,0-2.2-0.2-3.2-0.5c-1-0.4-1.9-0.9-2.6-1.7c-0.7-0.7-1.3-1.7-1.8-2.9
						c-0.4-1.2-0.7-2.6-0.7-4.2v-13.5c0-0.6,0.3-1,0.8-1.1l4.4-0.7c0.6-0.1,1,0.1,1,0.7v13.1c0,1.8,0.3,3.2,1,4s1.7,1.3,3,1.3
						c0.8,0,1.6-0.2,2.5-0.5c0.8-0.3,1.5-0.8,2.2-1.4v-15.5c0-0.6,0.3-1,0.9-1.1l4.4-0.7c0.6-0.1,1,0.1,1,0.7L325.9,447.7z
						 M286.7,429c1.7,0,3.2-0.4,4.3-1.3s1.7-2.2,1.7-4.1s-0.6-3.3-1.7-4.1s-2.6-1.3-4.3-1.3h-4.4V429H286.7z M286.9,434.2h-4.5v13.5
						c0,0.6-0.3,0.9-0.9,0.9h-4.9c-0.6,0-0.9-0.3-0.9-0.9v-34.4c0-0.6,0.3-0.9,0.9-0.9h10.5c1.8,0,3.5,0.2,5.1,0.7
						c1.5,0.5,2.9,1.2,4,2.1s2,2.1,2.6,3.4c0.6,1.4,0.9,3,0.9,4.8c0,2.2-0.6,4.1-1.8,5.7s-2.7,2.8-4.5,3.6l8.4,14.6
						c0.2,0.3,0.2,0.5,0.1,0.8s-0.3,0.4-0.7,0.4h-5.4c-0.6,0-1.1-0.2-1.3-0.7L286.9,434.2z"/>
				</defs>
				<clipPath id="SVGID_2_">
					<use xlink:href="#SVGID_1_"  style="overflow:visible;"/>
				</clipPath>
				<g class="st15">
					<g>
						<defs>
							<rect id="SVGID_3_" x="237.1" y="399.2" width="166.3" height="61.4"/>
						</defs>
						<clipPath id="SVGID_4_">
							<use xlink:href="#SVGID_3_"  style="overflow:visible;"/>
						</clipPath>
						<rect x="269.3" y="403.1" class="st16" width="140" height="52.3"/>
					</g>
				</g>
			</g>
		</g>
		<g>
			<g>
				<defs>
					<path id="SVGID_5_" d="M237.1,413.3c0-0.6,0.3-0.9,0.9-0.9h30.5c0.6,0,0.9,0.3,0.9,0.9v2.4c0,0.6-0.3,0.9-0.9,0.9H238
						c-0.6,0-0.9-0.3-0.9-0.9V413.3z M237.1,445.5c0-0.6,0.3-0.9,0.9-0.9h30.5c0.6,0,0.9,0.3,0.9,0.9v2.4c0,0.6-0.3,0.9-0.9,0.9H238
						c-0.6,0-0.9-0.3-0.9-0.9V445.5z M257.3,441.1c-0.4,0-0.6-0.1-0.9-0.2s-0.4-0.3-0.6-0.6l-6.5-9.5v9.5c0,0.6-0.3,0.9-0.8,0.9h-5
						c-0.6,0-0.8-0.3-0.8-0.9V421c0-0.6,0.3-0.9,0.8-0.9h5c0.6,0,0.8,0.3,0.8,0.9v8.6l6.5-8.7c0.2-0.3,0.4-0.5,0.6-0.6
						c0.2-0.1,0.5-0.2,0.9-0.2h5.5c0.3,0,0.5,0.1,0.7,0.4s0.1,0.6-0.2,0.9l-7,8.7l7.1,9.7c0.3,0.3,0.3,0.6,0.2,0.9s-0.4,0.4-0.7,0.4
						L257.3,441.1z"/>
				</defs>
				<clipPath id="SVGID_6_">
					<use xlink:href="#SVGID_5_"  style="overflow:visible;"/>
				</clipPath>
				<g class="st17">
					<g>
						<defs>
							<rect id="SVGID_7_" x="237.1" y="399.2" width="166.3" height="61.4"/>
						</defs>
						<clipPath id="SVGID_8_">
							<use xlink:href="#SVGID_7_"  style="overflow:visible;"/>
						</clipPath>
						<rect x="230.7" y="406.1" class="st18" width="45" height="49.1"/>
					</g>
				</g>
			</g>
		</g>
	</g>
	<g>
		<g>
			<path class="st14" d="M53.6,267l33.5,33.5h462.5l36.8-36.8C586.4,263.8,54.8,268.2,53.6,267z"/>
		</g>
	</g>
	
		<linearGradient id="SVGID_9_" gradientUnits="userSpaceOnUse" x1="320" y1="305.971" x2="320" y2="344.971" gradientTransform="matrix(1 0 0 -1 0 640)">
		<stop  offset="0" style="stop-color:#E8E8E8"/>
		<stop  offset="0.2138" style="stop-color:#DFDFDF"/>
		<stop  offset="0.5591" style="stop-color:#C7C7C7"/>
		<stop  offset="0.9905" style="stop-color:#A1A1A1"/>
		<stop  offset="1" style="stop-color:#A0A0A0"/>
	</linearGradient>
	<path class="st19" d="M359,334c0-1.2-0.1-2.4-0.2-3.5C357,310.6,340.3,295,320,295c-20.2,0-36.8,15.3-38.8,35
		c-0.1,1.3-0.2,2.6-0.2,4"/>
	
		<linearGradient id="SVGID_10_" gradientUnits="userSpaceOnUse" x1="67" y1="372.771" x2="67" y2="406.971" gradientTransform="matrix(1 0 0 -1 0 640)">
		<stop  offset="0" style="stop-color:#E8E8E8"/>
		<stop  offset="0.2639" style="stop-color:#DFDFDF"/>
		<stop  offset="0.6886" style="stop-color:#C8C8C8"/>
		<stop  offset="1" style="stop-color:#B2B2B2"/>
	</linearGradient>
	<polygon class="st20" points="82,267.2 86,233 56,233 48,267 	"/>
	
		<linearGradient id="SVGID_11_" gradientUnits="userSpaceOnUse" x1="571" y1="372.971" x2="571" y2="406.971" gradientTransform="matrix(1 0 0 -1 0 640)">
		<stop  offset="0" style="stop-color:#E8E8E8"/>
		<stop  offset="0.2639" style="stop-color:#DFDFDF"/>
		<stop  offset="0.6886" style="stop-color:#C8C8C8"/>
		<stop  offset="1" style="stop-color:#B2B2B2"/>
	</linearGradient>
	<polygon class="st21" points="591,267 582,233 551,233 558,267 	"/>
	<path class="st14" d="M359,336c0-1.2-0.1-2.4-0.2-3.5C357,312.6,340.3,297,320,297c-20.2,0-36.8,15.3-38.8,35
		c-0.1,1.3-0.2,2.6-0.2,4"/>
	<line class="st22" x1="591" y1="267.5" x2="591" y2="495"/>
	<circle class="st23" cx="320" cy="348" r="32"/>
	<circle class="st23" cx="458" cy="348" r="32"/>
	<circle class="st23" cx="175" cy="348" r="32"/>
	<g>
		<g>
			<path id="SVGID_13_" class="st24" d="M166.5,359.5h-3.7c-0.6,0-1-0.5-1-1V346c0-0.6,0.5-1,1-1h4.2c0.6,0,1,0.5,1,1v9.8
				c0,0.6-0.5,1-1,1c-0.6,0-1-0.5-1-1v-8.7h-2.1v10.5h3.1c0.4,0,0.7,0.2,0.9,0.5l0.1,0.1c0.7,1.1,9.1,2.4,11.3,2
				c0.7-0.1,1.5-1.5,2.6-4.6c0.1-0.2,0.4-1,0.4-1c0.1-0.4,0.3-0.7,0.4-1c0.4-1,0.7-1.7,1-2.2c0.1-0.2,0.2-0.3,0.4-0.4
				c2-1.2,2.3-2.6,1-3.6c-0.6-0.4-3.9-1.4-6.5-1.9c-0.8-0.1-1.2-1.1-0.6-1.7c1.5-1.8,2.6-3.9,3.1-6.2c0.1-0.5,0.1-1.1-0.1-1.6
				c-0.2-0.5-0.5-0.8-1.3-0.8c0,0-0.4,0.5-0.7,1.6c0-0.1-0.5,1.4-0.6,1.7c-0.7,1.6-1.8,2.8-3.5,4.1c-0.3,0.2-0.6,0.5-1.2,0.9
				c-0.4,0.3-2.7,1.6-3.2,1.8c0,0,0,0-0.1,0c-0.5,0.3-1.1,0.1-1.4-0.4c-0.3-0.5-0.1-1.1,0.4-1.4c0,0,0,0,0.1,0
				c0.5-0.3,2.7-1.5,3-1.7c0.6-0.4,0.9-0.6,1.2-0.8c1.5-1.1,2.3-2,2.8-3.3c0.1-0.3,0.6-1.6,0.6-1.6c0.7-2,1.4-3,2.7-3
				c1.6,0,2.8,0.8,3.2,2.2c0.3,0.9,0.3,1.9,0.1,2.7c-0.5,2.1-1.3,4-2.5,5.8c2.5,0.5,5,1.4,5.8,1.9c2.5,2,2,5-0.9,6.9
				c-0.2,0.4-0.5,1-0.7,1.7c-0.1,0.3-0.2,0.6-0.3,0.9c0,0-0.3,0.8-0.4,1c-1.4,4-2.4,5.6-4.2,5.9
				C176.8,362.6,168.5,361.3,166.5,359.5z"/>
		</g>
		<g>
			<defs>
				<path id="SVGID_12_" d="M166.5,359.5h-3.7c-0.6,0-1-0.5-1-1V346c0-0.6,0.5-1,1-1h4.2c0.6,0,1,0.5,1,1v9.8c0,0.6-0.5,1-1,1
					c-0.6,0-1-0.5-1-1v-8.7h-2.1v10.5h3.1c0.4,0,0.7,0.2,0.9,0.5l0.1,0.1c0.7,1.1,9.1,2.4,11.3,2c0.7-0.1,1.5-1.5,2.6-4.6
					c0.1-0.2,0.4-1,0.4-1c0.1-0.4,0.3-0.7,0.4-1c0.4-1,0.7-1.7,1-2.2c0.1-0.2,0.2-0.3,0.4-0.4c2-1.2,2.3-2.6,1-3.6
					c-0.6-0.4-3.9-1.4-6.5-1.9c-0.8-0.1-1.2-1.1-0.6-1.7c1.5-1.8,2.6-3.9,3.1-6.2c0.1-0.5,0.1-1.1-0.1-1.6c-0.2-0.5-0.5-0.8-1.3-0.8
					c0,0-0.4,0.5-0.7,1.6c0-0.1-0.5,1.4-0.6,1.7c-0.7,1.6-1.8,2.8-3.5,4.1c-0.3,0.2-0.6,0.5-1.2,0.9c-0.4,0.3-2.7,1.6-3.2,1.8
					c0,0,0,0-0.1,0c-0.5,0.3-1.1,0.1-1.4-0.4c-0.3-0.5-0.1-1.1,0.4-1.4c0,0,0,0,0.1,0c0.5-0.3,2.7-1.5,3-1.7
					c0.6-0.4,0.9-0.6,1.2-0.8c1.5-1.1,2.3-2,2.8-3.3c0.1-0.3,0.6-1.6,0.6-1.6c0.7-2,1.4-3,2.7-3c1.6,0,2.8,0.8,3.2,2.2
					c0.3,0.9,0.3,1.9,0.1,2.7c-0.5,2.1-1.3,4-2.5,5.8c2.5,0.5,5,1.4,5.8,1.9c2.5,2,2,5-0.9,6.9c-0.2,0.4-0.5,1-0.7,1.7
					c-0.1,0.3-0.2,0.6-0.3,0.9c0,0-0.3,0.8-0.4,1c-1.4,4-2.4,5.6-4.2,5.9C176.8,362.6,168.5,361.3,166.5,359.5z"/>
			</defs>
			<clipPath id="SVGID_14_">
				<use xlink:href="#SVGID_12_"  style="overflow:visible;"/>
			</clipPath>
			<g class="st25">
				<g>
					<rect id="SVGID_15_" x="157.9" y="331.2" class="st14" width="33.5" height="33.5"/>
				</g>
				<g>
					<defs>
						<rect id="SVGID_16_" x="157.9" y="331.2" width="33.5" height="33.5"/>
					</defs>
					<clipPath id="SVGID_18_">
						<use xlink:href="#SVGID_16_"  style="overflow:visible;"/>
					</clipPath>
					<rect x="154.8" y="326" class="st26" width="40" height="43.2"/>
				</g>
			</g>
		</g>
	</g>
	<g>
		<g>
			<path id="SVGID_17_" class="st24" d="M458.7,342.1L458,343l-0.7-0.9c-0.2-0.3-0.4-0.5-0.6-0.7c-2.3-2.3-6-2.3-8.3,0
				s-2.3,6.2,0,8.5l9.5,9.7l9.5-9.7c2.3-2.3,2.3-6.2,0-8.5s-6-2.3-8.3,0C459.1,341.6,458.9,341.8,458.7,342.1z M458,340.3
				C458,340.3,458.1,340.3,458,340.3c3-3.1,7.8-3.1,10.7-0.1s2.9,7.8,0,10.8L458,362l-10.7-10.9c-2.9-3-2.9-7.8,0-10.8
				C450.2,337.3,455,337.3,458,340.3C457.9,340.3,458,340.3,458,340.3z"/>
		</g>
		<g>
			<defs>
				<path id="SVGID_20_" d="M458.7,342.1L458,343l-0.7-0.9c-0.2-0.3-0.4-0.5-0.6-0.7c-2.3-2.3-6-2.3-8.3,0s-2.3,6.2,0,8.5l9.5,9.7
					l9.5-9.7c2.3-2.3,2.3-6.2,0-8.5s-6-2.3-8.3,0C459.1,341.6,458.9,341.8,458.7,342.1z M458,340.3C458,340.3,458.1,340.3,458,340.3
					c3-3.1,7.8-3.1,10.7-0.1s2.9,7.8,0,10.8L458,362l-10.7-10.9c-2.9-3-2.9-7.8,0-10.8C450.2,337.3,455,337.3,458,340.3
					C457.9,340.3,458,340.3,458,340.3z"/>
			</defs>
			<clipPath id="SVGID_21_">
				<use xlink:href="#SVGID_20_"  style="overflow:visible;"/>
			</clipPath>
			<g class="st27">
				<g>
					<rect id="SVGID_19_" x="444.8" y="336.8" class="st14" width="26.4" height="26.4"/>
				</g>
				<g>
					<defs>
						<rect id="SVGID_22_" x="444.8" y="336.8" width="26.4" height="26.4"/>
					</defs>
					<clipPath id="SVGID_23_">
						<use xlink:href="#SVGID_22_"  style="overflow:visible;"/>
					</clipPath>
					<rect x="439.6" y="332.5" class="st28" width="36.8" height="35"/>
				</g>
			</g>
		</g>
	</g>
	<polygon class="st0" points="413,178 446,178 446,164 443,161 416,161 413,164 	"/>
	<path class="st29" d="M404.2,210.7h49.5c0,0-7-13.3-7-18S445,189,446,178h-33c0,0-1,11-2,16S404.2,210.7,404.2,210.7z"/>
	<g>
		<path class="st30" d="M320.4,344.1c0.3-4.5,3.4-5.9,5.6-5.8"/>
		<path class="st31" d="M320.4,361.3c1.4,0,2.3,1.2,3.7,1.2c2,0,6.8-4.9,7.6-8.9c0.7-3.6,0.1-7.2-3.2-9.7c-3.4-2.5-7.5-0.3-8.2,0.3
			l0,0c-0.7-0.6-4.8-2.9-8.2-0.3c-3.2,2.4-3.9,6.1-3.2,9.7c0.8,4,5.6,8.9,7.6,8.9C318.1,362.5,319,361.3,320.4,361.3L320.4,361.3z"
			/>
		<path class="st31" d="M319.6,334.7c2.1,1.8,2,5.4,2,5.4s-3.6,0.8-5.7-1c-2.1-1.8-2-5.4-2-5.4S317.4,333,319.6,334.7z"/>
	</g>
</g>
</svg>
