<?xml version="1.0" encoding="utf-8"?>
<!-- Generator: Adobe Illustrator 24.1.2, SVG Export Plug-In . SVG Version: 6.00 Build 0)  -->
<svg version="1.1" id="Layer_1" xmlns="http://www.w3.org/2000/svg" xmlns:xlink="http://www.w3.org/1999/xlink" x="0px" y="0px"
	 width="686.33px" height="474px" viewBox="0 0 686.33 474" enable-background="new 0 0 686.33 474" xml:space="preserve">
<g id="Layer_1_1_">
	<polygon fill="#B3B3B3" points="71.17,183 79.17,149 605.17,149 614.17,183 	"/>
	<g id="Salaatti">
		<path fill="#949494" d="M205.27,136.6c-0.1,0-0.1,0-0.2,0c1-5.4-1.9-10.9-7.2-13c-6-2.4-12.8,0.6-15.2,6.6c-0.9,2.3-1,4.7-0.5,7
			c-2-1.6-4.5-2.7-7.3-2.7c-6.5,0-11.7,5.2-11.7,11.7s5.2,11.7,11.7,11.7s11.7-5.2,11.7-11.7c0-0.9-0.1-1.8-0.3-2.7
			c0.9,0.7,1.9,1.4,3,1.8c0.1,0,0.1,0,0.2,0c-1,5.4,1.9,10.9,7.2,13c6,2.4,12.8-0.6,15.2-6.6C214.27,145.8,211.37,139,205.27,136.6z
			"/>
		<path fill="#949494" d="M211.97,149.4c-0.1,0-0.1,0-0.2,0c1-5.4-1.9-10.9-7.2-13c-6-2.4-12.8,0.6-15.2,6.6c-0.9,2.3-1,4.7-0.5,7
			c-2-1.6-4.5-2.7-7.3-2.7c-6.5,0-11.7,5.2-11.7,11.7s5.2,11.7,11.7,11.7s11.7-5.2,11.7-11.7c0-0.9-0.1-1.8-0.3-2.7
			c0.9,0.7,1.9,1.4,3,1.8c0.1,0,0.1,0,0.2,0c-1,5.4,1.9,10.9,7.2,13c6,2.4,12.8-0.6,15.2-6.6
			C220.97,158.5,218.07,151.8,211.97,149.4z"/>
		<rect x="175.67" y="140" fill="#949494" width="25.5" height="44.3"/>
	</g>
	<g id="Juusto">
		<path fill="#E7E7E7" d="M405.17,156.4c-0.2,1.5-1.4,2.6-3,2.6c-1.7,0-3-1.3-3-3c0-0.6,0.2-1.2,0.5-1.6l-11.5-4.4l-13.5,12.2
			c0.3,0.6,0.5,1.2,0.5,1.8c0,2.2-1.8,4-4,4c-0.8,0-1.6-0.2-2.2-0.7l-6.8,10.7l63-14L405.17,156.4z"/>
		<circle fill="#D1D1D1" cx="389.17" cy="159" r="3"/>
		<circle fill="#D1D1D1" cx="381.67" cy="167.5" r="2.5"/>
		<path fill="#D1D1D1" d="M395.67,170.1c-0.3-0.4-0.5-1-0.5-1.6c0-1.4,1.1-2.5,2.5-2.5s2.5,1.1,2.5,2.5c0,0.2,0,0.5-0.1,0.7"/>
		<path fill="#D1D1D1" d="M423.67,181c-1.4,0-2.5-1.1-2.5-2.5s1.1-2.5,2.5-2.5c0.2,0,0.3,0,0.5,0.1V164l-62,14v7c1.7,0,3,1.3,3,3
			s-1.3,3-3,3v9l62-13.9V181C423.97,181,423.87,181,423.67,181z"/>
	</g>
	<g id="Salaatti_1_">
		<path fill="#949494" d="M293.67,175.7c2.4,6,9.2,9,15.2,6.6c5.3-2.1,8.2-7.6,7.2-13c0.1,0,0.1,0,0.2,0c1.1-0.4,2.1-1.1,3-1.8
			c-0.2,0.9-0.3,1.8-0.3,2.7c0,6.5,5.2,11.7,11.7,11.7s11.7-5.2,11.7-11.7s-5.2-11.7-11.7-11.7c-2.8,0-5.3,1.1-7.3,2.7
			c0.5-2.3,0.4-4.7-0.5-7c-2.4-6-9.2-9-15.2-6.6c-5.3,2.1-8.2,7.6-7.2,13c-0.1,0-0.1,0-0.2,0C294.17,163,291.27,169.8,293.67,175.7z
			"/>
		<path fill="#949494" d="M286.97,188.5c2.4,6,9.2,9,15.2,6.6c5.3-2.1,8.2-7.6,7.2-13c0.1,0,0.1,0,0.2,0c1.1-0.4,2.1-1.1,3-1.8
			c-0.2,0.9-0.3,1.8-0.3,2.7c0,6.5,5.2,11.7,11.7,11.7s11.7-5.2,11.7-11.7s-5.2-11.7-11.7-11.7c-2.8,0-5.3,1.1-7.3,2.7
			c0.5-2.3,0.4-4.7-0.5-7c-2.4-6-9.2-9-15.2-6.6c-5.3,2.1-8.2,7.6-7.2,13c-0.1,0-0.1,0-0.2,0
			C287.47,175.8,284.57,182.5,286.97,188.5z"/>
		<rect x="304.37" y="164" fill="#949494" width="25.5" height="44.3"/>
	</g>
	<g id="Leipä">
		<path fill-rule="evenodd" clip-rule="evenodd" fill="#E7E7E7" d="M167.67,226.5L167.67,226.5c-18.4,8.6-22.2-3.8-30.8-22.2
			L88.77,101c-8.6-18.4-18.8-36-0.3-44.6l0,0c18.4-8.6,40.4-0.6,48.9,17.8l48.1,103.3C194.07,196,186.07,218,167.67,226.5z"/>
		<path fill-rule="evenodd" clip-rule="evenodd" fill="#D1D1D1" d="M104.97,53.9c13.7,0.2,26.7,8.1,32.9,21.3l48.1,103.3
			c5.2,11.2,4.3,23.6-1.3,33.6"/>
	</g>
	<g id="Omena">
		<circle fill-rule="evenodd" clip-rule="evenodd" fill="#EFEFEF" cx="219.07" cy="174.6" r="23.9"/>
		<path fill="#B5B5B5" d="M222.47,154.3l-1.1,0.7c0.1,0.2,2.8,3.6,8.5,3.6l0.4-1.3C224.67,157.6,222.57,154.4,222.47,154.3z"/>
		<path fill-rule="evenodd" clip-rule="evenodd" fill="#B5B5B5" d="M225.27,156.6c2-1.8,4.1-4.3,3.6-5.8l0.2-0.3
			c1.5,2.4-1.4,4.3-3.3,6.3L225.27,156.6z"/>
	</g>
	<path fill="#E6E6E6" d="M420.47,317c0,0-5-18-4.9-25.4c0.1-7.5,2.7-31.3,2.7-31.3s1.2-31.3-0.2-39.5c0,0-1.2-20.9-1.2-25
		c0.1-4.1,0.5-38.4,1.3-42.9s10.9-30.4,10.9-30.4s6.8-8.9,7.1-26.8s0.2-15.7,0.2-15.7l3-2.9l26.9,0.4l3,2.3l-0.2,15.7
		c0,0-1.4,12.9,5,25.2s9.9,28,9.9,28s1.4,6,1.4,7.5s-0.6,41.8-0.6,41.8s0.6,13.4-1.9,28.3c-2.4,14.9,1,56.9,0.4,62.4
		s-3.1,27.1-6.9,30C472.57,321.4,420.47,317,420.47,317z"/>
	<g id="Maito_2">
		<g>
			
				<rect x="433.25" y="150.42" transform="matrix(0.1961 -0.9806 0.9806 0.1961 232.1865 655.4524)" fill="#D8D8D8" width="165.2" height="71.4"/>
			<polygon fill="#E6E6E6" points="570.57,88.9 503.77,75.6 497.07,98.1 567.07,112.1 			"/>
			<polygon fill="#F3F3F3" points="573.07,76 507.17,62.6 503.87,75.6 570.57,88.9 			"/>
		</g>
	</g>
	<g>
		<g>
			<path fill="#E7E7E7" d="M290.47,107.9c-2.5,1.5-2.3,3.6-3.5,6.4c-1.1,2.5-2.4,4.9-4,7.1c-1,1.4-2.7,5-3.9,6.3
				c-2.8,2.9-3.7,4.2-6.4,7.3c-3.1,3.4-6.2,6.9-9.3,10.3c-1.5,1.6-3,3.3-4.2,5.1c-1.2,1.7-3.9,5.7-4.9,7.6
				c-4.4,8.5-6.3,15.4-9.4,24.4c-2.8,8.1-5.2,11.9-6,20.4c-0.2,1.7-0.1,6.6,0,8.3c0.1,2.4,1.2,6.3,1.7,8.6c0.5,2.7,0.9,4.9,1.4,7
				c4.4,1.5,15.4,4.9,20.1,2.5c5.9-3,21.9-17.1,25.5-28.1s12.7-48,12.7-48l2.2-31.6c0-0.1-0.1-0.3-0.1-0.4
				c-1.5-4.4-3.6-8.6-5.6-12.7c-0.3-0.7-1.1-0.4-1.7-0.9C293.47,106.5,291.47,107.3,290.47,107.9z"/>
			<path fill="#D1D1D1" d="M283.17,200c-3.6,11-15.2,26.1-21.1,29.1c-4.7,2.4-15.6-1-20.1-2.5c0.1,0.6,0.3,1.3,0.5,1.9
				c0.7,2.6,1.8,5.1,3.7,8.2c1.3,2.1,4.9,6.9,6,7.5c0.4,0.2,0.7,0.4,1.1,0.7c1.3,1,5.3,2.6,7.6,2.4c7.1-0.5,12.8-5.1,18.4-9.5
				c1.8-1.4,3.4-3.4,4.9-5.1c2-2.3,3.6-4.9,4.9-7.7c2.1-4.6,4.3-8,5.7-12.8c0.1-0.2,0.2-0.4,0.3-0.7c3.9-10.6,6.7-17.6,8.8-27.8
				c1.6-7.8,2.7-15.8,2.8-23.8c0.1-4,0.8-8.7,0.6-12.7c-0.5-9-2.1-17.4-4.9-25.8l-3.2,28.6c-0.3,1.7-1.6,6.3-2,8
				C294.97,166.2,286.17,190.8,283.17,200z"/>
		</g>
		<path fill="none" stroke="#D1D1D1" stroke-width="0.5" stroke-miterlimit="10" d="M278.77,143.1c0,0,4.9,0.2,7,1.9"/>
		<path fill="none" stroke="#FF6900" stroke-width="0.5" stroke-miterlimit="10" d="M290.77,128.9c0,0-3.4,0.4-4.7-1.5"/>
		<path fill="none" stroke="#D1D1D1" stroke-width="0.5" stroke-miterlimit="10" d="M263.47,161.1c0,0,4.9,0.2,7,1.9"/>
		<path fill="none" stroke="#D1D1D1" stroke-width="0.5" stroke-miterlimit="10" d="M277.57,179.9c0,0,4.9,0.2,7,1.9"/>
		<path fill="none" stroke="#D1D1D1" stroke-width="0.5" stroke-miterlimit="10" d="M257.37,185.2c0,0,4.9,0.2,7,1.9"/>
		<path fill="none" stroke="#D1D1D1" stroke-width="0.5" stroke-miterlimit="10" d="M270.77,197.5c0,0,4.9,0.2,7,1.9"/>
		<g>
			<path fill="none" stroke="#FF6900" stroke-width="0.5" stroke-miterlimit="10" d="M285.67,122.9c-0.4-0.4,4.3-2.3,4.3,0.5"/>
		</g>
		<g>
			<path fill="none" stroke="#FF6900" stroke-width="0.5" stroke-miterlimit="10" d="M292.97,123.9c-0.5-0.3,4.1-2.4,4.3,0.4"/>
		</g>
	</g>
	<path fill="#EAEAEA" d="M605.57,419H80.77c-5.3,0-9.6-4.3-9.6-9.6V183h544v226.4C615.17,414.7,610.87,419,605.57,419z"/>
	<g>
		<g>
			<g>
				<g>
					<defs>
						<path id="SVGID_1_" d="M415.37,360.4c0.9,0,1.7-0.2,2.5-0.5s1.5-0.7,2.1-1.3v-4.3c-0.6-0.2-1.2-0.4-1.9-0.6
							c-0.7-0.1-1.4-0.2-2.1-0.2c-1.4,0-2.6,0.3-3.5,0.9s-1.3,1.5-1.3,2.7c0,1,0.4,1.8,1.1,2.4
							C413.17,360.1,414.17,360.4,415.37,360.4z M420.97,364.5c-0.6,0-0.9-0.3-0.9-0.9v-1.1c-0.8,0.7-1.8,1.3-2.9,1.7
							c-1.1,0.5-2.4,0.7-3.7,0.7c-1.1,0-2.1-0.2-3.1-0.5s-1.9-0.8-2.7-1.5c-0.8-0.6-1.4-1.4-1.9-2.4c-0.5-0.9-0.7-2-0.7-3.2
							c0-1.3,0.3-2.4,0.8-3.4s1.2-1.8,2.1-2.5s1.9-1.2,3.1-1.6s2.5-0.5,3.8-0.5c1,0,2,0.1,2.8,0.3c0.8,0.2,1.6,0.4,2.4,0.7v-0.7
							c0-1.6-0.4-2.7-1.1-3.3c-0.7-0.6-2-0.9-3.7-0.9c-2,0-3.9,0.4-5.8,1.3c-0.6,0.3-1,0.1-1.2-0.4l-1.1-3.1
							c-0.1-0.3-0.1-0.5-0.1-0.7s0.2-0.4,0.6-0.5c0.4-0.2,0.9-0.4,1.5-0.6s1.3-0.4,2-0.5s1.5-0.3,2.3-0.4s1.6-0.1,2.4-0.1
							c3.5,0,6,0.7,7.7,2.2s2.5,4,2.5,7.5v13.6c0,0.6-0.3,0.9-0.9,0.9L420.97,364.5z M402.87,340.9c0.4,0,0.6,0.1,0.7,0.4
							s0,0.5-0.3,0.8l-8.1,8l8.8,13.2c0.2,0.3,0.2,0.6,0.1,0.8c-0.1,0.3-0.4,0.4-0.7,0.4h-5.1c-0.6,0-1.1-0.2-1.4-0.7l-6.3-9.5
							l-3.6,3.4v6c0,0.6-0.3,0.9-0.9,0.9h-4.5c-0.6,0-0.9-0.3-0.9-0.9v-36c0-0.5,0.2-0.9,0.7-1l3.8-1c0.2-0.1,0.4-0.1,0.6-0.2
							c0.2,0,0.3-0.1,0.5-0.1c0.4,0,0.6,0.2,0.6,0.7v24.7l9.3-9.3c0.4-0.4,0.9-0.6,1.5-0.6L402.87,340.9z M364.97,345.9
							c-0.9,0-1.7,0.2-2.4,0.5s-1.3,0.8-1.9,1.4c-0.5,0.6-0.9,1.3-1.2,2.1c-0.3,0.8-0.4,1.8-0.4,2.8c0,2,0.6,3.7,1.7,5
							s2.5,1.9,4.2,1.9s3.1-0.6,4.2-1.9s1.6-2.9,1.6-5c0-2-0.5-3.7-1.6-4.9C368.07,346.5,366.67,345.9,364.97,345.9z M364.97,365
							c-1.7,0-3.3-0.3-4.8-0.9s-2.8-1.4-3.9-2.5s-2-2.4-2.6-3.9s-1-3.2-1-5.1c0-1.8,0.3-3.5,1-5c0.6-1.5,1.5-2.8,2.6-3.9
							s2.4-1.9,3.9-2.5s3.1-0.9,4.8-0.9s3.2,0.3,4.7,0.9s2.8,1.4,3.9,2.5s2,2.4,2.6,3.9s1,3.2,1,5c0,1.9-0.3,3.6-1,5.1
							s-1.5,2.8-2.6,3.9s-2.4,1.9-3.9,2.5S366.57,365,364.97,365z M349.07,363.7c0,0.6-0.3,0.9-0.9,0.9h-4.5c-0.6,0-0.9-0.3-0.9-0.9
							v-1.3c-0.8,0.8-1.7,1.4-2.9,1.9s-2.4,0.8-3.8,0.8c-1.1,0-2.2-0.2-3.2-0.5c-1-0.4-1.9-0.9-2.6-1.7c-0.7-0.7-1.3-1.7-1.8-2.9
							c-0.4-1.2-0.7-2.6-0.7-4.2v-13.5c0-0.6,0.3-1,0.8-1.1l4.4-0.7c0.6-0.1,1,0.1,1,0.7v13.1c0,1.8,0.3,3.2,1,4s1.7,1.3,3,1.3
							c0.8,0,1.6-0.2,2.5-0.5c0.8-0.3,1.5-0.8,2.2-1.4v-15.5c0-0.6,0.3-1,0.9-1.1l4.4-0.7c0.6-0.1,1,0.1,1,0.7L349.07,363.7z
							 M309.87,345c1.7,0,3.2-0.4,4.3-1.3s1.7-2.2,1.7-4.1s-0.6-3.3-1.7-4.1s-2.6-1.3-4.3-1.3h-4.4V345H309.87z M310.07,350.2h-4.5
							v13.5c0,0.6-0.3,0.9-0.9,0.9h-4.9c-0.6,0-0.9-0.3-0.9-0.9v-34.4c0-0.6,0.3-0.9,0.9-0.9h10.5c1.8,0,3.5,0.2,5.1,0.7
							c1.5,0.5,2.9,1.2,4,2.1s2,2.1,2.6,3.4c0.6,1.4,0.9,3,0.9,4.8c0,2.2-0.6,4.1-1.8,5.7s-2.7,2.8-4.5,3.6l8.4,14.6
							c0.2,0.3,0.2,0.5,0.1,0.8s-0.3,0.4-0.7,0.4h-5.4c-0.6,0-1.1-0.2-1.3-0.7L310.07,350.2z"/>
					</defs>
					<clipPath id="SVGID_2_">
						<use xlink:href="#SVGID_1_"  overflow="visible"/>
					</clipPath>
					<g clip-path="url(#SVGID_2_)">
						<g>
							<g>
								<defs>
									<rect id="SVGID_3_" x="260.27" y="315.2" width="166.3" height="61.4"/>
								</defs>
								<clipPath id="SVGID_4_">
									<use xlink:href="#SVGID_3_"  overflow="visible"/>
								</clipPath>
								<rect x="292.47" y="319.1" clip-path="url(#SVGID_4_)" fill="#FF6900" width="140" height="52.3"/>
							</g>
						</g>
					</g>
				</g>
			</g>
		</g>
		<g>
			<g>
				<g>
					<defs>
						<path id="SVGID_5_" d="M260.27,329.3c0-0.6,0.3-0.9,0.9-0.9h30.5c0.6,0,0.9,0.3,0.9,0.9v2.4c0,0.6-0.3,0.9-0.9,0.9h-30.5
							c-0.6,0-0.9-0.3-0.9-0.9V329.3z M260.27,361.5c0-0.6,0.3-0.9,0.9-0.9h30.5c0.6,0,0.9,0.3,0.9,0.9v2.4c0,0.6-0.3,0.9-0.9,0.9
							h-30.5c-0.6,0-0.9-0.3-0.9-0.9V361.5z M280.47,357.1c-0.4,0-0.6-0.1-0.9-0.2s-0.4-0.3-0.6-0.6l-6.5-9.5v9.5
							c0,0.6-0.3,0.9-0.8,0.9h-5c-0.6,0-0.8-0.3-0.8-0.9V337c0-0.6,0.3-0.9,0.8-0.9h5c0.6,0,0.8,0.3,0.8,0.9v8.6l6.5-8.7
							c0.2-0.3,0.4-0.5,0.6-0.6s0.5-0.2,0.9-0.2h5.5c0.3,0,0.5,0.1,0.7,0.4s0.1,0.6-0.2,0.9l-7,8.7l7.1,9.7c0.3,0.3,0.3,0.6,0.2,0.9
							s-0.4,0.4-0.7,0.4L280.47,357.1z"/>
					</defs>
					<clipPath id="SVGID_6_">
						<use xlink:href="#SVGID_5_"  overflow="visible"/>
					</clipPath>
					<g clip-path="url(#SVGID_6_)">
						<g>
							<g>
								<defs>
									<rect id="SVGID_7_" x="260.27" y="315.2" width="166.3" height="61.4"/>
								</defs>
								<clipPath id="SVGID_8_">
									<use xlink:href="#SVGID_7_"  overflow="visible"/>
								</clipPath>
								<rect x="253.87" y="322.1" clip-path="url(#SVGID_8_)" fill="#FF6900" width="45" height="49.1"/>
							</g>
						</g>
					</g>
				</g>
			</g>
		</g>
	</g>
	<g>
		<g>
			<path fill="#EAEAEA" d="M76.77,183l33.5,33.5h462.5l36.8-36.8C609.57,179.8,77.97,184.2,76.77,183z"/>
		</g>
	</g>
	
		<linearGradient id="SVGID_9_" gradientUnits="userSpaceOnUse" x1="343.1674" y1="210" x2="343.1674" y2="171" gradientTransform="matrix(1 0 0 1 0 40)">
		<stop  offset="0" style="stop-color:#E8E8E8"/>
		<stop  offset="0.2138" style="stop-color:#DFDFDF"/>
		<stop  offset="0.5591" style="stop-color:#C7C7C7"/>
		<stop  offset="0.9905" style="stop-color:#A1A1A1"/>
		<stop  offset="1" style="stop-color:#A0A0A0"/>
	</linearGradient>
	<path fill="url(#SVGID_9_)" d="M382.17,250c0-1.2-0.1-2.4-0.2-3.5c-1.8-19.9-18.5-35.5-38.8-35.5c-20.2,0-36.8,15.3-38.8,35
		c-0.1,1.3-0.2,2.6-0.2,4"/>
	
		<linearGradient id="SVGID_10_" gradientUnits="userSpaceOnUse" x1="90.1674" y1="143.2" x2="90.1674" y2="109" gradientTransform="matrix(1 0 0 1 0 40)">
		<stop  offset="0" style="stop-color:#E8E8E8"/>
		<stop  offset="0.2639" style="stop-color:#DFDFDF"/>
		<stop  offset="0.6886" style="stop-color:#C8C8C8"/>
		<stop  offset="1" style="stop-color:#B2B2B2"/>
	</linearGradient>
	<polygon fill="url(#SVGID_10_)" points="105.17,183.2 109.17,149 79.17,149 71.17,183 	"/>
	
		<linearGradient id="SVGID_11_" gradientUnits="userSpaceOnUse" x1="594.1674" y1="143" x2="594.1674" y2="109" gradientTransform="matrix(1 0 0 1 0 40)">
		<stop  offset="0" style="stop-color:#E8E8E8"/>
		<stop  offset="0.2639" style="stop-color:#DFDFDF"/>
		<stop  offset="0.6886" style="stop-color:#C8C8C8"/>
		<stop  offset="1" style="stop-color:#B2B2B2"/>
	</linearGradient>
	<polygon fill="url(#SVGID_11_)" points="614.17,183 605.17,149 574.17,149 581.17,183 	"/>
	<path fill="#EAEAEA" d="M382.17,252c0-1.2-0.1-2.4-0.2-3.5c-1.8-19.9-18.5-35.5-38.8-35.5c-20.2,0-36.8,15.3-38.8,35
		c-0.1,1.3-0.2,2.6-0.2,4"/>
	<line fill="none" stroke="#C4C4C4" stroke-width="0.5" stroke-miterlimit="10" x1="614.17" y1="183.5" x2="614.17" y2="411"/>
	<circle fill="#FF6900" cx="343.17" cy="264" r="32"/>
	<circle fill="#FF6900" cx="481.17" cy="264" r="32"/>
	<circle fill="#FF6900" cx="198.17" cy="264" r="32"/>
	<g>
		<g>
			<path id="SVGID_13_" fill-rule="evenodd" clip-rule="evenodd" fill="#EAEAEA" d="M189.67,275.5h-3.7c-0.6,0-1-0.5-1-1V262
				c0-0.6,0.5-1,1-1h4.2c0.6,0,1,0.5,1,1v9.8c0,0.6-0.5,1-1,1c-0.6,0-1-0.5-1-1v-8.7h-2.1v10.5h3.1c0.4,0,0.7,0.2,0.9,0.5l0.1,0.1
				c0.7,1.1,9.1,2.4,11.3,2c0.7-0.1,1.5-1.5,2.6-4.6c0.1-0.2,0.4-1,0.4-1c0.1-0.4,0.3-0.7,0.4-1c0.4-1,0.7-1.7,1-2.2
				c0.1-0.2,0.2-0.3,0.4-0.4c2-1.2,2.3-2.6,1-3.6c-0.6-0.4-3.9-1.4-6.5-1.9c-0.8-0.1-1.2-1.1-0.6-1.7c1.5-1.8,2.6-3.9,3.1-6.2
				c0.1-0.5,0.1-1.1-0.1-1.6c-0.2-0.5-0.5-0.8-1.3-0.8c0,0-0.4,0.5-0.7,1.6c0-0.1-0.5,1.4-0.6,1.7c-0.7,1.6-1.8,2.8-3.5,4.1
				c-0.3,0.2-0.6,0.5-1.2,0.9c-0.4,0.3-2.7,1.6-3.2,1.8c0,0,0,0-0.1,0c-0.5,0.3-1.1,0.1-1.4-0.4c-0.3-0.5-0.1-1.1,0.4-1.4
				c0,0,0,0,0.1,0c0.5-0.3,2.7-1.5,3-1.7c0.6-0.4,0.9-0.6,1.2-0.8c1.5-1.1,2.3-2,2.8-3.3c0.1-0.3,0.6-1.6,0.6-1.6c0.7-2,1.4-3,2.7-3
				c1.6,0,2.8,0.8,3.2,2.2c0.3,0.9,0.3,1.9,0.1,2.7c-0.5,2.1-1.3,4-2.5,5.8c2.5,0.5,5,1.4,5.8,1.9c2.5,2,2,5-0.9,6.9
				c-0.2,0.4-0.5,1-0.7,1.7c-0.1,0.3-0.2,0.6-0.3,0.9c0,0-0.3,0.8-0.4,1c-1.4,4-2.4,5.6-4.2,5.9
				C199.97,278.6,191.67,277.3,189.67,275.5z"/>
		</g>
		<g>
			<g>
				<defs>
					<path id="SVGID_12_" d="M189.67,275.5h-3.7c-0.6,0-1-0.5-1-1V262c0-0.6,0.5-1,1-1h4.2c0.6,0,1,0.5,1,1v9.8c0,0.6-0.5,1-1,1
						c-0.6,0-1-0.5-1-1v-8.7h-2.1v10.5h3.1c0.4,0,0.7,0.2,0.9,0.5l0.1,0.1c0.7,1.1,9.1,2.4,11.3,2c0.7-0.1,1.5-1.5,2.6-4.6
						c0.1-0.2,0.4-1,0.4-1c0.1-0.4,0.3-0.7,0.4-1c0.4-1,0.7-1.7,1-2.2c0.1-0.2,0.2-0.3,0.4-0.4c2-1.2,2.3-2.6,1-3.6
						c-0.6-0.4-3.9-1.4-6.5-1.9c-0.8-0.1-1.2-1.1-0.6-1.7c1.5-1.8,2.6-3.9,3.1-6.2c0.1-0.5,0.1-1.1-0.1-1.6
						c-0.2-0.5-0.5-0.8-1.3-0.8c0,0-0.4,0.5-0.7,1.6c0-0.1-0.5,1.4-0.6,1.7c-0.7,1.6-1.8,2.8-3.5,4.1c-0.3,0.2-0.6,0.5-1.2,0.9
						c-0.4,0.3-2.7,1.6-3.2,1.8c0,0,0,0-0.1,0c-0.5,0.3-1.1,0.1-1.4-0.4c-0.3-0.5-0.1-1.1,0.4-1.4c0,0,0,0,0.1,0
						c0.5-0.3,2.7-1.5,3-1.7c0.6-0.4,0.9-0.6,1.2-0.8c1.5-1.1,2.3-2,2.8-3.3c0.1-0.3,0.6-1.6,0.6-1.6c0.7-2,1.4-3,2.7-3
						c1.6,0,2.8,0.8,3.2,2.2c0.3,0.9,0.3,1.9,0.1,2.7c-0.5,2.1-1.3,4-2.5,5.8c2.5,0.5,5,1.4,5.8,1.9c2.5,2,2,5-0.9,6.9
						c-0.2,0.4-0.5,1-0.7,1.7c-0.1,0.3-0.2,0.6-0.3,0.9c0,0-0.3,0.8-0.4,1c-1.4,4-2.4,5.6-4.2,5.9
						C199.97,278.6,191.67,277.3,189.67,275.5z"/>
				</defs>
				<clipPath id="SVGID_14_">
					<use xlink:href="#SVGID_12_"  overflow="visible"/>
				</clipPath>
				<g clip-path="url(#SVGID_14_)">
					<g>
						<rect id="SVGID_15_" x="181.07" y="247.2" fill="#EAEAEA" width="33.5" height="33.5"/>
					</g>
					<g>
						<g>
							<defs>
								<rect id="SVGID_16_" x="181.07" y="247.2" width="33.5" height="33.5"/>
							</defs>
							<clipPath id="SVGID_18_">
								<use xlink:href="#SVGID_16_"  overflow="visible"/>
							</clipPath>
							<rect x="177.97" y="242" clip-path="url(#SVGID_18_)" fill="#EAEAEA" width="40" height="43.2"/>
						</g>
					</g>
				</g>
			</g>
		</g>
	</g>
	<g>
		<g>
			<path id="SVGID_17_" fill-rule="evenodd" clip-rule="evenodd" fill="#EAEAEA" d="M481.87,258.1l-0.7,0.9l-0.7-0.9
				c-0.2-0.3-0.4-0.5-0.6-0.7c-2.3-2.3-6-2.3-8.3,0s-2.3,6.2,0,8.5l9.5,9.7l9.5-9.7c2.3-2.3,2.3-6.2,0-8.5s-6-2.3-8.3,0
				C482.27,257.6,482.07,257.8,481.87,258.1z M481.17,256.3C481.17,256.3,481.27,256.3,481.17,256.3c3-3.1,7.8-3.1,10.7-0.1
				s2.9,7.8,0,10.8l-10.7,11l-10.7-10.9c-2.9-3-2.9-7.8,0-10.8C473.37,253.3,478.17,253.3,481.17,256.3
				C481.07,256.3,481.17,256.3,481.17,256.3z"/>
		</g>
		<g>
			<g>
				<defs>
					<path id="SVGID_20_" d="M481.87,258.1l-0.7,0.9l-0.7-0.9c-0.2-0.3-0.4-0.5-0.6-0.7c-2.3-2.3-6-2.3-8.3,0s-2.3,6.2,0,8.5
						l9.5,9.7l9.5-9.7c2.3-2.3,2.3-6.2,0-8.5s-6-2.3-8.3,0C482.27,257.6,482.07,257.8,481.87,258.1z M481.17,256.3
						C481.17,256.3,481.27,256.3,481.17,256.3c3-3.1,7.8-3.1,10.7-0.1s2.9,7.8,0,10.8l-10.7,11l-10.7-10.9c-2.9-3-2.9-7.8,0-10.8
						C473.37,253.3,478.17,253.3,481.17,256.3C481.07,256.3,481.17,256.3,481.17,256.3z"/>
				</defs>
				<clipPath id="SVGID_21_">
					<use xlink:href="#SVGID_20_"  overflow="visible"/>
				</clipPath>
				<g clip-path="url(#SVGID_21_)">
					<g>
						<rect id="SVGID_19_" x="467.97" y="252.8" fill="#EAEAEA" width="26.4" height="26.4"/>
					</g>
					<g>
						<g>
							<defs>
								<rect id="SVGID_22_" x="467.97" y="252.8" width="26.4" height="26.4"/>
							</defs>
							<clipPath id="SVGID_23_">
								<use xlink:href="#SVGID_22_"  overflow="visible"/>
							</clipPath>
							<rect x="462.77" y="248.5" clip-path="url(#SVGID_23_)" fill="#EAEAEA" width="36.8" height="35"/>
						</g>
					</g>
				</g>
			</g>
		</g>
	</g>
	<polygon fill="#B3B3B3" points="436.17,94 469.17,94 469.17,80 466.17,77 439.17,77 436.17,80 	"/>
	<path fill="#EFEFEF" d="M427.37,126.7h49.5c0,0-7-13.3-7-18s-1.7-3.7-0.7-14.7h-33c0,0-1,11-2,16S427.37,126.7,427.37,126.7z"/>
	<g>
		<path fill="#EAEAEA" d="M343.57,261.1c-0.02,0-0.04,0-0.07,0c-0.55-0.04-0.97-0.51-0.93-1.06c0.32-4.82,3.69-6.86,6.64-6.73
			c0.55,0.03,0.98,0.49,0.95,1.04c-0.02,0.55-0.54,0.99-1.04,0.95c-1.55-0.09-4.29,0.87-4.56,4.87
			C344.53,260.69,344.09,261.1,343.57,261.1z"/>
		<path fill="#EAEAEA" d="M347.27,279.5c-0.95,0-1.67-0.38-2.31-0.71c-0.5-0.26-0.93-0.49-1.39-0.49c-0.44,0-0.85,0.21-1.37,0.46
			c-0.65,0.33-1.47,0.74-2.53,0.74c-2.56,0-7.7-5.3-8.58-9.7c-0.88-4.51,0.4-8.31,3.58-10.7c3.18-2.43,7.05-1.18,8.82-0.11
			c1.6-0.92,5.41-2.37,8.78,0.1c3.24,2.45,4.47,6.15,3.59,10.7C354.97,274.2,349.83,279.5,347.27,279.5z M343.57,276.3
			c0.95,0,1.67,0.38,2.31,0.71c0.5,0.26,0.93,0.49,1.39,0.49c1.25,0,5.84-4.21,6.62-8.1c0.74-3.8-0.21-6.73-2.82-8.71
			c-2.91-2.14-6.5-0.12-6.95,0.26l-0.65,0.56l-0.65-0.56c-0.53-0.46-4.08-2.45-6.94-0.26c-3.43,2.58-3.24,6.56-2.83,8.71
			c0.78,3.88,5.37,8.09,6.62,8.09c0.59,0,1.08-0.24,1.64-0.52C341.94,276.66,342.65,276.3,343.57,276.3z"/>
		<path fill="#EAEAEA" d="M342.92,257.28c-1.37,0-3.16-0.27-4.5-1.42c-2.43-2.09-2.35-6.02-2.35-6.19l0.02-0.8l0.78-0.16
			c0.16-0.03,3.98-0.77,6.51,1.19l0.04,0.03c2.43,2.09,2.35,6.02,2.35,6.19l-0.02,0.78l-0.76,0.17
			C344.91,257.09,344.06,257.28,342.92,257.28z M338.11,250.58c0.11,1.04,0.46,2.78,1.61,3.76c1.15,0.99,2.96,1,4.01,0.9
			c-0.1-1.03-0.45-2.77-1.59-3.76C340.92,250.55,339.15,250.5,338.11,250.58z"/>
	</g>
</g>
</svg>
