<svg xmlns="http://www.w3.org/2000/svg" width="48" height="24" viewBox="0 0 48 24"><title>icon</title><g id="Contact"><g id="Contact-2" data-name="Contact"><path d="M40.9,1.31a1,1,0,0,1,1.1,1V21.69a1,1,0,0,1-1.1,1H7.1a1,1,0,0,1-1.1-1V2.31a1,1,0,0,1,1.1-1H40.9m0-1H7.1a2,2,0,0,0-2.1,2V21.69a2,2,0,0,0,2.1,2H40.9a2,2,0,0,0,2.1-2V2.31a2,2,0,0,0-2.1-2Z" style="fill:#fff"/><polyline points="6.22 1.61 24 16.09 41.78 1.61" style="fill:none;stroke:#fff;stroke-miterlimit:10"/><line x1="19.25" y1="12.2" x2="6.22" y2="22.69" style="fill:none;stroke:#fff;stroke-miterlimit:10"/><line x1="41.78" y1="22.69" x2="28.75" y2="12.2" style="fill:none;stroke:#fff;stroke-miterlimit:10"/></g></g></svg>