<svg xmlns="http://www.w3.org/2000/svg" viewBox="0 0 24 24"><g id="Photos"><path d="M20.9,19,3.08,19a.58.58,0,0,1-.58-.65l0-12.66A.58.58,0,0,1,3.1,5L20.92,5a.58.58,0,0,1,.58.65l0,12.6A.64.64,0,0,1,20.9,19Z" style="fill:none;stroke:#fff;stroke-miterlimit:10"/><circle cx="12" cy="12.04" r="3.92" style="fill:none;stroke:#fff;stroke-miterlimit:10"/><path d="M19.43,7.42h-.86c-.34,0-.57-.16-.57-.41V6.84c0-.25.23-.42.57-.42h.86c.34,0,.57.17.57.42v.21C20,7.26,19.72,7.42,19.43,7.42Z" style="fill:#fff"/></g></svg>