<svg xmlns="http://www.w3.org/2000/svg" width="48" height="24" viewBox="0 0 48 24"><title>icon</title><g id="Photos"><g id="Photos-2" data-name="Photos"><path d="M40.86,23.39,7.1,23.33A1,1,0,0,1,6,22.27L6,1.68a1,1,0,0,1,1.1-1L40.9.69A1,1,0,0,1,42,1.75l0,20.48A1.1,1.1,0,0,1,40.86,23.39Z" style="fill:none;stroke:#fff;stroke-miterlimit:10"/><circle cx="24" cy="12.06" r="7.05" style="fill:none;stroke:#fff;stroke-miterlimit:10"/><path d="M38.94,5.2H37.26a1.06,1.06,0,0,1-1.12-1.12V3.64a1.06,1.06,0,0,1,1.12-1.12h1.68a1.06,1.06,0,0,1,1.12,1.12V4.2A1.1,1.1,0,0,1,38.94,5.2Z" style="fill:#fff"/></g></g></svg>