<svg width="76" height="25" viewBox="0 0 76 25" fill="none" xmlns="http://www.w3.org/2000/svg">
<path fill-rule="evenodd" clip-rule="evenodd" d="M26.2035 0.563088H27.1716V5.16742H29.4812V6.05875H26.2035V0.563088ZM32.3283 5.53133C32.1954 5.72748 32.0152 5.88612 31.8046 5.99225C31.5941 6.09838 31.3603 6.1485 31.1253 6.13786C30.4415 6.13786 29.7839 5.75812 29.7839 5.01974C29.7839 3.81196 31.1801 3.72758 32.0987 3.72758H32.3283V3.63264C32.3283 3.17643 31.976 2.93645 31.4854 2.93645C31.1206 2.93464 30.7688 3.07325 30.5016 3.3241L30.0188 2.83361C30.2275 2.63419 30.4735 2.47879 30.7423 2.37646C31.0112 2.27414 31.2975 2.22694 31.5846 2.23763C33.1504 2.23763 33.1504 3.38476 33.1504 3.91217V6.05875H32.3283V5.53133ZM30.7625 0.555177C30.8704 0.561357 30.9741 0.599324 31.0609 0.664389C31.1477 0.729454 31.2137 0.81877 31.2508 0.921312C31.2879 1.02385 31.2945 1.13513 31.2697 1.24142C31.245 1.3477 31.19 1.44433 31.1115 1.51938C31.033 1.59443 30.9345 1.64462 30.8281 1.66375C30.7218 1.68288 30.6122 1.67012 30.5129 1.62703C30.4136 1.58394 30.329 1.51242 30.2695 1.42129C30.21 1.33017 30.1781 1.22342 30.178 1.11424C30.1834 0.962906 30.248 0.819925 30.3576 0.716618C30.4671 0.613312 30.6128 0.558103 30.7625 0.563088V0.555177ZM32.2657 4.3763H32.0726C31.5663 4.3763 30.6921 4.41585 30.6921 4.95118C30.6921 5.29136 31.0392 5.43904 31.3367 5.43904C31.9656 5.43904 32.2657 5.10676 32.2657 4.58726V4.3763ZM32.3414 0.555177C32.4494 0.560848 32.5534 0.598394 32.6405 0.663169C32.7277 0.727944 32.7941 0.817108 32.8316 0.91963C32.8691 1.02215 32.876 1.13354 32.8516 1.24C32.8271 1.34647 32.7723 1.44335 32.6939 1.51866C32.6155 1.59398 32.5169 1.64441 32.4105 1.66374C32.304 1.68306 32.1943 1.67042 32.0948 1.62739C31.9954 1.58436 31.9106 1.51281 31.851 1.42161C31.7914 1.3304 31.7596 1.22354 31.7594 1.11424C31.7621 1.03884 31.7795 0.964726 31.8107 0.896157C31.8418 0.827588 31.886 0.765918 31.9409 0.714694C31.9957 0.663471 32.06 0.623706 32.13 0.597687C32.2001 0.571669 32.2746 0.55991 32.3492 0.563088L32.3414 0.555177ZM36.3707 5.53133C36.237 5.72733 36.0562 5.8858 35.8453 5.99189C35.6345 6.09797 35.4004 6.1482 35.165 6.13786C34.4839 6.13786 33.8237 5.75812 33.8237 5.01974C33.8237 3.81196 35.2198 3.72758 36.141 3.72758H36.3707V3.63264C36.3707 3.17643 36.0184 2.93645 35.5252 2.93645C35.1613 2.93531 34.8105 3.07387 34.5439 3.3241L34.0611 2.83361C34.27 2.63431 34.516 2.47899 34.7848 2.37667C35.0536 2.27435 35.3399 2.22709 35.6269 2.23763C37.1927 2.23763 37.1927 3.38476 37.1927 3.91217V6.05875H36.3655L36.3707 5.53133ZM34.8049 0.555177C34.9129 0.560848 35.0169 0.598394 35.104 0.663169C35.1912 0.727944 35.2576 0.817108 35.2951 0.91963C35.3326 1.02215 35.3396 1.13354 35.3151 1.24C35.2906 1.34647 35.2358 1.44335 35.1574 1.51866C35.079 1.59398 34.9804 1.64441 34.874 1.66374C34.7675 1.68306 34.6578 1.67042 34.5584 1.62739C34.4589 1.58436 34.3742 1.51281 34.3145 1.42161C34.2549 1.3304 34.2231 1.22354 34.2229 1.11424C34.2256 1.03884 34.243 0.964726 34.2742 0.896157C34.3053 0.827588 34.3496 0.765918 34.4044 0.714694C34.4592 0.663471 34.5235 0.623706 34.5936 0.597687C34.6636 0.571669 34.7381 0.55991 34.8127 0.563088L34.8049 0.555177ZM36.308 4.3763H36.1175C35.6113 4.3763 34.737 4.41585 34.737 4.95118C34.737 5.29136 35.0815 5.43904 35.3816 5.43904C36.0105 5.43904 36.308 5.10676 36.308 4.58726V4.3763ZM36.3863 0.555177C36.4942 0.561357 36.5979 0.599324 36.6847 0.664389C36.7715 0.729454 36.8375 0.81877 36.8746 0.921312C36.9117 1.02385 36.9183 1.13513 36.8936 1.24142C36.8688 1.3477 36.8138 1.44433 36.7353 1.51938C36.6568 1.59443 36.5583 1.64462 36.452 1.66375C36.3456 1.68288 36.236 1.67012 36.1367 1.62703C36.0374 1.58394 35.9528 1.51242 35.8933 1.42129C35.8338 1.33017 35.8019 1.22342 35.8018 1.11424C35.8044 1.03861 35.8219 0.96427 35.8532 0.895521C35.8846 0.826773 35.929 0.764981 35.9841 0.713723C36.0392 0.662465 36.1038 0.622759 36.1742 0.596902C36.2446 0.571046 36.3194 0.559552 36.3942 0.563088L36.3863 0.555177ZM38.1035 0.18335H39.0247V3.87525L40.4443 2.33256H41.6265L40.0451 4.02293L41.7231 6.05875H40.5018L39.0377 4.16006L39.0221 6.05875H38.1009L38.1035 0.18335ZM44.4554 5.53133C44.3225 5.72748 44.1422 5.88612 43.9317 5.99225C43.7212 6.09838 43.4874 6.1485 43.2523 6.13786C42.5686 6.13786 41.911 5.75812 41.911 5.01974C41.911 3.81196 43.3071 3.72758 44.2257 3.72758H44.4554V3.63264C44.4554 3.17643 44.1031 2.93645 43.6125 2.93645C43.2486 2.93531 42.8979 3.07387 42.6312 3.3241L42.1485 2.83361C42.357 2.63395 42.603 2.47839 42.8719 2.37605C43.1407 2.27371 43.4271 2.22665 43.7142 2.23763C45.28 2.23763 45.28 3.38476 45.28 3.91217V6.05875H44.4502L44.4554 5.53133ZM42.8896 0.555177C42.9975 0.561357 43.1012 0.599324 43.188 0.664389C43.2747 0.729454 43.3407 0.81877 43.3779 0.921312C43.415 1.02385 43.4216 1.13513 43.3968 1.24142C43.3721 1.3477 43.317 1.44433 43.2386 1.51938C43.1601 1.59443 43.0616 1.64462 42.9552 1.66375C42.8488 1.68288 42.7392 1.67012 42.6399 1.62703C42.5407 1.58394 42.4561 1.51242 42.3965 1.42129C42.337 1.33017 42.3052 1.22342 42.305 1.11424C42.3077 1.03838 42.3253 0.96381 42.3567 0.894882C42.3882 0.825953 42.4329 0.76404 42.4883 0.712746C42.5437 0.661453 42.6086 0.621805 42.6793 0.596112C42.75 0.570418 42.825 0.559192 42.9 0.563088L42.8896 0.555177ZM44.3927 4.3763H44.1996C43.6934 4.3763 42.8191 4.41585 42.8191 4.95118C42.8191 5.29136 43.1662 5.43904 43.4637 5.43904C44.0926 5.43904 44.3927 5.10676 44.3927 4.58726V4.3763ZM44.4684 0.555177C44.5765 0.560848 44.6805 0.598394 44.7676 0.663169C44.8547 0.727944 44.9211 0.817108 44.9586 0.91963C44.9962 1.02215 45.0031 1.13354 44.9786 1.24C44.9541 1.34647 44.8993 1.44335 44.8209 1.51866C44.7425 1.59398 44.644 1.64441 44.5375 1.66374C44.4311 1.68306 44.3213 1.67042 44.2219 1.62739C44.1225 1.58436 44.0377 1.51281 43.9781 1.42161C43.9185 1.3304 43.8866 1.22354 43.8865 1.11424C43.8892 1.03861 43.9067 0.96427 43.938 0.895521C43.9693 0.826773 44.0137 0.764981 44.0688 0.713723C44.1239 0.662465 44.1885 0.622759 44.2589 0.596902C44.3293 0.571046 44.4041 0.559552 44.4789 0.563088L44.4684 0.555177ZM46.1882 2.32202H47.1094V2.92063C47.2104 2.71271 47.3677 2.5381 47.5632 2.41716C47.7587 2.29623 47.9841 2.23396 48.2133 2.23763C48.325 2.23994 48.4357 2.25859 48.5421 2.29301V3.19225C48.3978 3.14973 48.2487 3.12581 48.0985 3.12105C47.9714 3.11235 47.844 3.13021 47.7241 3.17351C47.6041 3.21681 47.4944 3.28463 47.4015 3.37272C47.3087 3.46082 47.2349 3.5673 47.1846 3.68552C47.1344 3.80375 47.1087 3.93117 47.1094 4.05985V6.05875H46.1882V2.32202ZM49.5729 0.520895C49.681 0.526573 49.7851 0.56419 49.8723 0.629084C49.9595 0.693978 50.0259 0.783296 50.0634 0.885968C50.1008 0.988641 50.1076 1.10015 50.0829 1.20669C50.0582 1.31322 50.0031 1.41009 49.9244 1.48529C49.8458 1.56049 49.747 1.61072 49.6404 1.62974C49.5338 1.64877 49.424 1.63576 49.3246 1.59233C49.2252 1.54889 49.1406 1.47694 49.0813 1.3854C49.022 1.29385 48.9906 1.18673 48.991 1.07732C48.993 1.00216 49.0097 0.928144 49.04 0.859498C49.0703 0.790852 49.1138 0.728922 49.1678 0.677248C49.2219 0.625574 49.2855 0.585168 49.355 0.55834C49.4245 0.531512 49.4985 0.518788 49.5729 0.520895ZM49.1214 2.34048H50.0427V6.05875H49.1214V2.34048ZM51.0239 0.20181H51.9451V3.89371L53.3647 2.35102H54.5443L52.9785 4.04139L54.6591 6.07193H53.4378L51.9738 4.17324L51.9581 6.07193H51.0369L51.0239 0.20181ZM55.8152 4.51606C55.8352 4.76412 55.9493 4.99479 56.1336 5.15989C56.3179 5.325 56.5582 5.41178 56.8043 5.40212C56.9971 5.40341 57.1875 5.35814 57.3595 5.27007C57.5315 5.182 57.6803 5.05368 57.7933 4.8958L58.4536 5.40212C58.2543 5.67804 57.9881 5.89752 57.6807 6.03944C57.3732 6.18137 57.0348 6.24097 56.6979 6.21252C56.361 6.18407 56.0371 6.06852 55.7572 5.87698C55.4773 5.68545 55.2509 5.42437 55.0997 5.11885C54.9486 4.81333 54.8777 4.47364 54.894 4.13246C54.9103 3.79127 55.0132 3.46006 55.1928 3.17067C55.3724 2.88129 55.6226 2.64346 55.9195 2.48005C56.2163 2.31665 56.5498 2.23316 56.8878 2.23763C57.916 2.23763 58.6154 2.96546 58.6154 4.26026V4.52397L55.8152 4.51606ZM57.702 3.81987C57.7068 3.69705 57.6854 3.57462 57.6392 3.46093C57.5929 3.34724 57.5229 3.24497 57.434 3.16111C57.3451 3.07725 57.2393 3.01377 57.1238 2.975C57.0084 2.93622 56.886 2.92308 56.7651 2.93645C56.5233 2.92645 56.2874 3.01388 56.1092 3.17952C55.9311 3.34517 55.8254 3.57548 55.8152 3.81987H57.702ZM61.3685 3.36102C61.2902 3.24118 61.183 3.14345 61.057 3.07702C60.931 3.01059 60.7904 2.97764 60.6483 2.98128C60.403 2.98128 60.1107 3.09732 60.1107 3.37685C60.1107 4.04402 62.0966 3.50079 62.0966 4.95909C62.0966 5.84251 61.2616 6.15368 60.51 6.15368C60.2435 6.17159 59.9764 6.12928 59.7281 6.02984C59.4799 5.9304 59.2566 5.77632 59.0747 5.5788L59.6775 5.00392C59.7796 5.14179 59.9113 5.25447 60.0628 5.33349C60.2142 5.41251 60.3814 5.45581 60.5517 5.46013C60.8127 5.46013 61.1676 5.32828 61.1676 5.03556C61.1676 4.26554 59.179 4.87207 59.179 3.45332C59.179 2.62264 59.915 2.25082 60.6613 2.25082C60.9075 2.23638 61.1535 2.28011 61.38 2.37852C61.6065 2.47694 61.8072 2.62734 61.9662 2.81779L61.3685 3.36102ZM62.7334 0.196535H63.6442V3.88844L65.0638 2.34575H66.2538L64.6724 4.03611L66.353 6.06666H65.1343L63.6677 4.16797L63.6442 6.05875H62.723L62.7334 0.196535ZM70.1265 6.05875H69.2523V5.45486C69.1514 5.67185 68.9888 5.8535 68.7851 5.97658C68.5815 6.09966 68.3462 6.15857 68.1093 6.14577C67.1202 6.14577 66.7679 5.43904 66.7679 4.67956V2.32993H67.6891V4.2128C67.6891 4.62418 67.7178 5.30454 68.3624 5.30454C69.007 5.30454 69.2079 4.85624 69.2079 4.36047V2.32993H70.1265V6.05875ZM73.0572 3.36893C72.9792 3.24874 72.8721 3.15073 72.746 3.08425C72.6199 3.01778 72.4791 2.98505 72.3369 2.9892C72.0916 2.9892 71.7993 3.10523 71.7993 3.38476C71.7993 4.05194 73.7879 3.5087 73.7879 4.967C73.7879 5.85042 72.9502 6.16159 72.1986 6.16159C71.9322 6.17894 71.6653 6.13637 71.4171 6.03697C71.1689 5.93756 70.9456 5.78379 70.7633 5.58671L71.3792 5.00656C71.4829 5.14215 71.6157 5.25222 71.7676 5.32849C71.9194 5.40477 72.0864 5.44527 72.256 5.44695C72.517 5.44695 72.8693 5.31509 72.8693 5.02238C72.8693 4.25235 70.8833 4.85888 70.8833 3.44013C70.8833 2.60946 71.6193 2.23763 72.363 2.23763C72.6091 2.22402 72.8549 2.26812 73.0812 2.36647C73.3076 2.46483 73.5084 2.61479 73.6678 2.8046L73.0572 3.36893ZM47.052 23.8221C46.8475 23.8081 46.6516 23.7337 46.4887 23.608C46.3258 23.4823 46.2032 23.311 46.136 23.1153C45.8985 22.5563 40.0633 9.32344 40.0033 9.18895C39.9745 9.1245 39.9613 9.05399 39.9649 8.98333C39.9685 8.91268 39.9889 8.84393 40.0242 8.78284C40.0781 8.71019 40.1497 8.65284 40.232 8.61634C40.3143 8.57984 40.4045 8.56543 40.4939 8.57452H42.9548C43.1148 8.56912 43.273 8.60929 43.4114 8.69042C43.5499 8.77156 43.6629 8.8904 43.7377 9.03337L48.289 19.5395L52.8454 9.02545C52.92 8.8819 53.0328 8.76233 53.1712 8.6803C53.3096 8.59827 53.4679 8.55705 53.6283 8.56133H56.0892C56.1789 8.55254 56.2693 8.56736 56.3516 8.60432C56.4339 8.64129 56.5053 8.69916 56.559 8.77229C56.5954 8.83401 56.6161 8.90388 56.6193 8.97567C56.6225 9.04745 56.608 9.11892 56.5772 9.18368L55.6899 11.1931C55.0871 12.5591 50.6507 22.6275 50.4367 23.1206C50.373 23.3066 50.2591 23.4708 50.1078 23.5948C49.9565 23.7188 49.774 23.7975 49.5807 23.8221H47.052ZM34.2203 19.1887C33.2182 20.3148 31.5611 20.9819 29.7709 20.9819C25.6424 20.9819 25.0265 17.981 25.0265 16.1904C25.0265 14.3998 25.6424 11.3988 29.7709 11.3988C31.8299 11.3988 33.5001 12.3112 34.2203 13.1868V19.1887ZM39.745 21.2826C39.6615 21.2845 39.5791 21.3024 39.5023 21.3353C39.2897 21.3946 39.0703 21.4247 38.8498 21.425C38.067 21.425 37.6807 21.2588 37.6807 20.3174V9.13358C37.6781 9.0636 37.6616 8.99486 37.6324 8.93136C37.6032 8.86787 37.5617 8.81089 37.5104 8.76376C37.4592 8.71663 37.3992 8.68029 37.3339 8.65685C37.2686 8.63341 37.1993 8.62335 37.1301 8.62726C37.0214 8.62899 36.9141 8.65229 36.8143 8.69582C36.5299 8.80921 34.9536 9.48694 34.4969 9.67681C33.3278 8.95162 31.3393 8.19741 29.5882 8.19741C24.6298 8.19741 21.5687 11.2617 21.5687 16.1904C21.5687 21.1191 24.6403 24.1833 29.5882 24.1833C31.3043 24.1663 32.9817 23.6658 34.4317 22.7382C34.878 23.6375 35.961 24.1833 37.3545 24.1833C38.2011 24.1794 39.04 24.0213 39.8311 23.7166C39.924 23.6745 40.0037 23.6075 40.0617 23.5229C40.1196 23.4383 40.1536 23.3393 40.1599 23.2366V21.7414C40.1658 21.683 40.1594 21.6241 40.1412 21.5684C40.1229 21.5126 40.0932 21.4615 40.0541 21.4181C40.0149 21.3748 39.9671 21.3403 39.9138 21.317C39.8606 21.2936 39.803 21.2819 39.745 21.2826ZM6.40142 15.6762L10.3733 5.0171L14.3478 15.6762H6.40142ZM20.6684 22.8674L12.7194 1.6311C12.6881 1.5599 12.4845 1.19599 11.6755 1.19599H9.06587C8.28298 1.19599 8.07942 1.55463 8.03767 1.64693C7.96199 1.85262 0.313094 22.2715 0.0756151 22.9044C0.0226604 23.009 -0.00341879 23.1255 -0.000226835 23.243C0.00296512 23.3605 0.0353257 23.4753 0.0938826 23.5768C0.154636 23.6571 0.234054 23.721 0.325096 23.7629C0.416139 23.8047 0.515995 23.8233 0.615813 23.8168H2.76617C2.96672 23.8066 3.15884 23.732 3.31463 23.604C3.47043 23.476 3.58179 23.3011 3.63257 23.1048C3.80742 22.6037 4.85128 19.8111 5.11747 19.0991H15.6265L17.0932 23.0547C17.1517 23.2635 17.2726 23.449 17.4393 23.5859C17.6061 23.7228 17.8105 23.8043 18.0248 23.8194H20.2613C20.3523 23.8275 20.4438 23.8101 20.5257 23.7692C20.6077 23.7283 20.6769 23.6654 20.7258 23.5874C20.7735 23.4714 20.7931 23.3456 20.7831 23.2204C20.7732 23.0952 20.7338 22.9742 20.6684 22.8674ZM69.9204 19.1887C68.9157 20.3148 67.2611 20.9819 65.4683 20.9819C61.3424 20.9819 60.7266 17.981 60.7266 16.1904C60.7266 14.3998 61.3425 11.3988 65.4709 11.3988C67.5326 11.3988 69.2027 12.3112 69.923 13.1868L69.9204 19.1887ZM75.4424 21.2826C75.3598 21.2844 75.2783 21.3023 75.2023 21.3353C74.9889 21.3944 74.7686 21.4246 74.5473 21.425C73.7644 21.425 73.3782 21.2588 73.3782 20.3174V9.13358C73.3755 9.06383 73.3592 8.99532 73.3301 8.932C73.301 8.86869 73.2598 8.81184 73.2088 8.76474C73.1578 8.71765 73.0981 8.68124 73.0331 8.65764C72.9681 8.63404 72.8991 8.62372 72.8301 8.62726C72.7224 8.62993 72.6161 8.65319 72.517 8.69582C72.2351 8.80921 70.6589 9.48694 70.1996 9.67681C69.0279 8.95953 67.0367 8.19741 65.2856 8.19741C60.3273 8.19741 57.2662 11.2617 57.2662 16.1904C57.2662 21.1191 60.3403 24.1833 65.2856 24.1833C67.0018 24.1666 68.6792 23.6661 70.1292 22.7382C70.5754 23.6375 71.661 24.1833 73.052 24.1833C73.8994 24.1797 74.7393 24.0216 75.5311 23.7166C75.6235 23.6741 75.7027 23.607 75.7602 23.5224C75.8177 23.4378 75.8513 23.339 75.8573 23.2366V21.7414C75.8632 21.683 75.8568 21.6241 75.8386 21.5684C75.8204 21.5126 75.7907 21.4615 75.7515 21.4181C75.7123 21.3748 75.6646 21.3403 75.6113 21.317C75.558 21.2936 75.5005 21.2819 75.4424 21.2826Z" fill="#009BDF"/>
</svg>
