<svg xmlns="http://www.w3.org/2000/svg" viewBox="0 0 175.6 62"><path d="M144.2 0c-7 0-13.5 2.3-18.8 6.2-5.3-3.9-11.8-6.2-18.8-6.2S93.1 2.3 87.8 6.2C82.5 2.3 76.1 0 69 0c-7 0-13.5 2.3-18.8 6.2C45 2.3 38.5 0 31.4 0 14.1 0 0 13.9 0 31s14.1 31 31.4 31c7 0 13.5-2.3 18.8-6.2C55.5 59.7 62 62 69 62s13.5-2.3 18.8-6.2C93 59.7 99.5 62 106.6 62c7 0 13.5-2.3 18.8-6.2 5.2 3.9 11.7 6.2 18.8 6.2 17.3 0 31.4-13.9 31.4-31S161.5 0 144.2 0zm-18.8 47c-3.8-4.3-6.1-9.9-6.1-16s2.3-11.7 6.1-16c3.8 4.3 6.1 9.9 6.1 16s-2.3 11.7-6.1 16zm-37.6 0c-3.8-4.3-6.1-9.9-6.1-16s2.3-11.7 6.1-16c3.8 4.3 6.1 9.9 6.1 16s-2.3 11.7-6.1 16zm-37.6 0c-3.8-4.3-6.1-9.9-6.1-16s2.3-11.7 6.1-16c3.8 4.3 6.1 9.9 6.1 16 .1 6.1-2.3 11.7-6.1 16zM6.5 31c0-13.5 11.2-24.5 24.9-24.5 5.1 0 9.9 1.5 13.9 4.2-4.8 5.4-7.7 12.5-7.7 20.3 0 7.8 2.9 14.9 7.7 20.3-4 2.6-8.7 4.2-13.9 4.2-13.7 0-24.9-11-24.9-24.5zm48.6 20.3c4.8-5.4 7.7-12.5 7.7-20.3 0-7.8-2.9-14.9-7.7-20.3 4-2.6 8.7-4.2 13.9-4.2s9.9 1.5 13.9 4.2c-4.8 5.4-7.8 12.5-7.8 20.3 0 7.8 2.9 14.9 7.8 20.3-4 2.6-8.7 4.2-13.9 4.2-5.1 0-9.9-1.6-13.9-4.2zm37.6 0c4.8-5.4 7.8-12.5 7.8-20.3 0-7.8-2.9-14.9-7.8-20.3 4-2.6 8.7-4.2 13.9-4.2s9.9 1.5 13.9 4.2c-4.8 5.4-7.8 12.5-7.8 20.3 0 7.8 2.9 14.9 7.8 20.3-4 2.6-8.7 4.2-13.9 4.2s-9.9-1.6-13.9-4.2zm51.5 4.2c-5.1 0-9.9-1.5-13.9-4.2 4.8-5.4 7.8-12.5 7.8-20.3 0-7.8-2.9-14.9-7.8-20.3 4-2.6 8.7-4.2 13.9-4.2 13.7 0 24.9 11 24.9 24.5s-11.2 24.5-24.9 24.5z"/></svg>