<svg xmlns="http://www.w3.org/2000/svg" viewBox="0 0 24.597 20.136">
            <g id="Group_46" data-name="Group 46" transform="translate(-4074.832 -985.495)">
                <path id="Path_1595" data-name="Path 1595" d="M4087.064,1002.666a3.084,3.084,0,0,1-.721,2.2,2.665,2.665,0,0,1-2.03.761h-.375a2.662,2.662,0,0,1-2.069-.774,3.131,3.131,0,0,1-.708-2.19V988.512a3.362,3.362,0,0,1,.667-2.216,2.6,2.6,0,0,1,2.111-.8h.375a2.53,2.53,0,0,1,2.1.814,3.429,3.429,0,0,1,.654,2.2Zm-2.644-14.42q0-.454-.293-.454t-.294.454v14.634c0,.286.1.428.294.428s.293-.143.293-.428Z"></path>
                <path id="Path_1596" data-name="Path 1596" d="M4090.241,987.551q-.24,0-.24.294v4.513h-2.324v-4.674a2.243,2.243,0,0,1,.575-1.549,2.333,2.333,0,0,1,1.829-.64h.373a2.786,2.786,0,0,1,1.95.614,2.308,2.308,0,0,1,.667,1.789v3.178c0,.356-.008.677-.026.961a6.042,6.042,0,0,1-.12.868,8.414,8.414,0,0,1-.267.948q-.174.507-.44,1.2-.215.561-.454,1.108c-.159.365-.329.752-.507,1.162q-.482.987-.748,1.616a9.565,9.565,0,0,0-.4,1.1,4.168,4.168,0,0,0-.161.828q-.027.36-.027.788v1.656h.962v-4.674h2.243v6.863h-5.555v-3.631q0-.669.027-1.189a5.984,5.984,0,0,1,.16-1.081,10.377,10.377,0,0,1,.4-1.269q.268-.707.748-1.749l.88-2.243q.188-.588.321-.976c.088-.258.16-.489.213-.694a5.7,5.7,0,0,0,.12-.561,3.449,3.449,0,0,0,.04-.547v-3.712C4090.481,987.649,4090.4,987.551,4090.241,987.551Z"></path>
                <path id="Path_1597" data-name="Path 1597" d="M4099.429,1002.666a3.127,3.127,0,0,1-.707,2.2,2.621,2.621,0,0,1-2.017.761h-.374a2.623,2.623,0,0,1-2.057-.774,3.17,3.17,0,0,1-.694-2.19V988.512a3.41,3.41,0,0,1,.654-2.216,2.556,2.556,0,0,1,2.1-.8h.374a2.491,2.491,0,0,1,2.083.814,3.475,3.475,0,0,1,.64,2.2Zm-2.67-14.474a.864.864,0,0,0-.04-.294c-.026-.071-.093-.107-.2-.107-.179,0-.268.133-.268.4v14.714c0,.267.089.4.268.4.16,0,.24-.134.24-.4V988.192Z"></path>
                <path id="Path_1598" data-name="Path 1598" d="M4080.654,988.512v5.248h-2.617v-5.514h0q0-.454-.278-.454t-.279.454h0v14.74q0,.481.347.481c.25,0,.373-.158.374-.477v-6.6h-.36v-2.271h2.817V1005.5h-1.763a3.652,3.652,0,0,0-.12-.534c-.062-.213-.111-.382-.146-.507a4.61,4.61,0,0,1-.682.788,1.52,1.52,0,0,1-1.081.388h-.054a1.652,1.652,0,0,1-1.5-.748,3.194,3.194,0,0,1-.481-1.762V988.512a3.361,3.361,0,0,1,.667-2.216,2.6,2.6,0,0,1,2.112-.8h.292a2.531,2.531,0,0,1,2.1.814A3.429,3.429,0,0,1,4080.654,988.512Z"></path>
            </g>
        </svg>