<?xml version="1.0" encoding="utf-8"?>
<!-- Generator: Adobe Illustrator 25.2.3, SVG Export Plug-In . SVG Version: 6.00 Build 0)  -->
<svg version="1.1" id="Layer_1" xmlns="http://www.w3.org/2000/svg" xmlns:xlink="http://www.w3.org/1999/xlink" x="0px" y="0px"
	 viewBox="0 0 185.1 26.4" style="enable-background:new 0 0 185.1 26.4;" xml:space="preserve">
<style type="text/css">
	.st0{fill-rule:evenodd;clip-rule:evenodd;fill:#FFFFFF;filter:url(#Adobe_OpacityMaskFilter);}
	.st1{mask:url(#mask0_1_);}
	.st2{fill-rule:evenodd;clip-rule:evenodd;}
</style>
<defs>
	<filter id="Adobe_OpacityMaskFilter" filterUnits="userSpaceOnUse" x="1.5" y="1.1" width="182" height="23">
		<feColorMatrix  type="matrix" values="1 0 0 0 0  0 1 0 0 0  0 0 1 0 0  0 0 0 1 0"/>
	</filter>
</defs>
<mask maskUnits="userSpaceOnUse" x="1.5" y="1.1" width="182" height="23" id="mask0_1_">
	<path class="st0" d="M1.5,1.1h182v23H1.5V1.1z"/>
</mask>
<g class="st1">
	<path class="st2" d="M11.2,14.6H8.6l1.4-3.9L11.2,14.6z M14.3,23.8h3.9L11.9,5.9H8.1L1.5,23.8h3.9l2-5.8h4.9L14.3,23.8z M26.4,21.6
		c0-1.2-1-2.2-2.3-2.2c-1.4,0-2.3,1-2.3,2.2c0,1.3,1,2.3,2.3,2.3C25.4,23.9,26.4,22.9,26.4,21.6L26.4,21.6z M34,10.4
		c0-0.9,0.6-1.6,1.8-1.6c1.1,0,1.7,0.7,1.7,1.8h3.4c0-3.4-1.8-5.2-5.1-5.2c-3.1,0-5.2,1.9-5.2,4.9c0,2.7,1.4,4.4,4.5,5.3l0.6,0.2
		c1.7,0.5,2.8,1,2.8,2.5c0,1.3-1,2.4-2.6,2.4c-1.5,0-2.6-1.3-2.6-2.7h-3.5c0,3.7,2.5,6,6.1,6c3.6,0,6.2-2.5,6.2-5.7
		c0-3.8-2.5-5-5.3-5.8l-0.8-0.2C34.3,11.9,34,11.4,34,10.4L34,10.4z M49.3,21.6c0-1.2-1-2.2-2.3-2.2c-1.4,0-2.3,1-2.3,2.2
		c0,1.3,1,2.3,2.3,2.3C48.2,23.9,49.3,22.9,49.3,21.6L49.3,21.6z M64.1,23.8h3.6V5.9h-3.6V13H57V5.9h-3.6v17.9H57v-7.5h7.1V23.8z
		 M73.1,23.8h9.5v-3.3h-5.9v-4.2h5.9v-3.3h-5.9V9.2h5.9V5.9h-9.5V23.8z M87.7,23.8h9.5v-3.3h-5.9V5.9h-3.6V23.8z M104.5,10.4
		c0-0.9,0.6-1.6,1.8-1.6c1.1,0,1.7,0.7,1.7,1.8h3.4c0-3.4-1.8-5.2-5.1-5.2c-3.1,0-5.2,1.9-5.2,4.9c0,2.7,1.4,4.4,4.5,5.3l0.6,0.2
		c1.7,0.5,2.8,1,2.8,2.5c0,1.3-1,2.4-2.6,2.4c-1.5,0-2.6-1.3-2.6-2.7h-3.5c0,3.7,2.5,6,6.1,6c3.6,0,6.2-2.5,6.2-5.7
		c0-3.8-2.5-5-5.3-5.8l-0.8-0.2C104.8,11.9,104.5,11.4,104.5,10.4L104.5,10.4z M116.9,23.8h3.6V5.9h-3.6V23.8z M136.4,23.8h3.6V5.9
		h-3.6v11.5l-7-11.5h-3.6v17.9h3.6V12.2L136.4,23.8z M162.3,14.2v-1.1h-7.8v3.3h4c-0.6,2.5-2.7,4.2-5.5,4.2c-3.3,0-5.6-2.6-5.6-5.8
		c0-3.2,2.4-5.8,5.6-5.8c1.5,0,2.9,0.6,3.9,1.6l2.6-2.6c-1.6-1.5-3.9-2.4-6.5-2.4c-5.4,0-9.4,3.9-9.4,9.3c0,5.4,3.9,9.3,9.4,9.3
		C157.9,24.1,162.3,21,162.3,14.2L162.3,14.2z M169.4,3.4c0-1.2-1-2.2-2.3-2.2c-1.3,0-2.3,1-2.3,2.2c0,1.3,1,2.3,2.3,2.3
		C168.4,5.7,169.4,4.6,169.4,3.4L169.4,3.4z M179.8,14.8c0,3.2-2.4,5.8-5.6,5.8c-3.3,0-5.6-2.6-5.6-5.8c0-3.2,2.4-5.8,5.6-5.8
		C177.4,9,179.8,11.6,179.8,14.8L179.8,14.8z M174.1,5.5c-5.4,0-9.4,3.9-9.4,9.3c0,5.4,3.9,9.3,9.4,9.3c5.4,0,9.4-3.9,9.4-9.3
		C183.5,9.4,179.6,5.5,174.1,5.5L174.1,5.5z M183.5,3.4c0-1.2-1-2.2-2.3-2.2c-1.4,0-2.3,1-2.3,2.2c0,1.3,1,2.3,2.3,2.3
		C182.4,5.7,183.5,4.6,183.5,3.4L183.5,3.4z"/>
</g>
</svg>
