<?xml version="1.0" encoding="utf-8"?>
<!-- Generator: Adobe Illustrator 21.0.0, SVG Export Plug-In . SVG Version: 6.00 Build 0)  -->
<svg version="1.1" id="Layer_1" xmlns="http://www.w3.org/2000/svg" xmlns:xlink="http://www.w3.org/1999/xlink" x="0px" y="0px"
	 viewBox="0 0 50 50" style="enable-background:new 0 0 50 50;" xml:space="preserve">
<style type="text/css">
	.st0{fill:#333333;}
</style>
<g>
	<path class="st0" d="M25,8.9c5.3,0,6,0,8.1,0.1c2,0.1,3,0.4,3.7,0.7c0.9,0.4,1.6,0.8,2.3,1.5c0.7,0.7,1.1,1.4,1.5,2.3
		c0.3,0.7,0.6,1.8,0.7,3.7c0.1,2.1,0.1,2.7,0.1,8.1s0,6-0.1,8.1c-0.1,2-0.4,3-0.7,3.7c-0.4,0.9-0.8,1.6-1.5,2.3
		c-0.7,0.7-1.4,1.1-2.3,1.5c-0.7,0.3-1.8,0.6-3.7,0.7c-2.1,0.1-2.7,0.1-8.1,0.1s-6,0-8.1-0.1c-2-0.1-3-0.4-3.7-0.7
		c-0.9-0.4-1.6-0.8-2.3-1.5C10.2,38.6,9.8,38,9.4,37c-0.3-0.7-0.6-1.8-0.7-3.7c-0.1-2.1-0.1-2.7-0.1-8.1s0-6,0.1-8.1
		c0.1-2,0.4-3,0.7-3.7c0.4-0.9,0.8-1.6,1.5-2.3c0.7-0.7,1.4-1.1,2.3-1.5C13.9,9.4,15,9.1,16.9,9C19,8.9,19.7,8.9,25,8.9 M25,5.2
		c-5.4,0-6.1,0-8.2,0.1c-2.1,0.1-3.6,0.4-4.9,0.9c-1.3,0.5-2.4,1.2-3.5,2.3C7.2,9.7,6.6,10.8,6,12.1c-0.5,1.3-0.8,2.7-0.9,4.9
		C5,19.1,5,19.8,5,25.2c0,5.4,0,6.1,0.1,8.2c0.1,2.1,0.4,3.6,0.9,4.9c0.5,1.3,1.2,2.4,2.3,3.5c1.1,1.1,2.2,1.8,3.5,2.3
		c1.3,0.5,2.7,0.8,4.9,0.9c2.1,0.1,2.8,0.1,8.2,0.1s6.1,0,8.2-0.1c2.1-0.1,3.6-0.4,4.9-0.9c1.3-0.5,2.4-1.2,3.5-2.3
		c1.1-1.1,1.8-2.2,2.3-3.5c0.5-1.3,0.8-2.7,0.9-4.9c0.1-2.1,0.1-2.8,0.1-8.2s0-6.1-0.1-8.2c-0.1-2.1-0.4-3.6-0.9-4.9
		c-0.5-1.3-1.2-2.4-2.3-3.5c-1.1-1.1-2.2-1.8-3.5-2.3c-1.3-0.5-2.7-0.8-4.9-0.9C31.1,5.3,30.4,5.2,25,5.2L25,5.2z"/>
	<path class="st0" d="M25,15c-5.7,0-10.3,4.6-10.3,10.3S19.3,35.5,25,35.5s10.3-4.6,10.3-10.3S30.7,15,25,15z M25,31.9
		c-3.7,0-6.7-3-6.7-6.7c0-3.7,3-6.7,6.7-6.7c3.7,0,6.7,3,6.7,6.7C31.7,28.9,28.7,31.9,25,31.9z"/>
	<circle class="st0" cx="35.7" cy="14.6" r="2.4"/>
</g>
</svg>
