<?xml version="1.0" encoding="UTF-8" standalone="no"?>
<!-- Generator: Adobe Illustrator 20.0.0, SVG Export Plug-In . SVG Version: 6.00 Build 0)  -->

<svg
   xmlns:dc="http://purl.org/dc/elements/1.1/"
   xmlns:cc="http://creativecommons.org/ns#"
   xmlns:rdf="http://www.w3.org/1999/02/22-rdf-syntax-ns#"
   xmlns:svg="http://www.w3.org/2000/svg"
   xmlns="http://www.w3.org/2000/svg"
   xmlns:sodipodi="http://sodipodi.sourceforge.net/DTD/sodipodi-0.dtd"
   xmlns:inkscape="http://www.inkscape.org/namespaces/inkscape"
   version="1.1"
   id="Layer_1"
   x="0px"
   y="0px"
   viewBox="0 0 913.2 205.69999"
   xml:space="preserve"
   sodipodi:docname="K-Rauta logo.svg"
   width="913.20001"
   height="205.7"
   inkscape:version="0.92.1 r15371"><metadata
     id="metadata195"><rdf:RDF><cc:Work
         rdf:about=""><dc:format>image/svg+xml</dc:format><dc:type
           rdf:resource="http://purl.org/dc/dcmitype/StillImage" /><dc:title></dc:title></cc:Work></rdf:RDF></metadata><defs
     id="defs193" /><sodipodi:namedview
     pagecolor="#ffffff"
     bordercolor="#666666"
     borderopacity="1"
     objecttolerance="10"
     gridtolerance="10"
     guidetolerance="10"
     inkscape:pageopacity="0"
     inkscape:pageshadow="2"
     inkscape:window-width="1366"
     inkscape:window-height="705"
     id="namedview191"
     showgrid="false"
     inkscape:zoom="0.41064388"
     inkscape:cx="-130.60811"
     inkscape:cy="185.88713"
     inkscape:window-x="-8"
     inkscape:window-y="-8"
     inkscape:window-maximized="1"
     inkscape:current-layer="Layer_1" /><style
     type="text/css"
     id="style160">
	.st0{fill:#422C88;}
	.st1{fill:#F5841F;}
	.st2{fill:#FFFFFF;}
</style><rect
     x="0.30000001"
     y="241.8"
     class="st0"
     width="912"
     height="97.699997"
     id="rect162"
     style="fill:#422c88" /><g
     id="g168"><path
       class="st1"
       d="m 148.4,160.4 c 3.4,0 5.4,-3.4 2.9,-7.2 l -41.5,-54.7 40.7,-49 c 2.9,-3.7 0.6,-7.2 -2.9,-7.2 h -32.1 c -4,0 -6.3,1.7 -8.3,4.6 L 69.4,95.7 V 47.3 c 0,-2.9 -2,-4.9 -4.9,-4.9 H 35.3 c -2.9,0 -4.9,2 -4.9,4.9 v 108.2 c 0,2.9 2,4.9 4.9,4.9 h 29.2 c 2.9,0 4.9,-2 4.9,-4.9 v -53.3 l 37.8,53.5 c 2,2.9 4.3,4.6 8.3,4.6 h 32.9 z M 0.1,197.9 c 0,2.9 2,4.9 4.9,4.9 h 171.8 c 2.9,0 4.9,-2 4.9,-4.9 v -13.5 c 0,-2.9 -2,-4.9 -4.9,-4.9 H 4.9 c -2.9,0 -4.9,2 -4.9,4.9 v 13.5 z m 0,-179.5 c 0,2.9 2,4.9 4.9,4.9 h 171.8 c 2.9,0 4.9,-2 4.9,-4.9 V 4.9 C 181.7,2 179.7,0 176.8,0 H 4.9 C 2,0 0,2 0,4.9 v 13.5 z"
       id="path164"
       inkscape:connector-curvature="0"
       style="fill:#f5841f" /><path
       class="st0"
       d="m 851.9,174.7 c -10.6,0 -18.6,-6 -18.6,-15.5 0,-9.2 8,-15.7 20.9,-15.7 5.2,0 10.9,0.9 16,2.6 v 23.8 c -5.4,2.8 -10.9,4.8 -18.3,4.8 m 23.2,28 h 33.2 c 2.9,0 4.9,-2 4.9,-4.9 v -71 c 0,-45.8 -20,-60.4 -61.8,-60.4 -17.8,0 -39.8,4.6 -48.4,8.9 -3.7,1.7 -3.7,4 -2.6,7.4 l 8,22.6 c 1.1,3.1 3.4,3.7 6.6,2.6 12,-4.3 21.5,-6.6 31.8,-6.6 17.5,0 23.5,5.2 23.5,19.8 v 0.6 c -7.7,-2.6 -16.6,-4.3 -26.6,-4.3 -30.3,0 -55.8,15.7 -55.8,45.5 0,28.1 24.9,42.7 47.2,42.7 14.9,0 25.2,-4.9 35.2,-12.6 v 4.9 c -0.1,2.8 1.9,4.8 4.8,4.8 M 762.3,106 c 4,0 5.7,-1.1 6.9,-5.2 L 776.1,75 c 0.9,-3.4 -0.6,-5.7 -4,-5.7 H 743.5 V 23.5 c 0,-3.2 -1.7,-4.6 -4,-4.6 -1.1,0 -2.3,0.3 -3.4,0.9 L 701,39.3 c -2.6,1.4 -4.3,4.3 -4.3,7.2 v 22.9 h -16.3 c -2.9,0 -4.9,2 -4.9,4.9 v 26.9 c 0,2.9 2,4.9 4.9,4.9 h 16.3 v 54.7 c 0,29.2 14,44.9 46.1,44.9 10.9,0 23.8,-3.1 28.9,-6 3.7,-2 3.1,-4.3 2.6,-6.9 L 768,167.6 c -0.9,-2.9 -2.6,-3.4 -5.4,-2.9 -1.4,0.3 -5.7,1.4 -8.6,1.4 -6.6,0 -10.6,-3.7 -10.6,-11.7 V 106 Z M 657.1,71 c 0,-3.4 -2.3,-4.9 -5.7,-4.3 l -35.8,5.4 c -3.4,0.6 -4.9,2.9 -4.9,6.3 V 160 c -4.6,3.7 -11.5,5.7 -17.5,5.7 -11.7,0 -17.8,-7.2 -17.8,-24.9 V 71 c 0,-3.4 -2.3,-4.9 -5.7,-4.3 L 534,72.2 c -3.4,0.6 -4.9,2.9 -4.9,6.3 v 73.6 c 0,36.9 21.5,53.5 44.9,53.5 15.5,0 27.8,-6 36.6,-14.9 v 7.2 c 0,2.9 2,4.9 4.9,4.9 h 36.6 c 2.9,0 4.9,-2 4.9,-4.9 V 71 Z M 444.4,174.7 c -10.6,0 -18.6,-6 -18.6,-15.5 0,-9.2 8,-15.7 20.9,-15.7 5.2,0 10.9,0.9 16,2.6 v 23.8 c -5.4,2.8 -10.8,4.8 -18.3,4.8 m 23.2,28 h 33.2 c 2.9,0 4.9,-2 4.9,-4.9 v -71 c 0,-45.8 -20,-60.4 -61.8,-60.4 -17.8,0 -39.8,4.6 -48.4,8.9 -3.7,1.7 -3.7,4 -2.6,7.4 l 8,22.6 c 1.1,3.1 3.4,3.7 6.6,2.6 12,-4.3 21.5,-6.6 31.8,-6.6 17.5,0 23.5,5.2 23.5,19.8 v 0.6 c -7.7,-2.6 -16.6,-4.3 -26.6,-4.3 -30.3,0 -55.8,15.7 -55.8,45.5 0,28.1 24.9,42.7 47.2,42.7 14.9,0 25.2,-4.9 35.2,-12.6 v 4.9 c 0,2.8 2,4.8 4.8,4.8 M 262.3,91.9 V 42.4 h 16.3 c 15.5,0 27.5,6.3 27.5,24.9 0,18.6 -12,24.6 -27.5,24.6 z m 54.4,106.3 c 1.7,3.1 3.7,4.6 7.2,4.6 h 44.4 c 3.7,0 5.2,-3.1 3.4,-6.3 l -43.8,-79 c 16.9,-11.2 29.5,-29.2 29.5,-51 0,-44.1 -31.8,-66.4 -76.2,-66.4 h -63.6 c -2.9,0 -4.9,2 -4.9,4.9 v 193 c 0,2.9 2,4.9 4.9,4.9 h 39.8 c 2.9,0 4.9,-2 4.9,-4.9 v -68.7 h 19.2 z"
       id="path166"
       inkscape:connector-curvature="0"
       style="fill:#422c88" /></g><g
     id="g188"><path
       class="st2"
       d="m 232.1,260.6 c 17.4,0 30.2,13.1 30.2,30.2 0,17.1 -12.9,30.2 -30.2,30.2 -17.3,0 -30.2,-13.1 -30.2,-30.2 0,-17.1 12.9,-30.2 30.2,-30.2 z m 0,50.8 c 10.7,0 18.9,-8.6 18.9,-20.5 0,-11.9 -8.3,-20.5 -18.9,-20.5 -10.6,0 -18.8,8.6 -18.8,20.5 0,11.9 8.2,20.5 18.8,20.5 z"
       id="path170"
       inkscape:connector-curvature="0"
       style="fill:#ffffff" /><path
       class="st2"
       d="m 294.9,261.6 c 0.8,0 1.4,0.6 1.4,1.4 v 35.5 c 0,16.9 -8.4,22.5 -19,22.5 -3,0 -5.5,-0.4 -7.4,-1 -1,-0.2 -1.6,-0.7 -1.8,-1.8 l -1.4,-6.5 c -0.2,-1.2 0.4,-1.8 1.5,-1.6 1.3,0.4 4.3,1.2 7.4,1.2 6.9,0 9.9,-3.9 9.9,-13.3 v -35 c 0,-0.8 0.6,-1.4 1.4,-1.4 z"
       id="path172"
       inkscape:connector-curvature="0"
       style="fill:#ffffff" /><path
       class="st2"
       d="m 341.7,307.5 h -24.2 l -4.4,11.5 c -0.3,0.9 -1.1,1.2 -2.1,1.2 h -7.4 c -1,0 -1.7,-0.7 -1.2,-1.9 L 324.3,263 c 0.3,-0.9 1,-1.3 1.9,-1.3 h 7 c 0.9,0 1.6,0.4 1.9,1.3 l 21.9,55.3 c 0.5,1.2 -0.2,1.9 -1.2,1.9 h -7.7 c -1.1,0 -1.7,-0.2 -2.1,-1.2 z m -20.8,-8.9 h 17.4 l -8.8,-22.5 z"
       id="path174"
       inkscape:connector-curvature="0"
       style="fill:#ffffff" /><path
       class="st2"
       d="m 376.6,279.6 v 39.1 c 0,0.8 -0.6,1.4 -1.4,1.4 h -8 c -0.8,0 -1.4,-0.6 -1.4,-1.4 V 263 c 0,-0.8 0.6,-1.4 1.4,-1.4 h 6.9 c 1.1,0 1.7,0.4 2.2,1.2 l 28.8,39.5 V 263 c 0,-0.8 0.6,-1.4 1.4,-1.4 h 7.9 c 0.8,0 1.4,0.6 1.4,1.4 v 55.7 c 0,0.8 -0.6,1.4 -1.4,1.4 h -6.9 c -1.1,0 -1.7,-0.4 -2.2,-1.2 z"
       id="path176"
       inkscape:connector-curvature="0"
       style="fill:#ffffff" /><path
       class="st2"
       d="m 470,296.9 h -7.4 v 21.8 c 0,0.8 -0.6,1.4 -1.4,1.4 h -8 c -0.8,0 -1.4,-0.6 -1.4,-1.4 V 263 c 0,-0.8 0.6,-1.4 1.4,-1.4 h 17.1 c 11.8,0 20.5,6.1 20.5,17.9 0,7.3 -4.4,12.4 -10.2,15.1 l 13.6,23.6 c 0.5,0.9 0.1,1.8 -1,1.8 h -8.8 c -1.1,0 -1.7,-0.3 -2.1,-1.2 z m -0.1,-8.4 c 5.6,0 9.8,-2.6 9.8,-8.8 0,-6.1 -4.1,-8.8 -9.8,-8.8 h -7.2 v 17.5 h 7.2 z"
       id="path178"
       inkscape:connector-curvature="0"
       style="fill:#ffffff" /><path
       class="st2"
       d="m 540.4,307.5 h -24.2 l -4.4,11.5 c -0.3,0.9 -1.1,1.2 -2.1,1.2 h -7.4 c -1,0 -1.7,-0.7 -1.2,-1.9 L 523,263 c 0.3,-0.9 1,-1.3 1.9,-1.3 h 7 c 0.9,0 1.6,0.4 1.9,1.3 l 21.9,55.3 c 0.5,1.2 -0.2,1.9 -1.2,1.9 H 547 c -1.1,0 -1.7,-0.2 -2.1,-1.2 z m -20.8,-8.9 H 537 l -8.8,-22.5 z"
       id="path180"
       inkscape:connector-curvature="0"
       style="fill:#ffffff" /><path
       class="st2"
       d="M 561.8,297.5 V 263 c 0,-0.8 0.6,-1.4 1.4,-1.4 h 8 c 0.8,0 1.4,0.6 1.4,1.4 v 33.9 c 0,9.6 4.9,14.5 12.2,14.5 7.4,0 12.2,-4.9 12.2,-14.5 V 263 c 0,-0.8 0.6,-1.4 1.4,-1.4 h 8 c 0.8,0 1.4,0.6 1.4,1.4 v 34.5 c 0,16.5 -10.4,23.6 -23.1,23.6 -12.4,0 -22.9,-7 -22.9,-23.6 z"
       id="path182"
       inkscape:connector-curvature="0"
       style="fill:#ffffff" /><path
       class="st2"
       d="m 658.5,261.6 c 1,0 1.6,0.5 1.3,1.7 l -1.4,6.6 c -0.2,1 -0.8,1.4 -1.8,1.4 h -13.5 v 47.4 c 0,0.8 -0.6,1.4 -1.4,1.4 h -8 c -0.8,0 -1.4,-0.6 -1.4,-1.4 v -47.4 h -14.5 c -0.8,0 -1.4,-0.6 -1.4,-1.4 V 263 c 0,-0.8 0.6,-1.4 1.4,-1.4 z"
       id="path184"
       inkscape:connector-curvature="0"
       style="fill:#ffffff" /><path
       class="st2"
       d="m 696.1,307.5 h -24.2 l -4.4,11.5 c -0.3,0.9 -1.1,1.2 -2.1,1.2 H 658 c -1,0 -1.7,-0.7 -1.2,-1.9 L 678.7,263 c 0.3,-0.9 1,-1.3 1.9,-1.3 h 7 c 0.9,0 1.6,0.4 1.9,1.3 l 21.9,55.3 c 0.5,1.2 -0.2,1.9 -1.2,1.9 h -7.7 c -1.1,0 -1.7,-0.2 -2.1,-1.2 z m -20.8,-8.9 h 17.4 l -8.8,-22.5 z"
       id="path186"
       inkscape:connector-curvature="0"
       style="fill:#ffffff" /></g></svg>