<?xml version="1.0" encoding="utf-8"?>
<!-- Generator: Adobe Illustrator 21.0.0, SVG Export Plug-In . SVG Version: 6.00 Build 0)  -->
<svg version="1.1" id="Layer_1" xmlns="http://www.w3.org/2000/svg" xmlns:xlink="http://www.w3.org/1999/xlink" x="0px" y="0px"
	 viewBox="0 0 50 50" style="enable-background:new 0 0 50 50;" xml:space="preserve">
<style type="text/css">
	.st0{fill:#333333;}
	.st1{fill:#FFFFFF;}
</style>
<g>
	<g>
		<path class="st1" d="M42.4,5.3H8.2c-1.6,0-3,1.3-3,2.9v34.3c0,1.6,1.3,2.9,3,2.9h34.2c1.6,0,3-1.3,3-2.9V8.2
			C45.3,6.6,44,5.3,42.4,5.3z M17.1,39.5h-6V20.4h6V39.5z M14.1,17.8c-1.9,0-3.5-1.5-3.5-3.5c0-1.9,1.5-3.4,3.5-3.4
			c1.9,0,3.4,1.5,3.4,3.4C17.6,16.2,16,17.8,14.1,17.8z M39.4,39.5h-5.9v-9.3c0-2.2,0-5.1-3.1-5.1c-3.1,0-3.6,2.4-3.6,4.9v9.5h-5.9
			V20.4h5.7V23h0.1c0.8-1.5,2.7-3.1,5.6-3.1c6,0,7.1,4,7.1,9.1V39.5z"/>
	</g>
	<g>
		<path class="st1" d="M47.5,38.8c0.2,0,0.3-0.1,0.3-0.3c0-0.2-0.1-0.3-0.4-0.3H47v1.1h0.2v-0.5h0.2l0,0l0.3,0.5h0.2L47.5,38.8
			L47.5,38.8z M47.4,38.7h-0.2v-0.4h0.2c0.1,0,0.3,0,0.3,0.2C47.7,38.6,47.5,38.7,47.4,38.7z"/>
		<path class="st1" d="M47.4,37.6c-0.6,0-1.1,0.5-1.1,1.1c0,0.6,0.5,1.1,1.1,1.1c0.6,0,1.1-0.5,1.1-1.1C48.4,38.1,48,37.6,47.4,37.6
			z M47.4,39.6c-0.5,0-0.9-0.4-0.9-0.9c0-0.5,0.4-0.9,0.9-0.9c0.5,0,0.9,0.4,0.9,0.9C48.3,39.2,47.9,39.6,47.4,39.6z"/>
	</g>
</g>
</svg>
