<?xml version="1.0" encoding="utf-8"?>
<!-- Generator: Adobe Illustrator 25.3.1, SVG Export Plug-In . SVG Version: 6.00 Build 0)  -->
<svg version="1.1" id="Layer_1" xmlns="http://www.w3.org/2000/svg" xmlns:xlink="http://www.w3.org/1999/xlink" x="0px" y="0px"
	 viewBox="0 0 127.9 127.9" style="enable-background:new 0 0 127.9 127.9;" xml:space="preserve">
<path d="M106.1,125.1h20.6v-5.3h-15.3v-8.4h15.3V106h-15.3v-8.4h15.3v-5.3h-20.6V125.1z M79.9,125.1h5.3V97.6h12.4v-5.3H67.5v5.3
	h12.4V125.1z M46.5,119.7c-6.4,0-11-4.6-11-11c0-6.4,4.6-11,11-11c6.4,0,11,4.6,11,11C57.6,115.1,52.9,119.7,46.5,119.7z
	 M46.5,125.1c9.4,0,16.4-7,16.4-16.4c0-9.4-7-16.4-16.4-16.4c-9.4,0-16.4,7-16.4,16.4S37.2,125.1,46.5,125.1z M11.9,125.1
	c6.1,0,10.1-3.6,10.1-9.2c0-5.8-4.4-7.9-9-9.6c-4-1.4-6.1-2.2-6.1-4.9c0-2.4,1.8-3.8,4.8-3.8c3.2,0,5.1,1.6,5.9,4.8l4.8-2.1
	c-1.3-5-5.2-8.1-10.7-8.1c-6,0-10.1,3.6-10.1,9.2c0,5.8,4.4,7.9,9.1,9.6c3.9,1.4,6,2.2,6,4.9c0,2.4-1.8,3.8-4.7,3.8
	c-3.2,0-5.1-1.6-5.9-4.8L1.2,117C2.5,122,6.4,125.1,11.9,125.1z"/>
<path d="M17.5,81.7c8.6,0,15.1-6.3,15.1-15.1V49h-5.3v17.7c0,5.8-4.2,9.7-9.8,9.7c-5.6,0-9.8-4-9.8-9.7V49H2.4v17.7
	C2.4,75.4,9,81.7,17.5,81.7z"/>
<path d="M3,2.7v32.8H24v-5.3H8.4V2.7H3z"/>
</svg>
