<?xml version="1.0" encoding="utf-8"?>
<!-- Generator: Adobe Illustrator 24.0.2, SVG Export Plug-In . SVG Version: 6.00 Build 0)  -->
<svg version="1.1" id="Layer_1" xmlns="http://www.w3.org/2000/svg" xmlns:xlink="http://www.w3.org/1999/xlink" x="0px" y="0px"
	 width="85px" height="120px" viewBox="0 0 85 120" style="enable-background:new 0 0 85 120;" xml:space="preserve">
<style type="text/css">
	.st0{fill:#2062AF;}
	.st1{fill:#3C9CD7;}
	.st2{fill:#FFFFFF;}
	.st3{fill:url(#SVGID_1_);}
	.st4{fill:url(#SVGID_2_);}
	.st5{fill:url(#SVGID_3_);}
	.st6{opacity:5.000000e-02;}
	.st7{fill:#231F20;}
	.st8{fill:url(#SVGID_4_);}
	.st9{opacity:5.000000e-02;fill:#231F20;enable-background:new    ;}
</style>
<g>
	<g>
		<polygon class="st0" points="74.9,107.7 42.4,116.4 9.9,107.7 2.4,26.4 82.4,26.4 		"/>
		<polygon class="st1" points="42.4,33 42.4,109.5 42.5,109.5 68.8,102.4 74.8,33 		"/>
		<g>
			<polygon points="24,14.5 24,9.7 31,9.7 31,4.4 18.7,4.4 18.7,19.3 31,19.3 31,14.5 			"/>
			<path d="M43.7,9.7h4.9V4.4H36.3c0,0,0,2.7,0,5.3c1.7,1.7,2.5,2.4,4.9,4.8c-1.4,0-4.9,0-4.9,0v4.8h12.3v-4.8L43.7,9.7z"/>
			<path d="M61.2,9.7h4.9V4.4H53.8c0,0,0,2.7,0,5.3c1.7,1.7,2.5,2.4,4.9,4.8c-1.4,0-4.9,0-4.9,0v4.8h12.3v-4.8L61.2,9.7z"/>
		</g>
		<g>
			<polygon class="st2" points="42.4,53.3 19.1,63 19.9,72.6 42.4,63 66.3,52.8 67.3,43 			"/>
			
				<linearGradient id="SVGID_1_" gradientUnits="userSpaceOnUse" x1="30.7291" y1="50.2066" x2="30.7291" y2="69.4858" gradientTransform="matrix(1 0 0 -1 0 122.8132)">
				<stop  offset="0.3865" style="stop-color:#D1D3D4;stop-opacity:0"/>
				<stop  offset="1" style="stop-color:#D1D3D4"/>
			</linearGradient>
			<polygon class="st3" points="19.1,63 19.9,72.6 42.4,63 42.4,53.3 			"/>
			
				<linearGradient id="SVGID_2_" gradientUnits="userSpaceOnUse" x1="54.8291" y1="59.8066" x2="54.8291" y2="79.8463" gradientTransform="matrix(1 0 0 -1 0 122.8132)">
				<stop  offset="0.3865" style="stop-color:#D1D3D4;stop-opacity:0"/>
				<stop  offset="1" style="stop-color:#D1D3D4"/>
			</linearGradient>
			<polygon class="st4" points="67.3,43 42.4,53.3 42.4,63 66.3,52.8 			"/>
			
				<linearGradient id="SVGID_3_" gradientUnits="userSpaceOnUse" x1="19.0791" y1="41.6066" x2="65.3791" y2="41.6066" gradientTransform="matrix(1 0 0 -1 0 122.8132)">
				<stop  offset="0" style="stop-color:#E8E7E5"/>
				<stop  offset="1" style="stop-color:#FFFFFF"/>
			</linearGradient>
			<polygon class="st5" points="19.1,63 19.9,72.6 54.4,72.7 53.7,85.5 42.3,88.7 31.4,85.9 30.7,78 20.6,78 21.9,93.3 42.4,99.4 
				62.8,93.4 65.4,63 			"/>
			<g class="st6">
				<polygon class="st7" points="42.4,63 19.1,63 19.9,72.6 42.4,72.7 				"/>
				<polygon class="st7" points="42.4,88.7 42.3,88.7 31.3,85.9 30.7,78 20.5,78 21.9,93.3 42.4,99.4 				"/>
			</g>
			
				<linearGradient id="SVGID_4_" gradientUnits="userSpaceOnUse" x1="16.9791" y1="74.9066" x2="67.2791" y2="74.9066" gradientTransform="matrix(1 0 0 -1 0 122.8132)">
				<stop  offset="0" style="stop-color:#E8E7E5"/>
				<stop  offset="1" style="stop-color:#FFFFFF"/>
			</linearGradient>
			<polygon class="st8" points="17,43 67.3,43 66.3,52.8 18.2,52.8 			"/>
			<polygon class="st9" points="42.4,43 17,43 18.2,52.8 42.4,52.8 			"/>
		</g>
	</g>
</g>
</svg>
