<?xml version="1.0" encoding="utf-8"?>
<!-- Generator: Adobe Illustrator 24.0.2, SVG Export Plug-In . SVG Version: 6.00 Build 0)  -->
<svg version="1.1" id="Layer_1" xmlns="http://www.w3.org/2000/svg" xmlns:xlink="http://www.w3.org/1999/xlink" x="0px" y="0px"
	 width="105px" height="120px" viewBox="0 0 105 120" style="enable-background:new 0 0 105 120;" xml:space="preserve">
<style type="text/css">
	.st0{fill:#E44F26;}
	.st1{fill:#F1662A;}
	.st2{fill:#FFFFFF;}
	.st3{fill:#EBEBEB;}
</style>
<g id="code_x5F_html5">
	<g>
		<polygon class="st0" points="92.5,25.5 52.5,25.5 52.5,25.5 12.5,25.5 20,107.4 52.5,116.7 52.5,116.7 52.5,116.7 52.5,116.7 
			52.5,116.7 85,107.4 		"/>
		<path d="M29.5,8.4h-4.7V3.3h-5.1v15.3h5.1v-5.1h4.7v5.1h5.1V3.3h-5.1V8.4z M65.4,3.3h-0.5l-3.2,5.2l-3.2-5.2h-0.4h-4.6h-0.2v15.3
			h5V11l3.5,5.5l0,0l0,0l0,0l0,0l3.6-5.7v7.8h5V3.3h-0.3H65.4z M36.9,8.5h4.5v10.1h5.1V8.5H51V3.4H36.9V8.5z M78.1,13.5V3.3H73v15.3
			h1.3h3.8h7.2v-5.1H78.1z"/>
		<polygon class="st1" points="52.5,32.2 52.5,109.8 52.5,109.8 79,102.2 85.5,32.2 		"/>
		<polygon class="st2" points="77.8,42.2 27.2,42.2 30,72.9 30,72.7 64.7,72.7 63.5,85.7 52.5,88.9 41.3,85.6 40.6,77.8 30.4,77.8 
			31.9,93.5 52.5,99.3 73.1,93.5 75.9,62.7 39.2,62.7 38.3,52.4 76.9,52.4 		"/>
		<g>
			<path class="st3" d="M52.5,42.2H27.2L30,72.9l0.1-0.2h22.4v-10H39.2l-0.9-10.3h14.2V42.2z M40.6,77.8H30.4l1.5,15.7l20.6,5.8
				V88.9l-11.2-3.2L40.6,77.8z"/>
		</g>
	</g>
</g>
</svg>
