<?xml version="1.0" encoding="utf-8"?>
<!-- Generator: Adobe Illustrator 24.0.2, SVG Export Plug-In . SVG Version: 6.00 Build 0)  -->
<svg version="1.1" id="Layer_1" xmlns="http://www.w3.org/2000/svg" xmlns:xlink="http://www.w3.org/1999/xlink" x="0px" y="0px"
	 width="393.2px" height="355.8px" viewBox="0 0 393.2 355.8" style="enable-background:new 0 0 393.2 355.8;" xml:space="preserve"
	>
<style type="text/css">
	.st0{fill:#FDB300;}
	.st1{fill:#EA6C00;}
	.st2{fill:#FDAD00;}
	.st3{fill:#FDD231;}
	.st4{fill:#FEEEB7;}
</style>
<g>
	<path class="st0" d="M85.8,11.7L196.6,0l110.8,11.7l85.8,115.2L196.6,355.8L0,126.9L85.8,11.7z"/>
	<g transform="translate(59.000000, 211.881084)">
		<polygon class="st1" points="20.6,-85 137.6,143.9 -59,-85 		"/>
		<polygon class="st1" points="254.6,-85 137.6,143.9 334.2,-85 		"/>
		<polygon class="st2" points="20.6,-85 254.6,-85 137.6,143.9 		"/>
	</g>
	<g transform="translate(59.000000, 85.000000)">
		<polygon class="st3" points="137.6,-85 26.8,-73.3 20.6,41.9 		"/>
		<polygon class="st3" points="137.6,-85 248.4,-73.3 254.6,41.9 		"/>
		<polygon class="st2" points="334.2,41.9 248.4,-73.3 254.6,41.9 		"/>
		<polygon class="st2" points="-59,41.9 26.8,-73.3 20.6,41.9 		"/>
		<polygon class="st4" points="137.6,-85 20.6,41.9 254.6,41.9 		"/>
	</g>
</g>
</svg>
