<?xml version="1.0" encoding="utf-8"?>
<!-- Generator: Adobe Illustrator 22.1.0, SVG Export Plug-In . SVG Version: 6.00 Build 0)  -->
<svg version="1.1" id="Layer_1" xmlns="http://www.w3.org/2000/svg" xmlns:xlink="http://www.w3.org/1999/xlink" x="0px" y="0px"
	 width="512px" height="512px" viewBox="0 0 512 512" style="enable-background:new 0 0 512 512;" xml:space="preserve">
<style type="text/css">
	.st0{fill:#FDB300;}
	.st1{fill:#EA6C00;}
	.st2{fill:#FDAD00;}
	.st3{fill:#FDD231;}
	.st4{fill:#FEEEB7;}
</style>
<g>
	<path class="st0" d="M144.8,96.7L255.6,85l110.8,11.7l85.8,115.2L255.6,440.8L59,211.9L144.8,96.7z"/>
	<g transform="translate(59.000000, 211.881084)">
		<polygon class="st1" points="79.6,0 196.6,228.9 0,0 		"/>
		<polygon class="st1" points="313.6,0 196.6,228.9 393.2,0 		"/>
		<polygon class="st2" points="79.6,0 313.6,0 196.6,228.9 		"/>
	</g>
	<g transform="translate(59.000000, 85.000000)">
		<polygon class="st3" points="196.6,0 85.8,11.7 79.6,126.9 		"/>
		<polygon class="st3" points="196.6,0 307.4,11.7 313.6,126.9 		"/>
		<polygon class="st2" points="393.2,126.9 307.4,11.7 313.6,126.9 		"/>
		<polygon class="st2" points="0,126.9 85.8,11.7 79.6,126.9 		"/>
		<polygon class="st4" points="196.6,0 79.6,126.9 313.6,126.9 		"/>
	</g>
</g>
</svg>
