<?xml version="1.0" encoding="utf-8"?>
<!-- Generator: Adobe Illustrator 22.1.0, SVG Export Plug-In . SVG Version: 6.00 Build 0)  -->
<svg version="1.1" id="Layer_1" xmlns="http://www.w3.org/2000/svg" xmlns:xlink="http://www.w3.org/1999/xlink" x="0px" y="0px"
	 width="107px" height="40px" viewBox="0 0 107 40" style="enable-background:new 0 0 107 40;" xml:space="preserve">
<style type="text/css">
	.st0{fill:#FFFFFF;}
</style>
<g id="Muoto_1_1_">
	<path class="st0" d="M53.5,19.9c-0.1,0.1-0.2,0.2-0.3,0.2c-0.2,0-0.2,0.2-0.2,0.4c0,0,0,0.1,0,0.1c0.2-0.1,0.2,0.1,0.3,0.2
		c0.1,0.2,0.4,0.3,0.5,0.4c0.2,0.1,0.4,0.3,0.5,0.5c0.1,0.2,0.3,0.3,0.4,0.5c0.1,0.1,0.3,0.1,0.2,0.3c0,0-0.1,0-0.1-0.1
		c0,0-0.1,0-0.1,0c0,0,0.1,0,0.1,0.1c0,0,0.1,0,0.1,0.1c0.1,0.3,0.3,0.4,0.5,0.5c0.2,0.1,0.2,0.3,0.3,0.4c0.1,0.1,0.2,0.3,0.2,0.5
		c0,0.1,0,0.2,0.1,0.3c0.1,0.1,0.1,0.2,0.1,0.3c0,0.1,0,0.2,0,0.3c0,0,0.1,0.1,0.1,0.1c0,0,0-0.1,0-0.1c0,0,0-0.1,0-0.1
		c0,0,0,0.1,0,0.1c0,0.2,0.1,0.4,0,0.6c0,0.2,0,0.4,0.1,0.5c0,0.1,0.4,0.1,0.5,0c0.1-0.2,0.3-0.5,0.4-0.7c0.3-0.5,0.7-0.9,1.2-1.3
		c0.3-0.2,0.6-0.4,0.9-0.7c0,0,0-0.1,0.1-0.1c0.1-0.1,0.2-0.1,0.3-0.2c0,0,0-0.1,0.1-0.1c0,0-0.1,0-0.1,0c-0.1,0-0.1-0.1-0.2-0.1
		c0,0,0.1,0,0.1-0.1c0.4-0.3,0.9-0.2,1.4-0.3c0.2-0.1,0.4-0.1,0.6-0.1c0.1,0,0.2,0,0.1,0.2c-0.1,0.2,0.1,0.4,0.1,0.6
		c0,0,0,0.1,0,0.1c-0.1,0.2-0.2,0.4-0.3,0.6c-0.1,0.2-0.3,0.4-0.3,0.6c0,0.1,0,0.2-0.1,0.3c0,0.1-0.1,0.1-0.1,0.2c0,0.3,0,0.7,0.1,1
		c0.1,0.2,0.2,0.5,0.4,0.7c0.3,0.1,0.6,0.1,0.8,0c0.4-0.1,0.8-0.3,1.2-0.5c0.2-0.1,0.4-0.2,0.6-0.3c0.2-0.1,0.3-0.3,0.5-0.5
		c0.1-0.1,0.1-0.3,0.3-0.4c0.1-0.1,0.3-0.3,0.3-0.4c0.1-0.4,0.3-0.8,0-1.2c0,0,0-0.1,0-0.1c0,0,0.1,0,0.1,0c0,0,0.2,0.2,0.1,0
		c-0.1-0.2,0.1-0.3,0.1-0.5c0.1,0,0.1,0,0.2,0c0.1,0,0.2,0,0.2,0.1c0,0.2-0.1,0.1-0.2,0.1c0,0-0.1,0.1-0.1,0.1c0.1,0,0.1,0,0.2,0
		c0,0,0.1,0,0.1,0c0,0.1,0,0.1,0.1,0.2c0.1,0.1,0.1,0,0.1,0c0.1,0,0.1,0.1-0.1,0.2c0,0-0.1,0.1-0.1,0.1c0.2,0.3,0.1,0.6,0.1,0.8
		c0,0.2,0,0.4,0.2,0.5c0,0,0,0.1,0,0.1c-0.1,0.3,0.1,0.5,0.3,0.7c0.1,0.2,0.4,0.3,0.6,0.4c0.1,0.1,0.3,0.1,0.4,0
		c0.2-0.1,0.4-0.2,0.6-0.3c0.1-0.1,0.2-0.4,0.2-0.5c0,0,0-0.1,0.1-0.1c0,0,0,0.1,0,0.1c0.1,0,0.2-0.1,0.2-0.1
		c-0.1-0.3,0.1-0.4,0.3-0.6c0,0,0.1-0.1,0.1-0.2c0-0.2,0-0.3,0.2-0.4c0,0,0-0.1,0-0.2c0-0.1,0-0.2,0.1-0.2c0.3-0.1,0.3-0.3,0.4-0.5
		c0.1-0.1,0.3-0.2,0.4-0.2c0,0,0.1,0.1,0.1,0.1c0,0.2,0,0.3-0.1,0.4c-0.1,0.2,0,0.4-0.2,0.5c0,0,0,0,0,0c0.1,0.3,0,0.6,0,0.9
		c0,0.2,0.2,0.3,0.1,0.4c-0.1,0.2,0.2,0.2,0.2,0.4c0,0,0.1,0.1,0.1,0.1c0.1,0.1,0.1,0.2,0.1,0.3c0.2-0.2,0.3,0.1,0.5,0
		c0,0,0.1,0,0.1-0.1c0.2-0.2,0.4-0.5,0.6-0.7c0.1-0.1,0.2-0.2,0.3-0.3c0.2-0.1,0.3-0.3,0.3-0.6c0-0.1,0-0.2,0-0.2
		c0.3-0.1,0.3-0.5,0.5-0.7c0,0,0.1,0,0.1-0.1c0,0,0,0.1,0,0.1c0,0-0.1,0.1-0.1,0.1c0,0,0,0,0,0.1c0,0,0.1,0,0.1,0
		c0.1,0,0.2-0.1,0.3-0.1c0.2,0,0.5-0.1,0.7-0.1c0.3-0.1,0.4-0.4,0.8-0.2c0.1-0.1,0.3-0.2,0.5-0.2c0.2,0,0.5,0,0.6,0.2
		c0.1,0.1,0.2,0.2,0.3,0.2c0.1,0.1,0.1,0.1,0,0.2c0,0-0.1,0.1-0.1,0.1c0.2,0.3-0.2,0.5-0.2,0.7c0,0.1-0.1,0.1-0.1,0.2
		c-0.1,0.1,0,0.2,0.1,0.3c0.1,0.1,0.2,0.1,0.3,0c0.1,0,0.2-0.1,0.3-0.1c0.3-0.1,0.2-0.3,0.3-0.5c0.1,0.1,0.1,0.1,0.1,0.1
		c0,0,0,0,0.1-0.1c-0.1,0-0.1-0.1-0.2-0.1c0.1-0.3,0.2-0.5,0.3-0.8c0,0,0.1-0.1,0.2-0.1c0-0.1,0-0.2,0.1-0.3
		c0.1-0.1,0.1-0.2,0.2-0.2c0,0,0-0.1,0-0.1c0.5,0,0.8-0.5,1.3-0.4c0.3,0.1,0.6-0.1,0.9,0.1c0.3,0.2,0.6,0.2,0.9,0.5
		c0.1,0.1,0.3,0.2,0.2,0.4c0,0.1,0.1,0.3,0.2,0.4c0,0.2,0,0.4-0.1,0.4c-0.2,0.2-0.2,0.5-0.5,0.5c-0.1,0-0.1,0.1-0.2,0.2
		c-0.2,0.2-0.3,0.4-0.6,0.4c0,0,0,0-0.1,0c0,0,0,0,0.1,0c0.2,0,0.3,0,0.5,0c0.1,0,0.2-0.1,0.3-0.1c0.1,0,0.2-0.2,0.3,0
		c0,0,0.1-0.1,0.2-0.1c0.2-0.1,0.3-0.1,0.5-0.2c0.1-0.1,0.2-0.2,0.2-0.3c0.1-0.2,0.2-0.5,0.3-0.7c0,0,0.1,0,0.1-0.1c0,0,0,0.1,0,0.1
		c0,0.1-0.1,0.2-0.1,0.4c0,0.1,0,0.1-0.1,0.2c0,0,0,0.1,0,0.1c0,0,0-0.1,0.1-0.1c0-0.1,0-0.1,0.1-0.2c0.2-0.2,0.4-0.4,0.2-0.7
		c0,0,0.1-0.1,0.1-0.2c0,0,0,0.1,0,0.1c0,0,0.1,0,0.1,0c0.1-0.2,0.1-0.3,0.1-0.5c0.1-0.2,0.3-0.1,0.4-0.2c0.1,0,0.3,0.1,0.3,0.2
		c-0.1,0.2-0.1,0.5-0.2,0.7c-0.1,0.2-0.2,0.5-0.1,0.8c0,0,0,0,0,0c-0.2,0.3,0.1,0.4,0.2,0.6c0.1,0.2,0.3,0.2,0.4,0
		c0.1-0.2,0.3-0.3,0.3-0.5c0.1-0.2,0.3-0.1,0.4-0.3c0.1,0.1,0.2,0.1,0.3,0.2c-0.1,0.1-0.2,0.1-0.3,0.2c0,0,0,0.1,0,0.1
		c0,0,0-0.1,0-0.1c0.1,0,0.2,0,0.2,0c0,0,0.1,0.1,0,0.1c0,0.1-0.1,0.2-0.1,0.3c-0.2,0.2-0.4,0.5-0.5,0.7c-0.2,0.3-0.5,0.3-0.8,0.1
		c-0.2-0.1-0.5-0.1-0.5-0.4c0,0,0,0-0.1-0.1c0,0-0.1,0-0.1,0c-0.3,0.1-0.5-0.3-0.8-0.1c-0.2,0.1-0.5,0.2-0.8,0.2
		c-0.2,0.1-0.4,0.2-0.6,0.2c0,0-0.1,0-0.1,0c-0.3-0.1-0.6,0-1,0.1c0,0-0.1,0-0.1-0.1c-0.2,0-0.3-0.1-0.4,0.1
		c-0.1,0.1-0.2,0.1-0.3,0.1c-0.3,0-0.5,0.1-0.6,0.4c0,0.1-0.2-0.1-0.2,0.1c0,0.1,0.1,0.2,0.1,0.3c0,0.1-0.1,0.1-0.1,0.2
		c-0.1,0.2-0.3,0.3-0.3,0.5c0,0.2-0.1,0.3-0.1,0.5c0,0.1-0.1,0.2-0.2,0.4c0,0.1,0,0.2,0,0.3c0,0.2-0.1,0.4-0.2,0.6
		c-0.1,0.1-0.2,0.7-0.2,0.8c0,0.3-0.1,0.5-0.2,0.7c-0.1,0.1-0.2,0.3-0.1,0.4c-0.3,0.1-0.1,0.2-0.1,0.4c0,0.1,0,0.2-0.1,0.2
		c-0.2,0.2-0.2,0.5-0.2,0.7c0,0.4-0.1,0.5-0.5,0.5c-0.1,0-0.1,0.2-0.2,0c-0.1-0.1-0.2-0.2-0.2-0.3c0-0.3,0.1-0.7,0.1-1
		c0-0.1,0-0.2,0.1-0.3c0,0,0-0.1,0-0.1c0.3-0.5,0.3-0.7,0.3-1.2c0-0.1,0-0.2,0-0.2c0.3-0.3,0.3-0.7,0.4-1.1c0.1-0.2,0-0.4,0.1-0.6
		c0.1-0.2,0.2-0.4,0.3-0.6c0.1-0.1-0.1-0.3,0.1-0.3c0,0,0.1,0,0.1,0c0,0-0.1,0-0.1,0c0-0.2,0.1-0.4,0.1-0.6c0-0.2,0.1-0.3,0.2-0.4
		c-0.2-0.2,0-0.3,0.1-0.4c0.1-0.2,0.1-0.4,0-0.5c-0.1-0.1-0.2-0.2,0-0.2c0,0,0.1-0.1,0.1-0.1c0,0-0.1-0.1-0.1-0.1
		c-0.1,0-0.2,0-0.3,0.1c-0.3,0.1-0.7,0-0.9,0.2C75.1,25.9,75,26,75,26c0,0.2-0.2,0.3-0.3,0.3c-0.2,0.1-0.3,0.2-0.4,0.3
		c-0.3,0.3-0.6,0.8-1.1,0.8c-0.2,0-0.5,0.1-0.7,0.1c-0.2,0-0.4,0.2-0.5,0.4c0,0.2-0.1,0.3-0.2,0.4c-0.3,0.2-0.2,0.6-0.4,0.9
		c-0.1,0.2-0.1,0.5-0.2,0.7c0,0-0.1,0-0.1,0.1c0,0.2,0,0.4-0.1,0.4c-0.2,0.1,0.1,0.3-0.1,0.3c0,0,0,0.1,0,0.1C71,31,71,31,71,31
		c0.2,0.3-0.1,0.5-0.1,0.8c0,0.1,0,0.2-0.1,0.3c-0.1,0.3-0.2,0.8-0.2,1.1c0,0,0,0.1,0,0.1c0,0.2-0.1,0.3-0.1,0.5
		c0,0.2-0.1,0.3-0.3,0.4c-0.2,0-0.3-0.1-0.4-0.2c-0.1-0.1-0.3-0.2-0.1-0.4c-0.2-0.4,0.1-0.7,0.1-1c0,0,0-0.2,0.1-0.1
		c0,0,0.1,0,0.1,0c0,0,0-0.1-0.1-0.1c-0.2-0.1,0.1-0.3-0.1-0.5c0,0,0,0,0.1,0c0.2,0,0.2,0,0.1-0.2c-0.1-0.3,0-0.5,0.1-0.7
		c0.1-0.1,0.1-0.2-0.1-0.2c0,0,0-0.1,0-0.1c0-0.1,0.1-0.1,0.1-0.2c0.1-0.3,0.3-0.6,0.1-0.9c0,0,0-0.1,0-0.1c0,0,0.1,0,0.1,0.1
		c0,0,0,0,0,0.1c0,0,0-0.1,0-0.1c0-0.2,0-0.4,0.2-0.5c0.1-0.1,0.1-0.3,0-0.4c0.1-0.1,0.2-0.1,0.2-0.2c0-0.3,0.1-0.6,0.2-0.9
		c0.1-0.1,0-0.3,0-0.5c0,0,0-0.1,0-0.1c0-0.1,0-0.1-0.1-0.1c-0.2,0-0.4,0-0.6-0.2c0,0-0.1,0-0.1,0c0,0,0,0.1,0.1,0.1
		c0,0,0,0.1,0,0.1c0,0-0.1,0-0.1,0c0,0,0,0,0,0c-0.1-0.2-0.3-0.4-0.5-0.6c-0.1-0.1-0.2-0.3-0.4-0.3c-0.1,0-0.2-0.2-0.3,0.1
		c0,0.1-0.2,0.2-0.3,0.3c-0.1,0.1-0.3,0.2-0.4,0.3c-0.2,0.1-0.4,0.1-0.5,0.1c-0.4,0-0.7,0-1.1-0.2c-0.2-0.1-0.4-0.2-0.5-0.4
		c0-0.1-0.1-0.1-0.1-0.1c-0.1,0-0.2-0.1-0.2-0.2c0,0,0,0-0.1-0.1c0,0-0.1,0.1-0.1,0.1c0,0-0.1,0.1-0.1,0.1c-0.3-0.1-0.5,0.1-0.6,0.2
		c-0.3,0.4-0.7,0.6-1.2,0.8c-0.3,0.1-0.6,0.2-0.8,0.4c-0.5,0-1.1,0.1-1.6-0.1c-0.1,0-0.1,0-0.2-0.1c-0.2-0.3-0.5-0.5-0.8-0.6
		c-0.1,0-0.1-0.1-0.2-0.1c-0.1-0.1-0.2-0.1-0.3,0c0,0,0,0-0.1,0.1c0,0,0.1,0,0.1,0c0,0,0.1,0,0.1,0c0,0-0.1,0.1-0.1,0.1
		c-0.3-0.1-0.3,0.3-0.6,0.3c0,0-0.1,0-0.1,0.1c0.1,0.4-0.4,0.5-0.5,0.7c0,0-0.1,0.1-0.2,0.1c-0.4,0.2-0.8,0.1-1.3,0.1
		c0,0-0.1,0-0.1,0c-0.2-0.2-0.3-0.3-0.5-0.5c-0.1-0.1-0.3-0.2-0.4-0.1c-0.2,0.1-0.5,0-0.7,0c0,0-0.1-0.1-0.1-0.1c0-0.2,0-0.4,0-0.6
		c-0.1-0.2-0.1-0.2-0.1-0.3c0-0.2,0-0.3-0.1-0.5c0,0-0.1,0-0.2-0.1c-0.1-0.1,0.1-0.2,0-0.3c0,0,0.1-0.2,0-0.2
		c-0.1-0.2-0.1-0.5-0.2-0.7c-0.1-0.2-0.3-0.3-0.2-0.5c0,0-0.1-0.2-0.2-0.3c-0.1-0.1-0.1-0.2-0.1-0.3c0-0.1,0-0.2-0.2-0.1
		c0,0-0.1,0-0.1-0.1c-0.1-0.3-0.2-0.5-0.5-0.7c0,0-0.1,0-0.1-0.1c0-0.5-0.4-0.6-0.7-0.8c-0.2-0.1-0.3-0.3-0.6-0.3c0,0,0,0,0,0
		c0.1-0.2,0.1-0.2-0.1-0.2c-0.2,0.1-0.1-0.2-0.3-0.2c-0.3,0-0.6,0.1-0.9,0.2c-0.3,0.2-0.3,0.2-0.4,0.2c-0.1,0-0.1,0-0.2,0.1
		c-0.2,0.1-0.4,0.1-0.6,0.2c-0.3,0.1-0.5,0.2-0.7,0.4c-0.1,0.1-0.1,0.3-0.1,0.4c-0.1,0.3-0.3,0.6-0.4,0.8c-0.1,0.1-0.1,0.2-0.1,0.4
		c-0.1,0.3-0.6,1.2-0.8,1.4c-0.1,0.1-0.1,0.2-0.1,0.2c0,0.2-0.1,0.4-0.2,0.6c-0.1,0.2-0.3,0.4-0.4,0.6c-0.1,0.2-0.2,0.4-0.3,0.6
		c-0.1,0.1,0,0.3-0.2,0.3c0,0,0,0.1,0,0.2c0,0.2,0.1,0.4,0,0.7c-0.1,0.2-0.4,0.3-0.6,0.2c-0.2-0.2-0.3-0.4-0.2-0.7
		c0.1-0.1,0.1-0.3,0.1-0.4c0-0.2,0.1-0.4,0.3-0.5c0,0,0.1-0.1,0.1-0.1c-0.1-0.2,0.2-0.3,0.2-0.5c0.2,0,0-0.3,0.2-0.3
		c0,0,0.1-0.2,0.1-0.2c0-0.1,0-0.1,0.1,0c0-0.1,0.1-0.1,0.1-0.2c0-0.4,0.1-0.3,0.3-0.8c0.1-0.3,0.3-0.5,0.3-0.8
		c0-0.1,0.2-0.2,0.2-0.4c0-0.2,0.2-0.4,0.3-0.6c0.1-0.1-0.1-0.3,0.1-0.4c-0.1-0.3,0.2-0.3,0.4-0.5c0,0,0-0.1,0-0.1c0,0,0,0.1,0,0.1
		c-0.1-0.2-0.1-0.3,0-0.3c0.3-0.1,0.2-0.2,0.2-0.4c0,0,0-0.1,0.1-0.1c0,0,0.1,0,0.1,0c0,0-0.1,0-0.1,0c0-0.1,0-0.1,0.1-0.2
		c0.1-0.1,0.2-0.2,0.2-0.4c0-0.2,0-0.4,0.1-0.5c0.1-0.2,0.2-0.3,0.2-0.5c0-0.1,0.1-0.2,0.1-0.2c0.3-0.3,0.4-0.8,0.5-1.2
		c0-0.1,0.1-0.1,0.1-0.2c0.1-0.1,0.1-0.3,0.1-0.5c0-0.2,0-0.3,0.1-0.5c0-0.2,0.1-0.3,0.1-0.5c0-0.2,0-0.2,0.1-0.4c0-0.1,0-0.3,0-0.5
		c0-0.2,0.1-0.5,0.2-0.7c0-0.1,0.1-0.2,0-0.4c0,0,0-0.1,0-0.2c0.1-0.3,0.1-0.5,0-0.8c0-0.2,0.1-0.5,0.1-0.7c0-0.3,0-0.7,0-1
		c0-0.2,0-0.4-0.2-0.4c0.1-0.1-0.3-0.2,0-0.3c0,0,0-0.1-0.1-0.1c-0.1,0-0.3,0-0.4,0c0,0,0,0.1,0,0.1c0,0,0,0.1,0,0.1
		c0,0-0.1,0-0.1-0.1c-0.1-0.1,0-0.5,0.2-0.5c0.1,0,0.2-0.1,0.3-0.2c0.1-0.1,0.7-0.2,0.8-0.1c0.1,0.2,0.2,0.4,0.3,0.6
		c0,0.1,0.1,0.3,0,0.4c-0.2,0.2,0,0.5,0,0.7c0,0.2,0,0.4,0,0.6c0,0.2,0,0.5,0.1,0.7c0,0.1,0,0.2,0,0.3c-0.1,0.1-0.1,0.2-0.1,0.3
		c0.1,0.3,0,0.6-0.1,0.9c0,0.1,0,0.3,0,0.5c0,0.2,0,0.3,0,0.5c0,0.2,0,0.4-0.1,0.6c0,0.1,0,0.2,0,0.3c0,0.2,0,0.4-0.1,0.5
		c-0.1,0.2-0.1,0.4,0,0.7c0.1,0.2,0,0.4-0.2,0.6c-0.3,0.4-0.4,1-0.5,1.4c0,0-0.1,0.1-0.1,0.1c-0.1,0.1-0.1,0.1-0.1,0.2
		c0,0.1-0.1,0.3-0.2,0.4c0,0,0,0.1-0.1,0.1c0,0,0.1,0.1,0.1,0c0.2,0,0.4-0.1,0.6-0.2c0.4-0.2,0.8-0.3,1.1-0.5c0.1,0,0.6-0.4,0.7-0.5
		c0.2-0.2,0.4-0.3,0.6-0.5c0.1-0.1,0.3-0.1,0.1-0.3c0,0,0.1-0.1,0.1-0.1c0.4-0.2,0.6-0.5,0.8-0.9c0,0,0-0.1,0-0.1
		c0.3-0.1,0.3-0.5,0.5-0.7c0,0,0-0.1,0-0.2c0-0.2,0-0.4,0.3-0.4c0.1,0,0.1-0.1,0.1-0.3c-0.1-0.1,0-0.3,0.2-0.5
		c0.1-0.1,0.2-0.1,0.1-0.3c0,0,0-0.1,0.1-0.1c0.1-0.1,0.3-0.5,0.3-0.7c0,0,0,0,0,0c0.4-0.3,0.2-0.8,0.6-1.1c0.1-0.1,0.1-0.3,0.1-0.4
		c0-0.1,0-0.2,0-0.2c0.2-0.1,0.3-0.3,0.3-0.5c0-0.1,0.3-0.3,0.5-0.3c0,0,0,0,0.1,0c0,0,0,0.1-0.1,0.1c-0.1,0-0.2,0.1-0.2,0.3
		c0,0,0,0.1,0,0.1c0,0,0-0.1,0-0.1c0.1,0,0.1,0,0.1,0c0,0.1,0.1,0.3,0.1,0.3c-0.2,0.2-0.1,0.3-0.1,0.5c0,0-0.1,0.1-0.1,0.1
		c-0.1,0.1-0.1,0.1-0.2,0.1c0,0,0.1,0,0.1,0.1c0,0.1-0.1,0.2-0.1,0.2c-0.2,0.1-0.5,0.5-0.5,0.7c0,0.3-0.2,0.6-0.3,0.8
		c-0.1,0.3-0.2,0.6-0.5,0.8c0,0,0,0.1,0,0.1c-0.1,0.3-0.2,0.7-0.4,1c0,0,0,0.1,0,0.1c-0.1,0-0.3-0.2-0.3,0.1c0,0.2-0.2,0.1-0.3,0.2
		c0,0.1-0.1,0.2-0.1,0.2c0,0.2-0.2,0.3-0.3,0.4c-0.1,0.1-0.2,0.3-0.3,0.4c-0.1,0.2-0.2,0.3-0.4,0.5C53.8,19.6,53.7,19.8,53.5,19.9
		C53.5,19.9,53.4,19.9,53.5,19.9C53.4,19.9,53.5,19.9,53.5,19.9 M73.6,26.3c0.1,0.1,0.1,0.1,0,0.2c-0.1,0.1-0.1,0.2-0.2,0.2
		c0,0-0.1,0-0.1,0c0,0.1,0,0.1,0,0.2c0,0,0.1,0,0.1,0c0.1-0.1,0.2-0.1,0.3-0.2c0.2-0.2,0.2-0.3,0-0.5c-0.2-0.1-0.4,0-0.5,0.2
		c0,0,0,0.1,0,0.1C73.4,26.4,73.5,26.3,73.6,26.3 M75.2,24.1c0-0.1,0-0.1,0-0.2c0-0.1,0-0.1,0.1-0.2c-0.1,0-0.2,0-0.2,0
		c-0.2,0.1-0.4,0.2-0.6,0.3c-0.2,0.1-0.4,0.2-0.6,0.3c-0.1,0.1-0.3,0.2-0.5,0.3c-0.1,0.1-0.4,0.2-0.4,0.3c0,0.2-0.2,0.2-0.3,0.4
		c-0.1,0.2-0.2,0.3-0.2,0.5c0,0-0.1,0-0.1,0.1c0.1,0,0.1,0.1,0.2,0.1c0,0,0.1,0,0.1-0.1c0-0.2,0.2-0.3,0.3-0.4
		c0.1-0.1,0.3-0.1,0.4-0.1c0,0,0.1,0,0.2,0c0.1,0,0.1-0.1,0.2-0.1c-0.1,0-0.1,0-0.2-0.1c-0.1,0-0.1,0-0.2-0.1c0.1,0,0.1,0,0.2,0
		c0.3,0,0.6,0.1,1,0c0.2-0.1,0.4-0.2,0.4-0.4c0-0.2,0.1-0.3,0.2-0.4C75.3,24.2,75.2,24.2,75.2,24.1 M79.2,25
		c0.2-0.1,0.3-0.3,0.6-0.4c0.4-0.2,0.5-0.6,0.4-1c0,0,0-0.1-0.1-0.1c0,0-0.1,0-0.1,0c-0.1,0-0.4,0-0.4-0.1c0,0,0,0,0,0
		c0-0.1,0-0.2,0-0.2c-0.2,0-0.3,0-0.5,0c-0.3-0.1-0.5,0-0.7,0.1c-0.2,0.1-0.5,0.2-0.5,0.6c0,0.1-0.1,0.1-0.1,0.1
		c-0.1,0-0.1,0.1-0.1,0.2c0,0.3,0,0.6-0.2,0.8c-0.1,0.1,0,0.5,0.1,0.6c0.1,0,0.2,0.1,0.2,0.1c0.1-0.1,0.3-0.1,0.4-0.1
		c0.1,0,0.2-0.2,0.4-0.3c0.1,0,0.2-0.1,0.3-0.1c0.2,0,0.3-0.1,0.3-0.2c0.1-0.1,0-0.1-0.1-0.1C79.3,25,79.2,25,79.2,25 M59.3,26.5
		c0-0.1,0-0.2,0-0.2c0,0,0-0.1,0-0.1c0.1-0.1,0.2-0.4,0.3-0.4c0.4-0.1,0.3-0.5,0.6-0.7c0,0,0.2-0.1,0.3-0.2c0,0,0.1-0.1,0.1-0.1
		c0-0.2,0.1-0.4,0.2-0.5c0.1-0.2,0.2-0.4,0.2-0.6c0.1,0,0.2,0,0.2,0c0-0.1,0-0.2,0-0.2c-0.1-0.1-0.1-0.2,0-0.3c0,0,0-0.1,0-0.1
		c-0.2,0.2-0.4,0-0.6,0.2c-0.1,0.2-0.3,0.3-0.5,0.3c-0.1,0-0.2,0-0.2,0c-0.4,0.2-0.7,0.4-1,0.8c-0.1,0.1-0.4,0.2-0.3,0.5
		c0,0,0,0.1,0,0.1c-0.4,0.2-0.5,0.5-0.6,0.8c-0.2,0.4-0.2,0.9,0.1,1.3c0.1,0.1,0.2,0.2,0.3,0.2c0.1,0,0.3,0,0.4-0.1
		C58.8,26.9,59,26.7,59.3,26.5 M61,22.6C61,22.6,61,22.6,61,22.6c-0.1,0-0.2-0.1-0.3,0c0,0,0,0,0,0.1c0.1,0,0.2,0,0.2,0
		C61,22.7,61,22.7,61,22.6C61.1,22.6,61,22.6,61,22.6 M61.7,22.6c0-0.2-0.2-0.1-0.3-0.2c0,0-0.1,0.1-0.1,0.1c0,0,0.1,0,0.1,0.1
		C61.5,22.6,61.6,22.6,61.7,22.6 M56.8,26.3C56.7,26.2,56.7,26.2,56.8,26.3c-0.2,0-0.2-0.2-0.2,0c0,0,0.1,0.1,0.1,0.1
		C56.7,26.3,56.7,26.3,56.8,26.3 M63,26.8C63,26.8,63,26.8,63,26.8C63,26.8,63,26.7,63,26.8c-0.1-0.1-0.1-0.1-0.2-0.1
		c0,0,0,0-0.1,0.1c0,0,0.1,0,0.1,0C62.9,26.8,62.9,26.8,63,26.8 M68.8,25.2C68.7,25.2,68.7,25.2,68.8,25.2
		C68.7,25.2,68.7,25.2,68.8,25.2c-0.1,0-0.1,0.1-0.1,0.2C68.7,25.4,68.8,25.4,68.8,25.2 M56.6,26.4c0,0,0,0.1,0,0.1
		c0,0,0.1,0.1,0.1,0.1c0,0,0-0.1,0-0.1C56.7,26.4,56.7,26.4,56.6,26.4 M79.2,25.7C79.3,25.7,79.3,25.7,79.2,25.7c0.1,0,0.2,0,0.2,0
		C79.4,25.6,79.4,25.6,79.2,25.7C79.3,25.6,79.2,25.6,79.2,25.7 M73.2,25.9c0,0,0.1,0,0.1,0c0,0,0,0,0-0.1
		C73.4,25.8,73.3,25.8,73.2,25.9 M72.7,24.1C72.6,24.2,72.6,24.2,72.7,24.1C72.6,24.2,72.6,24.2,72.7,24.1 M61.2,22.6
		C61.2,22.7,61.2,22.7,61.2,22.6C61.3,22.7,61.3,22.7,61.2,22.6 M78.6,22.7C78.6,22.7,78.6,22.8,78.6,22.7
		C78.6,22.8,78.7,22.7,78.6,22.7 M60.1,22.7C60.1,22.7,60.1,22.7,60.1,22.7C60.1,22.7,60.1,22.7,60.1,22.7 M55.7,23.8
		C55.7,23.8,55.7,23.8,55.7,23.8C55.7,23.8,55.7,23.8,55.7,23.8z"/>
	<path class="st0" d="M31.8,8.4c-0.1-0.1-0.2,0-0.2,0c0,0.4-0.4,0.5-0.6,0.7c-0.2,0.2-0.5,0.3-0.7,0.4c-0.1,0-0.2,0.1-0.1,0.2
		c0,0,0,0.1,0,0c-0.3-0.1-0.5,0.2-0.8,0.3c-0.2,0-0.5,0.2-0.7,0.3c-0.2,0.1-0.4-0.1-0.6,0.1c-0.3-0.2-0.6,0.1-1-0.1
		c-0.1,0-0.3,0.1-0.4,0.1c-0.2-0.1-0.4,0-0.6,0c-0.3,0-0.5,0-0.8-0.1c-0.3-0.1-0.6,0.1-0.7,0.5c0,0.2-0.2,0.4,0,0.6
		c0,0-0.1,0.1-0.1,0.2c0,0.1-0.2,0.2,0.1,0.2c0,0.1,0,0.1,0,0.2c0,0.2-0.1,0.3,0.1,0.4c0,0,0,0.1,0,0.1c0,0.3,0,0.6,0.1,0.9
		c0,0.3,0.1,0.5,0.1,0.8c0,0.5,0.2,1,0,1.5c0,0.1,0.1,0.2,0,0.4c0,0.2-0.1,0.3,0,0.5c0,0.1,0,0.2-0.1,0.2c-0.1,0.1-0.1,0.3-0.1,0.4
		c0.2,0.2,0.1,0.4,0.1,0.6c0,0.3-0.3,0.6-0.1,1c-0.4,0.1,0.1,0.4-0.1,0.6c-0.1,0.1-0.1,0.4-0.1,0.6c-0.1,0.3-0.1,0.6-0.3,0.8
		c-0.1,0.2-0.2,0.4-0.1,0.6c0,0,0,0.1-0.1,0.2c-0.2,0.2-0.3,0.4-0.2,0.7c0,0,0,0,0,0.1c-0.2,0.4-0.2,0.4-0.2,0.9c0,0,0,0,0,0.1
		c-0.2,0.3-0.4,0.6-0.6,0.8c-0.1,0.1-0.1,0.1-0.1,0.2c0.1,0.1,0,0.2,0,0.3c-0.2,0.4-0.5,0.8-0.8,1.2c-0.2,0-0.5-0.1-0.5,0.3
		c0,0-0.1,0.1-0.1,0.1c-0.1,0.1-0.1,0.1,0,0.2c0,0.1,0.1,0.1,0.1,0.2c0,0,0,0,0,0.1c0,0-0.1,0-0.1,0c-0.1,0-0.1-0.1-0.1-0.1
		c0,0,0,0-0.1,0c0,0,0,0,0,0.1c0,0.1,0,0.1,0,0.1c0.1,0.1,0.2,0.1,0.2,0.2c0,0.1-0.1,0.3-0.2,0.4c-0.2,0.2-0.3,0.4-0.4,0.6
		c-0.1,0.1-0.2,0.2-0.4,0.3c-0.3,0.1-0.4,0.3-0.5,0.4c-0.1,0.1-0.2,0.1-0.3,0.2c0,0-0.1,0-0.1,0.1c0,0,0.1,0,0.1,0c0,0,0,0.1,0,0.1
		c-0.1,0.1-0.2,0.2-0.3,0.3c0,0-0.1,0.4-0.2,0c0,0-0.1,0-0.1,0c-0.1,0.1-0.1,0.2-0.2,0.2c-0.1,0.1-0.2,0.2-0.2,0.2
		c-0.2-0.1-0.4,0.2-0.6,0.1c-0.6,0.2-1.1,0-1.5-0.2c-0.4-0.2-0.8-0.5-1.2-0.9c-0.5-0.5-0.9-1-1.3-1.6c-0.1-0.1-0.2-0.7-0.2-0.9
		c0-0.1,0-0.1-0.1-0.2c-0.1-0.2-0.1-0.3,0-0.5c0,0,0-0.1,0-0.1c-0.1-0.3,0-0.7,0.1-1c-0.2-0.3,0.1-0.4,0.1-0.6
		c0-0.3,0.1-0.4,0.2-0.7c0,0,0-0.1,0-0.1c0.2-0.1,0.3-0.4,0.3-0.6c0-0.1,0.1-0.3,0.3-0.2c0,0,0.1-0.1,0.1-0.1c0-0.1,0-0.3,0.1-0.4
		c0-0.1,0.1-0.2,0.2-0.2c0,0,0.1,0,0.1,0c0.1-0.3,0.4-0.4,0.7-0.6c0.1-0.1,0.1-0.3,0.3-0.1c0-0.2,0.1-0.1,0.2-0.2c0.1,0,0.2,0,0.3,0
		c0.1,0,0.3,0.1,0.3-0.1c0,0,0.1,0,0.1,0c0.2,0.1,0.3,0.1,0.5,0.1c0.4,0,1,0.4,1.2,0.8c0.1,0.1,0.2,0.2,0.4,0.3
		c0.1,0.1,0.2,0.1,0.2,0.2c0.2,0.2,0.3,0.5,0.5,0.7c0.1,0.2,0.1,0.2-0.1,0.3c-0.1,0-0.2,0.1,0,0.1c0,0,0,0.1,0,0.1c0,0-0.1,0-0.1,0
		c-0.2,0-0.4,0-0.6-0.2c0,0-0.1,0-0.1-0.1c0-0.4-0.4-0.5-0.5-0.8c0-0.1-0.2-0.2-0.1-0.3c0-0.1-0.1-0.1-0.1-0.2
		c-0.1-0.1-0.2-0.1-0.2-0.2c-0.1-0.1-0.2-0.2-0.4-0.1c-0.1,0-0.3,0.1-0.3-0.1c0,0-0.1,0-0.1,0c-0.2,0.1-0.4,0.2-0.6,0.2
		c-0.6,0.2-0.8,0.7-1.2,1.1c-0.2,0.3-0.3,0.6-0.5,0.9c-0.2,0.3-0.3,0.6-0.4,1c0,0.1,0,0.1,0,0.2c0,0.3,0,0.6,0,0.9
		c0,0.1,0,0.2,0,0.3c0.1,0.2,0.1,0.4,0.1,0.6c0,0.1,0.1,0.1,0.2,0.1c0,0.1,0.1,0.2,0.1,0.3c0,0.1,0.1,0.2,0.2,0.3
		c0.1,0.1,0.1,0.2,0.2,0.3c0.1,0.1,0.1,0.2,0.2,0.2c0.3,0.3,0.6,0.6,0.9,0.9c0.4,0.3,0.8,0.5,1.3,0.6c0.4,0.1,0.7-0.1,1-0.3
		c0.1,0,0.2-0.2,0.3-0.2c0.1,0,0.2-0.1,0.2-0.2c0,0,0-0.1,0-0.1c0.4,0.1,0.3-0.2,0.4-0.4c0.1,0,0.1-0.1,0.2-0.1
		c0.2-0.1,0.5-0.3,0.7-0.4c0.1-0.1,0.3-0.2,0.3-0.5c0-0.1,0.1-0.3,0.2-0.4c0.2-0.1,0.4-0.3,0.5-0.6c0.1-0.2,0.3-0.4,0.5-0.6
		c0.2-0.1,0.2-0.2,0.2-0.4c0-0.2,0-0.3,0.2-0.4c0,0,0,0,0,0c0-0.3,0.3-0.4,0.3-0.7c0.2-0.1,0.1-0.5,0.3-0.6c0-0.2,0.3-0.4,0.1-0.6
		c0,0,0-0.1,0-0.2c0-0.2,0.3-0.4,0.1-0.7c0,0,0-0.1,0-0.1c0.4-0.2,0.3-0.5,0.4-0.8c0-0.2,0.1-0.3,0.2-0.5c0.1-0.3,0.3-0.5,0.3-0.8
		c0-0.1,0.1-0.3,0.1-0.4c0,0,0-0.1,0.1-0.1c0.1-0.2-0.2-0.5,0-0.7c0.1-0.1,0-0.5,0.1-0.7c0.1-0.3,0.1-0.6,0-0.9c0,0,0.1,0,0.1,0
		c0,0,0.1,0,0.1,0c0,0-0.1,0-0.1,0c0-0.2,0.1-0.3,0.1-0.5c0-0.1,0-0.2-0.1-0.2c0-0.1,0.3-0.1,0.1-0.4c-0.1-0.1-0.2-0.3,0-0.5
		c0-0.2-0.1-0.3-0.1-0.5c0-0.4-0.2-0.7-0.1-1.1c0.1-0.2,0-0.4,0-0.6c0-0.1,0-0.1,0-0.2c0.1-0.3,0-0.5,0-0.8c0-0.1,0-0.2,0-0.2
		c-0.2-0.2-0.1-0.4-0.1-0.6c0,0,0.1,0,0.1,0c0,0-0.1,0-0.1,0c0-0.3-0.1-0.5,0.1-0.8c0,0,0-0.1-0.1-0.2c-0.2-0.1-0.3-0.2-0.2-0.4
		c0,0,0-0.1,0-0.1c-0.6-0.2-1.2-0.5-1.9-0.7c-0.2-0.1-0.5,0-0.7,0c-0.2,0-0.4,0.1-0.6-0.1c0,0-0.1,0-0.2,0c0.1,0.3-0.2,0.2-0.3,0.3
		c0,0.1-0.1,0.1-0.2,0c0,0-0.1,0-0.2,0c-0.3,0.3-0.7,0.5-0.9,0.8c-0.1,0.1-0.1,0.3-0.3,0.4c0,0,0,0.1,0,0.1c0,0.1,0,0.2,0,0.2
		c0,0.1-0.1,0.1-0.1,0.2c0-0.1,0-0.1-0.1-0.2c0,0,0-0.1,0-0.1c0,0,0,0.1,0,0.1c-0.1,0.2-0.1,0.4-0.2,0.7c0,0-0.1,0.1-0.1,0.1
		c-0.1,0.1-0.3,0.1-0.2,0.3c0.1,0.3-0.2,0.4-0.3,0.7c-0.1,0.2-0.2,0.3-0.2,0.6c0,0.1-0.1,0.3-0.2,0.3c-0.1,0-0.1,0.1-0.1,0.2
		c0.1,0.4-0.2,0.8-0.3,1.2c0,0.1-0.1,0.3-0.1,0.4c-0.1,0.1-0.1,0.3-0.3,0.2c-0.1,0-0.3-0.3-0.2-0.4c0.1-0.1,0-0.2,0-0.2
		c0-0.1,0-0.4,0.1-0.4c0.3-0.1,0.2-0.3,0.2-0.4c-0.1-0.2,0-0.3,0.1-0.3c0.3-0.3,0.4-0.6,0.4-0.9c0-0.2,0-0.3,0.1-0.5
		c0-0.1,0-0.3,0.2-0.1c0-0.1,0.1-0.2,0.1-0.3c0-0.2,0.1-0.3,0.2-0.4c0.2-0.2,0.2-0.5,0.4-0.6c0,0,0-0.1,0-0.1
		c-0.2-0.1-0.1-0.3,0-0.3c0.2-0.1,0.1-0.3,0.2-0.3c0.2-0.1,0.2-0.2,0.2-0.3c0,0,0.1-0.1,0.1-0.1c0.3-0.1,0.4-0.4,0.6-0.7
		c0.1-0.2,0.5-0.3,0.9-0.4c0,0,0.1-0.1,0.1-0.1c0.2-0.1,0.4-0.2,0.6-0.2c0.2,0,0.4-0.2,0.6-0.1c0.2,0,0.3,0.1,0.5,0.1
		c0.2,0,0.5,0,0.7,0.1c0.3,0.1,0.5,0.1,0.8,0.3c0.5,0.3,1,0.5,1.6,0.6c0.5,0.1,1,0.1,1.5,0.2c0,0,0.1,0,0.1,0c0.3-0.1,0.7-0.1,1-0.1
		c0.1,0,0.1,0,0.2,0c0.4,0.1,0.4,0.1,0.9,0c0.2,0,0.4,0,0.7-0.1c0.2-0.1,0.3-0.2,0.5-0.3c0,0,0-0.1,0.1-0.1c0.3,0,0.5-0.2,0.7-0.4
		c0.1,0,0.2-0.1,0.2-0.1c0.1-0.2,0.3-0.4,0.5-0.5c0.1,0,0.2-0.1,0-0.2c0.1-0.1,0.2-0.3,0.3-0.4c0.1-0.1,0.2-0.2,0.2-0.4
		c0-0.2,0-0.3,0.3-0.3c0,0,0,0,0.1,0c0,0-0.1,0-0.1,0c0,0,0-0.1,0-0.1c0.1,0,0.2,0,0.2-0.1c0-0.1,0-0.2,0-0.3c0-0.2,0.2-0.4,0.2-0.6
		c0-0.1,0.2-0.1,0.3-0.1c0.1,0,0.3,0,0.3,0c0,0.1,0,0.3,0,0.3c-0.2,0.3-0.4,0.6-0.4,0.9c0,0-0.1,0.1-0.1,0.1c0.1,0,0.1,0.1,0.1,0.1
		c0,0,0,0.1,0,0.1c-0.2,0,0,0.3-0.3,0.3c0,0,0,0,0,0.1c0.4,0.2-0.1,0.3-0.1,0.4C32.1,8.1,31.9,8.3,31.8,8.4 M19.2,22.1
		c-0.1,0-0.2,0-0.1,0.1c0,0.1,0.1,0.1,0.2,0.1C19.2,22.2,19.2,22.2,19.2,22.1 M16.7,14.6C16.7,14.6,16.7,14.6,16.7,14.6
		C16.7,14.6,16.7,14.6,16.7,14.6c0,0-0.1,0-0.1,0C16.6,14.6,16.6,14.6,16.7,14.6 M17.8,21C17.8,21,17.7,21,17.8,21
		C17.7,21,17.7,21.1,17.8,21c0,0.1,0.1,0.1,0.2,0.1c0,0,0,0,0-0.1C17.9,21,17.9,21,17.8,21 M32.3,6.5c0,0-0.1,0-0.1,0c0,0,0,0,0,0.1
		C32.2,6.5,32.3,6.5,32.3,6.5 M23,9C23,9,23,9.1,23,9C23,9.1,23.1,9,23,9 M24.4,19.1c0,0,0-0.1,0-0.1c0,0,0,0-0.1,0
		C24.4,19,24.3,19,24.4,19.1 M24.5,12.7c0,0,0,0.1,0,0.1C24.5,12.8,24.6,12.8,24.5,12.7C24.6,12.8,24.6,12.7,24.5,12.7 M16.9,13.9
		C16.9,13.9,16.9,13.9,16.9,13.9C17,13.9,17,13.8,16.9,13.9 M19.7,23.1C19.7,23.1,19.7,23.1,19.7,23.1
		C19.7,23.1,19.7,23.1,19.7,23.1 M23.4,23.4C23.3,23.4,23.3,23.4,23.4,23.4C23.3,23.4,23.3,23.4,23.4,23.4 M16.8,14.3
		C16.8,14.4,16.8,14.4,16.8,14.3C16.8,14.4,16.8,14.3,16.8,14.3 M13.9,24.3C13.9,24.3,13.9,24.3,13.9,24.3
		C13.9,24.3,13.8,24.3,13.9,24.3 M17.5,12.6C17.5,12.6,17.5,12.6,17.5,12.6C17.4,12.6,17.4,12.6,17.5,12.6 M24.7,10.3
		C24.7,10.3,24.7,10.3,24.7,10.3C24.7,10.3,24.7,10.3,24.7,10.3 M19.2,9.4C19.2,9.4,19.2,9.3,19.2,9.4C19.2,9.4,19.2,9.4,19.2,9.4
		 M23.2,21.9C23.2,21.9,23.2,21.9,23.2,21.9C23.2,21.9,23.2,22,23.2,21.9 M18.3,21.4C18.3,21.4,18.3,21.4,18.3,21.4
		C18.3,21.4,18.3,21.3,18.3,21.4 M32.7,5.7C32.7,5.7,32.7,5.8,32.7,5.7C32.7,5.8,32.7,5.8,32.7,5.7 M24.4,18.7
		C24.4,18.7,24.4,18.6,24.4,18.7C24.4,18.7,24.4,18.7,24.4,18.7z"/>
	<path class="st0" d="M85,21.9c-0.1,0-0.2,0-0.2-0.1c0-0.2,0.1-0.3,0.2-0.5c0.1-0.2,0.1,0,0.1,0c0,0,0.1,0,0.1,0c0-0.1,0-0.2,0-0.2
		c0,0-0.1,0-0.1-0.1c0,0,0.1,0,0.1,0c0-0.1,0.1-0.3,0.1-0.4c0-0.2,0.1-0.4,0.1-0.6c0,0,0,0,0.1,0c0,0,0.1,0,0.1,0c0-0.1,0-0.2,0-0.2
		c0-0.2-0.1-0.5,0.2-0.6c0,0,0-0.1,0-0.1c0,0-0.1,0-0.1,0c-0.1,0.1-0.2,0-0.2-0.1c0-0.1,0.1-0.2,0.1-0.3c0.1-0.1,0.1-0.2,0.1-0.4
		c0-0.1,0-0.3,0.1-0.4c0.1-0.2,0.1-0.4-0.1-0.5c0,0,0-0.1,0-0.1c0.3-0.1,0-0.2,0-0.4c0-0.1-0.2-0.3,0.1-0.4c0.1,0,0-0.3,0-0.4
		c0-0.2-0.1-0.3,0.1-0.4c0.1-0.1,0.5,0,0.6,0.1c0,0,0,0,0,0.1c-0.2,0.3,0,0.5,0,0.8c0,0,0,0.1,0,0.1c0.3,0.1,0.2,0.3,0.1,0.5
		c0,0.1,0,0.2,0,0.2c0,0.1,0,0.2,0,0.3c0,0-0.1,0.1,0,0.1c0.2,0.2,0,0.3,0,0.5c-0.1,0.3,0,0.6-0.1,0.9c0,0.1,0,0.3,0.1,0.4
		c0.1,0.1,0,0.1,0,0.1c0,0-0.1,0.2-0.1,0.2c0,0,0,0.1,0,0.1c-0.2,0.2,0,0.5-0.3,0.7c0,0,0.1,0.2,0,0.3c-0.2,0.1-0.1,0.3-0.2,0.4
		c-0.1,0.5-0.3,1-0.5,1.5c0,0.1,0,0.1,0,0.2c0,0.2,0.1,0.5,0,0.6c-0.2,0.2,0.1,0.4-0.1,0.5c-0.1,0.1,0.3,0.2,0.4,0
		c0.2-0.2,0.3-0.3,0.6-0.3c0.5-0.1,0.8-0.3,1-0.7c0-0.1,0.1-0.1,0.2-0.2c0.2,0.1,0.3,0.1,0.4-0.1c0,0,0-0.1,0-0.1c0,0,0,0.1-0.1,0.1
		c-0.1,0-0.2,0-0.2,0c0.1-0.1,0.1-0.1,0.2-0.2c0.2-0.1,0.4-0.2,0.7-0.4c0.3-0.2,0.6-0.4,0.9-0.5c0.3-0.1,0.7,0,1,0
		c0,0,0.1,0.1,0.1,0.1c0,0-0.1,0-0.1,0c0,0-0.1,0-0.1,0c0,0,0.1,0,0.1,0.1c0.2,0.2,0.4,0.5,0.6,0.7c0.1,0.1,0.1,0.4,0.1,0.5
		c0.1,0.3,0.1,0.6,0.2,1c0,0.1,0.1,0.1,0.1,0.2c0.2,0.2,0.3,0.3,0.3,0.6c0,0.1,0,0.1,0.1,0.2c0.1,0.2,0.3,0.3,0.4,0.5
		c0.1,0.2,0.3,0.3,0.4,0.4c0.2,0.2,0.4,0.4,0.4,0.7c0,0,0.1,0.1,0.1,0.1c0.1,0.2,0.1,0.4,0.2,0.5c0.3,0.3,0.2,0.5-0.2,0.6
		c-0.1,0-0.2,0.1-0.2,0c-0.1-0.1-0.2-0.2-0.3-0.3c-0.1-0.2-0.3-0.5-0.4-0.7c-0.1-0.1-0.2,0-0.2-0.2c0-0.1,0-0.2,0-0.3
		c0-0.1-0.1-0.2-0.2-0.3c-0.1-0.1-0.2-0.2-0.2-0.3c0-0.2-0.3-0.1-0.3-0.3c-0.2-0.1-0.3-0.4-0.5-0.6c-0.2-0.2-0.6-0.2-0.7,0.1
		c-0.1,0.2-0.3,0.3-0.5,0.4c-0.1,0.1-0.3,0.2-0.5,0.3c-0.1,0-0.2,0-0.2,0c-0.2,0-0.4,0.1-0.6,0.1c-0.1,0-0.2,0-0.2,0
		c-0.2-0.1-0.4-0.3-0.6-0.3c-0.2,0-0.4-0.2-0.5-0.4c-0.1-0.2-0.2-0.3-0.5-0.3c0,0-0.1,0-0.1-0.1c-0.1-0.2-0.1-0.2-0.2,0
		c-0.1,0.1-0.2,0.2-0.3,0.3c-0.3,0.2-0.5,0.2-0.8,0c-0.2-0.1-0.3-0.4-0.6-0.4c-0.1,0-0.3-0.1-0.1-0.3c0,0,0.1,0,0.1,0.1
		c0,0,0.1,0,0.1,0.1c0,0,0,0,0-0.1c0,0-0.1,0-0.1,0c0,0-0.1,0-0.1-0.1c0-0.1,0-0.1,0-0.1c-0.3,0-0.2-0.2-0.2-0.3c0-0.1,0-0.1,0-0.2
		c0-0.1,0-0.2,0-0.3c0,0.1,0.1,0.2,0.1,0.3c0,0,0,0,0,0.1c0,0,0,0,0-0.1c0-0.1,0-0.1,0-0.2c-0.2-0.2,0-0.4,0-0.7
		c0-0.1,0-0.2,0.1-0.2c0.4-0.2,0.5-0.5,0.5-0.9C84.9,22,85,22,85,21.9c0.1,0,0.1-0.1,0.1-0.1c0,0,0,0-0.1,0C85,21.8,85,21.8,85,21.9
		 M87.7,23.9c-0.1,0.1-0.2,0.2-0.3,0.3c-0.1,0.2-0.1,0.4,0,0.5c0.1,0.1,0.2,0.2,0.3,0.3c0.3,0.4,1,0.4,1.4,0.3
		c0.1,0,0.2-0.1,0.3-0.1c0.2,0,0.4-0.1,0.5-0.4c0.1-0.1,0-0.4,0.3-0.4c0,0,0.1-0.1,0.1-0.1c0.1-0.3,0.1-0.5,0.2-0.8c0,0,0,0-0.1,0
		c-0.1,0-0.1,0-0.1-0.1c0,0,0-0.2,0-0.2c0-0.1-0.1-0.3-0.1-0.3c0.3-0.3-0.1-0.2-0.1-0.3c-0.1,0-0.1,0-0.2,0.1
		c-0.5,0.3-1.2,0.6-1.6,1C88,23.6,88,23.9,87.7,23.9 M85.9,15.7c0,0,0.1-0.1,0.1-0.1c0,0,0,0,0-0.1C86,15.6,85.9,15.6,85.9,15.7
		 M85.7,16.5c0,0,0,0.1,0,0.1C85.8,16.6,85.8,16.6,85.7,16.5C85.8,16.5,85.8,16.5,85.7,16.5z"/>
	<path class="st0" d="M30.5,21.5c0.1,0,0.1,0.1,0.1,0.1c0.1-0.3,0.4-0.1,0.5-0.1c0.3,0.1,0.7,0.2,0.7,0.7c0,0.1,0,0.2,0.1,0.2
		c0.2,0.2,0.2,0.4,0.2,0.7c0,0.2,0.2,0.4,0.3,0.4c0.1,0,0.1-0.1,0.2-0.1c0,0-0.1-0.1-0.1-0.1c0,0-0.1,0-0.1,0c0,0,0.1,0,0.1,0
		c0.4,0,0.5-0.2,0.5-0.5c0,0,0-0.1,0-0.1c0,0,0,0.1,0,0.1c0,0,0.1,0,0.2,0c0.1,0,0.1-0.1,0-0.2c-0.1-0.1-0.1-0.1,0.1-0.1
		c0,0,0.1,0,0.1,0c0,0-0.1,0-0.1,0c0.3-0.2,0.5-0.5,0.9-0.6c0,0,0.1-0.1,0.1-0.1c0.1-0.3,0.1-0.3,0.4-0.4c0.2,0,0.4,0.1,0.5-0.1
		c0,0,0.1,0,0.1,0c0,0,0,0,0,0c0,0.1,0,0.3,0,0.4c0,0.1,0,0.3-0.1,0.4c0,0.1-0.2-0.1-0.2,0.1c0,0.1,0.1,0.2-0.1,0.3
		c-0.1,0-0.1,0.2-0.1,0.3c0,0.1-0.1,0.2-0.2,0.3c-0.1,0.2-0.1,0.3-0.3,0.2c0,0,0,0-0.1,0.1c0.1,0,0.2,0,0.1,0.1
		c-0.1,0.1-0.2,0.2-0.3,0.3c0,0-0.1,0-0.1,0c-0.1-0.1-0.1-0.3-0.3-0.3c0,0,0.1-0.1,0.1-0.2c0,0,0.4,0,0-0.1c0,0,0,0,0-0.1
		c0,0,0.1,0,0.1-0.1c-0.1,0-0.1,0-0.1,0c-0.1,0.1-0.2,0.1-0.3,0.2c-0.2,0.2-0.4,0.3-0.5,0.5c-0.1,0.2-0.3,0.3-0.4,0.5
		c-0.1,0.1-0.2,0.3-0.4,0.4c-0.1,0.1-0.2,0.3-0.3,0.5c0,0.1,0,0.2-0.1,0.3c0,0,0,0.1,0,0.1c-0.1,0.1-0.3,0.2-0.3,0.3
		c0,0.3-0.2,0.5-0.6,0.6c-0.1,0-0.1,0.1-0.1,0.2c0.1,0.1,0.1,0.2,0,0.2c-0.1,0-0.2,0.1-0.3-0.1c0-0.1,0-0.2-0.1-0.2
		c0-0.1,0-0.2,0-0.3c0-0.2,0-0.4-0.1-0.6c0-0.1,0-0.2,0.1-0.1c0,0,0.1-0.1,0.1-0.1c0-0.1,0-0.2,0-0.3c0-0.1,0-0.2,0.1-0.2
		c0.2,0,0.1-0.3,0.3-0.4c0,0,0-0.1,0-0.1c-0.3-0.1,0-0.2,0-0.3c0.1-0.2,0.2-0.4,0.2-0.6c0-0.1,0-0.1,0-0.2c-0.1-0.2-0.2-0.4,0-0.6
		c0,0,0-0.1,0-0.1c0-0.1-0.1-0.1-0.1-0.2c-0.1-0.1-0.2-0.3-0.3-0.3c-0.1,0-0.3,0.1-0.4,0.1c-0.4,0-0.8,0-1.2,0.1
		c-0.5,0.1-0.5,0.1-0.3,0.5c0,0.1,0,0.2,0,0.2c0,0.1-0.1,0.2-0.1,0.3c0,0.1,0.2-0.1,0.2,0.1c0,0.1,0,0.2,0.1,0.2
		c0.1,0.1,0.1,0.2,0,0.3c0,0-0.1,0.1,0,0.3c0.1,0.1,0,0.2,0,0.3c0,0-0.1,0-0.1,0c0,0,0.1,0,0.1,0c0.1,0.2-0.2,0.3-0.2,0.5
		c0,0,0,0-0.1,0c0-0.1-0.1-0.1-0.1-0.2c0,0,0.2-0.1,0-0.1c-0.3,0-0.2-0.2-0.2-0.3c0-0.2,0.1-0.3,0.1-0.5c0-0.1,0.1-0.3-0.1-0.3
		c0,0,0,0,0,0c0.1-0.4-0.3-0.6-0.3-1c0-0.1-0.1-0.2-0.2-0.3c-0.1-0.1-0.2-0.1-0.3-0.1c-0.2,0.1-0.4,0-0.5,0.1c0,0-0.1,0-0.2,0
		c-0.1,0-0.1,0.1-0.1,0.1c0,0,0.1,0.1,0.1,0.1c0.2-0.1,0.2,0,0.1,0.1c-0.1,0.2-0.2,0.4-0.4,0.6c0,0-0.1,0.1-0.1,0.1
		c0.2,0.3-0.1,0.4-0.2,0.5c-0.1,0.1-0.2,0.3-0.2,0.6c0,0.1,0,0.1,0,0.2c-0.2,0.2-0.1,0.6-0.2,0.8c0,0.1,0,0.2,0,0.3
		c-0.2,0.1-0.1,0.3,0,0.4c0.1,0.3,0.3,0.4,0.4,0.6c0.1,0.1,0.2,0.1,0.4,0.1c0.2,0,0.2-0.1,0.3-0.2c0.3-0.3,0.6-0.6,1-0.9
		c0.2-0.1,0.4,0.1,0.5-0.1c0,0,0,0.1,0,0.1c-0.1,0.1,0.1,0.4-0.2,0.4c0,0-0.1,0.1-0.1,0.1c0.1,0.2-0.2,0.2-0.3,0.4c0,0-0.1,0-0.1,0
		c0,0,0-0.1-0.1-0.2c0,0.1,0,0.1,0,0.2c0,0,0,0,0,0.1c-0.1,0.2-0.1,0.5-0.5,0.4c0,0-0.1,0-0.1,0.1c0,0,0,0.1,0,0.1
		c-0.3,0.4-0.7,0.5-1.1,0.2c-0.1-0.1-0.3-0.2-0.4-0.3c-0.2-0.3-0.5-0.6-0.5-1c0-0.1-0.1-0.3,0-0.4c0-0.2-0.1-0.3,0-0.4
		c0.1-0.2,0-0.6,0.3-0.8c0,0,0-0.1,0-0.1c-0.1,0-0.1,0,0-0.1c0.3-0.3,0.3-0.3,0.3-0.6c0-0.2,0.3-0.6,0.5-0.7
		c0.1-0.1,0.2-0.2,0.1-0.3c0-0.1,0-0.1-0.1-0.2c0-0.4,0-0.5,0.5-0.6c0.1,0,0.2,0,0.2-0.2c0,0,0.1-0.1,0.1-0.1
		c0.2-0.1,0.3-0.2,0.5-0.3c0,0,0-0.2,0.1-0.2c0.1,0,0.3,0,0.4,0c0.1,0,0,0.3,0.2,0.2c0.1,0,0.3,0,0.4,0.1c0,0,0.1,0,0.1,0
		c0,0,0-0.1-0.1-0.1c-0.1,0-0.2-0.1-0.4-0.1c0,0-0.1,0-0.1,0c0,0,0.1,0,0.1,0c0.2,0,0.4,0,0.5,0.2c0.1,0.1,0.4,0.1,0.5,0.2
		c0,0,0.1,0,0.1,0C29.8,21.3,30.1,21.4,30.5,21.5 M31.3,26C31.3,26,31.3,25.9,31.3,26C31.3,25.9,31.3,26,31.3,26
		C31.2,26,31.2,26,31.3,26C31.3,26,31.3,26,31.3,26 M28.7,22.8c0,0-0.1,0-0.1,0.1c0,0,0,0,0.1,0.1C28.6,22.9,28.8,23,28.7,22.8
		 M34.2,23.2c0,0.1,0,0.1,0,0.2c0,0,0.1,0,0.1,0C34.3,23.3,34.2,23.3,34.2,23.2 M33.9,23.7c0,0,0.1,0,0.1,0c0,0-0.1-0.1-0.1-0.1
		C33.9,23.6,33.9,23.6,33.9,23.7 M31,21.8c0.1,0,0.1,0,0.2,0C31.1,21.7,31.1,21.7,31,21.8 M35.1,21.8C35.1,21.8,35.1,21.8,35.1,21.8
		C35.1,21.9,35.1,21.9,35.1,21.8 M34.5,21.8C34.5,21.8,34.5,21.8,34.5,21.8C34.5,21.8,34.5,21.8,34.5,21.8z"/>
	<path class="st0" d="M32.7,27.4c0,0-0.1-0.5-0.1-0.6c0.1-0.2,0.1-0.4,0.1-0.6c0.1-0.3,0.2-0.5,0.2-0.8c0,0,0.1-0.1,0.1-0.1
		c0,0,0,0.1,0,0.1c0,0,0,0.1,0,0.1c0.1-0.1,0.1-0.1,0.1-0.2c0-0.2,0-0.2,0.2-0.4c0,0,0-0.1,0-0.1c0-0.1,0.1-0.2,0.1-0.3
		c0.1-0.1,0.2-0.1,0.2-0.3c0-0.1,0.2-0.2,0.3-0.2c0.2,0.1,0.2,0.2,0.1,0.4c0,0-0.1,0.1-0.2,0.1c-0.2,0.1-0.2,0.1,0,0.3
		c0,0,0,0.1,0.1,0.1c0,0-0.1,0-0.1,0c-0.1,0-0.2,0.1-0.2,0.2c0.1,0.3,0,0.4-0.1,0.7c-0.1,0.1,0,0.3-0.1,0.4c0,0.1-0.1,0.2,0,0.3
		c0.2,0.2,0.3,0.3,0.5,0.1c0.1-0.1,0.1-0.4,0.3-0.2c0,0,0.1,0,0.1-0.1c0.1-0.2,0.2-0.3,0.4-0.3c0.3-0.1,0.3-0.3,0.4-0.5
		c0.1-0.1,0.1-0.3,0.2-0.3c0.3-0.2,0.4-0.4,0.5-0.7c0.1-0.2,0.3-0.5,0.5-0.6c0.3-0.1,0.5-0.4,0.5-0.8c0-0.1,0-0.3,0.2-0.1
		c0.1-0.1,0.2-0.2,0.3-0.3c0,0,0,0,0.1-0.1c0,0,0,0,0,0c0.1,0.2,0.1,0.4,0,0.5c0,0,0,0.1,0,0.2c0.1,0.2,0,0.4-0.1,0.5
		c-0.1,0.1-0.1,0.2-0.1,0.3c0,0.1-0.1,0.2-0.1,0.2c-0.1,0.1-0.2,0.2,0,0.2c0,0,0,0.1,0,0.1c-0.3,0.4,0,0.7,0.1,1
		c0,0.2,0.5,0.4,0.7,0.2c0.1-0.1,0.2,0,0.3-0.1c0.1,0,0.1-0.2,0.2-0.3c0.1-0.1,0.3-0.1,0.4-0.2c0.1,0,0.2,0,0.1-0.2
		c0,0,0.1-0.1,0.1-0.1c0.1-0.1,0.2-0.1,0.3-0.2c0,0,0-0.1,0-0.1c0,0-0.1,0.1-0.1,0c0,0-0.1,0-0.1-0.1c0,0,0.1-0.1,0.1-0.1
		c0,0,0.1,0,0.1,0c0.1,0,0.2,0,0.2,0c0,0.1,0,0.2-0.1,0.2c-0.1,0.1-0.1,0.2-0.2,0.3c0,0,0,0.1,0,0.1c0,0,0.1,0,0.2,0.1
		c0,0.1-0.1,0.1-0.2,0.2c-0.1,0.1-0.2,0.3-0.3,0.4c0,0,0,0.1-0.1,0.1c-0.1,0.1-0.1,0.1-0.2,0.1c-0.1,0.1-0.1,0.2-0.2,0.2
		c0,0-0.1,0-0.1,0c-0.7,0.4-1.1,0.3-1.6,0c-0.2-0.2-0.4-0.4-0.5-0.6c-0.1-0.2-0.3-0.2-0.3-0.2c-0.1,0.2-0.4,0.2-0.5,0.4
		c-0.2,0.3-0.5,0.6-0.7,1c-0.4,0.1-0.6,0.5-1,0.5c-0.3,0-0.6,0-0.9-0.2C32.8,27.3,32.7,27.2,32.7,27.4 M36.1,24.5
		C36.1,24.5,36.1,24.5,36.1,24.5C36,24.5,36,24.5,36.1,24.5C36,24.5,36,24.6,36.1,24.5C36,24.6,36,24.5,36.1,24.5 M35,26
		c0,0,0.1,0,0.1,0c0,0,0,0,0-0.1C35.1,26,35.1,26,35,26 M33.8,24.5C33.8,24.5,33.8,24.5,33.8,24.5C33.9,24.5,33.9,24.5,33.8,24.5
		 M35.4,25.7C35.3,25.7,35.3,25.7,35.4,25.7C35.3,25.7,35.3,25.7,35.4,25.7 M33.1,25.9C33.1,25.8,33,25.8,33.1,25.9
		C33,25.8,33,25.9,33.1,25.9 M38.1,26.1C38,26.1,38,26.1,38.1,26.1C38,26.1,38,26.1,38.1,26.1z"/>
	<path class="st0" d="M80.6,14.7c0.3-0.1,0.6-0.2,0.8-0.2c0.2,0,0.5-0.1,0.7,0.2c0,0.1,0.1,0.1,0,0.2c0,0,0,0.1,0.1,0.2
		c0.2,0.1,0.1,0.3,0.1,0.4c-0.1,0.1-0.2,0.2-0.4,0.1c-0.2,0-0.5,0-0.5-0.3c0,0-0.1,0-0.2,0c-0.2,0-0.3,0-0.5-0.1
		c-0.1,0-0.1-0.1,0-0.2c0,0,0.1-0.1,0.1-0.1c0,0-0.1,0-0.1,0C80.7,14.8,80.6,14.8,80.6,14.7z"/>
	<path class="st0" d="M21.8,26.4c0,0.1,0,0.1-0.1,0.2c0,0-0.1,0-0.1,0c0-0.1,0-0.1,0-0.2c0-0.1,0.1-0.2,0.1-0.2
		c0.1-0.1-0.1-0.3,0.1-0.2c0,0,0,0.2,0,0.3C21.9,26.3,21.8,26.4,21.8,26.4z"/>
	<path class="st0" d="M28,25.6c0-0.2,0.1-0.4,0.3-0.4c0,0,0.1,0,0.1,0c0,0-0.1,0.1-0.1,0.1c0,0-0.1,0.1-0.1,0.1c0,0,0.1,0.1,0.1,0.1
		c0,0,0.1,0,0.1,0c0,0,0,0,0.1,0.1c0,0,0,0-0.1,0C28.4,25.5,28.2,25.5,28,25.6z"/>
	<path class="st0" d="M59.4,23.2c0,0-0.1,0-0.1,0c0,0-0.1-0.1-0.1-0.1c0-0.1,0.1-0.1,0.1-0.1c0,0,0.1,0,0.1-0.1c0,0.1,0,0.1,0,0.2
		C59.5,23.1,59.5,23.2,59.4,23.2z"/>
	<path class="st0" d="M38.6,17.2c0.1,0.1,0.1,0.2,0.1,0.3c0,0,0,0,0,0.1c0,0,0,0-0.1,0c-0.1-0.1-0.1-0.2-0.2-0.3
		C38.5,17.2,38.6,17.2,38.6,17.2C38.6,17.2,38.6,17.2,38.6,17.2z"/>
	<path class="st0" d="M75.6,25.9c0.1,0.1,0.1,0.1,0,0.2c-0.1,0-0.1,0-0.2-0.1C75.5,26,75.5,25.9,75.6,25.9z"/>
	<path class="st0" d="M39.5,24.9c0.1,0,0.1,0,0.2,0.1c0,0,0,0.1-0.1,0.1C39.6,25,39.6,25,39.5,24.9z"/>
	<path class="st0" d="M27.4,27.2c0.1,0.1,0,0.1,0,0.2c0,0,0,0-0.1,0C27.3,27.4,27.3,27.3,27.4,27.2z"/>
	<path class="st0" d="M55.1,18.2c0-0.1,0-0.1,0-0.1c0,0,0.1-0.1,0.1-0.1c0,0,0,0.1,0,0.1C55.1,18.2,55.1,18.2,55.1,18.2z"/>
	<path class="st0" d="M39.4,24.4C39.4,24.3,39.5,24.4,39.4,24.4c0.1-0.1,0.1,0,0.1,0C39.6,24.4,39.5,24.4,39.4,24.4z"/>
	<path class="st0" d="M36.9,22.9c0-0.1,0.1-0.1,0.1-0.1c0,0,0,0.1,0,0.1C37,22.9,37,22.9,36.9,22.9z"/>
	<path class="st0" d="M70.6,27.1c0,0,0-0.1,0.1-0.1C70.7,27,70.7,27.1,70.6,27.1C70.7,27.1,70.7,27.1,70.6,27.1
		C70.6,27.1,70.6,27.1,70.6,27.1z"/>
	<path class="st0" d="M17.2,13.9c0,0,0.1,0,0.1,0.1C17.3,13.9,17.2,13.9,17.2,13.9C17.2,13.9,17.2,13.9,17.2,13.9
		C17.2,13.9,17.2,13.9,17.2,13.9z"/>
	<path class="st0" d="M49.9,22.2c0,0.1,0,0.1-0.1,0.1c0,0,0,0-0.1,0C49.8,22.2,49.8,22.2,49.9,22.2z"/>
	<path class="st0" d="M52.4,21.3c0.1,0,0.1,0,0.1,0c0,0,0,0.1,0,0.1C52.5,21.4,52.4,21.4,52.4,21.3C52.4,21.4,52.4,21.4,52.4,21.3
		C52.4,21.3,52.4,21.3,52.4,21.3z"/>
	<path class="st0" d="M78.6,26.6c0,0-0.1,0-0.1,0c0,0,0,0,0-0.1C78.5,26.6,78.5,26.6,78.6,26.6z"/>
	<path class="st0" d="M36.5,26.6c0,0-0.1,0-0.1,0c0,0,0,0,0-0.1C36.4,26.6,36.5,26.6,36.5,26.6z"/>
	<path class="st0" d="M30.4,26.4c0,0,0,0.1,0,0.1c0,0,0,0-0.1,0C30.4,26.5,30.4,26.4,30.4,26.4z"/>
	<path class="st0" d="M35.7,26.2c0,0,0.1,0,0.1-0.1c0,0,0,0,0,0.1C35.8,26.2,35.8,26.2,35.7,26.2z"/>
	<path class="st0" d="M36.5,26.7c0,0,0.1,0,0.1,0c0,0,0,0,0,0.1C36.6,26.7,36.6,26.7,36.5,26.7z"/>
	<path class="st0" d="M21.8,26.9c0-0.1,0-0.1,0-0.1c0,0,0.1,0,0.1,0C21.8,26.8,21.8,26.8,21.8,26.9z"/>
	<path class="st0" d="M22.1,25.9c0,0,0.1,0,0.1,0c0,0,0,0,0,0.1C22.1,26,22.1,25.9,22.1,25.9z"/>
	<path class="st0" d="M32,5.8c0,0,0,0.1,0.1,0.1c0,0,0,0-0.1,0C31.9,5.9,31.9,5.9,32,5.8z"/>
	<path class="st0" d="M21.7,25.3c0,0.1,0,0.1,0,0.1c0,0-0.1,0-0.1,0C21.7,25.3,21.7,25.3,21.7,25.3z"/>
	<path class="st0" d="M37.6,22.5c0,0,0.1-0.1,0.1-0.1c0,0,0,0,0,0.1C37.7,22.5,37.6,22.5,37.6,22.5z"/>
	<path class="st0" d="M86.5,19.3c0-0.1,0-0.1,0-0.1c0,0,0.1,0,0.1,0C86.5,19.2,86.5,19.2,86.5,19.3z"/>
	<path class="st0" d="M84.4,22.7c0-0.1,0-0.1,0-0.1c0,0,0.1,0,0.1,0C84.4,22.6,84.4,22.7,84.4,22.7z"/>
	<path class="st0" d="M23.1,24.3c0,0,0,0.1,0.1,0.1c0,0,0,0-0.1,0C23.1,24.4,23,24.3,23.1,24.3z"/>
	<path class="st0" d="M81.1,23.9c0,0,0-0.1,0-0.1c0,0,0,0,0.1,0C81.1,23.8,81.1,23.8,81.1,23.9z"/>
	<path class="st0" d="M70.8,28.6c0,0-0.1-0.1-0.1-0.1c0,0,0,0,0.1,0C70.8,28.5,70.8,28.5,70.8,28.6z"/>
	<path class="st0" d="M14.9,28.9c0,0,0.1,0,0.1-0.1c0,0,0,0,0,0.1C15,28.9,14.9,28.9,14.9,28.9z"/>
	<path class="st0" d="M22.9,10c-0.1,0-0.1,0-0.1,0c0,0,0-0.1,0-0.1C22.9,10,22.9,10,22.9,10z"/>
	<path class="st0" d="M83,23C83,23,83,23,83,23C83,23,83,23,83,23z"/>
	<path class="st0" d="M87.6,23C87.6,23,87.6,23,87.6,23C87.7,23,87.6,23,87.6,23z"/>
	<path class="st0" d="M57.2,13.8C57.3,13.7,57.3,13.8,57.2,13.8C57.3,13.8,57.3,13.8,57.2,13.8z"/>
	<path class="st0" d="M82.2,23.7C82.2,23.7,82.3,23.6,82.2,23.7C82.3,23.6,82.3,23.7,82.2,23.7z"/>
	<path class="st0" d="M33.4,23.7C33.4,23.7,33.5,23.7,33.4,23.7C33.4,23.8,33.4,23.7,33.4,23.7z"/>
	<path class="st0" d="M36.4,23.8C36.4,23.7,36.4,23.7,36.4,23.8C36.4,23.7,36.4,23.7,36.4,23.8z"/>
	<path class="st0" d="M16.8,12.9C16.8,12.9,16.8,13,16.8,12.9C16.8,13,16.8,13,16.8,12.9z"/>
	<path class="st0" d="M37.4,22.7C37.4,22.7,37.4,22.7,37.4,22.7C37.5,22.7,37.5,22.7,37.4,22.7z"/>
	<path class="st0" d="M31.2,22.7C31.2,22.7,31.2,22.7,31.2,22.7C31.1,22.7,31.1,22.6,31.2,22.7z"/>
	<path class="st0" d="M56,16.6C56,16.6,56,16.6,56,16.6C56,16.6,56,16.6,56,16.6z"/>
	<path class="st0" d="M65.7,22.6C65.7,22.6,65.7,22.6,65.7,22.6C65.7,22.6,65.7,22.6,65.7,22.6z"/>
	<path class="st0" d="M37.5,22.6C37.5,22.6,37.5,22.6,37.5,22.6C37.6,22.6,37.5,22.6,37.5,22.6z"/>
	<path class="st0" d="M28.4,24.8C28.4,24.8,28.4,24.8,28.4,24.8C28.4,24.8,28.4,24.8,28.4,24.8z"/>
	<path class="st0" d="M57.6,12.4C57.6,12.5,57.6,12.5,57.6,12.4C57.6,12.5,57.6,12.5,57.6,12.4z"/>
	<path class="st0" d="M51.6,10.7C51.7,10.7,51.7,10.8,51.6,10.7C51.6,10.8,51.6,10.8,51.6,10.7z"/>
	<path class="st0" d="M24.9,10.7C24.9,10.7,24.9,10.7,24.9,10.7C24.9,10.6,24.9,10.7,24.9,10.7z"/>
	<path class="st0" d="M82.1,15.7C82.1,15.7,82.1,15.7,82.1,15.7C82.1,15.7,82.1,15.7,82.1,15.7z"/>
	<path class="st0" d="M27.6,10.6C27.7,10.6,27.7,10.6,27.6,10.6C27.6,10.6,27.6,10.6,27.6,10.6z"/>
	<path class="st0" d="M84.5,25.3C84.5,25.3,84.5,25.3,84.5,25.3C84.6,25.3,84.6,25.3,84.5,25.3z"/>
	<path class="st0" d="M86.5,25.3C86.5,25.3,86.5,25.3,86.5,25.3C86.5,25.3,86.5,25.3,86.5,25.3z"/>
	<path class="st0" d="M84.5,25.3C84.5,25.3,84.5,25.4,84.5,25.3C84.5,25.4,84.5,25.3,84.5,25.3z"/>
	<path class="st0" d="M48.2,25.4C48.2,25.4,48.2,25.5,48.2,25.4C48.2,25.5,48.2,25.5,48.2,25.4z"/>
	<path class="st0" d="M28,25.6C28,25.6,28,25.6,28,25.6C28,25.6,28,25.6,28,25.6z"/>
	<path class="st0" d="M53.8,22.4C53.8,22.4,53.9,22.4,53.8,22.4C53.9,22.4,53.9,22.5,53.8,22.4z"/>
	<path class="st0" d="M29.3,10.2C29.3,10.2,29.3,10.3,29.3,10.2C29.3,10.3,29.3,10.3,29.3,10.2z"/>
	<path class="st0" d="M30.8,22.4C30.8,22.4,30.8,22.4,30.8,22.4C30.9,22.4,30.8,22.5,30.8,22.4z"/>
	<path class="st0" d="M92.3,25.8C92.3,25.8,92.3,25.9,92.3,25.8C92.3,25.9,92.3,25.9,92.3,25.8z"/>
	<path class="st0" d="M37.3,22.3C37.4,22.3,37.4,22.4,37.3,22.3C37.4,22.4,37.3,22.4,37.3,22.3z"/>
	<path class="st0" d="M36,26C36,26,36,25.9,36,26C36,25.9,36,25.9,36,26z"/>
	<path class="st0" d="M32.2,22.3C32.2,22.3,32.1,22.4,32.2,22.3C32.1,22.3,32.1,22.3,32.2,22.3z"/>
	<path class="st0" d="M90.6,22.1C90.7,22.1,90.7,22.1,90.6,22.1C90.7,22.1,90.7,22.1,90.6,22.1z"/>
	<path class="st0" d="M24.1,16.3C24.1,16.3,24.1,16.3,24.1,16.3C24.1,16.3,24.1,16.3,24.1,16.3z"/>
	<path class="st0" d="M31.8,8.4C31.8,8.5,31.7,8.5,31.8,8.4C31.7,8.5,31.7,8.5,31.8,8.4z"/>
	<path class="st0" d="M30.6,21.5C30.6,21.5,30.6,21.4,30.6,21.5C30.6,21.4,30.6,21.5,30.6,21.5z"/>
	<path class="st0" d="M78.6,26.7C78.6,26.6,78.6,26.7,78.6,26.7C78.6,26.7,78.6,26.7,78.6,26.7z"/>
	<path class="st0" d="M23.1,21.2C23.1,21.2,23.1,21.2,23.1,21.2C23.1,21.2,23.1,21.2,23.1,21.2z"/>
	<path class="st0" d="M21.5,27C21.5,27,21.5,27,21.5,27C21.5,27,21.6,27,21.5,27z"/>
	<path class="st0" d="M93.1,27C93.1,27,93.1,27,93.1,27C93.1,27,93.1,27,93.1,27z"/>
	<path class="st0" d="M56.8,27.4C56.8,27.4,56.8,27.4,56.8,27.4C56.8,27.4,56.8,27.4,56.8,27.4z"/>
	<path class="st0" d="M32.7,27.5C32.7,27.5,32.7,27.5,32.7,27.5C32.7,27.5,32.7,27.5,32.7,27.5z"/>
	<path class="st0" d="M14.1,27.8C14.1,27.8,14.1,27.8,14.1,27.8C14.1,27.8,14.1,27.8,14.1,27.8z"/>
	<path class="st0" d="M14.6,28.4C14.6,28.4,14.6,28.4,14.6,28.4C14.6,28.4,14.6,28.4,14.6,28.4z"/>
	<path class="st0" d="M56,16.6C56,16.6,56,16.5,56,16.6C56.1,16.5,56.1,16.6,56,16.6z"/>
	<path class="st0" d="M32.5,5.4C32.5,5.4,32.5,5.4,32.5,5.4C32.5,5.3,32.5,5.4,32.5,5.4z"/>
	<path class="st0" d="M70.9,32.2C70.9,32.2,70.9,32.1,70.9,32.2C70.9,32.1,70.9,32.1,70.9,32.2z"/>
	<path class="st0" d="M58.7,24.4c0.1,0.1,0,0.1,0,0.2c0,0,0,0-0.1,0C58.7,24.6,58.7,24.5,58.7,24.4z"/>
	<path class="st0" d="M58.2,25.3c0,0,0-0.1,0-0.1c0,0,0,0,0.1,0C58.2,25.2,58.2,25.3,58.2,25.3z"/>
	<path class="st0" d="M58.1,25.3C58.1,25.3,58.1,25.4,58.1,25.3C58.1,25.4,58.1,25.3,58.1,25.3z"/>
	<path class="st0" d="M79.2,25C79.2,25,79.2,25,79.2,25C79.2,25,79.2,25,79.2,25z"/>
	<path class="st0" d="M73.9,24.5c0.1,0,0.1,0,0.1,0c0,0,0,0.1,0,0.1C74,24.6,73.9,24.6,73.9,24.5z"/>
	<path class="st0" d="M75.2,24.1C75.2,24.1,75.2,24.1,75.2,24.1C75.2,24.1,75.2,24.1,75.2,24.1z"/>
	<path class="st0" d="M74.8,24.1C74.8,24.1,74.7,24.1,74.8,24.1C74.7,24.1,74.7,24.1,74.8,24.1z"/>
	<path class="st0" d="M73.2,25C73.2,25,73.2,24.9,73.2,25C73.2,24.9,73.2,24.9,73.2,25z"/>
	<path class="st0" d="M73.6,26.3C73.5,26.3,73.5,26.3,73.6,26.3C73.5,26.3,73.5,26.3,73.6,26.3z"/>
	<path class="st0" d="M87.8,24c0,0.1,0,0.1,0,0.2c0,0-0.1,0-0.2,0.1c0,0,0.1-0.1,0.1-0.1C87.7,24.1,87.7,24,87.8,24z"/>
	<path class="st0" d="M89.1,23.2C89.1,23.2,89.1,23.2,89.1,23.2C89.1,23.2,89.1,23.2,89.1,23.2z"/>
	<path class="st0" d="M89.1,23.2C89.1,23.2,89.1,23.3,89.1,23.2C89,23.3,89,23.2,89.1,23.2z"/>
	<path class="st0" d="M87.8,24C87.8,24,87.8,24,87.8,24C87.8,24,87.8,24,87.8,24z"/>
</g>
</svg>
