<svg xmlns="http://www.w3.org/2000/svg" width="48" height="24" viewBox="0 0 48 24"><title>contact</title><g id="Contact"><g id="Contact-2" data-name="Contact"><path d="M41.13,1.31a1,1,0,0,1,1.12,1V21.69a1,1,0,0,1-1.12,1H6.87a1,1,0,0,1-1.12-1V2.31a1,1,0,0,1,1.12-1H41.13m0-1.3H6.87a2.31,2.31,0,0,0-2.42,2.3V21.69A2.31,2.31,0,0,0,6.87,24H41.13a2.31,2.31,0,0,0,2.42-2.3V2.31A2.31,2.31,0,0,0,41.13,0Z" style="fill:#fff"/><polyline points="5.97 1.61 24 16.09 42.03 1.61" style="fill:none;stroke:#fff;stroke-miterlimit:10;stroke-width:1.2999999523162842px"/><line x1="19.19" y1="12.2" x2="5.97" y2="22.69" style="fill:none;stroke:#fff;stroke-miterlimit:10;stroke-width:1.2999999523162842px"/><line x1="42.03" y1="22.69" x2="28.81" y2="12.2" style="fill:none;stroke:#fff;stroke-miterlimit:10;stroke-width:1.2999999523162842px"/></g></g></svg>