<?xml version="1.0" encoding="utf-8"?>
<!-- Generator: Adobe Illustrator 23.1.0, SVG Export Plug-In . SVG Version: 6.00 Build 0)  -->
<svg version="1.1" xmlns="http://www.w3.org/2000/svg" xmlns:xlink="http://www.w3.org/1999/xlink" x="0px" y="0px" width="48px"
	 height="24px" viewBox="0 0 48 24" style="enable-background:new 0 0 48 24;" xml:space="preserve">
<style type="text/css">
	.st0{fill:none;stroke:#FFFFFF;stroke-width:1.3;stroke-miterlimit:10;}
	.st1{fill:#FFFFFF;}
</style>
<g id="Home">
	<g>
		<path class="st0" d="M36.9,10.7v11.8c0,0.5-0.5,0.9-1.2,0.9h-7.2c-0.6,0-1.2-0.4-1.2-0.9V16c0-0.5-0.5-0.9-1.2-0.9h-4.3
			c-0.7,0-1.2,0.4-1.2,0.9c0.1,1.5,0.1,4.8,0.1,6.4c0,0.5-0.5,0.9-1.2,0.9c-1.7,0-5.7,0-7.4,0c-0.6,0-1.1-0.4-1.1-0.9V10.7
			c0-0.2,0.1-0.4,0.3-0.6l11.9-9.3c0.5-0.3,0.7-0.3,1.2,0l12,9.2C36.8,10.2,36.9,10.4,36.9,10.7z"/>
	</g>
</g>
<g id="Work">
	<g>
		<path class="st1" d="M108.2,24H67.9c-0.8,0-1.6-0.6-1.6-1.3v-0.5h43.3v0.5C109.7,23.5,109,24,108.2,24z"/>
		<path class="st1" d="M104,0H72.1c-0.5,0-1.1,0.5-1.1,1.2v20.3h33.8V1.2C104.9,0.5,104.5,0,104,0z M88.1,0.6c0.2,0,0.3,0.1,0.3,0.3
			c0,0.2-0.1,0.3-0.3,0.3s-0.3-0.1-0.3-0.3S87.8,0.6,88.1,0.6z M103.4,19.9H72.7V1.8h30.8V19.9z"/>
	</g>
</g>
<g id="Camera">
	<g>
		<g>
			<path class="st1" d="M157,1.4v21.4h-34V1.4H157 M157.2,0.1h-34.3c-0.6,0-1.1,0.5-1.1,1.1v21.8c0,0.6,0.5,1.1,1.1,1.1h34.3
				c0.6,0,1.1-0.5,1.1-1.1V1.2C158.3,0.6,157.8,0.1,157.2,0.1L157.2,0.1z"/>
		</g>
		<circle class="st0" cx="140" cy="12.1" r="7"/>
		<circle class="st1" cx="140" cy="12.1" r="4.8"/>
		<path class="st1" d="M151.3,3h1.6c0.6,0,1,0.5,1,1v0.5c0,0.6-0.5,1-1,1h-1.6c-0.6,0-1-0.5-1-1V4C150.2,3.5,150.7,3,151.3,3z"/>
	</g>
</g>
<g id="Contact">
	<g>
		<g>
			<path class="st1" d="M209,1.3v21.4h-34V1.3H209 M209.2,0h-34.3c-0.6,0-1.1,0.5-1.1,1.1v21.8c0,0.6,0.5,1.1,1.1,1.1h34.3
				c0.6,0,1.1-0.5,1.1-1.1V1.1C210.3,0.5,209.8,0,209.2,0L209.2,0z"/>
		</g>
		<polyline class="st0" points="174.4,0.8 192,16.6 209.2,1.1 		"/>
		<line class="st0" x1="187.1" y1="12.2" x2="175.2" y2="22.8"/>
		<line class="st0" x1="209.1" y1="23.1" x2="196.9" y2="12.2"/>
	</g>
</g>
</svg>
