<?xml version="1.0" encoding="utf-8"?>
<!-- Generator: Adobe Illustrator 22.1.0, SVG Export Plug-In . SVG Version: 6.00 Build 0)  -->
<svg version="1.1" id="Layer_1" xmlns="http://www.w3.org/2000/svg" xmlns:xlink="http://www.w3.org/1999/xlink" x="0px" y="0px"
	 width="140px" height="140px" viewBox="0 0 140 140" enable-background="new 0 0 140 140" xml:space="preserve">
<g id="code_x5F_html5">
	<g>
		<polygon fill="#E44F26" points="110,35.5 70,35.5 70,35.5 30,35.5 37.5,117.4 70,126.7 70,126.7 70,126.7 70,126.7 70,126.7 
			102.5,117.4 		"/>
		<path fill="#FFFFFF" d="M47,18.4h-4.7v-5.1h-5.1v15.3h5.1v-5.1H47v5.1h5.1V13.3H47V18.4z M82.9,13.3h-0.5l-3.2,5.2l-3.2-5.2h-0.4
			H71h-0.2v15.3h5V21l3.5,5.5l0,0l0,0l0,0l0,0l3.6-5.7v7.8h5V13.3h-0.3H82.9z M54.4,18.5h4.5v10.1H64V18.5h4.5v-5.1H54.4V18.5z
			 M95.6,23.5V13.3h-5.1v15.3h1.3h3.8h7.2v-5.1H95.6z"/>
		<polygon fill="#F1662A" points="70,42.2 70,119.8 70,119.8 96.5,112.2 103,42.2 		"/>
		<polygon fill="#FFFFFF" points="95.3,52.2 44.7,52.2 47.5,82.9 47.5,82.7 82.2,82.7 81,95.7 70,98.9 58.8,95.6 58.1,87.8 
			47.9,87.8 49.4,103.5 70,109.3 90.6,103.5 93.4,72.7 56.7,72.7 55.8,62.4 94.4,62.4 		"/>
		<g>
			<path fill="#EBEBEB" d="M70,52.2H44.7l2.8,30.7l0.1-0.2H70v-10H56.7l-0.9-10.3H70V52.2z M58.1,87.8H47.9l1.5,15.7l20.6,5.8V98.9
				l-11.2-3.2L58.1,87.8z"/>
		</g>
	</g>
</g>
</svg>
