<svg xmlns="http://www.w3.org/2000/svg" width="199.83" height="24.06" viewBox="0 0 199.83 24.06"><title>icon</title><g id="Home"><path d="M36.89,10.67V22.46c0,.48-.52.87-1.16.87H29.49c-.64,0-1.15-.39-1.15-.87V16c0-.48-.52-.87-1.16-.87H20.86c-.65,0-1.17.41-1.15.9.06,1.51.07,4.83.07,6.39a1,1,0,0,1-1.15.88H12.26c-.64,0-1.15-.39-1.15-.87V10.75a.78.78,0,0,1,.33-.61L23.36.87a.93.93,0,0,1,1.16,0l12,9.18A.79.79,0,0,1,36.89,10.67Z" transform="translate(-10.46)" style="fill:none;stroke:#fff;stroke-miterlimit:10;stroke-width:1.2999999523162842px"/></g><g id="Work"><path d="M108.17,24H67.93a1.48,1.48,0,0,1-1.58-1.25v-.5h43.29v.5C109.75,23.49,109,24,108.17,24Z" transform="translate(-10.46)" style="fill:#fff"/><path d="M104,0H72.15a1.16,1.16,0,0,0-1.06,1.16V21.48h33.82V1.16A1.07,1.07,0,0,0,104,0ZM88.05.63a.29.29,0,0,1,.32.32.28.28,0,0,1-.32.31A.27.27,0,0,1,87.74,1,.28.28,0,0,1,88.05.63ZM103.43,19.9H72.67V1.79h30.76Z" transform="translate(-10.46)" style="fill:#fff"/></g><g id="Camera"><path d="M157,1.36v21.4H123V1.36h34m.18-1.3H122.83a1.12,1.12,0,0,0-1.12,1.12V22.94a1.12,1.12,0,0,0,1.12,1.12h34.34a1.12,1.12,0,0,0,1.12-1.12V1.18A1.12,1.12,0,0,0,157.17.06Z" transform="translate(-10.46)" style="fill:#fff"/><circle cx="129.53" cy="12.09" r="6.97" style="fill:none;stroke:#fff;stroke-miterlimit:10;stroke-width:1.2999999523162842px"/><circle cx="129.56" cy="12.08" r="4.79" style="fill:#fff"/><rect x="139.77" y="2.99" width="3.63" height="2.54" rx="1.04" style="fill:#fff"/></g><g id="Contact"><path d="M209,1.3V22.7H175V1.3h34m.18-1.3H174.83a1.12,1.12,0,0,0-1.12,1.12V22.88A1.12,1.12,0,0,0,174.83,24h34.34a1.12,1.12,0,0,0,1.12-1.12V1.12A1.12,1.12,0,0,0,209.17,0Z" transform="translate(-10.46)" style="fill:#fff"/><polyline points="163.98 0.81 181.53 16.56 198.77 1.13" style="fill:none;stroke:#fff;stroke-miterlimit:10;stroke-width:1.2999999523162842px"/><line x1="176.67" y1="12.18" x2="164.69" y2="22.85" style="fill:none;stroke:#fff;stroke-miterlimit:10;stroke-width:1.2999999523162842px"/><line x1="198.6" y1="23.07" x2="186.4" y2="12.19" style="fill:none;stroke:#fff;stroke-miterlimit:10;stroke-width:1.2999999523162842px"/></g></svg>