<svg id="Home" xmlns="http://www.w3.org/2000/svg" width="48" height="24" viewBox="0 0 48 24"><title>icon</title><path d="M36.89,10.67V22.46c0,.48-.52.87-1.16.87H28.49c-.64,0-1.15-.39-1.15-.87V16c0-.48-.52-.87-1.16-.87H21.86c-.65,0-1.17.41-1.15.9.06,1.51.07,4.83.07,6.39a1,1,0,0,1-1.15.88H12.26c-.64,0-1.15-.39-1.15-.87V10.75a.78.78,0,0,1,.33-.61L23.36.87a.93.93,0,0,1,1.16,0l12,9.18A.79.79,0,0,1,36.89,10.67Z" style="fill:none;stroke:#fff;stroke-miterlimit:10;stroke-width:1.2999999523162842px"/></svg>