<?xml version="1.0" encoding="utf-8"?>
<!-- Generator: Adobe Illustrator 21.0.0, SVG Export Plug-In . SVG Version: 6.00 Build 0)  -->
<svg version="1.1" id="Layer_1" xmlns="http://www.w3.org/2000/svg" xmlns:xlink="http://www.w3.org/1999/xlink" x="0px" y="0px"
	 viewBox="0 0 50 50" style="enable-background:new 0 0 50 50;" xml:space="preserve">
<style type="text/css">
	.st0{fill:#333333;}
</style>
<g>
	<g>
		<path class="st0" d="M42,5.3H7.8c-1.6,0-3,1.3-3,2.9v34.3c0,1.6,1.3,2.9,3,2.9H42c1.6,0,3-1.3,3-2.9V8.2C44.9,6.6,43.6,5.3,42,5.3
			z M16.7,39.5h-6V20.4h6V39.5z M13.7,17.8c-1.9,0-3.5-1.5-3.5-3.5c0-1.9,1.5-3.4,3.5-3.4c1.9,0,3.4,1.5,3.4,3.4
			C17.2,16.2,15.6,17.8,13.7,17.8z M39,39.5H33v-9.3c0-2.2,0-5.1-3.1-5.1c-3.1,0-3.6,2.4-3.6,4.9v9.5h-5.9V20.4h5.7V23h0.1
			c0.8-1.5,2.7-3.1,5.6-3.1c6,0,7.1,4,7.1,9.1V39.5z"/>
	</g>
	<g>
		<path class="st0" d="M47.1,38.8c0.2,0,0.3-0.1,0.3-0.3c0-0.2-0.1-0.3-0.4-0.3h-0.4v1.1h0.2v-0.5H47l0,0l0.3,0.5h0.2L47.1,38.8
			L47.1,38.8z M46.9,38.7h-0.2v-0.4H47c0.1,0,0.3,0,0.3,0.2C47.3,38.6,47.1,38.7,46.9,38.7z"/>
		<path class="st0" d="M47,37.6c-0.6,0-1.1,0.5-1.1,1.1c0,0.6,0.5,1.1,1.1,1.1c0.6,0,1.1-0.5,1.1-1.1C48,38.1,47.6,37.6,47,37.6z
			 M47,39.6c-0.5,0-0.9-0.4-0.9-0.9c0-0.5,0.4-0.9,0.9-0.9c0.5,0,0.9,0.4,0.9,0.9C47.9,39.2,47.5,39.6,47,39.6z"/>
	</g>
</g>
</svg>
