<?xml version="1.0" encoding="utf-8"?>
<!-- Generator: Adobe Illustrator 21.0.0, SVG Export Plug-In . SVG Version: 6.00 Build 0)  -->
<svg version="1.1" id="Layer_1" xmlns="http://www.w3.org/2000/svg" xmlns:xlink="http://www.w3.org/1999/xlink" x="0px" y="0px"
	 viewBox="0 0 600 800" style="enable-background:new 0 0 600 800;" xml:space="preserve">
<style type="text/css">
	.st0{fill:#FFFFFF;}
</style>
<g>
	<path class="st0" d="M301,705.9c-6.2-12-11.8-22.9-17.3-33.8c-50.9-99.8-102-199.6-152.7-299.5c-18.9-37.4-25-77-17.7-118.4
		c9.5-53,36.7-95.1,81-125.3c41.7-28.4,88.2-38.3,138.1-30c46.6,7.7,85,30.2,115.3,66.3c22.4,26.7,36.1,57.6,41.5,92.2
		c6.9,44.2-2.2,85.1-22.5,124.5c-51.6,100-102.5,200.4-153.7,300.7C309.2,689.9,305.4,697.3,301,705.9z M300.9,172.2
		c-62.9,0.1-114.1,51.3-114.2,114.3C186.6,349.6,238,401.1,301.1,401c63.1-0.1,114.4-51.6,114.2-114.7
		C415,223.3,363.7,172.1,300.9,172.2z"/>
</g>
</svg>
