<svg id="Layer_1" data-name="Layer 1" xmlns="http://www.w3.org/2000/svg" viewBox="0 0 14.2 30"><defs><style>.cls-1{fill:#fff;}</style></defs><title>mic</title><path class="cls-1" d="M2.14,28.3h9.92a0,0,0,0,1,0,0v.06a1.31,1.31,0,0,1-1.31,1.31H3.46a1.31,1.31,0,0,1-1.31-1.31V28.3a0,0,0,0,1,0,0Z" transform="translate(14.2 57.97) rotate(-180)"/><path class="cls-1" d="M10.37,7.75h2.31V5.9a5.58,5.58,0,1,0-11.16,0V7.75H3.83A.65.65,0,1,1,3.83,9H1.52v1.24H3.83a.65.65,0,1,1,0,1.29H1.52v1.24H3.83a.65.65,0,1,1,0,1.29H1.52v1.4H3.83a.65.65,0,1,1,0,1.29H1.52v1.6a5.58,5.58,0,1,0,11.16,0v-1.6H10.37a.65.65,0,0,1,0-1.29h2.31V14.28H10.37a.65.65,0,0,1,0-1.29h2.31v-1.4H10.37a.65.65,0,0,1,0-1.29h2.31V9H10.37a.65.65,0,0,1,0-1.29ZM7.1,13.07A.91.91,0,1,1,8,12.16.91.91,0,0,1,7.1,13.07Z"/><path class="cls-1" d="M10.37,7.75h2.31V5.9a5.58,5.58,0,1,0-11.16,0V7.75H3.83A.65.65,0,1,1,3.83,9H1.52v1.24H3.83a.65.65,0,1,1,0,1.29H1.52v1.24H3.83a.65.65,0,1,1,0,1.29H1.52v1.4H3.83a.65.65,0,1,1,0,1.29H1.52v1.6a5.58,5.58,0,1,0,11.16,0v-1.6H10.37a.65.65,0,0,1,0-1.29h2.31V14.28H10.37a.65.65,0,0,1,0-1.29h2.31v-1.4H10.37a.65.65,0,0,1,0-1.29h2.31V9H10.37a.65.65,0,0,1,0-1.29ZM7.1,13.07A.91.91,0,1,1,8,12.16.91.91,0,0,1,7.1,13.07Z"/><rect class="cls-1" x="6.51" y="24.84" width="1.19" height="3.81"/></svg>