<?xml version="1.0" encoding="utf-8"?>
<!-- Generator: Adobe Illustrator 21.0.0, SVG Export Plug-In . SVG Version: 6.00 Build 0)  -->
<svg version="1.1" id="Layer_1" xmlns="http://www.w3.org/2000/svg" xmlns:xlink="http://www.w3.org/1999/xlink" x="0px" y="0px"
	 viewBox="0 0 600 600" style="enable-background:new 0 0 600 600;" xml:space="preserve">
<style type="text/css">
	.st0{fill:#333333;stroke:#333333;stroke-miterlimit:10;}
</style>
<path class="st0" d="M257,260H43c-1.7,0-3-1.3-3-3V43c0-1.7,1.3-3,3-3h214c1.7,0,3,1.3,3,3v214C260,258.7,258.7,260,257,260z"/>
<path class="st0" d="M557,260H343c-1.7,0-3-1.3-3-3V43c0-1.7,1.3-3,3-3h214c1.7,0,3,1.3,3,3v214C560,258.7,558.7,260,557,260z"/>
<path class="st0" d="M557,560H343c-1.7,0-3-1.3-3-3V343c0-1.7,1.3-3,3-3h214c1.7,0,3,1.3,3,3v214C560,558.7,558.7,560,557,560z"/>
<path class="st0" d="M257,560H43c-1.7,0-3-1.3-3-3V343c0-1.7,1.3-3,3-3h214c1.7,0,3,1.3,3,3v214C260,558.7,258.7,560,257,560z"/>
</svg>
