<?xml version="1.0" encoding="utf-8"?>
<!-- Generator: Adobe Illustrator 22.1.0, SVG Export Plug-In . SVG Version: 6.00 Build 0)  -->
<svg version="1.1" id="Layer_1" xmlns="http://www.w3.org/2000/svg" xmlns:xlink="http://www.w3.org/1999/xlink" x="0px" y="0px"
	 width="14.2px" height="30px" viewBox="0 0 14.2 30" enable-background="new 0 0 14.2 30" xml:space="preserve">
<path fill="#FFFFFF" d="M3.5,28.3h7.3c0.7,0,1.3,0.6,1.3,1.3v0.1H2.1v-0.1C2.1,28.9,2.7,28.3,3.5,28.3z"/>
<path fill="#FFFFFF" d="M10.4,7.8h2.3V5.9c0-3.1-2.5-5.6-5.6-5.6S1.5,2.8,1.5,5.9v1.8h2.3c0.4,0,0.6,0.3,0.6,0.6
	C4.5,8.8,4.2,9,3.8,9H1.5v1.2h2.3c0.4,0,0.6,0.3,0.6,0.6s-0.3,0.6-0.6,0.6H1.5v1.2h2.3c0.4,0,0.6,0.3,0.6,0.6c0,0.4-0.3,0.6-0.6,0.6
	H1.5v1.4h2.3c0.4,0,0.6,0.3,0.6,0.6c0,0.4-0.3,0.6-0.6,0.6H1.5v1.6C1.5,21.5,4,24,7.1,24s5.6-2.5,5.6-5.6v-1.6h-2.3
	c-0.4,0-0.6-0.3-0.6-0.6c0-0.4,0.3-0.6,0.6-0.6h2.3v-1.2h-2.3c-0.4,0-0.6-0.3-0.6-0.6S10,13,10.4,13h2.3v-1.4h-2.3
	c-0.4,0-0.6-0.3-0.6-0.6s0.3-0.6,0.6-0.6h2.3V9h-2.3C10,9,9.7,8.8,9.7,8.4C9.7,8,10,7.8,10.4,7.8z M7.1,13.1c-0.5,0-0.9-0.4-0.9-0.9
	s0.4-0.9,0.9-0.9S8,11.7,8,12.2S7.6,13.1,7.1,13.1z"/>
<path fill="#FFFFFF" d="M10.4,7.8h2.3V5.9c0-3.1-2.5-5.6-5.6-5.6S1.5,2.8,1.5,5.9v1.8h2.3c0.4,0,0.6,0.3,0.6,0.6
	C4.5,8.8,4.2,9,3.8,9H1.5v1.2h2.3c0.4,0,0.6,0.3,0.6,0.6s-0.3,0.6-0.6,0.6H1.5v1.2h2.3c0.4,0,0.6,0.3,0.6,0.6c0,0.4-0.3,0.6-0.6,0.6
	H1.5v1.4h2.3c0.4,0,0.6,0.3,0.6,0.6c0,0.4-0.3,0.6-0.6,0.6H1.5v1.6C1.5,21.5,4,24,7.1,24s5.6-2.5,5.6-5.6v-1.6h-2.3
	c-0.4,0-0.6-0.3-0.6-0.6c0-0.4,0.3-0.6,0.6-0.6h2.3v-1.2h-2.3c-0.4,0-0.6-0.3-0.6-0.6S10,13,10.4,13h2.3v-1.4h-2.3
	c-0.4,0-0.6-0.3-0.6-0.6s0.3-0.6,0.6-0.6h2.3V9h-2.3C10,9,9.7,8.8,9.7,8.4C9.7,8,10,7.8,10.4,7.8z M7.1,13.1c-0.5,0-0.9-0.4-0.9-0.9
	s0.4-0.9,0.9-0.9S8,11.7,8,12.2S7.6,13.1,7.1,13.1z"/>
<rect x="6.5" y="24.8" fill="#FFFFFF" width="1.2" height="3.8"/>
</svg>
