<?xml version="1.0" encoding="utf-8"?>
<!-- Generator: Adobe Illustrator 22.1.0, SVG Export Plug-In . SVG Version: 6.00 Build 0)  -->
<svg version="1.1" id="Layer_1" xmlns="http://www.w3.org/2000/svg" xmlns:xlink="http://www.w3.org/1999/xlink" x="0px" y="0px"
	 width="50px" height="30px" viewBox="0 0 50 30" enable-background="new 0 0 50 30" xml:space="preserve">
<path fill="none" stroke="#FFFFFF" stroke-width="1.3" stroke-miterlimit="10" d="M40.3,26.5H9.7c-0.6,0-1-0.4-1-1V6
	c0-0.6,0.4-1,1-1h30.6c0.6,0,1,0.4,1,1v19.4C41.3,26,40.9,26.5,40.3,26.5z"/>
<circle fill="none" stroke="#FFFFFF" stroke-width="1.3" stroke-miterlimit="10" cx="25" cy="15.8" r="6.7"/>
<circle fill="#FFFFFF" cx="25" cy="15.8" r="4.6"/>
<path fill="#FFFFFF" d="M37.4,9.4h-1.5c-0.6,0-1-0.4-1-1V8c0-0.6,0.4-1,1-1h1.5c0.6,0,1,0.4,1,1v0.5C38.4,9,37.9,9.4,37.4,9.4z"/>
<path fill="#FFFFFF" d="M38.3,5.1H35c-0.2,0-0.3-0.1-0.3-0.3V3.8c0-0.2,0.1-0.3,0.3-0.3h3.3c0.2,0,0.3,0.1,0.3,0.3v0.9
	C38.6,5,38.4,5.1,38.3,5.1z"/>
</svg>
