<svg xmlns="http://www.w3.org/2000/svg" width="48" height="24" viewBox="0 0 48 24"><title>Photos</title><g id="Photos"><g id="Photos-2" data-name="Photos"><path d="M41.09,23.39,6.87,23.33a1,1,0,0,1-1.12-1.06l0-20.59a1,1,0,0,1,1.12-1L41.13.69a1,1,0,0,1,1.12,1.06l0,20.48A1.11,1.11,0,0,1,41.09,23.39Z" style="fill:none;stroke:#fff;stroke-miterlimit:10"/><circle cx="24" cy="12.06" r="7.05" style="fill:none;stroke:#fff;stroke-miterlimit:10"/><path d="M39.14,5.24H37.46a1.06,1.06,0,0,1-1.12-1.12V3.67a1.06,1.06,0,0,1,1.12-1.12h1.68a1.06,1.06,0,0,1,1.12,1.12v.56A1.11,1.11,0,0,1,39.14,5.24Z" style="fill:#fff"/></g></g></svg>