<svg width="400" height="208" viewBox="0 0 400 208" fill="none" xmlns="http://www.w3.org/2000/svg">
<rect width="400" height="208" fill="white"/>
<path d="M32.7755 31.9993C32.2241 32.4915 31.8163 33.1239 31.5955 33.8293C29.5955 39.1693 33.1555 42.9793 34.3455 44.0593C34.4092 44.1162 34.4606 44.1854 34.4967 44.2627C34.5328 44.3401 34.5528 44.424 34.5555 44.5093V48.4393C34.5539 48.8114 34.6915 49.1706 34.9413 49.4463C35.1912 49.722 35.5351 49.8943 35.9055 49.9293L40.9055 50.4393C41.1114 50.4629 41.3198 50.4436 41.5178 50.3826C41.7158 50.3217 41.899 50.2203 42.0559 50.085C42.2128 49.9498 42.34 49.7834 42.4294 49.5966C42.5188 49.4097 42.5686 49.2063 42.5755 48.9993V46.5393C42.5755 46.4067 42.6282 46.2795 42.722 46.1857C42.8157 46.092 42.9429 46.0393 43.0755 46.0393H45.2655C45.6634 46.0393 46.0449 45.8813 46.3262 45.5999C46.6075 45.3186 46.7655 44.9371 46.7655 44.5393V41.5393C46.7655 41.4067 46.8182 41.2795 46.912 41.1857C47.0057 41.092 47.1329 41.0393 47.2655 41.0393H48.4955C48.5855 41.0395 48.6738 41.0155 48.7513 40.9698C48.8287 40.924 48.8924 40.8582 48.9355 40.7793C48.9793 40.7014 49.0024 40.6136 49.0024 40.5243C49.0024 40.435 48.9793 40.3471 48.9355 40.2693L46.8155 36.9993C46.771 36.93 46.7436 36.8512 46.7355 36.7693C46.5728 34.5811 45.5564 32.5447 43.9055 31.0993C42.5029 30.0206 40.7629 29.4749 38.9955 29.5593C38.587 29.5707 38.1795 29.6074 37.7755 29.6693" stroke="#747474" stroke-linecap="round" stroke-linejoin="round"/>
<path d="M33.79 29L37.32 33.8H34.67L38 37.89" stroke="#747474" stroke-linecap="round" stroke-linejoin="round"/>
<mask id="path-3-inside-1_54625_66593" fill="white">
<path d="M101.632 37.8141C102.094 36.9111 103.051 36.4141 104.066 36.4141V36.4141C105.087 36.4141 106.049 36.9181 106.507 37.8315C107.377 39.5683 108.457 42.5228 107.026 44.4976C105.419 46.7158 102.472 46.4445 101.05 44.4975C99.6135 42.5317 100.74 39.5536 101.632 37.8141Z"/>
</mask>
<path d="M101.632 37.8141C102.094 36.9111 103.051 36.4141 104.066 36.4141V36.4141C105.087 36.4141 106.049 36.9181 106.507 37.8315C107.377 39.5683 108.457 42.5228 107.026 44.4976C105.419 46.7158 102.472 46.4445 101.05 44.4975C99.6135 42.5317 100.74 39.5536 101.632 37.8141Z" stroke="#747474" stroke-width="2" mask="url(#path-3-inside-1_54625_66593)"/>
<path d="M100.81 43.9238C100.07 44.4374 99.0723 46.7491 99.7612 48.5619" stroke="#747474" stroke-linecap="round" stroke-linejoin="round"/>
<path d="M107.173 43.9238C107.913 44.4374 108.91 46.7491 108.222 48.5619" stroke="#747474" stroke-linecap="round" stroke-linejoin="round"/>
<path d="M106.934 38.8855C107.817 38.8224 109.667 39.0239 110.656 39.3903" stroke="#747474" stroke-linecap="round" stroke-linejoin="round"/>
<path d="M107.48 41.5322C107.48 41.5322 108.485 41.8698 110.11 43.9237" stroke="#747474" stroke-linecap="round" stroke-linejoin="round"/>
<path d="M100.639 41.5322C100.639 41.5322 99.6343 41.8698 98.0097 43.9237" stroke="#747474" stroke-linecap="round" stroke-linejoin="round"/>
<path d="M101.102 38.885C100.218 38.822 98.3683 39.0234 97.3794 39.3899" stroke="#747474" stroke-linecap="round" stroke-linejoin="round"/>
<path d="M106.237 37.5039C108.346 36.4156 110.032 35.7763 108.346 32.6748" stroke="#747474" stroke-linecap="round" stroke-linejoin="round"/>
<path d="M102.038 37.5039C99.9292 36.4156 98.2425 35.7763 99.9292 32.6748" stroke="#747474" stroke-linecap="round" stroke-linejoin="round"/>
<mask id="path-12-inside-2_54625_66593" fill="white">
<path d="M105.736 35.6443C105.736 36.5272 105.02 37.243 104.137 37.243C103.254 37.243 102.539 36.5272 102.539 35.6443C102.539 34.7613 102.938 33.4903 104.137 33.4903C105.337 33.4903 105.736 34.7613 105.736 35.6443Z"/>
</mask>
<path d="M105.736 35.6443C105.736 36.5272 105.02 37.243 104.137 37.243C103.254 37.243 102.539 36.5272 102.539 35.6443C102.539 34.7613 102.938 33.4903 104.137 33.4903C105.337 33.4903 105.736 34.7613 105.736 35.6443Z" stroke="#747474" stroke-width="2" mask="url(#path-12-inside-2_54625_66593)"/>
<path d="M169.404 46.7104C168.618 47.8197 167.494 49.7693 169.404 49.7693C171.373 49.7693 169.979 47.8015 169.404 46.7104Z" stroke="#747474" stroke-linecap="round" stroke-linejoin="round"/>
<path d="M165.068 31.3871C165.068 31.3871 164.85 35.1874 164.216 38.0119C163.986 39.0359 163.274 39.8516 162.582 40.64C160.954 42.4926 160.18 45.3201 165.068 45.3201" stroke="#747474" stroke-linecap="round" stroke-linejoin="round"/>
<path d="M170.874 31.3871C170.874 31.3871 171.092 35.1874 171.726 38.0119C171.956 39.0359 172.668 39.8516 173.361 40.64C174.988 42.4926 175.762 45.3201 170.874 45.3201" stroke="#747474" stroke-linecap="round" stroke-linejoin="round"/>
<circle cx="166.452" cy="39.4744" r="0.5" transform="rotate(-23.2921 166.452 39.4744)" fill="#747474"/>
<circle cx="168.445" cy="40.3275" r="0.5" transform="rotate(-23.2921 168.445 40.3275)" fill="#747474"/>
<circle cx="166.95" cy="41.2816" r="0.5" transform="rotate(-23.2921 166.95 41.2816)" fill="#747474"/>
<circle cx="167.908" cy="38.553" r="0.5" transform="rotate(-23.2921 167.908 38.553)" fill="#747474"/>
<path d="M164.825 43.3564C165.901 43.3564 166.883 44.1181 168.002 44.1274C169.154 44.1369 170.06 43.3564 171.175 43.3564" stroke="#747474" stroke-linecap="round" stroke-linejoin="round"/>
<path fill-rule="evenodd" clip-rule="evenodd" d="M234.629 34.2548C232.734 33.8334 230.592 34.8888 229.713 37.5287C232.388 38.5741 233.869 41.5089 233.05 44.3193C232.183 47.2931 229.07 49.0015 226.096 48.1351C223.122 47.2686 221.414 44.1555 222.281 41.1816C223.1 38.3681 225.931 36.6872 228.752 37.248C229.764 34.1628 232.376 32.7293 234.846 33.2786C237.284 33.8206 239.35 36.2308 239.572 40.343L241.215 38.4882C241.399 38.2815 241.715 38.2624 241.921 38.4456C242.128 38.6287 242.147 38.9447 241.964 39.1514L239.507 41.9242C239.323 42.1308 239.007 42.1499 238.801 41.9668L236.028 39.5096C235.821 39.3264 235.802 39.0104 235.985 38.8038C236.169 38.5971 236.485 38.578 236.691 38.7612L238.575 40.4305C238.381 36.6037 236.508 34.6725 234.629 34.2548ZM226.376 47.175C228.82 47.8869 231.378 46.4831 232.09 44.0395C232.802 41.5959 231.398 39.0379 228.954 38.3259C226.511 37.614 223.953 39.0178 223.241 41.4614C222.529 43.905 223.932 46.463 226.376 47.175Z" fill="#747474"/>
<path d="M306.804 35.9849L304.472 39.1507C304.467 39.1573 304.472 39.1666 304.48 39.1666L306.21 39.1666C306.219 39.1666 306.223 39.1765 306.218 39.183L303.376 42.6151" stroke="#747474" stroke-linecap="round"/>
<path d="M285.195 35.9849L287.527 39.1507C287.532 39.1573 287.528 39.1666 287.519 39.1666L285.79 39.1666C285.781 39.1666 285.776 39.1765 285.782 39.183L288.624 42.6151" stroke="#747474" stroke-linecap="round"/>
<mask id="path-24-inside-3_54625_66593" fill="white">
<path d="M291.902 48.5792C291.735 48.4949 291.634 48.3202 291.637 48.133L291.65 47.4583C291.65 47.4566 291.649 47.4552 291.647 47.4552L291.446 47.4508C290.612 47.4325 289.949 46.7418 289.965 45.908V45.908C289.981 45.0743 290.669 44.4132 291.503 44.4314L291.704 44.4358C291.706 44.4359 291.707 44.4345 291.707 44.4329L291.72 43.7574C291.727 43.3832 292.129 43.148 292.472 43.2988C293.581 43.7861 294.774 44.0632 296.019 44.0904C297.264 44.1177 298.466 43.893 299.593 43.4546C299.941 43.3189 300.334 43.5715 300.327 43.9457L300.314 44.622C300.314 44.6233 300.315 44.6244 300.317 44.6245L300.49 44.6282C301.323 44.6465 301.986 45.3372 301.971 46.171V46.171C301.955 47.0047 301.266 47.6658 300.433 47.6476L300.26 47.6438C300.258 47.6438 300.257 47.6448 300.257 47.6461L300.245 48.3213C300.241 48.5085 300.134 48.6787 299.963 48.7556C298.702 49.3244 297.337 49.6218 295.915 49.5906C294.494 49.5595 293.141 49.2027 291.902 48.5792Z"/>
</mask>
<path d="M291.902 48.5792C291.735 48.4949 291.634 48.3202 291.637 48.133L291.65 47.4583C291.65 47.4566 291.649 47.4552 291.647 47.4552L291.446 47.4508C290.612 47.4325 289.949 46.7418 289.965 45.908V45.908C289.981 45.0743 290.669 44.4132 291.503 44.4314L291.704 44.4358C291.706 44.4359 291.707 44.4345 291.707 44.4329L291.72 43.7574C291.727 43.3832 292.129 43.148 292.472 43.2988C293.581 43.7861 294.774 44.0632 296.019 44.0904C297.264 44.1177 298.466 43.893 299.593 43.4546C299.941 43.3189 300.334 43.5715 300.327 43.9457L300.314 44.622C300.314 44.6233 300.315 44.6244 300.317 44.6245L300.49 44.6282C301.323 44.6465 301.986 45.3372 301.971 46.171V46.171C301.955 47.0047 301.266 47.6658 300.433 47.6476L300.26 47.6438C300.258 47.6438 300.257 47.6448 300.257 47.6461L300.245 48.3213C300.241 48.5085 300.134 48.6787 299.963 48.7556C298.702 49.3244 297.337 49.6218 295.915 49.5906C294.494 49.5595 293.141 49.2027 291.902 48.5792Z" stroke="#747474" stroke-width="2" mask="url(#path-24-inside-3_54625_66593)"/>
<mask id="path-25-inside-4_54625_66593" fill="white">
<path d="M292.032 42.1072C291.863 42.0266 291.758 41.8541 291.758 41.6668V40.992C291.758 40.9903 291.757 40.9889 291.755 40.9889H291.554C290.72 40.9889 290.044 40.3129 290.044 39.479V39.479C290.044 38.645 290.72 37.969 291.554 37.969H291.755C291.757 37.969 291.758 37.9676 291.758 37.966V37.2903C291.758 36.916 292.156 36.6721 292.502 36.8153C293.62 37.2782 294.818 37.5292 296.063 37.5292C297.308 37.5292 298.506 37.2782 299.624 36.8152C299.97 36.672 300.367 36.9159 300.367 37.2902V37.9666C300.367 37.9679 300.368 37.969 300.37 37.969H300.543C301.377 37.969 302.053 38.645 302.053 39.479V39.479C302.053 40.3129 301.377 40.9889 300.543 40.9889H300.37C300.368 40.9889 300.367 40.99 300.367 40.9913V41.6667C300.367 41.8539 300.263 42.0264 300.094 42.107C298.844 42.7033 297.485 43.0305 296.063 43.0305C294.641 43.0305 293.282 42.7034 292.032 42.1072Z"/>
</mask>
<path d="M292.032 42.1072C291.863 42.0266 291.758 41.8541 291.758 41.6668V40.992C291.758 40.9903 291.757 40.9889 291.755 40.9889H291.554C290.72 40.9889 290.044 40.3129 290.044 39.479V39.479C290.044 38.645 290.72 37.969 291.554 37.969H291.755C291.757 37.969 291.758 37.9676 291.758 37.966V37.2903C291.758 36.916 292.156 36.6721 292.502 36.8153C293.62 37.2782 294.818 37.5292 296.063 37.5292C297.308 37.5292 298.506 37.2782 299.624 36.8152C299.97 36.672 300.367 36.9159 300.367 37.2902V37.9666C300.367 37.9679 300.368 37.969 300.37 37.969H300.543C301.377 37.969 302.053 38.645 302.053 39.479V39.479C302.053 40.3129 301.377 40.9889 300.543 40.9889H300.37C300.368 40.9889 300.367 40.99 300.367 40.9913V41.6667C300.367 41.8539 300.263 42.0264 300.094 42.107C298.844 42.7033 297.485 43.0305 296.063 43.0305C294.641 43.0305 293.282 42.7034 292.032 42.1072Z" stroke="#747474" stroke-width="2" mask="url(#path-25-inside-4_54625_66593)"/>
<mask id="path-26-inside-5_54625_66593" fill="white">
<path d="M292.069 35.5788C291.898 35.5012 291.792 35.3306 291.789 35.1433L291.778 34.4686C291.778 34.4669 291.777 34.4656 291.775 34.4656L291.574 34.4692C290.74 34.4841 290.054 33.8202 290.041 32.9864V32.9864C290.028 32.1525 290.694 31.4645 291.528 31.4497L291.729 31.4461C291.731 31.446 291.732 31.4447 291.732 31.443L291.722 30.7675C291.716 30.3932 292.11 30.1423 292.458 30.2793C293.583 30.7222 294.784 30.9517 296.029 30.9295C297.274 30.9073 298.468 30.635 299.578 30.1521C299.922 30.0028 300.324 30.2395 300.329 30.6138L300.34 31.2901C300.34 31.2914 300.341 31.2925 300.342 31.2924L300.515 31.2894C301.349 31.2745 302.035 31.9384 302.048 32.7722V32.7722C302.061 33.606 301.395 34.294 300.561 34.3089L300.388 34.312C300.387 34.312 300.386 34.3131 300.386 34.3144L300.396 34.9896C300.399 35.1768 300.298 35.3512 300.13 35.4348C298.889 36.0534 297.535 36.4047 296.113 36.4301C294.692 36.4554 293.328 36.1526 292.069 35.5788Z"/>
</mask>
<path d="M292.069 35.5788C291.898 35.5012 291.792 35.3306 291.789 35.1433L291.778 34.4686C291.778 34.4669 291.777 34.4656 291.775 34.4656L291.574 34.4692C290.74 34.4841 290.054 33.8202 290.041 32.9864V32.9864C290.028 32.1525 290.694 31.4645 291.528 31.4497L291.729 31.4461C291.731 31.446 291.732 31.4447 291.732 31.443L291.722 30.7675C291.716 30.3932 292.11 30.1423 292.458 30.2793C293.583 30.7222 294.784 30.9517 296.029 30.9295C297.274 30.9073 298.468 30.635 299.578 30.1521C299.922 30.0028 300.324 30.2395 300.329 30.6138L300.34 31.2901C300.34 31.2914 300.341 31.2925 300.342 31.2924L300.515 31.2894C301.349 31.2745 302.035 31.9384 302.048 32.7722V32.7722C302.061 33.606 301.395 34.294 300.561 34.3089L300.388 34.312C300.387 34.312 300.386 34.3131 300.386 34.3144L300.396 34.9896C300.399 35.1768 300.298 35.3512 300.13 35.4348C298.889 36.0534 297.535 36.4047 296.113 36.4301C294.692 36.4554 293.328 36.1526 292.069 35.5788Z" stroke="#747474" stroke-width="2" mask="url(#path-26-inside-5_54625_66593)"/>
<path d="M294.007 37.6803V35.8369" stroke="#747474" stroke-linecap="round"/>
<path d="M297.993 37.6803V35.8369" stroke="#747474" stroke-linecap="round"/>
<path d="M294.007 44.1793V42.7505" stroke="#747474" stroke-linecap="round"/>
<path d="M297.993 44.1793V42.7505" stroke="#747474" stroke-linecap="round"/>
<circle cx="360" cy="39.0002" r="3.97379" stroke="#747474"/>
<path d="M361.974 39C361.974 37.91 361.09 37.0264 360 37.0264" stroke="#747474" stroke-linecap="round"/>
<path fill-rule="evenodd" clip-rule="evenodd" d="M351.607 39.0717C354.408 35.301 357.28 33.5274 360.034 33.5244C362.787 33.5214 365.625 35.2873 368.358 39.0717C365.625 42.856 362.787 44.622 360.034 44.6189C357.28 44.6159 354.408 42.8424 351.607 39.0717ZM350.368 39.0717L350.36 39.0827L350.394 39.1076L350.654 39.4647C353.58 43.4777 356.764 45.6153 360.033 45.6189C363.306 45.6225 366.455 43.4886 369.311 39.4593L369.542 39.1331L369.6 39.092L369.585 39.0717L369.6 39.0513L369.542 39.0103L369.311 38.6841C366.455 34.6547 363.306 32.5208 360.033 32.5244C356.764 32.528 353.58 34.6657 350.654 38.6787L350.394 39.0358L350.36 39.0607L350.368 39.0717Z" fill="#747474"/>
<path d="M364.866 45.6187C364.079 46.7279 362.956 48.6775 364.866 48.6775C366.834 48.6775 365.44 46.7097 364.866 45.6187Z" stroke="#747474" stroke-linecap="round" stroke-linejoin="round"/>
<path d="M353.612 36.3247L354.526 37.239" stroke="#747474" stroke-linecap="round"/>
<path d="M353.612 42.0903L354.526 41.176" stroke="#747474" stroke-linecap="round"/>
<path d="M366.34 36.3247L365.426 37.239" stroke="#747474" stroke-linecap="round"/>
<path d="M366.34 42.0903L365.426 41.176" stroke="#747474" stroke-linecap="round"/>
<path fill-rule="evenodd" clip-rule="evenodd" d="M40.4595 96.6525L40.112 96.293L39.7525 96.6405C37.2017 99.1062 36.0263 102.149 36.2523 105.352C34.4816 104.294 32.333 103.829 30.1263 104.157L29.6302 104.231L29.7057 104.727C30.4447 109.583 35.063 112.952 40 112.257C44.937 112.952 49.5553 109.583 50.2943 104.727L50.3698 104.231L49.8737 104.157C47.6715 103.829 45.5271 104.292 43.7584 105.345C44.0068 102.175 42.917 99.1947 40.4595 96.6525ZM42.6611 106.114C43.1416 103.076 42.3138 100.209 40.0882 97.7212C37.7835 100.138 36.8783 103.067 37.3432 106.117C38.5111 107.073 39.4387 108.323 40 109.789C40.5619 108.322 41.4912 107.07 42.6611 106.114ZM39.4132 111.318C35.3512 111.667 31.6453 108.968 30.789 105.086C34.8583 104.73 38.562 107.357 39.4132 111.318ZM49.211 105.086C48.3547 108.968 44.6488 111.667 40.5868 111.318C41.438 107.357 45.1417 104.73 49.211 105.086Z" fill="#747474"/>
<path d="M97.15 100.442C101.813 98.7989 105.358 98.7644 110.219 100.236C113.143 101.122 114.633 104.303 113.806 107.244C113.665 107.746 113.16 108.058 112.648 107.956L109.804 107.39C109.406 107.311 109.096 106.999 109.018 106.601L108.56 104.262C108.521 104.064 108.367 103.908 108.169 103.87C105.318 103.325 102.68 103.307 99.5919 103.88C99.4167 103.913 99.2731 104.038 99.2149 104.206L98.3562 106.69C98.2351 107.04 97.9303 107.294 97.5641 107.351L94.8202 107.776C94.2517 107.864 93.7263 107.455 93.6717 106.883L93.6165 106.305C93.3743 103.766 94.7445 101.289 97.15 100.442Z" stroke="#747474"/>
<mask id="path-41-inside-6_54625_66593" fill="white">
<path d="M171.858 96.6415H174.905C176.554 96.6415 177.894 97.9732 177.905 99.6227L177.963 108.933C177.973 110.597 176.627 111.952 174.963 111.952H161.031C159.374 111.952 158.031 110.609 158.031 108.952V99.6415C158.031 97.9846 159.374 96.6415 161.031 96.6415H164.142C164.289 95.801 165.022 95.1621 165.904 95.1621H170.096C170.978 95.1621 171.711 95.801 171.858 96.6415Z"/>
</mask>
<path d="M171.858 96.6415H174.905C176.554 96.6415 177.894 97.9732 177.905 99.6227L177.963 108.933C177.973 110.597 176.627 111.952 174.963 111.952H161.031C159.374 111.952 158.031 110.609 158.031 108.952V99.6415C158.031 97.9846 159.374 96.6415 161.031 96.6415H164.142C164.289 95.801 165.022 95.1621 165.904 95.1621H170.096C170.978 95.1621 171.711 95.801 171.858 96.6415Z" stroke="#747474" stroke-width="2" stroke-linejoin="round" mask="url(#path-41-inside-6_54625_66593)"/>
<circle cx="168" cy="104" r="3.97405" stroke="#747474"/>
<mask id="path-43-inside-7_54625_66593" fill="white">
<path d="M235.858 96.6415H238.905C240.554 96.6415 241.894 97.9732 241.905 99.6227L241.963 108.933C241.973 110.597 240.627 111.952 238.963 111.952H225.031C223.374 111.952 222.031 110.609 222.031 108.952V99.6415C222.031 97.9846 223.374 96.6415 225.031 96.6415H228.142C228.289 95.801 229.022 95.1621 229.904 95.1621H234.096C234.978 95.1621 235.711 95.801 235.858 96.6415Z"/>
</mask>
<path d="M235.858 96.6415H238.905C240.554 96.6415 241.894 97.9732 241.905 99.6227L241.963 108.933C241.973 110.597 240.627 111.952 238.963 111.952H225.031C223.374 111.952 222.031 110.609 222.031 108.952V99.6415C222.031 97.9846 223.374 96.6415 225.031 96.6415H228.142C228.289 95.801 229.022 95.1621 229.904 95.1621H234.096C234.978 95.1621 235.711 95.801 235.858 96.6415Z" stroke="#747474" stroke-width="2" stroke-linejoin="round" mask="url(#path-43-inside-7_54625_66593)"/>
<path d="M236.474 104C236.474 101.529 234.471 99.5259 232 99.5259C230.743 99.5259 229.608 100.044 228.795 100.878" stroke="#747474" stroke-linecap="round"/>
<path d="M227.526 104C227.526 106.471 229.529 108.474 232 108.474C233.227 108.474 234.338 107.98 235.147 107.181" stroke="#747474" stroke-linecap="round"/>
<path d="M236.485 105.571C236.445 105.627 236.362 105.627 236.322 105.571L234.71 103.316C234.662 103.249 234.71 103.157 234.791 103.157L238.016 103.157C238.098 103.157 238.145 103.249 238.098 103.316L236.485 105.571Z" fill="#747474"/>
<path d="M227.707 102.429C227.667 102.373 227.584 102.373 227.545 102.429L225.932 104.684C225.885 104.751 225.932 104.843 226.013 104.843L229.239 104.843C229.32 104.843 229.367 104.751 229.32 104.684L227.707 102.429Z" fill="#747474"/>
<rect x="293.692" y="95.4863" width="4.61594" height="10.0956" rx="2.30797" stroke="#747474"/>
<path d="M290.553 101.474V103.093C290.553 106.102 292.992 108.54 296 108.54V108.54M301.447 101.474V103.093C301.447 106.102 299.008 108.54 296 108.54V108.54M296 108.54V111.366H299.863H292.158" stroke="#747474" stroke-linecap="round"/>
<rect x="357.692" y="95.4863" width="4.61594" height="10.0956" rx="2.30797" stroke="#747474"/>
<path d="M354.553 101.474V103.093C354.553 106.102 356.992 108.54 360 108.54V108.54M365.447 101.474V103.093C365.447 106.102 363.008 108.54 360 108.54V108.54M360 108.54V111.366H363.863H356.158" stroke="#747474" stroke-linecap="round"/>
<path d="M354 97L366 109" stroke="#747474" stroke-miterlimit="10" stroke-linecap="round" stroke-linejoin="round"/>
<mask id="path-53-inside-8_54625_66593" fill="white">
<path d="M31 163C31 161.343 32.3431 160 34 160H45.9101C47.567 160 48.9101 161.343 48.9101 163V172.505V173C48.9101 174.657 47.567 176 45.9101 176H42.8673H33.0176C31.9033 176 31 175.097 31 173.982V173.982V163Z"/>
</mask>
<path d="M39.1254 171.81L38.7524 172.143L38.7524 172.143L39.1254 171.81ZM42.2686 168.29L41.8957 167.957L42.2686 168.29ZM45.2709 168.311L45.6485 167.984L45.2709 168.311ZM31.3745 174.314L34.8919 170.336L34.1428 169.674L30.6255 173.651L31.3745 174.314ZM37.1343 170.331L38.7524 172.143L39.4983 171.477L37.8802 169.665L37.1343 170.331ZM38.7524 172.143L42.4944 176.333L43.2403 175.667L39.4983 171.477L38.7524 172.143ZM39.4983 172.143L42.6416 168.623L41.8957 167.957L38.7524 171.477L39.4983 172.143ZM44.8933 168.639L48.5325 172.833L49.2878 172.177L45.6485 167.984L44.8933 168.639ZM42.6416 168.623C43.2437 167.949 44.3008 167.957 44.8933 168.639L45.6485 167.984C44.6611 166.846 42.8992 166.833 41.8957 167.957L42.6416 168.623ZM34.8919 170.336C35.487 169.663 36.536 169.661 37.1343 170.331L37.8802 169.665C36.883 168.548 35.1346 168.552 34.1428 169.674L34.8919 170.336ZM34 161H45.9101V159H34V161ZM32 173.982V163H30V173.982H32ZM45.9101 175H42.8673V177H45.9101V175ZM42.8673 175H33.0176V177H42.8673V175ZM47.9101 163V172.505H49.9101V163H47.9101ZM47.9101 172.505V173H49.9101V172.505H47.9101ZM30 173.982C30 175.649 31.351 177 33.0176 177V175C32.4556 175 32 174.544 32 173.982H30ZM45.9101 177C48.1193 177 49.9101 175.209 49.9101 173H47.9101C47.9101 174.105 47.0147 175 45.9101 175V177ZM45.9101 161C47.0147 161 47.9101 161.895 47.9101 163H49.9101C49.9101 160.791 48.1193 159 45.9101 159V161ZM34 159C31.7909 159 30 160.791 30 163H32C32 161.895 32.8954 161 34 161V159Z" fill="#747474" mask="url(#path-53-inside-8_54625_66593)"/>
<circle cx="36.1021" cy="164.894" r="1.37334" stroke="#747474"/>
<path d="M109.5 172.588L109.5 163.412C109.5 162.632 108.793 162 107.921 162L96.0789 162C95.2069 162 94.5 162.632 94.5 163.412L94.5 172.588C94.5 173.368 95.2069 174 96.0789 174L107.921 174C108.793 174 109.5 173.368 109.5 172.588Z" stroke="#747474"/>
<path d="M113.5 164.5L109.5 167.13V169.87L113.5 172.5V164.5Z" stroke="#747474" stroke-linejoin="round"/>
<path fill-rule="evenodd" clip-rule="evenodd" d="M99.4239 164.717C99.2286 164.521 98.912 164.521 98.7168 164.717C98.5215 164.912 98.5215 165.229 98.7168 165.424L101.293 168L98.7168 170.576C98.5215 170.771 98.5215 171.088 98.7168 171.283C98.912 171.478 99.2286 171.478 99.4239 171.283L102 168.707L104.576 171.283C104.771 171.478 105.088 171.478 105.283 171.283C105.479 171.088 105.479 170.771 105.283 170.576L102.707 168L105.283 165.424C105.479 165.229 105.479 164.912 105.283 164.717C105.088 164.521 104.771 164.521 104.576 164.717L102 167.293L99.4239 164.717Z" fill="#747474"/>
<path d="M173.5 172.588L173.5 163.412C173.5 162.632 172.793 162 171.921 162L160.079 162C159.207 162 158.5 162.632 158.5 163.412L158.5 172.588C158.5 173.368 159.207 174 160.079 174L171.921 174C172.793 174 173.5 173.368 173.5 172.588Z" stroke="#747474"/>
<path d="M177.5 164.5L173.5 167.13V169.87L177.5 172.5V164.5Z" stroke="#747474" stroke-linejoin="round"/>
<path d="M159.001 160.5L173.627 175.126" stroke="#747474" stroke-linecap="round"/>
<path d="M235 173.819H226.2C223.9 173.819 222.1 172.019 222.1 169.719C222.1 167.419 223.9 165.619 226.2 165.619C226.5 165.619 226.8 165.619 227 165.719" stroke="#747474" stroke-miterlimit="10" stroke-linecap="round" stroke-linejoin="round"/>
<path d="M228.7 162.519C229.7 161.519 231.1 160.919 232.7 160.919C235.9 160.919 238.4 163.519 238.4 166.619C238.4 166.719 238.4 166.819 238.4 167.019C240.3 167.019 241.8 168.519 241.8 170.419C241.8 171.619 241.2 172.719 240.2 173.319" stroke="#747474" stroke-miterlimit="10" stroke-linecap="round" stroke-linejoin="round"/>
<path d="M224.6 161.019L239.6 175.919" stroke="#747474" stroke-miterlimit="10" stroke-linecap="round" stroke-linejoin="round"/>
<path d="M305.9 170.419C305.9 172.319 304.4 173.819 302.5 173.819H290.2C287.9 173.819 286.1 172.019 286.1 169.719C286.1 167.419 287.9 165.619 290.2 165.619C290.5 165.619 290.8 165.619 291 165.719C291.4 163.019 293.8 160.919 296.7 160.919C299.9 160.919 302.4 163.519 302.4 166.619C302.4 166.719 302.4 166.819 302.4 167.019C304.3 167.119 305.9 168.619 305.9 170.419Z" stroke="#747474" stroke-miterlimit="10" stroke-linejoin="round"/>
<path d="M359.995 161.224H353.786C353.234 161.224 352.786 161.671 352.786 162.224L352.786 173.776C352.786 174.329 353.233 174.776 353.785 174.776C358.186 174.776 363.937 174.776 366.219 174.776C366.771 174.776 367.214 174.329 367.214 173.776V168.026" stroke="#747474" stroke-linecap="round" stroke-linejoin="round"/>
<path d="M359.995 168L368.571 159.425M368.571 159.425H363.446M368.571 159.425V164.549" stroke="#747474" stroke-linecap="round" stroke-linejoin="round"/>
</svg>
